<?xml version="1.0" encoding="UTF-8" standalone="no"?>
<!-- Created with Inkscape (http://www.inkscape.org/) -->

<svg
   version="1.1"
   id="svg8363"
   width="169.33333"
   height="168"
   viewBox="0 0 169.33333 168"
   sodipodi:docname="artificer-symbol.svg"
   inkscape:version="1.1.2 (b8e25be833, 2022-02-05)"
   xmlns:inkscape="http://www.inkscape.org/namespaces/inkscape"
   xmlns:sodipodi="http://sodipodi.sourceforge.net/DTD/sodipodi-0.dtd"
   xmlns="http://www.w3.org/2000/svg"
   xmlns:svg="http://www.w3.org/2000/svg">
  <defs
     id="defs8367" />
  <sodipodi:namedview
     id="namedview8365"
     pagecolor="#ffffff"
     bordercolor="#666666"
     borderopacity="1.0"
     inkscape:pageshadow="2"
     inkscape:pageopacity="0.0"
     inkscape:pagecheckerboard="0"
     showgrid="false"
     inkscape:zoom="3.6744298"
     inkscape:cx="56.879574"
     inkscape:cy="140.42995"
     inkscape:window-width="3440"
     inkscape:window-height="1377"
     inkscape:window-x="-8"
     inkscape:window-y="-8"
     inkscape:window-maximized="1"
     inkscape:current-layer="g8369" />
  <g
     inkscape:groupmode="layer"
     inkscape:label="Image"
     id="g8369">
    <path
       style="fill:#ff0000;fill-opacity:1;stroke-width:1.33333"
       d="m 72.800002,154.47363 c -1.93912,-9.13755 -3.21653,-10.52046 -13.6143,-14.73867 l -7.60332,-3.08456 -5.08084,3.36235 c -9.02877,5.97494 -10.27653,5.91533 -17.00427,-0.8124 -3.32287,-3.32287 -6.04157,-6.64835 -6.04157,-7.38996 0,-0.74162 1.8,-4.27377 4,-7.84922 2.2,-3.57546 3.96507,-7.33447 3.92239,-8.35337 -0.0427,-1.01889 -1.69268,-5.15253 -3.66666,-9.18587 -3.36062,-6.866553 -4.08883,-7.503062 -11.44073,-9.999993 C 7.2842817,93.369869 5.5204817,90.622712 6.5341417,81.257029 c 0.72788,-6.725149 1.32503,-7.237598 10.9417703,-9.389732 l 7.1381,-1.597434 3.60454,-9.432979 c 3.35716,-8.785583 3.46328,-9.672569 1.54628,-12.923963 -1.13204,-1.920041 -3.16116,-5.415702 -4.50915,-7.768137 l -2.45089,-4.277153 5.2571,-5.383766 c 7.26169,-7.436642 9.09006,-7.730434 17.10445,-2.748422 l 6.81085,4.233861 9.07897,-3.654905 c 8.57422,-3.451712 9.15323,-3.958012 10.41486,-9.107016 2.77963,-11.3443211 3.67127,-12.1187787 13.95255,-12.1187787 h 9.19896 l 1.83328,7.3333327 c 2.16098,8.644143 3.967188,10.602011 13.400548,14.525771 l 7.06733,2.939619 7.55859,-4.623019 c 8.69584,-5.318592 9.56252,-5.132653 16.70515,3.583985 l 4.83361,5.898784 -4.59057,7.623396 -4.59057,7.623398 3.75452,8.8807 3.75452,8.8807 7.70857,2.065254 c 8.63391,2.313164 11.39819,5.08665 11.39819,11.436119 0,8.428225 -1.82011,10.681004 -10.79484,13.360976 l -8.30192,2.47906 -3.78824,8.94447 -3.78824,8.94448 4.00329,6.31252 c 2.2018,3.47189 4.00328,7.27014 4.00328,8.44055 0,1.17041 -2.71947,4.79697 -6.04325,8.05901 l -6.04325,5.93101 -7.49092,-3.92201 c -8.7926,-4.60351 -9.56461,-4.61508 -19.3448,-0.28982 -7.221728,3.19379 -7.513658,3.52591 -8.938338,10.16896 -0.81002,3.77704 -1.47278,7.7378 -1.47278,8.80171 0,1.52628 -2.21192,1.93437 -10.48447,1.93437 h -10.48448 z m 22.03518,-21.50641 C 126.53428,127.10733 143.76988,92.645379 129.90121,62.853992 126.06186,54.606665 113.98803,42.505616 105.54849,38.446385 99.939722,35.748693 96.896932,35.275369 84.822422,35.222319 c -13.03099,-0.05725 -14.75682,0.243734 -21.78399,3.799154 -8.4769,4.288923 -19.20737,14.812194 -23.28117,22.83163 -9.83406,19.358736 -5.31598,44.216977 10.6448,58.567087 14.28424,12.84277 25.57948,16.03232 44.43312,12.54703 z m -24.26954,-7.68004 c -11.58769,-4.00441 -21.59588,-13.56317 -26.55385,-25.361408 -4.46446,-10.623833 -0.71123,-12.593955 4.80127,-2.520253 5.8644,10.716781 11.42004,16.437701 20.54498,21.156171 5.71577,2.95561 8.75617,5.33682 8.75939,6.86024 0.003,1.28334 -0.14507,2.31375 -0.3284,2.28981 -0.18334,-0.024 -3.43386,-1.11499 -7.22339,-2.42456 z m 20.41562,1.54921 c -1.67046,-1.67046 1.27426,-4.58937 7.60199,-7.53536 9.298978,-4.32931 15.964628,-10.6556 21.181708,-20.103329 7.15579,-12.958549 10.75687,-10.750173 4.47394,2.743649 -4.18174,8.9811 -11.10886,16.50503 -18.67466,20.28357 -7.031148,3.51153 -13.604328,5.59011 -14.582978,4.61147 z m -10.08016,-19.85492 c -3.50557,-14.541286 -3.64451,-14.669329 -20.64325,-19.024001 -5.70174,-1.460648 -10.65924,-2.948172 -11.01667,-3.305608 -0.60549,-0.605482 5.7664,-2.656357 19.14302,-6.161436 7.51694,-1.969665 10.43064,-6.13732 13.1769,-18.84779 1.26861,-5.871471 2.73721,-10.198092 3.26355,-9.614716 0.52635,0.583377 2.03425,5.557433 3.3509,11.053458 3.09967,12.93887 6.11304,15.943244 19.280148,19.222634 5.5,1.369824 10.48283,2.919572 11.07296,3.443884 0.59012,0.52431 -1.80988,1.733489 -5.33334,2.687064 -3.52346,0.953573 -9.49996,2.862776 -13.281108,4.24267 -7.63121,2.784935 -9.24836,5.384798 -12.52647,20.138501 -0.94433,4.25013 -2.10515,7.96743 -2.57959,8.26065 -0.47444,0.29322 -2.23262,-5.14967 -3.90705,-12.09531 z m -12.93226,0.45195 c -5.45542,-4.23858 -8.41736,-7.973243 -8.46879,-10.678149 -0.0617,-3.243312 1.29142,-2.934268 6.65185,1.519281 5.81233,4.828988 10.36636,12.147378 7.55899,12.147378 -1.04257,0 -3.62649,-1.34483 -5.74205,-2.98851 z m 26.15352,1.59169 c 0,-2.2153 12.982458,-14.603173 15.304088,-14.603173 1.87732,0 1.89114,0.399491 0.1316,3.802075 -3.72891,7.210898 -15.435688,15.402708 -15.435688,10.801098 z m -52,-33.716559 c 0,-5.368615 6.69306,-16.663223 13.50235,-22.785358 5.97896,-5.375601 20.53145,-12.511904 22.17104,-10.872314 1.66979,1.669788 -1.3808,4.641142 -8.18028,7.967818 -8.15229,3.988544 -15.35281,11.45754 -20.21639,20.970187 -3.63009,7.10006 -7.27672,9.465257 -7.27672,4.719667 z M 118.8271,68.413567 C 112.40816,58.114788 107.55986,53.540315 96.932202,47.755271 c -10.485,-5.707398 -4.08862,-8.080562 6.803058,-2.524046 2.84566,1.45175 7.52513,4.763707 10.39881,7.359906 7.63215,6.895192 16.5215,25.830806 12.1263,25.830806 -0.65743,0 -4.0024,-4.503766 -7.43327,-10.00837 z m -60.704738,4.472138 c 0,-2.451901 14.36598,-16.140312 15.92684,-15.175649 2.05881,1.272413 -0.101,4.637104 -7.1436,11.128744 -6.11263,5.634421 -8.78324,6.864915 -8.78324,4.046905 z m 45.581218,-2.43748 c -4.639558,-3.360882 -9.581218,-9.89097 -9.581218,-12.660981 0,-0.421916 1.71093,0.11764 3.80208,1.199009 4.600458,2.378991 12.197918,10.77629 12.197918,13.482079 0,2.594979 -0.0846,2.568357 -6.41878,-2.020107 z"
       id="path8373" />
    <path
       style="fill:#ac0000;stroke-width:0.544302"
       d="m 74.588912,161.24951 c -0.120155,-0.37421 -0.754033,-3.10854 -1.408622,-6.0763 -2.310089,-10.47345 -3.022732,-11.20878 -16.118007,-16.6309 l -5.532464,-2.29073 -3.992824,2.69151 c -8.13465,5.48348 -10.33227,6.03592 -13.844672,3.48025 -2.336211,-1.69984 -8.560548,-8.1848 -9.448694,-9.84432 -0.449794,-0.84045 -0.124698,-1.84461 1.630421,-5.0361 1.20573,-2.19248 3.052549,-5.7277 4.104041,-7.85605 l 1.911804,-3.86971 -1.316511,-3.49764 c -1.687173,-4.48241 -3.936228,-8.96638 -5.627903,-11.22042 -1.445469,-1.925993 -4.16383,-3.497856 -8.818892,-5.099432 -4.542156,-1.562735 -7.4414203,-3.4782 -8.4355317,-5.573132 -1.024318,-2.158593 -1.2072968,-9.240018 -0.3211946,-12.430494 0.8342896,-3.003922 2.5591426,-3.989583 10.1346093,-5.79138 3.764906,-0.89547 7.053364,-1.836204 7.307686,-2.090529 0.844298,-0.844294 6.485215,-16.97912 6.485215,-18.549783 0,-0.926472 -1.62133,-4.361569 -4.055338,-8.592009 l -4.055339,-7.0484 3.919263,-4.006251 c 8.779128,-8.973983 9.648312,-9.066957 20.599834,-2.20349 l 4.179929,2.619618 6.146201,-2.470516 C 66.226607,26.56938 69.225413,25.002808 70.142279,23.53686 70.56211,22.8656 71.55962,19.989496 72.358966,17.145517 74.914094,8.054669 75.44394,7.6868795 86.348157,7.4349196 l 8.019791,-0.1853105 0.612351,2.362519 c 2.368345,9.1372929 3.013523,11.0383919 4.391799,12.9410499 1.863362,2.57229 4.816182,4.369984 12.135402,7.388091 l 5.49913,2.267589 4.77745,-2.896915 c 9.68672,-5.87377 11.08595,-6.199047 14.34753,-3.335341 1.09946,0.965335 3.69247,3.782667 5.76226,6.260736 l 3.76324,4.505579 -4.58711,7.647445 -4.58712,7.647444 3.74989,8.788866 c 2.06243,4.833878 4.01886,8.955099 4.34761,9.158276 0.32874,0.203178 2.71355,0.920236 5.29957,1.593467 6.24741,1.626423 10.11951,3.494354 11.62826,5.609578 1.08309,1.518445 1.23813,2.395392 1.23813,7.002849 0,4.491598 -0.16764,5.493277 -1.13865,6.803777 -2.19055,2.95641 -5.2401,4.346639 -16.6104,7.57237 -0.79584,0.225776 -8.30414,16.940171 -8.27555,18.422381 0.006,0.31894 1.38946,2.7639 3.07401,5.43325 1.68455,2.66935 3.46818,5.91479 3.96362,7.21208 0.89098,2.333 0.88534,2.38096 -0.51713,4.39977 -0.77986,1.12259 -3.4942,4.10443 -6.03185,6.62631 l -4.61391,4.58526 -6.69716,-3.40309 c -7.96545,-4.04756 -9.92266,-4.42396 -14.66716,-2.82069 -5.11546,1.72863 -11.400752,5.02675 -12.536923,6.57856 -0.866796,1.1839 -2.416342,7.37528 -3.424673,13.68365 -0.230425,1.44162 -0.646538,2.06959 -1.527932,2.30586 -0.666199,0.17858 -5.199163,0.32804 -10.073258,0.33213 -6.615579,0.006 -8.917373,-0.16504 -9.080462,-0.67295 z M 88.334473,134.1495 c 17.360827,-1.85674 30.007237,-9.21256 38.680447,-22.49859 5.16252,-7.90819 7.78209,-17.070521 7.76101,-27.145243 C 134.7449,69.678762 130.4297,59.660348 119.32146,48.625628 112.07053,41.422682 105.41394,37.280173 98.857243,35.890387 94.575463,34.982803 75.425292,34.818511 71.03205,35.651672 61.507541,37.457959 46.176737,49.834116 40.179545,60.558099 c -1.072688,1.918147 -2.687425,5.732916 -3.588304,8.477265 -1.415684,4.312604 -1.673395,6.031053 -1.899074,12.663277 -0.387322,11.382571 1.590288,19.587019 6.846759,28.404959 5.800482,9.73053 18.467355,19.77487 28.67605,22.73899 6.143135,1.78368 10.633378,2.10755 18.119497,1.30691 z"
       id="path59221" />
    <path
       style="fill:#ac0000;stroke-width:0.544302"
       d="M 84.064195,116.96437 C 83.73131,116.0996 82.514742,111.80719 81.360709,107.4257 77.365947,92.258866 77.508389,92.396753 61.179435,87.889737 55.749466,86.390992 50.943256,84.961316 50.498969,84.71268 c -0.867283,-0.485356 5.297935,-2.590886 15.36159,-5.246252 10.08691,-2.661502 12.635918,-5.698074 15.761868,-18.776739 1.385874,-5.798363 2.61997,-9.797439 3.023443,-9.797439 0.36666,0 1.027868,2.126374 4.062097,13.063251 2.901623,10.458901 5.730711,13.059317 17.780943,16.343739 8.66493,2.361719 11.3525,3.265069 11.3525,3.815813 0,0.262452 -3.93533,1.728102 -8.7452,3.256999 -17.40227,5.531615 -17.380979,5.510469 -21.499092,21.352898 -1.329899,5.11613 -2.532676,9.41674 -2.672838,9.5569 -0.140162,0.14016 -0.5272,-0.4527 -0.860085,-1.31748 z"
       id="path59260" />
    <path
       style="fill:#ac0000;stroke-width:0.544302"
       d="m 106.16698,71.830046 c -3.95541,-2.735747 -8.707406,-7.638206 -10.376707,-10.705263 -0.803987,-1.477187 -1.331574,-2.816014 -1.172418,-2.975171 0.537719,-0.537719 5.620765,2.605242 8.180885,5.05842 3.82989,3.66992 6.87814,7.761805 6.87814,9.23303 0,1.680234 -0.26346,1.63437 -3.5099,-0.611016 z"
       id="path59299" />
    <path
       style="fill:#ac0000;stroke-width:0.544302"
       d="m 124.52981,76.101448 c -0.89288,-1.141996 -3.65707,-5.138057 -6.14264,-8.880134 -5.79012,-8.717147 -10.49123,-13.332596 -18.27832,-17.945272 -3.26952,-1.936696 -6.535843,-4.10891 -7.258499,-4.827142 -1.2036,-1.196232 -1.235014,-1.350032 -0.374153,-1.831795 3.053114,-1.708608 15.730162,4.578499 22.123862,10.9722 6.37895,6.378955 14.19506,21.946598 12.08049,24.061173 -0.34024,0.340236 -1.10331,-0.209347 -2.15074,-1.54903 z"
       id="path59338" />
    <path
       style="fill:#ac0000;stroke-width:0.544302"
       d="m 42.520758,76.268257 c -0.933744,-3.720332 4.773187,-14.432239 11.59129,-21.756849 5.64833,-6.067936 22.850237,-14.73556 23.819208,-12.001923 0.359345,1.013775 -2.865059,3.697936 -7.628529,6.350383 -9.600375,5.345785 -14.624703,10.390658 -20.802402,20.887464 -3.049819,5.182084 -5.12033,7.815723 -6.144557,7.815723 -0.28052,0 -0.656275,-0.582659 -0.83501,-1.294798 z"
       id="path59377" />
    <path
       style="fill:#ac0000;stroke-width:0.544302"
       d="m 58.51248,72.967461 c 0,-2.390509 14.369507,-16.05167 15.594967,-14.826211 0.88142,0.88142 -0.837803,3.71499 -4.607963,7.5947 -6.356841,6.541553 -10.987004,9.58907 -10.987004,7.231511 z"
       id="path59416" />
    <path
       style="fill:#ac0000;stroke-width:0.544302"
       d="m 72.120033,125.5197 c -9.950958,-3.70985 -17.166098,-9.03117 -22.588189,-16.65927 -4.60923,-6.48452 -8.325453,-15.85085 -6.862809,-17.296948 0.955058,-0.944254 3.420238,1.879577 7.25976,8.315961 5.741285,9.624407 10.47345,14.154067 20.664284,19.780017 4.921416,2.71691 6.969976,4.51645 6.969976,6.12272 0,1.63658 -0.401028,1.61724 -5.443022,-0.26248 z"
       id="path59455" />
    <path
       style="fill:#ac0000;stroke-width:0.544302"
       d="m 69.495078,108.022 c -5.928853,-3.95914 -11.155485,-10.908902 -9.470983,-12.593404 1.306041,-1.306041 8.501703,4.640924 12.056505,9.964284 3.604865,5.39833 2.794855,6.22199 -2.585522,2.62912 z"
       id="path59494" />
    <path
       style="fill:#ac0000;stroke-width:0.544302"
       d="m 94.729208,109.71027 c -0.524821,-0.84918 0.679339,-2.71234 4.017239,-6.21574 4.124063,-4.328559 9.472843,-8.513807 10.880703,-8.513807 1.1563,0 1.15624,8.51e-4 -0.1659,2.609981 -3.03069,5.980776 -13.303138,14.431586 -14.732042,12.119566 z"
       id="path59533" />
    <path
       style="fill:#ac0000;stroke-width:0.544302"
       d="m 90.921895,126.04387 c -0.655278,-1.06026 3.011666,-3.98787 8.81943,-7.04124 9.222845,-4.84881 13.673925,-9.10383 19.857555,-18.98286 4.34487,-6.941396 5.8142,-8.849162 6.81549,-8.849162 2.07433,0 -1.35957,9.667352 -5.90974,16.637512 -3.19241,4.89028 -8.46517,10.18188 -12.61747,12.66256 -7.00539,4.18517 -15.997465,7.13912 -16.965265,5.57319 z"
       id="path59572" />
  </g>
</svg>
