<?xml version="1.0" encoding="UTF-8" standalone="no"?>
<!-- Created with Inkscape (http://www.inkscape.org/) -->

<svg
   version="1.1"
   id="svg8363"
   width="169.33333"
   height="168"
   viewBox="0 0 169.33333 168"
   sodipodi:docname="artificer-symbol.svg"
   inkscape:version="1.1.2 (b8e25be833, 2022-02-05)"
   xmlns:inkscape="http://www.inkscape.org/namespaces/inkscape"
   xmlns:sodipodi="http://sodipodi.sourceforge.net/DTD/sodipodi-0.dtd"
   xmlns="http://www.w3.org/2000/svg"
   xmlns:svg="http://www.w3.org/2000/svg">
  <defs
     id="defs8367" />
  <sodipodi:namedview
     id="namedview8365"
     pagecolor="#ffffff"
     bordercolor="#666666"
     borderopacity="1.0"
     inkscape:pageshadow="2"
     inkscape:pageopacity="0.0"
     inkscape:pagecheckerboard="0"
     showgrid="false"
     inkscape:zoom="1.8372149"
     inkscape:cx="2.1772085"
     inkscape:cy="161.65773"
     inkscape:window-width="3440"
     inkscape:window-height="1377"
     inkscape:window-x="-8"
     inkscape:window-y="-8"
     inkscape:window-maximized="1"
     inkscape:current-layer="g8369" />
  <g
     inkscape:groupmode="layer"
     inkscape:label="Image"
     id="g8369">
    <path
       style="fill:#ff0000;fill-opacity:1;stroke-width:1.33333"
       d="m 72.800002,154.47363 c -1.93912,-9.13755 -3.21653,-10.52046 -13.6143,-14.73867 l -7.60332,-3.08456 -5.08084,3.36235 c -9.02877,5.97494 -10.27653,5.91533 -17.00427,-0.8124 -3.32287,-3.32287 -6.04157,-6.64835 -6.04157,-7.38996 0,-0.74162 1.8,-4.27377 4,-7.84922 2.2,-3.57546 3.96507,-7.33447 3.92239,-8.35337 -0.0427,-1.01889 -1.69268,-5.15253 -3.66666,-9.18587 -3.36062,-6.866553 -4.08883,-7.503062 -11.44073,-9.999993 C 7.2842817,93.369869 5.5204817,90.622712 6.5341417,81.257029 c 0.72788,-6.725149 1.32503,-7.237598 10.9417703,-9.389732 l 7.1381,-1.597434 3.60454,-9.432979 c 3.35716,-8.785583 3.46328,-9.672569 1.54628,-12.923963 -1.13204,-1.920041 -3.16116,-5.415702 -4.50915,-7.768137 l -2.45089,-4.277153 5.2571,-5.383766 c 7.26169,-7.436642 9.09006,-7.730434 17.10445,-2.748422 l 6.81085,4.233861 9.07897,-3.654905 c 8.57422,-3.451712 9.15323,-3.958012 10.41486,-9.107016 2.77963,-11.3443211 3.67127,-12.1187787 13.95255,-12.1187787 h 9.19896 l 1.83328,7.3333327 c 2.16098,8.644143 3.967188,10.602011 13.400548,14.525771 l 7.06733,2.939619 7.55859,-4.623019 c 8.69584,-5.318592 9.56252,-5.132653 16.70515,3.583985 l 4.83361,5.898784 -4.59057,7.623396 -4.59057,7.623398 3.75452,8.8807 3.75452,8.8807 7.70857,2.065254 c 8.63391,2.313164 11.39819,5.08665 11.39819,11.436119 0,8.428225 -1.82011,10.681004 -10.79484,13.360976 l -8.30192,2.47906 -3.78824,8.94447 -3.78824,8.94448 4.00329,6.31252 c 2.2018,3.47189 4.00328,7.27014 4.00328,8.44055 0,1.17041 -2.71947,4.79697 -6.04325,8.05901 l -6.04325,5.93101 -7.49092,-3.92201 c -8.7926,-4.60351 -9.56461,-4.61508 -19.3448,-0.28982 -7.221728,3.19379 -7.513658,3.52591 -8.938338,10.16896 -0.81002,3.77704 -1.47278,7.7378 -1.47278,8.80171 0,1.52628 -2.21192,1.93437 -10.48447,1.93437 h -10.48448 z m 22.03518,-21.50641 C 126.53428,127.10733 143.76988,92.645379 129.90121,62.853992 126.06186,54.606665 113.98803,42.505616 105.54849,38.446385 99.939722,35.748693 96.896932,35.275369 84.822422,35.222319 c -13.03099,-0.05725 -14.75682,0.243734 -21.78399,3.799154 -8.4769,4.288923 -19.20737,14.812194 -23.28117,22.83163 -9.83406,19.358736 -5.31598,44.216977 10.6448,58.567087 14.28424,12.84277 25.57948,16.03232 44.43312,12.54703 z m -24.26954,-7.68004 c -11.58769,-4.00441 -21.59588,-13.56317 -26.55385,-25.361408 -4.46446,-10.623833 -0.71123,-12.593955 4.80127,-2.520253 5.8644,10.716781 11.42004,16.437701 20.54498,21.156171 5.71577,2.95561 8.75617,5.33682 8.75939,6.86024 0.003,1.28334 -0.14507,2.31375 -0.3284,2.28981 -0.18334,-0.024 -3.43386,-1.11499 -7.22339,-2.42456 z m 20.41562,1.54921 c -1.67046,-1.67046 1.27426,-4.58937 7.60199,-7.53536 9.298978,-4.32931 15.964628,-10.6556 21.181708,-20.103329 7.15579,-12.958549 10.75687,-10.750173 4.47394,2.743649 -4.18174,8.9811 -11.10886,16.50503 -18.67466,20.28357 -7.031148,3.51153 -13.604328,5.59011 -14.582978,4.61147 z m -10.08016,-19.85492 c -3.50557,-14.541286 -3.64451,-14.669329 -20.64325,-19.024001 -5.70174,-1.460648 -10.65924,-2.948172 -11.01667,-3.305608 -0.60549,-0.605482 5.7664,-2.656357 19.14302,-6.161436 7.51694,-1.969665 10.43064,-6.13732 13.1769,-18.84779 1.26861,-5.871471 2.73721,-10.198092 3.26355,-9.614716 0.52635,0.583377 2.03425,5.557433 3.3509,11.053458 3.09967,12.93887 6.11304,15.943244 19.280148,19.222634 5.5,1.369824 10.48283,2.919572 11.07296,3.443884 0.59012,0.52431 -1.80988,1.733489 -5.33334,2.687064 -3.52346,0.953573 -9.49996,2.862776 -13.281108,4.24267 -7.63121,2.784935 -9.24836,5.384798 -12.52647,20.138501 -0.94433,4.25013 -2.10515,7.96743 -2.57959,8.26065 -0.47444,0.29322 -2.23262,-5.14967 -3.90705,-12.09531 z m -12.93226,0.45195 c -5.45542,-4.23858 -8.41736,-7.973243 -8.46879,-10.678149 -0.0617,-3.243312 1.29142,-2.934268 6.65185,1.519281 5.81233,4.828988 10.36636,12.147378 7.55899,12.147378 -1.04257,0 -3.62649,-1.34483 -5.74205,-2.98851 z m 26.15352,1.59169 c 0,-2.2153 12.982458,-14.603173 15.304088,-14.603173 1.87732,0 1.89114,0.399491 0.1316,3.802075 -3.72891,7.210898 -15.435688,15.402708 -15.435688,10.801098 z m -52,-33.716559 c 0,-5.368615 6.69306,-16.663223 13.50235,-22.785358 5.97896,-5.375601 20.53145,-12.511904 22.17104,-10.872314 1.66979,1.669788 -1.3808,4.641142 -8.18028,7.967818 -8.15229,3.988544 -15.35281,11.45754 -20.21639,20.970187 -3.63009,7.10006 -7.27672,9.465257 -7.27672,4.719667 z M 118.8271,68.413567 C 112.40816,58.114788 107.55986,53.540315 96.932202,47.755271 c -10.485,-5.707398 -4.08862,-8.080562 6.803058,-2.524046 2.84566,1.45175 7.52513,4.763707 10.39881,7.359906 7.63215,6.895192 16.5215,25.830806 12.1263,25.830806 -0.65743,0 -4.0024,-4.503766 -7.43327,-10.00837 z m -60.704738,4.472138 c 0,-2.451901 14.36598,-16.140312 15.92684,-15.175649 2.05881,1.272413 -0.101,4.637104 -7.1436,11.128744 -6.11263,5.634421 -8.78324,6.864915 -8.78324,4.046905 z m 45.581218,-2.43748 c -4.639558,-3.360882 -9.581218,-9.89097 -9.581218,-12.660981 0,-0.421916 1.71093,0.11764 3.80208,1.199009 4.600458,2.378991 12.197918,10.77629 12.197918,13.482079 0,2.594979 -0.0846,2.568357 -6.41878,-2.020107 z"
       id="path8373" />
  </g>
</svg>
