<?xml version="1.0" encoding="UTF-8" standalone="no"?>
<!-- Created with Inkscape (http://www.inkscape.org/) -->

<svg
   version="1.1"
   id="svg57361"
   width="144"
   height="172"
   viewBox="0 0 144 172"
   sodipodi:docname="barbarian-symbol.svg"
   inkscape:version="1.1.2 (b8e25be833, 2022-02-05)"
   xmlns:inkscape="http://www.inkscape.org/namespaces/inkscape"
   xmlns:sodipodi="http://sodipodi.sourceforge.net/DTD/sodipodi-0.dtd"
   xmlns="http://www.w3.org/2000/svg"
   xmlns:svg="http://www.w3.org/2000/svg">
  <defs
     id="defs57365" />
  <sodipodi:namedview
     id="namedview57363"
     pagecolor="#ffffff"
     bordercolor="#666666"
     borderopacity="1.0"
     inkscape:pageshadow="2"
     inkscape:pageopacity="0.0"
     inkscape:pagecheckerboard="0"
     showgrid="false"
     inkscape:zoom="11.313709"
     inkscape:cx="90.067726"
     inkscape:cy="128.33988"
     inkscape:window-width="3440"
     inkscape:window-height="1377"
     inkscape:window-x="-8"
     inkscape:window-y="-8"
     inkscape:window-maximized="1"
     inkscape:current-layer="g57367" />
  <g
     inkscape:groupmode="layer"
     inkscape:label="Image"
     id="g57367">
    <path
       style="fill:#ff0000;fill-opacity:1;stroke-width:1.33333"
       d="m 66.660113,163.266 c -3.67434,-2.9456 -3.69943,-3.06244 -1.57189,-7.32093 1.70579,-3.41434 2.01801,-6.93142 1.47954,-16.66667 -0.79151,-14.31023 -0.79229,-11.32211 0.009,-34.73045 0.57711,-16.856245 0.401,-18.761346 -2.10989,-22.824053 -1.50676,-2.437984 -2.73956,-5.411878 -2.73956,-6.608653 0,-3.107376 -1.94265,-2.686828 -3.82358,0.827737 -0.88414,1.652032 -3.42074,4.044332 -5.63689,5.316226 -2.92814,1.680522 -5.4625,5.414576 -9.27327,13.662973 -2.88416,6.24275 -5.84384,11.35045 -6.57708,11.35045 -0.73324,0 -5.15427,-3.75 -9.82452,-8.333345 -11.51534,-11.301036 -15.88346,-20.378992 -20.20951,-41.999996 -0.74869,-3.74169 -0.50037,-4.333333 1.81874,-4.333333 1.47719,0 4.32646,-0.623775 6.3317,-1.386165 l 3.64589,-1.386167 -5.53523,-5.639993 -5.53524,-5.639995 4.76572,-7.97384 c 2.62114,-4.385612 6.3604,-9.701104 8.30947,-11.812204 3.97915,-4.309945 13.37112,-11.4949688 15.02576,-11.4949688 0.59504,0 1.72611,2.5500001 2.51349,5.6666658 3.07456,12.169962 5.40057,16.271759 12.13521,21.399867 3.65957,2.786593 7.32357,6.536593 8.14222,8.333333 1.79859,3.947466 3.72708,4.259979 3.72708,0.603975 0,-2.956651 8.73809,-13.337175 11.22693,-13.337175 2.53129,0 9.8375,8.323944 10.82539,12.333334 1.04611,4.245684 3.28102,4.924969 3.28102,0.997242 0,-1.736376 2.91276,-4.796848 8.33333,-8.75593 8.156197,-5.957132 8.390017,-6.301982 10.999997,-16.223487 1.46667,-5.575339 3.33931,-10.3593826 4.16142,-10.6312095 2.34272,-0.7746036 15.00557,10.7353135 20.0476,18.2222925 7.45963,11.076918 7.56123,11.98641 1.98996,17.813392 -4.70177,4.917564 -4.77847,5.15333 -2.27747,7 1.42349,1.051068 3.63306,1.911033 4.91014,1.911033 1.2771,0 2.66782,1.089625 3.0905,2.421391 1.26314,3.979809 -1.66611,16.359685 -5.93697,25.091369 -4.06614,8.31312 -20.19093,27.153914 -23.23955,27.153914 -0.91923,0 -3.71305,-4.86103 -6.20848,-10.80229 -2.64953,-6.308143 -5.868557,-11.716612 -7.737367,-13 -1.76012,-1.208744 -4.91012,-3.911171 -7,-6.005391 -3.45572,-3.462904 -3.79978,-3.562713 -3.79978,-1.102301 0,1.487956 -1.53367,4.528043 -3.40816,6.755748 -3.36594,4.000193 -3.40004,4.269889 -2.75194,21.768974 0.36092,9.74522 0.64333,24.69924 0.62756,33.23115 -0.0217,11.7262 0.49778,16.53057 2.12815,19.68336 2.10727,4.07501 2.08224,4.19916 -1.08988,5.4052 -1.78568,0.67892 -3.64039,1.8714 -4.12157,2.64997 -1.40594,2.27486 -5.09978,1.63031 -9.11809,-1.59105 z M 53.793593,68.238383 c 3.43502,-1.776322 3.93378,-2.764432 3.93378,-7.793351 0,-5.871328 -1.9694,-8.805833 -7.14845,-10.651531 -1.98445,-0.707214 -2.29111,-0.41384 -1.53029,1.464 3.37854,8.33879 3.5031,9.509282 1.43711,13.504462 -3.25811,6.300497 -2.89378,6.683404 3.30785,3.47642 z m 42.60045,0.634693 c 0,-0.769751 -0.91541,-3.169751 -2.03424,-5.333333 -1.83165,-3.542016 -1.82358,-4.341154 0.081,-8.024175 2.96868,-5.740803 1.9985,-6.988677 -3.04675,-3.918821 -3.85232,2.344002 -4.33333,3.300142 -4.33333,8.613694 0,5.149262 0.50779,6.252499 3.66666,7.966215 4.41413,2.394701 5.66667,2.548636 5.66667,0.69642 z m 13.333327,80.714914 v -5.01116 l -6,0.8224 c -3.3,0.4523 -5.999997,0.48829 -5.999997,0.08 0,-2.40147 24.402957,-31.99767 24.972997,-30.28756 0.22139,0.66417 -0.80697,4.72303 -2.28524,9.0197 -3.54121,10.29271 -3.49041,10.54047 1.97891,9.65292 2.56667,-0.4165 4.66667,-0.43009 4.66667,-0.0301 0,1.02857 -12.82389,17.02257 -15.28886,19.06831 -1.7754,1.47337 -2.04448,1.03716 -2.04448,-3.31448 z m -83.371797,-4.90751 c -9.7398,-11.94468 -9.74168,-11.95075 -3.37731,-10.93305 2.97868,0.47632 5.41578,0.50661 5.41578,0.0673 0,-0.43928 -1.75809,-5.61596 -3.90686,-11.50374 -2.14878,-5.88779 -3.70648,-10.70506 -3.46157,-10.70506 0.65934,0 27.36843,33.02863 27.36843,33.84397 0,0.38338 -3,0.34175 -6.66667,-0.0925 -5.92181,-0.70135 -6.66894,-0.50812 -6.68708,1.72949 -0.0501,6.17754 -2.16257,5.59219 -8.68472,-2.40642 z"
       id="path57451" />
    <path
       style="fill:#ac0000;stroke-width:0.394044"
       d="m 71.005852,165.52037 c -3.050855,-1.08821 -6.973779,-4.38815 -6.973779,-5.86629 0,-0.52969 0.545569,-2.12893 1.212378,-3.55387 1.634433,-3.49271 1.893678,-7.4716 1.309438,-20.09743 -0.363604,-7.85781 -0.347164,-13.4562 0.07942,-27.04656 0.672262,-21.417354 0.602891,-22.232248 -2.39398,-28.122726 -1.197612,-2.353949 -2.177472,-4.691892 -2.177472,-5.195424 0,-1.389303 -0.700125,-2.937039 -1.328581,-2.937039 -0.571781,0 -2.032477,1.577537 -3.793985,4.097469 -0.54181,0.775088 -2.353559,2.41914 -4.026112,3.65345 -4.002911,2.954061 -5.532111,5.116159 -10.120603,14.309257 -4.292594,8.600263 -5.721911,11.039483 -6.468844,11.039483 -1.559255,0 -12.785137,-10.842229 -16.931456,-16.352809 C 16.154268,85.144476 12.504548,77.932231 10.664638,72.201124 9.3753906,68.185268 6.8519556,57.837949 6.3104976,54.347023 6.0017844,52.356662 6.3874568,52.00447 9.225793,51.68481 c 2.08929,-0.235303 7.533913,-1.875572 8.703188,-2.621958 0.47382,-0.302456 -0.515214,-1.49322 -4.98603,-6.003007 l -5.577095,-5.62571 3.743718,-6.107675 c 6.272127,-10.232639 9.291007,-13.97491 15.094321,-18.711257 2.888617,-2.357532 8.252107,-6.1134848 8.730037,-6.1134848 0.702949,0 1.551877,2.0740799 3.238649,7.9125918 3.055403,10.575822 4.902399,13.659861 11.372344,18.989083 4.740139,3.9044 7.409673,6.669369 8.498006,8.801807 0.972779,1.906035 2.231259,3.078257 2.991555,2.786505 0.324885,-0.124671 0.694923,-1.000519 0.844707,-1.999368 0.395667,-2.638481 2.718128,-6.262583 6.514225,-10.165157 2.492321,-2.562231 3.637416,-3.470937 4.373867,-3.470937 1.38106,0 3.828082,1.8699 6.240464,4.76867 2.735907,3.287524 3.891582,5.184765 4.804001,7.886577 0.421209,1.247268 1.017125,2.476313 1.324258,2.731211 0.787157,0.653284 1.690025,0.192961 1.935869,-0.986996 0.11482,-0.55109 0.293385,-1.415728 0.39681,-1.921417 0.322115,-1.574954 3.131909,-4.342273 8.846967,-8.713225 6.311636,-4.827225 7.459496,-6.27119 8.938656,-11.244461 2.54664,-8.562378 4.22667,-13.4827244 4.87847,-14.2876558 0.68542,-0.8464599 0.75764,-0.8548057 2.05273,-0.2372199 4.18407,1.9952441 14.31731,12.0228517 18.7607,18.5651377 3.94838,5.813445 5.19583,8.283325 5.19583,10.287477 0,1.937443 -0.34733,2.492849 -4.40784,7.048485 -3.67306,4.120939 -3.83425,4.859499 -1.43923,6.594441 0.90187,0.653308 2.36475,1.375515 3.25086,1.6049 0.8861,0.229384 2.0544,0.539158 2.59621,0.688382 0.61612,0.169691 1.26956,0.853344 1.74452,1.825202 0.69571,1.423517 0.72125,1.853123 0.30441,5.120528 -0.51745,4.055965 -1.15507,6.711953 -2.87868,11.990883 -1.74639,5.348691 -3.41214,8.763035 -6.55948,13.445175 -5.06081,7.528714 -15.70645,19.575893 -18.63815,21.091933 l -1.14563,0.59243 -1.38647,-2.08818 c -0.76256,-1.1485 -2.7229,-5.003006 -4.35633,-8.565577 -3.97031,-8.659453 -5.890705,-11.670974 -9.001084,-14.115329 -1.36988,-1.076546 -3.944813,-3.317236 -5.722071,-4.979307 -1.777259,-1.662076 -3.444315,-2.951319 -3.704569,-2.864988 -0.260254,0.08633 -0.56881,0.858794 -0.685675,1.716579 -0.26795,1.966723 -1.534961,4.410187 -3.746341,7.224919 -2.995456,3.812733 -2.869587,-0.959358 -1.549056,58.729783 0.219896,9.93942 0.464794,11.85939 1.968562,15.43333 1.776345,4.22175 1.80983,4.06252 -1.135176,5.39785 -1.424731,0.64601 -3.043242,1.62737 -3.596684,2.18081 -1.914748,1.91476 -2.655526,2.09726 -5.048284,1.24378 z M 52.760486,68.98989 c 4.38901,-2.111506 4.743965,-2.653139 4.902252,-7.480456 0.156991,-4.787731 -0.313588,-6.83422 -2.017802,-8.775215 -1.329026,-1.513675 -4.596826,-3.271405 -6.093962,-3.277906 -1.215132,-0.0053 -1.142794,0.684142 0.537097,5.118716 1.911343,5.045569 1.890364,6.405075 -0.167784,10.873051 -0.907474,1.970013 -1.649955,3.87588 -1.649955,4.235263 0,1.012964 1.389086,0.798435 4.490154,-0.693453 z m 43.759326,0.624492 c 0.256703,-0.808798 -0.311484,-2.548658 -2.109729,-6.460253 -0.670335,-1.458131 -1.218789,-3.030585 -1.218789,-3.494351 0,-0.463762 0.718807,-2.439575 1.597346,-4.390693 1.74397,-3.873113 1.858404,-5.154444 0.477857,-5.350626 -1.200402,-0.170582 -5.391918,2.123705 -6.790966,3.71713 -1.376989,1.568305 -1.753482,3.627754 -1.510274,8.261399 0.217063,4.135593 0.727436,4.905948 4.598697,6.941266 3.155603,1.659057 4.60365,1.885833 4.955858,0.776128 z"
       id="path23947" />
    <path
       style="fill:#ac0000;stroke-width:0.394044"
       d="m 109.99428,151.05789 c -0.13924,-1.33213 -0.25316,-3.37131 -0.25316,-4.5315 0,-1.16019 -0.13299,-2.10382 -0.29553,-2.09695 -0.16254,0.007 -2.15739,0.26723 -4.43299,0.57858 -2.2756,0.31135 -4.80696,0.57171 -5.625239,0.57858 l -1.487783,0.0125 0.593879,-1.14843 c 1.797563,-3.4761 15.262803,-20.18939 20.821133,-25.84355 l 3.09892,-3.15235 -0.22918,1.64972 c -0.12605,0.90734 -1.10498,4.36508 -2.17538,7.68385 -1.87549,5.8149 -2.18653,7.13981 -2.0542,8.75001 0.0576,0.70076 0.32229,0.72914 4.39577,0.47138 2.38396,-0.15085 4.33447,-0.14754 4.33447,0.007 0,1.21647 -15.15194,19.46289 -16.16211,19.46289 -0.15149,0 -0.38937,-1.08992 -0.5286,-2.42206 z"
       id="path23986" />
    <path
       style="fill:#ac0000;stroke-width:0.394044"
       d="m 30.862101,149.24399 c -2.009185,-1.87396 -10.883699,-12.66353 -11.755118,-14.29179 -0.698939,-1.30599 -0.05013,-1.60039 2.578378,-1.16997 2.967688,0.48596 6.882795,0.50278 6.882795,0.0296 0,-0.3525 -1.636769,-5.207 -5.30666,-15.73907 -1.008618,-2.89459 -1.76575,-5.33099 -1.682518,-5.41422 0.241283,-0.24129 13.46112,15.9377 24.784459,30.33224 2.33226,2.96484 2.577884,2.85203 -4.690299,2.15416 -5.953929,-0.57168 -6.800286,-0.32736 -6.800286,1.96309 0,1.99997 -0.718677,4.00768 -1.434581,4.00768 -0.313169,0 -1.472446,-0.84227 -2.57617,-1.8717 z"
       id="path24025" />
    <path
       style="fill:#ac0000;stroke-width:0.0246277"
       d="M 36.288946,106.23322 C 34.985965,105.8344 27.862586,99.440896 23.548723,94.798399 17.77769,88.587719 14.204761,82.773678 11.381681,74.999605 10.827469,73.473441 10.236187,71.659256 9.7415603,69.967354 c -0.083159,-0.28445 -0.1571997,-0.537188 -0.1645354,-0.56164 -0.01186,-0.03953 0.00105,-0.04363 0.1165886,-0.03694 l 0.1299263,0.0075 0.1315559,0.467926 c 0.6524973,2.320846 1.1800783,3.888166 1.9771693,5.873712 2.005875,4.996612 4.888613,10.318817 7.410062,13.680699 2.361123,3.148117 7.49806,8.570175 11.984399,12.649589 2.625479,2.38733 4.458879,3.76647 5.004543,3.76455 0.394694,-10e-4 1.04356,-0.80569 2.026369,-2.51179 0.910809,-1.58111 1.708031,-3.10528 3.909572,-7.474514 1.620954,-3.21699 2.192805,-4.33735 2.759211,-5.405785 1.815833,-3.425287 3.123748,-5.443601 4.548205,-7.018574 0.8448,-0.934069 1.824882,-1.799197 3.264148,-2.881299 1.352188,-1.016631 2.36997,-1.88019 3.25147,-2.758775 0.52495,-0.523215 0.669416,-0.695163 1.169081,-1.391467 0.965933,-1.346068 1.716168,-2.259667 2.417553,-2.94398 0.498984,-0.486839 0.839155,-0.712627 1.074342,-0.713099 0.166944,-3.35e-4 0.424922,0.197993 0.608487,0.46779 0.382594,0.562319 0.68804,1.609209 0.689805,2.364261 6.9e-4,0.28927 0.151355,0.786265 0.502472,1.657359 0.427917,1.06162 0.926604,2.133267 1.927688,4.142469 0.589541,1.183226 1.018482,2.095595 1.017234,2.163685 -2.71e-4,0.0155 -0.103841,-0.171302 -0.230129,-0.415117 -0.240692,-0.464691 -0.383503,-0.714062 -0.83918,-1.465349 -1.074217,-1.771091 -1.985782,-3.717712 -2.425981,-5.180611 -0.198029,-0.658109 -0.272234,-1.088202 -0.272234,-1.577881 0,-0.473184 -0.119211,-1.055691 -0.276402,-1.350615 -0.329051,-0.617362 -0.9156,-0.669451 -1.612981,-0.143243 -0.23831,0.179815 -0.611735,0.555973 -0.857761,0.864034 -0.253247,0.317106 -0.65393,0.921238 -0.898367,1.354524 -0.468444,0.830353 -0.695647,1.16343 -1.22635,1.797824 -0.300749,0.359508 -1.391326,1.454172 -1.826879,1.833724 -0.894423,0.779421 -1.782272,1.431882 -2.64748,1.945576 -0.97312,0.577763 -1.550311,1.03202 -2.352325,1.851309 -1.509519,1.542032 -2.962355,3.740474 -4.790943,7.249689 -0.626892,1.203055 -1.244055,2.471279 -2.277102,4.679267 -1.235011,2.639653 -2.226387,4.62248 -3.256897,6.514038 -1.191428,2.18693 -2.218182,3.80685 -2.817276,4.44485 -0.288371,0.3071 -0.419218,0.3774 -0.599673,0.32216 z"
       id="path24064" />
    <path
       style="fill:#ac0000;stroke-width:0.00870721"
       d="m 66.602184,103.91407 c 0.002,-0.0347 0.0077,-0.18851 0.01255,-0.34176 0.0049,-0.15325 0.02046,-0.63519 0.03467,-1.07099 0.162703,-4.989754 0.219763,-7.898382 0.199682,-10.178729 -0.01567,-1.77924 -0.06648,-2.95348 -0.178225,-4.118512 -0.02346,-0.244556 -0.08031,-0.741604 -0.08697,-0.760305 -0.0028,-0.0078 0.0023,-0.01058 0.01546,-0.0087 0.01825,0.0026 0.02084,0.01149 0.03886,0.133385 0.170435,1.152601 0.262846,2.461068 0.317929,4.50163 0.01506,0.55772 0.01501,3.82778 -7.1e-5,4.693188 -0.03449,1.979996 -0.06635,3.352523 -0.141162,6.081993 -0.01437,0.52439 -0.02849,0.9936 -0.03137,1.04269 l -0.0052,0.0892 h -0.08992 -0.08992 l 0.0037,-0.0631 z"
       id="path24103" />
    <path
       style="fill:#ac0000;stroke-width:0.0348289"
       d=""
       id="path24142" />
    <path
       style="fill:#ac0000;stroke-width:0.0348289"
       d="m 78.316724,86.489312 c -0.0064,-0.150516 0.164426,-0.91432 0.294156,-1.315344 0.242872,-0.750777 0.437739,-1.055583 1.395246,-2.182408 0.470127,-0.553259 1.231327,-1.568008 1.708816,-2.278005 1.28273,-1.907342 2.072177,-3.599436 2.342896,-5.021743 0.0392,-0.205925 0.102146,-0.535058 0.139891,-0.731406 0.03774,-0.196348 0.108326,-0.466707 0.156849,-0.600798 0.08557,-0.236454 0.08765,-0.238915 0.06905,-0.08168 -0.01054,0.08917 -0.03347,0.480992 -0.05094,0.870721 -0.01852,0.413191 -0.0546,0.802978 -0.08653,0.934987 -0.257601,1.064846 -0.8349,2.351429 -1.66438,3.709273 -0.551308,0.902481 -0.998387,1.516771 -1.888454,2.59475 -1.069712,1.29555 -1.495994,1.903986 -1.854139,2.646428 -0.157423,0.326341 -0.466965,1.172728 -0.541557,1.480791 -0.01285,0.05306 -0.01783,0.04696 -0.02091,-0.02557 z"
       id="path24181" />
    <path
       style="fill:#ac0000;stroke-width:0.0123139"
       d="m 65.983943,124.3115 c 1.88e-4,-0.24867 0.02256,-1.66647 0.03668,-2.32424 0.05474,-2.55025 0.119629,-4.60016 0.437546,-13.82147 0.07774,-2.25482 0.141342,-4.11806 0.141342,-4.14054 v -0.0409 h 0.09103 0.09103 l -0.0053,0.12622 c -0.0029,0.0694 -0.01615,0.49748 -0.02947,0.95125 -0.01331,0.45376 -0.06014,1.99145 -0.104068,3.41709 -0.182619,5.92725 -0.265029,9.1583 -0.314228,12.32002 -0.01413,0.90819 -0.03651,2.98021 -0.03673,3.4017 l -1.47e-4,0.27399 H 66.137744 65.98382 Z"
       id="path24220" />
    <path
       style="fill:#ac0000;stroke-width:0.0123139"
       d="m 66.624141,140.21899 c 0,-0.0275 -0.05229,-0.97377 -0.184809,-3.34428 -0.196647,-3.51772 -0.249005,-4.48781 -0.301069,-5.57817 -0.112183,-2.34946 -0.154152,-3.92576 -0.15434,-5.79675 l -1.03e-4,-1.02513 h 0.151978 0.151978 l 0.0079,1.81321 c 0.0043,0.99727 0.01338,2.12076 0.02014,2.49664 0.04431,2.46369 0.09572,4.10166 0.210019,6.69258 0.09494,2.15205 0.110234,2.50586 0.134916,3.12156 0.02497,0.62294 0.06195,1.59073 0.06195,1.62141 0,0.0109 -0.01654,0.0163 -0.04926,0.0163 -0.03423,0 -0.04926,-0.005 -0.04926,-0.0174 z"
       id="path24259" />
    <path
       style="fill:#ac0000;stroke-width:0.00390625"
       d="m 66.808442,146.34668 c -1.41e-4,-0.68661 -0.0026,-0.96607 -0.01357,-1.51856 -0.02496,-1.26122 -0.07402,-2.59111 -0.156394,-4.23978 -0.01078,-0.21566 -0.01866,-0.39306 -0.01751,-0.3942 0.0011,-0.001 0.0021,0.006 0.0021,0.0162 0,0.0161 0.0012,0.0188 0.01002,0.0221 0.01644,0.006 0.07283,0.005 0.08275,-0.002 0.008,-0.006 0.0087,-0.005 0.01037,0.003 9.92e-4,0.005 0.0046,0.0977 0.008,0.2062 0.0034,0.1085 0.01052,0.33174 0.01583,0.4961 0.04151,1.28386 0.06716,2.41684 0.08052,3.55664 0.0084,0.71862 0.004,2.39406 -0.0067,2.56347 -0.0019,0.0301 -0.0034,0.0361 -0.0088,0.0361 -0.006,0 -0.0065,-0.0541 -0.0066,-0.74512 z"
       id="path24298" />
    <path
       style="fill:#ac0000;stroke-width:0.00390625"
       d="m 64.542586,157.05566 c 0.04015,-0.0856 0.188763,-0.38775 0.368451,-0.74902 0.216946,-0.43618 0.302782,-0.61182 0.377006,-0.77148 0.729667,-1.56955 1.140736,-3.15512 1.350465,-5.20899 0.01778,-0.17407 0.05876,-0.62925 0.05876,-0.6526 0,-0.002 0.0045,-0.004 0.01,-0.004 0.0098,0 0.0099,4.1e-4 0.0077,0.0225 -0.0012,0.0124 -0.0066,0.0822 -0.01201,0.15528 -0.01971,0.2679 -0.04787,0.58677 -0.07624,0.86328 -0.20179,1.96668 -0.564837,3.49002 -1.169734,4.9082 -0.07225,0.16939 -0.11584,0.2669 -0.23126,0.5173 -0.146324,0.31744 -0.271583,0.60276 -0.380402,0.86649 l -0.03667,0.0889 h -0.141495 -0.141494 z"
       id="path24337" />
    <path
       style="fill:#ac0000;stroke-width:0.00390625"
       d="m 64.505389,161.41302 c -0.308013,-0.31692 -0.542972,-0.63755 -0.667887,-0.91143 -0.244903,-0.53696 -0.238659,-1.06937 0.02169,-1.84925 0.124267,-0.37224 0.303169,-0.79693 0.593208,-1.4082 l 0.07136,-0.15039 0.141444,-0.001 c 0.07779,-5.6e-4 0.141443,-1e-5 0.141443,0.001 0,0.001 -0.0247,0.0639 -0.0549,0.13915 -0.392325,0.97837 -0.66274,1.84719 -0.712254,2.28839 -0.0096,0.0856 -0.01132,0.13871 -0.0064,0.19727 0.03646,0.43367 0.349313,0.98599 0.947017,1.67187 0.02996,0.0344 0.05707,0.0656 0.06025,0.0693 0.0055,0.007 -0.0062,0.007 -0.238456,0.007 h -0.24424 z"
       id="path24376" />
    <path
       style="fill:#ac0000;stroke-width:0.00390625"
       d="m 70.271484,165.518 c -0.311756,-0.1353 -0.712017,-0.33303 -1.042968,-0.51522 -0.764119,-0.42065 -1.529243,-0.9295 -2.3125,-1.53793 -0.18051,-0.14023 -0.746512,-0.59487 -1.064454,-0.85504 -0.560553,-0.45869 -0.967711,-0.81605 -1.228412,-1.07819 l -0.06435,-0.0647 0.24342,-10e-4 0.243421,-0.001 0.0514,0.0566 c 0.233187,0.25665 0.566894,0.58644 0.864016,0.85387 1.118617,1.00683 2.486934,1.94716 3.779178,2.59712 0.446991,0.22482 0.817134,0.38588 1.25586,0.54646 l 0.02734,0.01 -0.363281,7e-5 -0.363281,8e-5 -0.02539,-0.011 z"
       id="path24415" />
    <path
       style="fill:#ac0000;stroke-width:0.0078125"
       d="m 72.929201,166.19923 c -0.75567,-0.0354 -1.558193,-0.23106 -2.454674,-0.59849 l -0.150474,-0.0617 0.349692,-0.004 0.349692,-0.004 0.167969,0.0576 c 0.714701,0.24491 1.171443,0.35919 1.632813,0.40856 0.116522,0.0125 0.458019,0.0124 0.558593,-9e-5 0.328449,-0.0408 0.579942,-0.11662 0.871094,-0.26248 0.465916,-0.23342 0.929843,-0.60043 1.64582,-1.30203 0.129818,-0.12721 0.2758,-0.26512 0.324404,-0.30646 0.552964,-0.47037 1.627655,-1.13544 2.740714,-1.69609 0.325391,-0.16389 0.456637,-0.2263 0.867187,-0.41233 0.545581,-0.24722 0.768906,-0.35112 0.988281,-0.4598 0.590557,-0.29254 0.881675,-0.50624 1.045817,-0.76769 0.105068,-0.16736 0.148073,-0.33422 0.147323,-0.57165 -8.37e-4,-0.26562 -0.05892,-0.54212 -0.208431,-0.99219 -0.147463,-0.4439 -0.311483,-0.85645 -0.840185,-2.11328 -0.261092,-0.62066 -0.33593,-0.8007 -0.33593,-0.80812 0,-0.002 0.02549,-0.004 0.05664,-0.004 l 0.05664,1.2e-4 0.0347,0.0761 c 0.04945,0.10836 0.262988,0.53353 0.442361,0.88073 0.324674,0.62846 0.658238,1.31018 0.812494,1.66052 0.203144,0.46139 0.334119,0.85106 0.387197,1.15198 0.02406,0.13642 0.02631,0.39351 0.0043,0.4961 -0.06633,0.30971 -0.24422,0.54339 -0.58734,0.77154 -0.326843,0.21733 -0.73982,0.40468 -1.738281,0.78857 -0.659876,0.25371 -0.951091,0.38008 -1.445312,0.62719 -0.386182,0.19309 -0.62313,0.32266 -0.966099,0.5283 -0.701227,0.42042 -1.257885,0.8366 -1.617347,1.20917 -0.134905,0.13982 -0.200768,0.22269 -0.323185,0.40664 -0.132092,0.1985 -0.232499,0.32345 -0.374505,0.46606 -0.448405,0.45032 -1.021469,0.71841 -1.726677,0.80778 -0.206996,0.0262 -0.501591,0.0376 -0.71533,0.0276 z"
       id="path24454" />
    <path
       style="fill:#ac0000;stroke-width:0.00390625"
       d="m 80.537901,156.08735 c -0.450142,-1.13085 -0.732001,-2.04481 -0.94007,-3.04829 -0.0098,-0.0473 -0.01872,-0.0899 -0.01981,-0.0947 l -0.002,-0.009 h 0.06843 c 0.03764,0 0.06843,7.3e-4 0.06843,0.002 0,0.004 0.06385,0.31018 0.08394,0.40266 0.233945,1.07685 0.538938,2.04399 0.901413,2.8584 l 0.04477,0.10059 -0.04534,4e-5 c -0.02493,2e-5 -0.05172,0.001 -0.05952,0.002 l -0.01418,0.002 -0.08608,-0.21625 z"
       id="path24493" />
    <path
       style="fill:#ac0000;stroke-width:0.00390625"
       d="m 79.612522,152.93264 c -0.02984,-0.001 -0.03625,-0.002 -0.0379,-0.008 -0.0064,-0.0217 -0.05588,-0.28255 -0.08791,-0.46372 -0.186795,-1.05668 -0.326261,-2.38461 -0.420099,-4 -0.0054,-0.0924 -0.01066,-0.17808 -0.01176,-0.19043 l -0.002,-0.0225 h 0.04096 0.04096 v 0.016 c 0,0.0329 0.0439,0.59 0.07045,0.89413 0.115268,1.32029 0.261489,2.45188 0.447466,3.46289 0.01893,0.10293 0.05292,0.28076 0.05842,0.30567 0.0021,0.01 0.0044,0.01 -0.09858,0.006 z"
       id="path24532" />
    <path
       style="fill:#ac0000;stroke-width:0.00390625"
       d="m 79.051343,148.2041 c -0.04714,-0.81621 -0.09606,-1.98551 -0.137254,-3.28027 -0.0099,-0.31201 -0.03285,-1.11245 -0.03524,-1.23047 -0.0012,-0.0612 -0.003,-0.11616 -0.0039,-0.12207 -0.0017,-0.0107 -0.0016,-0.0107 0.02128,-0.0107 h 0.02295 l 0.0022,0.0439 c 0.0012,0.0242 0.0032,0.0861 0.0044,0.1377 0.0059,0.26244 0.02438,0.86579 0.03917,1.27929 0.04037,1.12876 0.09623,2.21898 0.158287,3.08973 0.0042,0.059 0.0076,0.11395 0.0076,0.12207 v 0.0148 h -0.03849 -0.03849 z"
       id="path24571" />
    <path
       style="fill:#ac0000;stroke-width:0.00390625"
       d="m 78.867884,143.30176 c -0.01036,-0.39801 -0.02493,-0.99558 -0.0358,-1.46778 -0.01982,-0.86144 -0.0645,-2.88585 -0.0645,-2.92285 l -5e-6,-0.0381 h 0.04626 0.04626 l 0.0027,0.52832 c 0.0072,1.43147 0.02751,2.93926 0.05327,3.958 0.0021,0.0838 0.0039,0.16334 0.0039,0.17676 l 2.2e-5,0.0244 h -0.02265 -0.02265 z"
       id="path24610" />
    <path
       style="fill:#ac0000;stroke-width:0.00390625"
       d="m 78.766111,138.85645 c -0.0011,-0.009 -0.01624,-0.67051 -0.03371,-1.46973 -0.02319,-1.0608 -0.07732,-3.49666 -0.07806,-3.5127 -2.5e-5,-5.3e-4 0.04452,-9.7e-4 0.09898,-9.7e-4 h 0.09903 l 0.003,0.47168 c 0.0017,0.25942 0.0034,1.38442 0.0037,2.5 l 6.84e-4,2.02832 h -0.04588 -0.04588 z"
       id="path24649" />
    <path
       style="fill:#ac0000;stroke-width:0.00390625"
       d="m 78.654297,133.8673 c 0,-0.003 -0.02021,-0.90799 -0.04492,-2.01073 -0.02471,-1.10274 -0.04492,-2.01421 -0.04492,-2.0255 v -0.0205 h 0.126589 0.126588 l 0.0022,0.0361 c 0.0012,0.0199 0.0032,0.16269 0.0044,0.31738 0.0012,0.15469 0.0039,0.45352 0.0059,0.66406 0.0058,0.58943 0.0113,1.26004 0.01547,1.88477 0.0021,0.3126 0.0049,0.70151 0.0063,0.86426 l 0.0025,0.2959 h -0.100002 c -0.08541,0 -0.100002,-8.4e-4 -0.100002,-0.006 z"
       id="path24688" />
    <path
       style="fill:#ac0000;stroke-width:0.00390625"
       d="m 78.562913,129.7627 c -0.0013,-0.0263 -0.01559,-0.64815 -0.0318,-1.38184 -0.05001,-2.26387 -0.06769,-3.05662 -0.07044,-3.15918 l -0.0026,-0.0986 h 0.15087 0.15087 l 1.1e-5,0.0537 c 6e-6,0.0295 0.0035,0.28574 0.0078,0.56933 0.01938,1.28652 0.05076,3.74041 0.05079,3.97168 l 1.2e-5,0.0928 H 78.6918 78.56524 Z"
       id="path24727" />
    <path
       style="fill:#ac0000;stroke-width:0.00390625"
       d="m 78.457345,125.05176 c -0.0014,-0.0392 -0.01652,-0.70674 -0.03367,-1.4834 -0.01715,-0.77666 -0.03819,-1.72764 -0.04675,-2.11328 -0.0086,-0.38565 -0.01558,-0.70249 -0.01559,-0.7041 -8e-6,-0.002 0.07189,-0.003 0.159777,-0.003 h 0.159792 l 0.0022,0.0361 c 0.0012,0.0199 0.0067,0.29189 0.01221,0.60449 0.0055,0.3126 0.01431,0.81182 0.01957,1.10938 0.01189,0.67154 0.03157,1.86256 0.03688,2.23242 0.0022,0.15254 0.0048,0.30327 0.0057,0.33496 l 0.0017,0.0576 h -0.149673 -0.149673 z"
       id="path24766" />
    <path
       style="fill:#ac0000;stroke-width:0.00390625"
       d="m 78.361328,120.74563 c 0,-0.001 -0.01492,-0.68028 -0.03315,-1.50879 -0.05163,-2.34639 -0.0606,-2.76311 -0.0606,-2.81525 v -0.0485 h 0.162109 c 0.08916,0 0.162112,10e-4 0.162114,0.003 2e-6,0.002 0.0053,0.23847 0.01168,0.52636 0.02784,1.24759 0.07812,3.69747 0.07815,3.80762 l 1.1e-5,0.0381 h -0.160156 c -0.08809,0 -0.160156,-0.001 -0.160156,-0.002 z"
       id="path24805" />
    <path
       style="fill:#ac0000;stroke-width:0.00390625"
       d="m 78.262368,116.23926 c -0.0014,-0.0736 -0.01397,-0.66905 -0.0279,-1.32324 -0.01393,-0.6542 -0.03149,-1.48741 -0.03901,-1.85157 -0.0075,-0.36416 -0.01415,-0.68276 -0.01472,-0.70801 l -0.001,-0.0459 h 0.157227 l 0.157227,1e-5 8e-6,0.0322 c 5e-6,0.0177 0.0035,0.16407 0.0078,0.3252 0.01,0.37508 0.03562,1.40226 0.05078,2.0332 0.0096,0.40134 0.03908,1.65818 0.03908,1.66894 0,0.002 -0.07354,0.003 -0.16343,0.003 H 78.265 Z"
       id="path24844" />
    <path
       style="fill:#ac0000;stroke-width:0.00390625"
       d="m 78.177734,112.26562 c 0,-0.0247 -0.007,-0.38725 -0.01561,-0.80566 -0.01949,-0.94995 -0.04819,-2.39487 -0.05837,-2.93848 -0.0042,-0.22666 -0.0088,-0.45122 -0.01017,-0.49902 l -0.0025,-0.0869 h 0.139004 0.139005 l 10e-7,0.0166 c 10e-7,0.009 0.0044,0.15723 0.0097,0.3291 0.02559,0.82339 0.0654,2.21751 0.09358,3.27734 0.0096,0.36094 0.01814,0.67779 0.01898,0.70411 l 0.0015,0.0479 H 78.33525 78.177646 Z"
       id="path24883" />
    <path
       style="fill:#ac0000;stroke-width:0.00390625"
       d="m 78.09177,107.90918 c -1.5e-5,-0.0145 -0.0018,-0.10986 -0.0039,-0.21191 -0.01024,-0.48777 -0.0526,-2.8661 -0.06418,-3.60352 -0.0032,-0.2041 -0.0068,-0.40757 -0.0081,-0.45215 l -0.0022,-0.081 h 0.103663 0.103662 l 6e-6,0.0107 c 3e-6,0.006 0.0097,0.27617 0.02145,0.60059 0.03864,1.06279 0.07685,2.19139 0.107194,3.16601 0.0085,0.27393 0.01653,0.52046 0.01779,0.54785 l 0.0023,0.0498 h -0.138816 -0.138815 l -2.7e-5,-0.0264 z"
       id="path24922" />
    <path
       style="fill:#ac0000;stroke-width:0.00390625"
       d="m 78.01221,103.41113 c -0.0098,-0.55517 -0.03432,-2.27741 -0.04524,-3.18261 -0.0042,-0.349125 -0.0088,-0.726667 -0.01029,-0.838985 l -0.0026,-0.204215 0.05423,0.0011 0.05423,0.0011 0.0011,0.03125 c 0.02697,0.79966 0.150038,4.21276 0.155113,4.30176 l 0.0023,0.04 H 78.118007 78.01496 Z"
       id="path24961" />
    <path
       style="fill:#ac0000;stroke-width:0.00390625"
       d="m 77.957334,99.182131 c -0.0039,-0.0063 -0.01454,-1.116037 -0.02183,-2.279787 -0.0038,-0.61123 -0.0053,-2.094575 -0.0021,-2.091362 9.55e-4,9.55e-4 0.0036,0.08255 0.0059,0.181315 0.02663,1.144755 0.05194,2.034182 0.09787,3.439344 0.0064,0.196582 0.01432,0.432129 0.01753,0.523437 0.0032,0.09131 0.0059,0.180518 0.0059,0.198242 l 10e-7,0.03223 h -0.05055 c -0.0278,0 -0.0515,-0.0015 -0.05266,-0.0034 z"
       id="path25000" />
    <path
       style="fill:#ac0000;stroke-width:0.00390625"
       d="m 78.172218,87.429687 c 0.0012,-0.01504 0.0091,-0.09002 0.01751,-0.166621 0.10049,-0.910877 0.238436,-1.614413 0.42305,-2.157597 0.163466,-0.48096 0.364916,-0.862097 0.66585,-1.259766 0.128388,-0.169659 0.20618,-0.263071 0.588727,-0.706947 0.128709,-0.149343 0.254495,-0.298607 0.348352,-0.413372 0.04621,-0.05651 0.08489,-0.101877 0.08594,-0.100821 0.0038,0.0038 -0.189456,0.238727 -0.469551,0.570749 -0.481665,0.570963 -0.7367,0.913104 -0.904101,1.212891 -0.210586,0.377123 -0.383137,0.894814 -0.53772,1.613281 -0.04916,0.228499 -0.07309,0.377974 -0.07346,0.458985 -2.8e-4,0.0608 0.0038,0.08216 0.01254,0.06581 0.0023,-0.0042 0.0088,-0.02605 0.01443,-0.04848 0.02465,-0.0975 0.08515,-0.290022 0.145203,-0.462119 0.02259,-0.06474 0.04549,-0.130557 0.05089,-0.146256 0.0054,-0.0157 0.01061,-0.02774 0.01159,-0.02676 9.79e-4,9.79e-4 -0.01319,0.0481 -0.03148,0.104716 -0.135624,0.419685 -0.234459,0.830394 -0.326987,1.358795 -0.0126,0.07197 -0.02195,0.118555 -0.02077,0.103515 z"
       id="path25039" />
    <path
       style="fill:#ac0000;stroke-width:0.00390625"
       d="m 78.735958,85.370117 c 0.09544,-0.241628 0.219255,-0.499312 0.360853,-0.750976 0.286954,-0.510011 0.666066,-1.037822 1.348163,-1.876954 0.05588,-0.06875 0.186096,-0.227832 0.289361,-0.353515 0.734686,-0.894185 1.104217,-1.382427 1.49894,-1.980469 0.51765,-0.784288 1.012787,-1.661809 1.356062,-2.40332 0.01653,-0.03571 0.01836,-0.03809 0.02927,-0.03809 h 0.01164 l -0.03638,0.07728 c -0.501339,1.064808 -1.160439,2.164123 -1.899785,3.16866 -0.271242,0.368532 -0.448291,0.591289 -0.867891,1.091954 -0.317247,0.378538 -0.494957,0.594518 -0.668536,0.8125 -0.504272,0.633271 -0.830335,1.108362 -1.105882,1.611329 -0.09284,0.169464 -0.238486,0.470263 -0.304016,0.627878 -0.01401,0.0337 -0.02451,0.04591 -0.01179,0.01372 z"
       id="path25078" />
    <path
       style="fill:#ac0000;stroke-width:0.00390625"
       d="m 73.201172,81.677734 v -3.710937 h 5.038883 5.038884 l -0.01572,0.03418 c -0.07041,0.153136 -0.202828,0.422361 -0.294694,0.599159 -0.613933,1.181516 -1.439931,2.437837 -2.493434,3.792442 -0.254237,0.326901 -0.331842,0.420377 -0.809124,0.974609 -0.276798,0.321427 -0.432266,0.521003 -0.575137,0.738316 -0.196466,0.29883 -0.339351,0.592528 -0.470332,0.966763 -0.02264,0.0647 -0.08353,0.257032 -0.0949,0.299804 l -0.0044,0.0166 h -2.660005 -2.660006 z"
       id="path25117" />
    <path
       style="fill:#ac0000;stroke-width:0.00390625"
       d="m 80.335202,82.577098 c 0.137031,-0.172481 0.338495,-0.434654 0.520009,-0.676707 0.723195,-0.964401 1.328414,-1.879024 1.816553,-2.745223 0.03181,-0.05645 0.05868,-0.101807 0.0597,-0.100784 0.0045,0.0045 -0.203929,0.367365 -0.359904,0.626368 -0.444759,0.738541 -0.905216,1.415626 -1.521435,2.237217 -0.231357,0.308462 -0.539445,0.705078 -0.5477,0.705078 -0.0021,0 0.0127,-0.02068 0.03277,-0.04595 z"
       id="path25156" />
    <path
       style="fill:#ac0000;stroke-width:0.00390625"
       d="m 83.616721,77.946289 c 0.0051,-0.01128 0.02941,-0.06533 0.0541,-0.120117 0.224493,-0.498004 0.409835,-0.996573 0.541776,-1.457372 0.03381,-0.118064 0.07429,-0.276798 0.08409,-0.329738 0.02681,-0.144752 0.05904,-0.502537 0.07469,-0.829101 0.0026,-0.05522 0.0027,-0.05566 0.01193,-0.05566 h 0.0093 l -2e-6,0.12793 c -4e-6,0.18965 -0.0093,0.32533 -0.03362,0.493164 -0.08056,0.554812 -0.317152,1.280876 -0.676532,2.076174 -0.0557,0.123263 -0.05124,0.115232 -0.06395,0.115232 h -0.01095 z"
       id="path25195" />
    <path
       style="fill:#ac0000;stroke-width:0.00390625"
       d=""
       id="path25234" />
    <path
       style="fill:#ac0000;stroke-width:0.00390625"
       d="m 73.201172,78.865234 v -3.710937 h 5.46722 5.467221 l -0.0022,0.0089 c -0.0012,0.0049 -0.01013,0.06333 -0.01978,0.129883 -0.02141,0.147576 -0.02978,0.200266 -0.0475,0.298746 -0.191585,1.065107 -0.667304,2.273698 -1.413014,3.589844 -0.584949,1.032408 -1.333929,2.132807 -2.240675,3.291992 l -0.08021,0.102539 h -3.56552 -3.565519 z"
       id="path25273" />
    <path
       style="fill:#ac0000;stroke-width:0.00390625"
       d=""
       id="path25312" />
    <path
       style="fill:#ac0000;stroke-width:0.00390625"
       d="m 73.201172,78.865234 v -3.710937 h 5.467107 5.467107 l -0.0022,0.01074 c -0.0012,0.0059 -0.0076,0.04766 -0.01424,0.09277 -0.05493,0.373032 -0.08837,0.545222 -0.164599,0.847657 -0.215765,0.856024 -0.605951,1.806473 -1.154609,2.8125 -0.597115,1.094877 -1.36292,2.238719 -2.339991,3.495117 l -0.126829,0.163086 h -3.565893 -3.565894 z"
       id="path25351" />
    <path
       style="fill:#ac0000;stroke-width:0.00390625"
       d="m 83.005859,78.539637 c 0,-7.58e-4 0.042,-0.08645 0.09333,-0.190429 0.453006,-0.917664 0.743874,-1.707267 0.916297,-2.487426 0.04028,-0.182233 0.0669,-0.33094 0.09976,-0.557095 0.01092,-0.0752 0.02078,-0.139794 0.02191,-0.143554 0.0018,-0.0062 0.02105,-0.01037 0.02105,-0.0046 0,0.0067 -0.120192,0.628022 -0.132935,0.687234 -0.113029,0.525181 -0.287409,1.068341 -0.532361,1.658203 -0.11653,0.280612 -0.241596,0.553121 -0.403816,0.879883 -0.06788,0.136729 -0.08323,0.165837 -0.08323,0.157801 z"
       id="path25390" />
    <path
       style="fill:#ac0000;stroke-width:0.00390625"
       d="m 82.845703,78.843329 c 0,-0.0052 0.05955,-0.115159 0.06137,-0.113336 0.002,0.002 -0.05658,0.11571 -0.05964,0.11571 -9.52e-4,0 -0.0017,-0.0011 -0.0017,-0.0024 z"
       id="path25429" />
    <path
       style="fill:#ac0000;stroke-width:0.00390625"
       d="m 73.201172,78.865234 v -3.710937 h 5.467285 5.467285 l -0.0023,0.01169 c -0.0013,0.0064 -0.01037,0.06664 -0.02019,0.133789 -0.04357,0.298027 -0.08593,0.515049 -0.152702,0.782252 -0.150652,0.602869 -0.393016,1.270082 -0.69599,1.916016 -0.02469,0.05264 -0.04483,0.09977 -0.04475,0.104746 7.4e-5,0.005 -8.07e-4,0.0081 -0.002,0.0069 -0.0012,-0.0012 -0.05885,0.111673 -0.128221,0.250723 -0.157996,0.316705 -0.265502,0.519552 -0.422789,0.797741 -0.585144,1.034929 -1.30118,2.090667 -2.212865,3.262695 l -0.120783,0.155274 H 76.767161 73.20117 Z"
       id="path25468" />
    <path
       style="fill:#ac0000;stroke-width:0.00390625"
       d="m 73.201172,78.865234 v -3.710937 h 5.466797 c 3.006738,0 5.466797,6.25e-4 5.466797,0.0014 0,7.64e-4 -0.008,0.0547 -0.01773,0.11985 -0.0097,0.06515 -0.01719,0.121218 -0.01654,0.124588 6.53e-4,0.0034 0.0095,-0.04912 0.01962,-0.116649 0.01154,-0.07685 0.02028,-0.123951 0.02338,-0.125917 0.0096,-0.0061 0.01181,-0.0031 0.0096,0.01334 -0.0041,0.03083 -0.06301,0.334576 -0.06458,0.333006 -8.55e-4,-8.56e-4 0.0015,-0.02192 0.0053,-0.0468 0.0038,-0.02488 0.0061,-0.04599 0.0052,-0.0469 -9.13e-4,-9.13e-4 -0.0074,0.03386 -0.01441,0.07727 -0.113783,0.704543 -0.372856,1.520512 -0.746049,2.349734 -0.02283,0.05072 -0.03825,0.0898 -0.03687,0.09341 0.0014,0.0036 7.54e-4,0.0052 -0.0015,0.0038 -0.0054,-0.0033 -0.02523,0.03843 -0.02211,0.04657 0.0015,0.004 9.69e-4,0.0056 -0.0015,0.0041 -0.0044,-0.0027 -0.04935,0.08977 -0.04613,0.09498 0.0032,0.0052 -0.0024,0.01577 -0.0069,0.01302 -0.0023,-0.0014 -0.0029,-6.74e-4 -0.0015,0.0017 0.003,0.0049 -0.0089,0.03212 -0.01409,0.03212 -0.0019,0 -0.0023,0.0018 -9.99e-4,0.0039 0.0013,0.0021 4.49e-4,0.0039 -0.002,0.0039 -0.0024,0 -0.0033,0.0018 -0.002,0.0039 0.0013,0.0021 4.49e-4,0.0039 -0.002,0.0039 -0.0024,0 -0.0033,0.0017 -0.002,0.0038 0.0013,0.0021 -0.0012,0.01043 -0.0055,0.01856 -0.0043,0.0081 -0.0079,0.01301 -0.0081,0.01086 -1.64e-4,-0.0021 -0.05616,0.106836 -0.124432,0.242188 -0.120231,0.238355 -0.139734,0.275937 -0.232116,0.447265 -0.588924,1.092204 -1.377377,2.272712 -2.3748,3.555664 L 80.333294,82.57613 H 76.76735 73.201172 Z"
       id="path25507" />
    <path
       style="fill:#ac0000;stroke-width:0.00390625"
       d=""
       id="path25546" />
    <path
       style="fill:#ac0000;stroke-width:0.00390625"
       d="m 73.201172,78.865234 v -3.710937 h 5.466797 c 3.006738,0 5.466797,0.0014 5.466797,0.0031 0,0.0017 -0.0053,0.03803 -0.01189,0.08069 -0.0065,0.04266 -0.01136,0.08032 -0.01071,0.08369 6.48e-4,0.0034 0.0068,-0.0315 0.01375,-0.07747 0.01177,-0.07829 0.01509,-0.08977 0.02595,-0.08996 0.0019,-3.3e-5 0.0023,0.0088 8.11e-4,0.01971 -0.0032,0.02403 -0.0605,0.324342 -0.06295,0.329839 -9.56e-4,0.0021 -9.75e-4,-0.0075 -4.3e-5,-0.02148 0.0023,-0.03387 0.0011,-0.02873 -0.01739,0.07813 -0.10866,0.627238 -0.330129,1.340739 -0.641871,2.067899 -0.02476,0.05776 -0.04399,0.107702 -0.04272,0.110993 0.0013,0.0035 6.46e-4,0.005 -0.0016,0.0036 -0.0054,-0.0033 -0.01735,0.02284 -0.01422,0.03101 0.0016,0.004 9.63e-4,0.0056 -0.0015,0.0041 -0.0039,-0.0024 -0.04566,0.08636 -0.04651,0.09888 -9.3e-4,0.01368 -0.0017,0.01598 -0.0049,0.01403 -0.0049,-0.003 -0.01252,0.01598 -0.0096,0.02368 0.0017,0.0044 0.001,0.0056 -0.002,0.0037 -0.0029,-0.0018 -0.0037,-7.48e-4 -0.0024,0.0029 0.0012,0.0031 -0.0012,0.0089 -0.0054,0.0129 -0.01131,0.0108 -0.02059,0.03122 -0.01765,0.03888 0.0017,0.0046 0.0011,0.0058 -0.0019,0.004 -0.003,-0.0018 -0.0037,-6.95e-4 -0.0022,0.0033 0.0013,0.0033 4.16e-4,0.0061 -0.0019,0.0061 -0.0053,0 -0.02109,0.03028 -0.01821,0.03494 0.0028,0.0045 -0.0018,0.01631 -0.0054,0.01406 -0.0046,-0.0028 -0.01984,0.03231 -0.0171,0.03945 0.0018,0.0048 0.0011,0.0057 -0.0026,0.0034 -0.0033,-0.002 -0.0042,-0.0017 -0.0026,9.6e-4 0.0036,0.0059 -0.0014,0.01704 -0.0063,0.014 -0.0023,-0.0014 -0.0029,-6.73e-4 -0.0015,0.0017 0.003,0.0048 -0.0129,0.03992 -0.01806,0.03992 -0.0018,0 -0.0023,0.0018 -9.44e-4,0.0039 0.0013,0.0021 4.49e-4,0.0039 -0.002,0.0039 -0.0024,0 -0.0033,0.0017 -0.002,0.0038 0.0013,0.0021 -0.002,0.01218 -0.0074,0.02246 -0.0054,0.01028 -0.0099,0.01694 -0.01003,0.01479 -1.65e-4,-0.0021 -0.05616,0.106836 -0.124429,0.242187 -0.161445,0.320077 -0.265636,0.514489 -0.432975,0.807897 -0.571027,1.001224 -1.275909,2.03705 -2.162267,3.177455 l -0.128274,0.165039 H 76.76754 73.201247 Z m 10.893332,-3.42473 c -9.91e-4,-0.0038 -0.0019,-0.0016 -0.0019,0.0048 -7.8e-5,0.0064 7.31e-4,0.0096 0.0018,0.0069 0.0011,-0.0026 0.0011,-0.0079 1.45e-4,-0.01172 z m 0.0039,-0.02344 c -9.9e-4,-0.0038 -0.0019,-0.0016 -0.0019,0.0048 -7.8e-5,0.0064 7.31e-4,0.0096 0.0018,0.0069 0.0011,-0.0026 0.0011,-0.0079 1.45e-4,-0.01172 z m 0.0039,-0.02913 c -0.0012,-0.0031 -0.0022,-0.0022 -0.0024,0.0024 -1.68e-4,0.0041 7.53e-4,0.0064 0.0021,0.0051 0.0013,-0.0013 0.0014,-0.0047 3.08e-4,-0.0075 z m 0.0039,-0.02556 c -9.91e-4,-0.0038 -0.0019,-0.0016 -0.0019,0.0048 -7.8e-5,0.0064 7.31e-4,0.0096 0.0018,0.0069 0.0011,-0.0026 0.0011,-0.0079 1.44e-4,-0.01172 z m 0.0039,-0.02742 c -9.82e-4,-0.0038 -0.0018,-6.84e-4 -0.0018,0.0068 0,0.0075 8.04e-4,0.0106 0.0018,0.0068 9.83e-4,-0.0038 9.83e-4,-0.0099 0,-0.01367 z"
       id="path25585" />
    <path
       style="fill:#ac0000;stroke-width:0.00390625"
       d="m 90.259749,78.422773 c -0.01183,-0.01124 -0.08038,-0.07404 -0.152344,-0.139559 -0.31813,-0.289652 -0.672892,-0.619864 -0.990218,-0.921696 -0.344758,-0.327926 -0.530679,-0.509903 -1.097691,-1.074409 -0.764497,-0.761117 -1.191068,-1.175976 -1.554652,-1.51197 -0.595962,-0.550737 -0.989503,-0.860601 -1.279297,-1.00729 -0.136856,-0.06927 -0.236307,-0.09888 -0.332031,-0.09885 -0.0577,2e-5 -0.09437,0.0079 -0.138672,0.02989 -0.145354,0.07207 -0.229933,0.261251 -0.276945,0.619467 -0.0237,0.180578 -0.03614,0.38592 -0.04373,0.72168 l -0.0026,0.114258 h -0.0093 c -0.0091,0 -0.0092,-6.26e-4 -0.0072,-0.02637 0.0011,-0.0145 0.0047,-0.0835 0.0079,-0.153321 0.01472,-0.317334 0.0324,-0.599828 0.04496,-0.718067 0.0091,-0.08553 0.0091,-0.08662 0.0021,-0.08662 -0.0089,0 -0.07234,0.167084 -0.107659,0.283433 -0.0558,0.183824 -0.09855,0.360804 -0.140556,0.581801 -0.01102,0.05801 -0.02084,0.108161 -0.0218,0.111452 -0.0019,0.0064 -0.0213,0.01004 -0.0213,0.004 0,-0.002 0.0072,-0.04284 0.01591,-0.09078 0.120331,-0.659096 0.346538,-1.231498 0.558084,-1.412199 0.01599,-0.01366 0.043,-0.03181 0.06002,-0.04032 0.02612,-0.01308 0.03474,-0.01549 0.05526,-0.01549 0.315443,0 1.759746,1.108363 3.36736,2.584123 0.0752,0.06903 0.229071,0.211493 0.341946,0.31659 0.54211,0.504751 1.048049,0.966315 1.594621,1.454756 l 0.155175,0.138671 3.9e-5,0.178711 c 0,0.09829 -0.0013,0.178676 -0.0029,0.178632 -0.0016,-4.3e-5 -0.01261,-0.0093 -0.02443,-0.02051 z"
       id="path25624" />
    <path
       style="fill:#ac0000;stroke-width:0.015625"
       d="m 105.99515,101.94141 c -0.87597,-1.60768 -1.96672,-3.914018 -2.99836,-6.339848 -0.45472,-1.069246 -0.67033,-1.562779 -0.99662,-2.28125 -0.65448,-1.441145 -1.53607,-3.216404 -2.226945,-4.484375 -1.474582,-2.706333 -2.856316,-4.752919 -3.929533,-5.820312 -0.268764,-0.267306 -0.423663,-0.395398 -0.811098,-0.670731 -1.211387,-0.860881 -2.904065,-2.248827 -4.544313,-3.726202 l -0.199219,-0.179437 v -0.17157 -0.17157 l 0.03516,0.03113 c 0.01934,0.01712 0.130078,0.115366 0.246093,0.21832 1.288927,1.143805 2.609878,2.265907 3.59375,3.052765 0.219141,0.17526 0.49336,0.399359 0.609375,0.497999 1.383242,1.176075 2.5431,2.554036 3.704028,4.400544 1.277728,2.032283 2.589682,4.588601 4.663112,9.085937 1.1397,2.472049 2.31469,4.88097 3.13891,6.43524 0.0654,0.12337 0.11895,0.22708 0.11895,0.23047 0,0.003 -0.0768,0.006 -0.17078,0.006 h -0.17078 z"
       id="path25663" />
    <path
       style="fill:#ac0000;stroke-width:0.0078125"
       d="m 109.07353,106.26186 c -0.48138,-0.12334 -1.36515,-1.27717 -2.49543,-3.25795 -0.23794,-0.41699 -0.52376,-0.93594 -0.51836,-0.94116 0.002,-10e-4 0.0804,-0.004 0.1754,-0.005 l 0.17265,-0.003 0.0454,0.0859 c 0.3955,0.74931 0.81302,1.48924 1.04698,1.85547 0.10735,0.16804 1.44702,2.18717 1.46117,2.20226 0.009,0.009 0.0937,-0.0323 0.54397,-0.26477 0.65632,-0.33889 0.72375,-0.37495 0.86582,-0.46291 1.43289,-0.88713 4.42143,-3.81604 7.97159,-7.812516 l 0.24113,-0.271435 h 0.21087 0.21088 l -0.0541,0.06055 c -0.0298,0.0333 -0.1382,0.155468 -0.24099,0.271484 -1.8642,2.104008 -3.73906,4.067187 -5.23798,5.484697 -2.08963,1.97616 -3.56903,3.03072 -4.29602,3.06233 -0.0412,0.002 -0.0875,0 -0.10295,-0.004 z"
       id="path25702" />
    <path
       style="fill:#ac0000;stroke-width:0.015625"
       d="m 118.61918,97.355952 c 0.0118,-0.01477 0.16943,-0.195827 0.3503,-0.402344 4.0167,-4.586256 7.70313,-9.280385 9.94202,-12.659705 l 0.32287,-0.487347 0.17678,-9.34e-4 0.17677,-9.35e-4 -0.29269,0.433594 c -2.554,3.783527 -6.28468,8.565911 -9.93392,12.734375 l -0.35907,0.410156 h -0.20225 c -0.18914,0 -0.20086,-0.0017 -0.18081,-0.02686 z"
       id="path25741" />
    <path
       style="fill:#ac0000;stroke-width:0.015625"
       d="m 129.25226,83.785156 c 0.007,-0.01074 0.0784,-0.121484 0.15962,-0.246094 1.73241,-2.657312 2.99788,-4.987711 4.05997,-7.476562 0.69116,-1.619622 1.29847,-3.280811 2.04359,-5.589844 l 0.13488,-0.417969 h 0.14749 c 0.0811,0 0.1475,0.0038 0.1475,0.0084 0,0.0046 -0.0711,0.227864 -0.15793,0.496094 -1.21036,3.737436 -2.83907,7.629157 -4.18975,10.011128 -0.48677,0.858457 -1.25662,2.103786 -1.84247,2.980469 l -0.16968,0.253906 h -0.17257 c -0.13399,0 -0.1699,-0.0044 -0.16065,-0.01953 z"
       id="path25780" />
    <path
       style="fill:#ac0000;stroke-width:0.0110485"
       d="m 135.65154,70.039179 c 0.0165,-0.04296 0.29425,-0.926155 0.43165,-1.372481 1.02232,-3.320948 1.55806,-5.635859 1.96248,-8.479758 0.0367,-0.258259 0.0695,-0.485721 0.0727,-0.50547 l 0.006,-0.03591 h 0.12655 c 0.0955,0 0.12656,0.0035 0.12656,0.01415 0,0.0078 -0.0196,0.155693 -0.0435,0.328694 -0.39473,2.851775 -1.1814,6.222748 -2.25664,9.6699 l -0.1232,0.394986 h -0.15399 c -0.12039,0 -0.1528,-0.0031 -0.14857,-0.01411 z"
       id="path25819" />
    <path
       style="fill:#ac0000;stroke-width:0.0110485"
       d="m 138.12337,59.639227 c 0,-0.0035 0.0173,-0.13648 0.0384,-0.295548 0.15587,-1.173451 0.26273,-2.159933 0.29402,-2.71437 0.0143,-0.252777 0.007,-0.854859 -0.0115,-1.005417 -0.0676,-0.538985 -0.19952,-0.936074 -0.54151,-1.62966 -0.0779,-0.157994 -0.18402,-0.35791 -0.23581,-0.444256 -0.40337,-0.672551 -0.85649,-1.129641 -1.33285,-1.344533 -0.11645,-0.05253 -0.80476,-0.24077 -2.46891,-0.675186 -0.22425,-0.05854 -0.46276,-0.123689 -0.53002,-0.14478 -0.79996,-0.250812 -1.93093,-0.804516 -2.75247,-1.347562 l -0.16573,-0.109547 0.10755,-0.0032 0.10756,-0.0032 0.0968,0.06491 c 0.47098,0.315656 1.2526,0.720648 1.90958,0.989438 0.65747,0.26899 1.34723,0.475858 1.89976,0.569765 0.2185,0.03714 0.40496,0.05529 0.68482,0.06669 0.14584,0.0059 0.3124,0.0186 0.37013,0.02814 0.53353,0.08815 1.05387,0.331055 1.54127,0.719497 0.15551,0.123936 0.44821,0.416495 0.57336,0.573087 0.29594,0.370284 0.50227,0.759532 0.62956,1.187718 0.29568,0.994622 0.34752,2.5776 0.14978,4.574097 -0.0342,0.345024 -0.0948,0.880787 -0.10464,0.925316 -0.005,0.02402 -0.01,0.02486 -0.13237,0.02486 -0.0698,0 -0.12684,-0.0029 -0.12684,-0.0063 z"
       id="path25858" />
    <path
       style="fill:#ac0000;stroke-width:0.0110485"
       d="m 130.24575,49.804768 c -0.66205,-0.484977 -1.06789,-0.863839 -1.28781,-1.202225 -0.0663,-0.102023 -0.14035,-0.245407 -0.13501,-0.261438 0.002,-0.006 0.0282,0.02782 0.0583,0.07525 0.139,0.219419 0.40722,0.488377 0.80599,0.808208 0.18757,0.15044 0.59214,0.4546 0.774,0.581906 0.0851,0.05955 0.15675,0.110099 0.15928,0.112327 0.003,0.0022 -0.0447,0.0039 -0.10496,0.0037 l -0.10956,-3.61e-4 z"
       id="path25897" />
    <path
       style="fill:#ac0000;stroke-width:0.0110485"
       d="m 128.95307,46.867942 c 0,-0.0051 0.0341,-0.07439 0.0758,-0.154075 0.28697,-0.548472 0.83662,-1.294034 1.6906,-2.293198 0.29406,-0.344053 0.59172,-0.683551 1.21089,-1.381068 0.31017,-0.34941 0.71067,-0.801848 0.89,-1.005417 2.54928,-2.893783 3.14676,-3.801887 3.28574,-4.993942 0.0364,-0.311873 0.0508,-0.866298 0.0302,-1.157597 l -0.007,-0.102461 0.17678,0.003 0.17678,0.003 0.009,0.08286 c 0.0152,0.134645 0.0143,0.741551 -0.001,0.883884 -0.14278,1.302107 -0.78225,2.470475 -2.30174,4.205491 -0.4674,0.533697 -0.82806,0.92116 -2.076,2.230285 -1.89324,1.986066 -2.66466,2.878045 -3.07668,3.557513 -0.0778,0.128257 -0.0832,0.136179 -0.0832,0.121673 z"
       id="path25936" />
    <path
       style="fill:#ac0000;stroke-width:0.0110485"
       d="m 136.11371,35.646401 c -0.14358,-1.393158 -0.96831,-3.206093 -2.76862,-6.086023 -0.73175,-1.170574 -2.0649,-3.18638 -2.7529,-4.162539 l -0.15768,-0.223733 h 0.17997 0.17998 l 0.81814,1.229151 c 1.22039,1.833465 1.79234,2.719355 2.43061,3.764791 1.44253,2.362709 2.17212,3.972747 2.38918,5.272342 0.0176,0.10514 0.0354,0.224723 0.0396,0.26574 l 0.008,0.07458 h -0.17608 -0.17608 z"
       id="path25975" />
    <path
       style="fill:#ac0000;stroke-width:0.0110485"
       d="m 130.26113,24.9338 c -1.50909,-2.079168 -3.53098,-4.490355 -5.87611,-7.007538 -0.8011,-0.859868 -1.48122,-1.563346 -2.50218,-2.588122 l -0.76777,-0.770635 h 0.23242 0.23243 l 0.59022,0.578333 c 0.83484,0.818015 1.81622,1.821177 2.62316,2.681367 2.44893,2.610541 4.42086,5.00846 5.79789,7.050368 0.0997,0.147902 0.18492,0.275127 0.1893,0.282723 0.006,0.0108 -0.0305,0.01381 -0.1685,0.01381 h -0.17644 z"
       id="path26014" />
    <path
       style="fill:#ac0000;stroke-width:0.015625"
       d="m 99.921628,30.097111 c 0.778392,-0.658274 1.009052,-0.868097 1.547812,-1.407977 0.55514,-0.556289 0.86401,-0.908532 1.24137,-1.415697 0.63169,-0.848964 1.20177,-1.919378 1.67187,-3.139178 0.50916,-1.321159 0.94608,-2.786612 1.85917,-6.235822 0.67283,-2.541663 1.13958,-4.116475 1.73661,-5.859375 0.94213,-2.7503211 1.80224,-4.6494745 2.35756,-5.2055562 0.12202,-0.122182 0.14529,-0.1384048 0.24101,-0.1679687 0.58981,-0.1821752 1.87511,0.4064662 3.72766,1.7072004 1.84086,1.2925312 4.38493,3.4391545 6.7247,5.6741375 0.17993,0.171875 0.373,0.354687 0.42904,0.40625 l 0.10189,0.09375 -0.22547,0.0078 -0.22548,0.0078 -0.41406,-0.399326 c -2.82959,-2.728886 -5.20397,-4.7364342 -7.07031,-5.9779843 -0.56745,-0.3774859 -0.9307,-0.5878254 -1.46875,-0.850472 -1.0532,-0.5141158 -1.28871,-0.5389879 -1.65826,-0.1751279 -0.13101,0.128988 -0.3796,0.4298149 -0.46633,0.5643105 -0.0934,0.1449135 -0.28687,0.5325625 -0.42234,0.8464122 -0.83731,1.9398125 -2.18377,6.0313645 -4.20097,12.7656245 -0.53476,1.785257 -0.74977,2.422669 -1.10417,3.273438 -0.84686,2.032959 -1.93132,3.459744 -4.05418,5.333956 l -0.25,0.220717 -0.07813,-5.31e-4 -0.07813,-5.31e-4 0.07788,-0.06586 z"
       id="path26053" />
    <path
       style="fill:#ac0000;stroke-width:0.015625"
       d="m 85.765625,45.028828 c -0.261258,-0.04132 -0.569766,-0.207408 -0.715422,-0.385162 -0.326625,-0.398603 -0.841275,-1.499006 -1.229116,-2.628041 -0.712767,-2.074923 -1.467454,-3.50509 -2.865201,-5.429688 -0.512337,-0.705451 -1.426776,-1.858288 -2.150165,-2.710721 -1.684792,-1.985342 -3.437868,-3.514204 -4.774471,-4.16383 -0.522568,-0.253983 -0.874169,-0.352719 -1.25,-0.351025 -0.194213,8.76e-4 -0.233042,0.0057 -0.34616,0.04318 -0.68846,0.227972 -1.583198,0.948941 -3.270746,2.635525 -1.283824,1.283092 -2.261654,2.343174 -3.133094,3.396642 l -0.140625,0.169999 -0.0043,-0.229441 -0.0043,-0.229442 0.222034,-0.268722 c 1.421574,-1.720497 2.934808,-3.303856 4.169435,-4.362652 1.139064,-0.976841 2.028871,-1.511929 2.600331,-1.563713 0.722856,-0.0655 1.990043,0.684354 3.596427,2.128184 0.395689,0.355648 1.435375,1.390668 1.850261,1.841958 2.390927,2.600714 4.374394,5.476273 5.167867,7.492187 0.117844,0.299396 0.203803,0.567153 0.309514,0.964116 0.229191,0.860652 0.424604,1.409152 0.70305,1.973384 0.486154,0.985117 1.019338,1.519347 1.514996,1.517966 0.291612,-8.12e-4 0.528384,-0.182108 0.70707,-0.541403 0.215061,-0.432436 0.31315,-0.978455 0.346655,-1.929688 0.01283,-0.364188 0.018,-0.413883 0.06016,-0.578125 0.191246,-0.744991 0.714538,-1.573611 1.687197,-2.671639 0.276552,-0.312198 1.232138,-1.271775 1.620533,-1.627301 1.47703,-1.352035 2.894673,-2.485077 5.460937,-4.364619 1.678004,-1.228976 3.01665,-2.241337 3.692619,-2.792569 l 0.247306,-0.201671 0.07548,0.0047 0.07548,0.0047 -0.173681,0.148437 c -0.886491,0.757644 -1.751055,1.446818 -3.591198,2.862671 -1.030772,0.793103 -1.573268,1.218046 -2.286944,1.791393 -3.876367,3.11416 -5.95667,5.261739 -6.404442,6.611561 -0.03367,0.101501 -0.138177,0.570003 -0.274061,1.228604 -0.1208,0.585498 -0.240342,1.127902 -0.265649,1.205343 -0.171426,0.524587 -0.501875,0.888918 -0.893589,0.985216 -0.08599,0.02114 -0.268533,0.0341 -0.334134,0.02373 z"
       id="path26092" />
    <path
       style="fill:#ac0000;stroke-width:0.015625"
       d="m 60.533243,44.991564 c -0.330535,-0.09716 -0.675512,-0.334076 -1.064115,-0.730801 -0.500702,-0.511167 -0.924473,-1.122769 -1.398644,-2.018576 -0.0887,-0.167578 -0.227026,-0.415058 -0.307383,-0.549955 -1.163579,-1.953322 -3.637879,-4.485226 -7.630289,-7.807931 -0.313671,-0.261055 -0.584179,-0.487717 -0.601128,-0.503692 -0.03014,-0.02841 -0.02689,-0.02905 0.149361,-0.02905 h 0.180177 l 0.374077,0.291297 c 1.58246,1.232278 3.109949,2.589874 4.562179,4.054757 1.002087,1.010818 1.717968,1.815271 2.310432,2.59629 0.472585,0.622987 0.648169,0.908651 1.000982,1.628538 0.292924,0.597687 0.452575,0.893646 0.66977,1.241618 0.298872,0.478828 0.550664,0.807334 0.84545,1.103038 0.230375,0.231093 0.404945,0.362821 0.610263,0.460496 0.193645,0.09212 0.292214,0.114254 0.470809,0.105716 0.114772,-0.0055 0.157533,-0.01527 0.244438,-0.05594 0.25071,-0.117321 0.448845,-0.39623 0.579988,-0.816433 0.119235,-0.382048 0.175224,-0.784382 0.197758,-1.421063 0.009,-0.254259 0.02638,-0.509692 0.04042,-0.593932 0.130335,-0.782048 0.719549,-1.99926 1.698325,-3.508442 0.447281,-0.689665 1.038877,-1.522253 1.609842,-2.265625 0.260068,-0.338598 0.791404,-1.007813 0.800172,-1.007813 0.0037,0 0.0067,0.101052 0.0067,0.22456 v 0.22456 l -0.233489,0.290932 c -1.884467,2.348079 -3.123673,4.51228 -3.609729,6.304177 -0.06319,0.232951 -0.119707,0.504252 -0.195856,0.940146 -0.163185,0.934112 -0.50615,1.706478 -0.816725,1.839286 -0.09468,0.04048 -0.362027,0.04256 -0.49377,0.0038 z"
       id="path26131" />
    <path
       style="fill:#ac0000;stroke-width:0.0220971"
       d="m 110.30866,153.62069 c -0.28428,-0.12726 -0.43074,-0.60843 -0.5218,-1.71427 -0.015,-0.18206 -0.0267,-1.06901 -0.0299,-2.276 -0.003,-1.08773 -0.002,-1.90808 0.002,-1.82301 0.1137,2.29172 0.23302,3.60693 0.41798,4.60725 0.11663,0.63077 0.2315,1.0137 0.31795,1.05996 0.0899,0.0481 0.35043,-0.14073 0.85488,-0.61982 2.95741,-2.80872 12.79398,-14.67348 14.91513,-17.99044 0.21361,-0.33402 0.42845,-0.74697 0.42845,-0.82352 0,-0.0389 -0.018,-0.0577 -0.0725,-0.0756 -0.14261,-0.0471 -0.52532,-0.0668 -1.3081,-0.0673 -0.9026,-6.5e-4 -1.56517,0.0222 -2.89354,0.0999 -0.8584,0.0502 -1.19114,0.0625 -1.05128,0.0388 0.23411,-0.0396 1.51072,-0.23533 1.76777,-0.27099 1.7156,-0.23799 3.25648,-0.27467 3.74597,-0.0892 0.0909,0.0345 0.16521,0.10888 0.16521,0.16555 0,0.0714 -0.17613,0.41901 -0.36672,0.72362 -1.77234,2.83272 -9.69775,12.75819 -13.47595,16.87673 -0.79818,0.87008 -1.30527,1.35844 -1.79801,1.7316 -0.53615,0.40603 -0.87804,0.54515 -1.09786,0.44675 z"
       id="path26170" />
    <path
       style="fill:#ac0000;stroke-width:0.0078125"
       d="m 98.935547,145.75587 -0.134766,-0.002 v -0.0767 -0.0767 l 0.123047,-0.005 c 0.06768,-0.003 0.225,-0.005 0.349609,-0.005 0.458128,-2.1e-4 1.168283,-0.0519 2.312503,-0.16843 1.25602,-0.12789 2.21322,-0.24521 4.20541,-0.51546 1.78324,-0.2419 3.35789,-0.44677 3.60489,-0.469 0.0784,-0.007 0.0899,5.2e-4 0.13178,0.087 0.0178,0.0367 0.031,0.0681 0.0294,0.0697 -0.003,0.003 -5.84546,0.80461 -6.20582,0.85133 -1.13475,0.14714 -2.27111,0.25114 -3.20312,0.29317 -0.441445,0.0199 -0.791494,0.025 -1.212893,0.0177 z"
       id="path26209" />
    <path
       style="fill:#ac0000;stroke-width:0.03125"
       d="m 97.799768,145.5555 c -0.06426,-0.052 -0.06664,-0.0668 -0.03419,-0.21196 0.286992,-1.28397 4.852682,-7.49365 11.373162,-15.46836 6.12245,-7.4879 11.48121,-13.45485 13.05945,-14.54161 0.41809,-0.2879 0.50493,-0.26127 0.50493,0.15484 0,1.12517 -0.89976,4.55698 -2.20701,8.41784 -1.75746,5.19052 -2.08961,6.24686 -2.35454,7.48813 -0.0491,0.22997 -0.0905,0.38709 -0.092,0.34917 -0.004,-0.10706 0.17272,-0.93591 0.32766,-1.53476 0.27599,-1.06667 0.62153,-2.21082 1.49286,-4.94317 1.18699,-3.7222 1.99918,-6.52741 2.25289,-7.78125 0.0826,-0.40825 0.31048,-1.9988 0.28938,-2.0199 -0.0122,-0.0122 -2.75964,2.77045 -3.62959,3.67615 -4.66999,4.86188 -14.79311,17.24458 -18.908878,23.12954 -0.807998,1.15532 -1.236353,1.84779 -1.63898,2.64953 -0.117128,0.23323 -0.247419,0.48429 -0.289536,0.5579 -0.07573,0.13237 -0.07734,0.13322 -0.145641,0.0779 z"
       id="path26248" />
    <path
       style="fill:#ac0000;stroke-width:0.03125"
       d="m 118.51562,134.09826 c -0.45379,-0.0813 -0.53865,-0.20935 -0.5506,-0.83118 -0.007,-0.37078 -0.005,-0.39578 0.0199,-0.2014 0.0692,0.54721 0.30097,0.85352 0.77896,1.02962 0.0937,0.0345 0.0989,0.0408 0.0329,0.0401 -0.043,-4.4e-4 -0.16953,-0.0172 -0.28125,-0.0372 z"
       id="path26287" />
    <path
       style="fill:#ac0000;stroke-width:0.0078125"
       d="m 98.742187,145.74859 c -0.376627,-0.019 -0.69734,-0.0666 -0.857325,-0.12719 -0.05453,-0.0207 -0.112465,-0.059 -0.1343,-0.0889 -0.03238,-0.0443 -0.01364,-0.17466 0.05047,-0.35132 0.01373,-0.0378 0.02672,-0.067 0.02887,-0.0649 0.0021,0.002 -0.0069,0.0339 -0.02021,0.0706 -0.02782,0.0769 -0.05152,0.16652 -0.06291,0.23785 -0.0101,0.0633 -5.2e-4,0.0881 0.05103,0.13231 0.05626,0.0482 0.07361,0.0455 0.114036,-0.0179 0.01778,-0.0279 0.03369,-0.0493 0.03536,-0.0477 0.0017,0.002 -0.0077,0.0244 -0.02091,0.0505 -0.01317,0.0261 -0.02395,0.0502 -0.02395,0.0537 0,0.003 0.202148,0.005 0.449218,0.003 l 0.449219,-0.003 v 0.079 c 0,0.0435 -0.0026,0.0784 -0.0059,0.0776 -0.0032,-8.1e-4 -0.02695,-0.003 -0.05273,-0.004 z"
       id="path26326" />
    <path
       style="fill:#ac0000;stroke-width:0.03125"
       d="m 33.140625,151.18659 c -1.094173,-0.30101 -2.741223,-1.78001 -5.30492,-4.76366 -0.752592,-0.87587 -3.590867,-4.34862 -5.338858,-6.53231 -2.116811,-2.64443 -3.247706,-4.21804 -3.671929,-5.10937 -0.375396,-0.78874 -0.319784,-1.16842 0.19755,-1.34873 0.139378,-0.0486 0.25733,-0.057 0.758782,-0.0544 0.659692,0.003 0.992379,0.0409 2.609375,0.29376 1.628832,0.25472 2.551306,0.3671 3.5625,0.43397 l 0.390625,0.0258 -0.328125,0.004 c -1.063054,0.0131 -2.807399,-0.13937 -4.546875,-0.39754 -1.470626,-0.21826 -2.16879,-0.20046 -2.468804,0.063 -0.305796,0.2685 -0.187668,0.75702 0.392752,1.62425 1.614634,2.41248 9.032627,11.39775 11.204394,13.57166 0.923456,0.92437 2.311764,1.99245 2.738845,2.10711 0.435481,0.11691 0.896645,-0.50478 1.227742,-1.6551 0.202009,-0.70183 0.284666,-1.29721 0.325824,-2.3469 0.03784,-0.9652 0.116259,-1.27678 0.400913,-1.593 0.540699,-0.60067 1.677842,-0.72651 4.584584,-0.50734 0.34375,0.0259 1.58125,0.13771 2.75,0.24843 3.232363,0.3062 4.010035,0.35772 4.523036,0.29966 0.495475,-0.0561 0.680089,-0.16718 0.680089,-0.40927 0,-0.14993 -0.159883,-0.46593 -0.413822,-0.8179 -0.478053,-0.6626 -6.939643,-8.80725 -10.693586,-13.47896 -2.181084,-2.71432 -6.133073,-7.59834 -6.277367,-7.75781 l -0.06362,-0.0703 h 0.159972 0.159972 l 1.089048,1.33594 c 7.425242,9.10857 14.459158,17.99094 16.116315,20.35156 0.514661,0.73314 0.531047,0.77503 0.334037,0.85385 -0.250206,0.10012 -0.621996,0.12857 -1.645324,0.12594 -1.398969,-0.004 -2.729445,-0.0984 -4.984375,-0.3553 -2.475084,-0.28193 -3.032022,-0.32621 -4.09375,-0.3255 -0.787757,5.4e-4 -0.925437,0.008 -1.192023,0.0664 -0.57332,0.12515 -0.911496,0.3544 -1.0921,0.74034 -0.144965,0.30978 -0.184101,0.59904 -0.216167,1.59768 -0.06273,1.95353 -0.272402,2.94629 -0.73363,3.47354 -0.203714,0.23287 -0.412581,0.33296 -0.718818,0.34443 -0.1554,0.006 -0.315589,-0.009 -0.422262,-0.0379 z"
       id="path26365" />
    <path
       style="fill:#ac0000;stroke-width:0.00390625"
       d="m 27.923828,134.06624 c 0.264508,-0.046 0.419583,-0.11338 0.460072,-0.1998 0.0094,-0.02 0.01059,-0.0271 0.01026,-0.0598 -0.0022,-0.22077 -0.428094,-1.59149 -1.196155,-3.84961 -0.109823,-0.32288 -0.441205,-1.28692 -0.45287,-1.31746 -0.0015,-0.004 0.01527,-0.005 0.08109,-0.004 l 0.08299,0.001 0.07015,0.20703 c 0.872317,2.5746 1.32622,3.96469 1.50828,4.61914 0.07194,0.2586 0.08807,0.34932 0.06882,0.38705 -0.04532,0.0888 -0.23937,0.16059 -0.575515,0.2128 -0.09719,0.0151 -0.138162,0.0176 -0.05713,0.004 z"
       id="path26404" />
    <path
       style="fill:#ac0000;stroke-width:0.00390625"
       d="m 26.740682,128.62598 c -0.0018,-0.005 -0.02214,-0.0633 -0.04522,-0.12989 -0.481359,-1.38931 -1.12524,-3.20298 -1.762163,-4.96362 -0.07826,-0.21632 -0.142282,-0.39432 -0.142282,-0.39556 0,-0.001 0.05125,-0.002 0.113897,-0.001 l 0.113897,0.001 0.0088,0.0254 c 0.0048,0.014 0.140916,0.40771 0.302451,0.875 0.563797,1.63094 1.367676,3.97272 1.547091,4.50684 l 0.03051,0.0908 h -0.08183 c -0.08129,0 -0.08185,-6e-5 -0.0851,-0.009 z"
       id="path26443" />
    <path
       style="fill:#ac0000;stroke-width:0.00390625"
       d="m 24.750501,123.0283 c -0.02121,-0.0585 -0.128165,-0.35252 -0.237679,-0.6533 -0.413242,-1.13497 -0.769002,-2.12485 -1.040287,-2.89453 -0.01666,-0.0473 -0.03111,-0.0881 -0.0321,-0.0908 -0.0014,-0.004 0.02756,-0.005 0.136894,-0.005 h 0.138708 l 0.0045,0.0127 c 0.02961,0.0828 0.812764,2.33745 1.095999,3.15527 0.109005,0.31475 0.199014,0.57447 0.200018,0.57715 0.0014,0.004 -0.02273,0.005 -0.11285,0.005 l -0.114676,-2e-5 -0.03856,-0.10643 z"
       id="path26482" />
    <path
       style="fill:#ac0000;stroke-width:0.00390625"
       d="m 30.980469,123.76264 c -1.056667,-1.302 -3.07012,-3.75722 -4.25166,-5.18451 -0.541714,-0.65439 -1.602468,-1.92909 -1.663507,-1.99903 -0.0057,-0.007 0.0026,-0.007 0.166305,-0.007 h 0.17227 l 0.313865,0.37597 c 1.154516,1.38299 2.552065,3.07483 4.116563,4.9834 0.716849,0.87451 1.683273,2.05756 1.683273,2.06059 0,0.001 -0.004,0.002 -0.009,0.002 -0.0072,0 -0.08798,-0.0969 -0.408588,-0.49023 l -0.399596,-0.49024 H 30.54063 c -0.08787,0 -0.159759,0.001 -0.159744,0.003 0,0.002 0.01441,0.0187 0.032,0.038 0.05005,0.0549 0.17426,0.20565 0.570707,0.69247 0.108926,0.13375 0.198048,0.24405 0.198048,0.24511 0,0.001 -0.0031,0.002 -0.0068,0.002 -0.0042,-1.5e-4 -0.07968,-0.09 -0.194336,-0.23127 z"
       id="path26521" />
    <path
       style="fill:#ac0000;stroke-width:0.00390625"
       d="m 23.435247,119.37421 c -0.0022,-0.006 -0.03222,-0.0906 -0.06669,-0.18848 -0.273253,-0.77564 -0.552835,-1.58232 -0.781237,-2.25409 -0.04931,-0.14502 -0.09659,-0.28356 -0.105084,-0.30787 -0.0085,-0.0243 -0.01544,-0.0459 -0.01544,-0.0479 0,-0.002 0.05364,-0.003 0.139648,-0.003 l 0.139649,0.001 0.06342,0.1875 c 0.165914,0.49054 0.33532,0.98151 0.684683,1.98437 0.110021,0.31582 0.205004,0.58872 0.211073,0.60645 l 0.01103,0.0322 h -0.13852 -0.138521 z"
       id="path26560" />
    <path
       style="fill:#ac0000;stroke-width:0.00390625"
       d="m 24.915273,116.40044 c -1.10096,-1.31274 -2.010481,-2.37254 -2.559552,-2.98247 -0.23024,-0.25576 -0.37981,-0.41547 -0.521395,-0.55673 -0.169039,-0.16866 -0.239451,-0.22362 -0.257945,-0.20134 -0.004,0.005 -0.0047,0.0164 -0.003,0.0482 0.01143,0.21785 0.300092,1.20943 0.78662,2.70207 0.06648,0.20396 0.375132,1.13622 0.383132,1.15722 0.0015,0.004 -0.02785,0.005 -0.138608,0.005 h -0.140467 l -0.215202,-0.64551 c -0.5162,-1.54837 -0.815657,-2.503 -1.056862,-3.36914 l -0.01333,-0.0478 0.375518,1e-5 0.375517,1e-5 0.08699,0.0974 c 0.709075,0.79374 1.833353,2.10879 3.263817,3.81764 l 0.120169,0.14356 -0.089,4.4e-4 c -0.04895,2.4e-4 -0.125371,0.002 -0.169823,0.003 l -0.08082,0.002 z"
       id="path26599" />
    <path
       style="fill:#ac0000;stroke-width:0.00390625"
       d="m 21.158987,112.43457 c -0.10205,-0.38347 -0.153477,-0.632 -0.15459,-0.74707 -8.34e-4,-0.0863 0.01041,-0.0958 0.06706,-0.0571 0.103401,0.0707 0.383644,0.35474 0.747548,0.75759 0.04981,0.0552 0.09499,0.10511 0.100384,0.11101 l 0.0098,0.0108 H 21.55409 21.178991 Z"
       id="path26638" />
  </g>
</svg>
