<?xml version="1.0" encoding="UTF-8" standalone="no"?>
<!-- Created with Inkscape (http://www.inkscape.org/) -->

<svg
   version="1.1"
   id="svg57361"
   width="144"
   height="172"
   viewBox="0 0 144 172"
   sodipodi:docname="barbarian-symbol.svg"
   inkscape:version="1.1.2 (b8e25be833, 2022-02-05)"
   xmlns:inkscape="http://www.inkscape.org/namespaces/inkscape"
   xmlns:sodipodi="http://sodipodi.sourceforge.net/DTD/sodipodi-0.dtd"
   xmlns="http://www.w3.org/2000/svg"
   xmlns:svg="http://www.w3.org/2000/svg">
  <defs
     id="defs57365" />
  <sodipodi:namedview
     id="namedview57363"
     pagecolor="#ffffff"
     bordercolor="#666666"
     borderopacity="1.0"
     inkscape:pageshadow="2"
     inkscape:pageopacity="0.0"
     inkscape:pagecheckerboard="0"
     showgrid="false"
     inkscape:zoom="2.5377907"
     inkscape:cx="135.55097"
     inkscape:cy="118.6071"
     inkscape:window-width="3440"
     inkscape:window-height="1377"
     inkscape:window-x="-8"
     inkscape:window-y="-8"
     inkscape:window-maximized="1"
     inkscape:current-layer="g57367" />
  <g
     inkscape:groupmode="layer"
     inkscape:label="Image"
     id="g57367">
    <path
       style="fill:#ff0000;fill-opacity:1;stroke-width:1.33333"
       d="m 66.660113,163.266 c -3.67434,-2.9456 -3.69943,-3.06244 -1.57189,-7.32093 1.70579,-3.41434 2.01801,-6.93142 1.47954,-16.66667 -0.79151,-14.31023 -0.79229,-11.32211 0.009,-34.73045 0.57711,-16.856245 0.401,-18.761346 -2.10989,-22.824053 -1.50676,-2.437984 -2.73956,-5.411878 -2.73956,-6.608653 0,-3.107376 -1.94265,-2.686828 -3.82358,0.827737 -0.88414,1.652032 -3.42074,4.044332 -5.63689,5.316226 -2.92814,1.680522 -5.4625,5.414576 -9.27327,13.662973 -2.88416,6.24275 -5.84384,11.35045 -6.57708,11.35045 -0.73324,0 -5.15427,-3.75 -9.82452,-8.333345 -11.51534,-11.301036 -15.88346,-20.378992 -20.20951,-41.999996 -0.74869,-3.74169 -0.50037,-4.333333 1.81874,-4.333333 1.47719,0 4.32646,-0.623775 6.3317,-1.386165 l 3.64589,-1.386167 -5.53523,-5.639993 -5.53524,-5.639995 4.76572,-7.97384 c 2.62114,-4.385612 6.3604,-9.701104 8.30947,-11.812204 3.97915,-4.309945 13.37112,-11.4949688 15.02576,-11.4949688 0.59504,0 1.72611,2.5500001 2.51349,5.6666658 3.07456,12.169962 5.40057,16.271759 12.13521,21.399867 3.65957,2.786593 7.32357,6.536593 8.14222,8.333333 1.79859,3.947466 3.72708,4.259979 3.72708,0.603975 0,-2.956651 8.73809,-13.337175 11.22693,-13.337175 2.53129,0 9.8375,8.323944 10.82539,12.333334 1.04611,4.245684 3.28102,4.924969 3.28102,0.997242 0,-1.736376 2.91276,-4.796848 8.33333,-8.75593 8.156197,-5.957132 8.390017,-6.301982 10.999997,-16.223487 1.46667,-5.575339 3.33931,-10.3593826 4.16142,-10.6312095 2.34272,-0.7746036 15.00557,10.7353135 20.0476,18.2222925 7.45963,11.076918 7.56123,11.98641 1.98996,17.813392 -4.70177,4.917564 -4.77847,5.15333 -2.27747,7 1.42349,1.051068 3.63306,1.911033 4.91014,1.911033 1.2771,0 2.66782,1.089625 3.0905,2.421391 1.26314,3.979809 -1.66611,16.359685 -5.93697,25.091369 -4.06614,8.31312 -20.19093,27.153914 -23.23955,27.153914 -0.91923,0 -3.71305,-4.86103 -6.20848,-10.80229 -2.64953,-6.308143 -5.868557,-11.716612 -7.737367,-13 -1.76012,-1.208744 -4.91012,-3.911171 -7,-6.005391 -3.45572,-3.462904 -3.79978,-3.562713 -3.79978,-1.102301 0,1.487956 -1.53367,4.528043 -3.40816,6.755748 -3.36594,4.000193 -3.40004,4.269889 -2.75194,21.768974 0.36092,9.74522 0.64333,24.69924 0.62756,33.23115 -0.0217,11.7262 0.49778,16.53057 2.12815,19.68336 2.10727,4.07501 2.08224,4.19916 -1.08988,5.4052 -1.78568,0.67892 -3.64039,1.8714 -4.12157,2.64997 -1.40594,2.27486 -5.09978,1.63031 -9.11809,-1.59105 z M 53.793593,68.238383 c 3.43502,-1.776322 3.93378,-2.764432 3.93378,-7.793351 0,-5.871328 -1.9694,-8.805833 -7.14845,-10.651531 -1.98445,-0.707214 -2.29111,-0.41384 -1.53029,1.464 3.37854,8.33879 3.5031,9.509282 1.43711,13.504462 -3.25811,6.300497 -2.89378,6.683404 3.30785,3.47642 z m 42.60045,0.634693 c 0,-0.769751 -0.91541,-3.169751 -2.03424,-5.333333 -1.83165,-3.542016 -1.82358,-4.341154 0.081,-8.024175 2.96868,-5.740803 1.9985,-6.988677 -3.04675,-3.918821 -3.85232,2.344002 -4.33333,3.300142 -4.33333,8.613694 0,5.149262 0.50779,6.252499 3.66666,7.966215 4.41413,2.394701 5.66667,2.548636 5.66667,0.69642 z m 13.333327,80.714914 v -5.01116 l -6,0.8224 c -3.3,0.4523 -5.999997,0.48829 -5.999997,0.08 0,-2.40147 24.402957,-31.99767 24.972997,-30.28756 0.22139,0.66417 -0.80697,4.72303 -2.28524,9.0197 -3.54121,10.29271 -3.49041,10.54047 1.97891,9.65292 2.56667,-0.4165 4.66667,-0.43009 4.66667,-0.0301 0,1.02857 -12.82389,17.02257 -15.28886,19.06831 -1.7754,1.47337 -2.04448,1.03716 -2.04448,-3.31448 z m -83.371797,-4.90751 c -9.7398,-11.94468 -9.74168,-11.95075 -3.37731,-10.93305 2.97868,0.47632 5.41578,0.50661 5.41578,0.0673 0,-0.43928 -1.75809,-5.61596 -3.90686,-11.50374 -2.14878,-5.88779 -3.70648,-10.70506 -3.46157,-10.70506 0.65934,0 27.36843,33.02863 27.36843,33.84397 0,0.38338 -3,0.34175 -6.66667,-0.0925 -5.92181,-0.70135 -6.66894,-0.50812 -6.68708,1.72949 -0.0501,6.17754 -2.16257,5.59219 -8.68472,-2.40642 z"
       id="path57451" />
  </g>
</svg>
