<?xml version="1.0" encoding="UTF-8" standalone="no"?>
<!-- Created with Inkscape (http://www.inkscape.org/) -->

<svg
   version="1.1"
   id="svg22173"
   width="160"
   height="145.33333"
   viewBox="0 0 160 145.33333"
   sodipodi:docname="bard-symbol.svg"
   inkscape:version="1.1.2 (b8e25be833, 2022-02-05)"
   xmlns:inkscape="http://www.inkscape.org/namespaces/inkscape"
   xmlns:sodipodi="http://sodipodi.sourceforge.net/DTD/sodipodi-0.dtd"
   xmlns="http://www.w3.org/2000/svg"
   xmlns:svg="http://www.w3.org/2000/svg">
  <defs
     id="defs22177" />
  <sodipodi:namedview
     id="namedview22175"
     pagecolor="#ffffff"
     bordercolor="#666666"
     borderopacity="1.0"
     inkscape:pageshadow="2"
     inkscape:pageopacity="0.0"
     inkscape:pagecheckerboard="0"
     showgrid="false"
     inkscape:zoom="1.5017202"
     inkscape:cx="-117.19893"
     inkscape:cy="149.16227"
     inkscape:window-width="3440"
     inkscape:window-height="1377"
     inkscape:window-x="-8"
     inkscape:window-y="-8"
     inkscape:window-maximized="1"
     inkscape:current-layer="g22179" />
  <g
     inkscape:groupmode="layer"
     inkscape:label="Image"
     id="g22179">
    <path
       style="fill:#ff0000;fill-opacity:1;stroke-width:1.33333"
       d="m 68.382875,140.71395 c -22.6121,-2.6383 -45.29291,-23.86567 -51.86271,-48.539238 -3.63531,-13.652787 -2.28334,-29.931738 4.30983,-51.894247 0.5986,-1.994003 0.15168,-2.243774 -2.72361,-1.522123 -5.55405,1.393977 -4.25981,-2.700256 2.22695,-7.044785 7.4598,-4.996227 8.17122,-9.84213 2.39477,-16.312176 -8.0177,-8.9803984 -2.84052,-12.5357022 9.32271,-6.4021449 4.95018,2.4962299 6.27232,4.0075409 7.87351,8.9999999 l 1.92433,6 h 38.34812 38.348135 l 0.84082,-4.976791 c 0.53353,-3.157969 2.24436,-6.157787 4.68128,-8.208318 4.72129,-3.9727092 14.39195,-5.9536273 16.07756,-3.2932954 1.75138,2.7641464 1.51091,3.3755084 -2.9779,7.5706644 -5.46048,5.103255 -5.58035,10.304765 -0.33334,14.463934 9.54476,7.565877 11.23974,10.515572 5.16667,8.991331 -4.09524,-1.027839 -4.09528,-1.001774 -0.0199,12.119141 7.83635,25.229134 2.48215,51.001788 -14.43979,69.506388 -15.8417,17.32338 -33.673075,23.51507 -59.157465,20.54166 z m 8.95046,-34.09087 c 0,-13.535251 -1.62266,-19.500212 -6.48265,-23.830496 l -2.85069,-2.539983 v 18.651094 c 0,10.258105 0.4,19.051105 0.88889,19.539985 0.48889,0.48889 2.58889,0.88889 4.66667,0.88889 h 3.77778 z m 14.31908,-7.290513 0.31908,-19.333332 -3.90345,4.262265 c -4.9921,5.450974 -6.71799,11.818145 -6.72728,24.81823 l -0.007,10.41382 5,-0.41382 5,-0.41382 z m -27.94999,-3.128882 0.36909,-19.576598 -3.48098,-1.323464 c -1.91454,-0.727907 -4.03063,-0.983763 -4.70242,-0.568571 -0.6718,0.415192 -1.22145,9.085462 -1.22145,19.267266 0,17.640742 0.14008,18.610502 2.97516,20.596262 1.63634,1.14614 3.58634,1.8809 4.33334,1.6328 0.81687,-0.27131 1.50527,-8.25334 1.72726,-20.027695 z m 38.964245,17.795555 c 2.40213,-2.40214 2.66666,-4.44444 2.66666,-20.587983 0,-9.856721 -0.54965,-18.261013 -1.22144,-18.676205 -0.6718,-0.415192 -2.7718,-0.165453 -4.666665,0.554976 l -3.44523,1.309871 V 95.74401 c 0,22.17847 0.73388,24.18802 6.666675,18.25523 z M 50.109485,30.330945 c -0.32861,-0.328615 -2.70836,0.09917 -5.28833,0.950637 -3.95544,1.305414 -5.0914,2.632699 -7.24583,8.466219 -1.40524,3.804956 -3.65891,12.447283 -5.00815,19.205171 -2.14786,10.757932 -2.23993,13.31942 -0.73981,20.582283 2.16716,10.492341 6.47903,19.007872 13.03457,25.742045 l 5.13806,5.27806 0.35349,-39.813468 c 0.19442,-21.897405 0.0846,-40.082331 -0.244,-40.410947 z m 75.359465,58.415877 c 4.55912,-12.050766 3.59103,-27.791404 -2.93278,-47.685703 -1.83607,-5.59911 -3.54548,-8.506829 -5.29095,-8.999999 -1.4182,-0.400703 -3.77855,-1.068983 -5.24522,-1.485068 -2.6256,-0.744866 -2.66573,-0.133987 -2.60614,39.666665 l 0.0605,40.423193 6.60478,-7.25242 c 3.86862,-4.247952 7.76682,-10.32392 9.40979,-14.666668 z M 60.579865,70.032236 63.999995,68.731904 V 49.323723 c 0,-16.738418 -0.30004,-19.523319 -2.18123,-20.245197 -1.19967,-0.460358 -3.14967,-0.22717 -4.33333,0.518198 -1.77989,1.120825 -2.21656,4.547824 -2.52481,19.814655 -0.34596,17.134309 -10e-4,21.921189 1.5774,21.921189 0.34194,0 2.16077,-0.585149 4.04184,-1.300332 z M 104.66667,50.792957 c 0,-16.805888 -0.32879,-20.04382 -2.15211,-21.193936 -1.18365,-0.746631 -3.133655,-0.980853 -4.333325,-0.520495 -3.23784,1.242475 -3.25508,36.989725 -0.0194,40.225402 1.189,1.189011 3.139005,1.973651 4.333335,1.743645 1.89038,-0.364056 2.17149,-2.986042 2.17149,-20.254616 z m -29.149315,4.91577 c 1.05528,-2.493247 1.81598,-9.055897 1.81598,-15.666666 V 28.665902 h -4.66667 -4.66667 v 18.206651 18.206649 l 2.85069,-2.539983 c 1.56788,-1.396992 3.66788,-4.470713 4.66667,-6.830492 z m 16.48264,-9.788181 V 28.665902 h -5.51501 -5.51501 l 0.66181,12.652533 c 0.56737,10.847008 1.17129,13.422407 4.23207,18.047551 1.96363,2.967258 4.14757,5.038208 4.8532,4.602109 0.71477,-0.441752 1.28294,-8.434464 1.28294,-18.047549 z M 29.756655,135.95219 C 13.226865,126.58254 5.2302255,112.19951 5.4270455,92.192121 c 0.1163,-11.822496 2.33906,-18.5224 2.47924,-7.473019 0.11661,9.191 3.0181695,20.579638 7.4931395,29.410568 3.42585,6.76059 13.75381,18.21694 21.26724,23.59081 6.19542,4.43119 2.24239,3.41959 -6.91001,-1.76829 z m 95.738535,-0.56494 c 3.21098,-2.90325 6.21518,-5.30325 6.676,-5.33333 0.46082,-0.0301 3.3536,-3.31555 6.42838,-7.30105 6.91011,-8.95678 10.58095,-18.22953 12.70243,-32.086969 l 1.63297,-10.666666 1.07364,6.666666 c 2.35208,14.605139 -3.89484,33.370859 -14.2115,42.691359 -4.44554,4.01626 -16.86379,11.30865 -19.2576,11.30865 -0.48536,0 1.7447,-2.37539 4.95568,-5.27866 z"
       id="path22263" />
  </g>
</svg>
