<?xml version="1.0" encoding="UTF-8" standalone="no"?>
<!-- Created with Inkscape (http://www.inkscape.org/) -->

<svg
   version="1.1"
   id="svg22173"
   width="160"
   height="145.33333"
   viewBox="0 0 160 145.33333"
   sodipodi:docname="bard-symbol.svg"
   inkscape:version="1.1.2 (b8e25be833, 2022-02-05)"
   xmlns:inkscape="http://www.inkscape.org/namespaces/inkscape"
   xmlns:sodipodi="http://sodipodi.sourceforge.net/DTD/sodipodi-0.dtd"
   xmlns="http://www.w3.org/2000/svg"
   xmlns:svg="http://www.w3.org/2000/svg">
  <defs
     id="defs22177" />
  <sodipodi:namedview
     id="namedview22175"
     pagecolor="#ffffff"
     bordercolor="#666666"
     borderopacity="1.0"
     inkscape:pageshadow="2"
     inkscape:pageopacity="0.0"
     inkscape:pagecheckerboard="0"
     showgrid="false"
     inkscape:zoom="1.5017202"
     inkscape:cx="32.629247"
     inkscape:cy="27.302023"
     inkscape:window-width="3440"
     inkscape:window-height="1377"
     inkscape:window-x="-8"
     inkscape:window-y="-8"
     inkscape:window-maximized="1"
     inkscape:current-layer="g22179" />
  <g
     inkscape:groupmode="layer"
     inkscape:label="Image"
     id="g22179">
    <path
       style="fill:#ff0000;fill-opacity:1;stroke-width:1.33333"
       d="m 68.382875,140.71395 c -22.6121,-2.6383 -45.29291,-23.86567 -51.86271,-48.539238 -3.63531,-13.652787 -2.28334,-29.931738 4.30983,-51.894247 0.5986,-1.994003 0.15168,-2.243774 -2.72361,-1.522123 -5.55405,1.393977 -4.25981,-2.700256 2.22695,-7.044785 7.4598,-4.996227 8.17122,-9.84213 2.39477,-16.312176 -8.0177,-8.9803984 -2.84052,-12.5357022 9.32271,-6.4021449 4.95018,2.4962299 6.27232,4.0075409 7.87351,8.9999999 l 1.92433,6 h 38.34812 38.348135 l 0.84082,-4.976791 c 0.53353,-3.157969 2.24436,-6.157787 4.68128,-8.208318 4.72129,-3.9727092 14.39195,-5.9536273 16.07756,-3.2932954 1.75138,2.7641464 1.51091,3.3755084 -2.9779,7.5706644 -5.46048,5.103255 -5.58035,10.304765 -0.33334,14.463934 9.54476,7.565877 11.23974,10.515572 5.16667,8.991331 -4.09524,-1.027839 -4.09528,-1.001774 -0.0199,12.119141 7.83635,25.229134 2.48215,51.001788 -14.43979,69.506388 -15.8417,17.32338 -33.673075,23.51507 -59.157465,20.54166 z m 8.95046,-34.09087 c 0,-13.535251 -1.62266,-19.500212 -6.48265,-23.830496 l -2.85069,-2.539983 v 18.651094 c 0,10.258105 0.4,19.051105 0.88889,19.539985 0.48889,0.48889 2.58889,0.88889 4.66667,0.88889 h 3.77778 z m 14.31908,-7.290513 0.31908,-19.333332 -3.90345,4.262265 c -4.9921,5.450974 -6.71799,11.818145 -6.72728,24.81823 l -0.007,10.41382 5,-0.41382 5,-0.41382 z m -27.94999,-3.128882 0.36909,-19.576598 -3.48098,-1.323464 c -1.91454,-0.727907 -4.03063,-0.983763 -4.70242,-0.568571 -0.6718,0.415192 -1.22145,9.085462 -1.22145,19.267266 0,17.640742 0.14008,18.610502 2.97516,20.596262 1.63634,1.14614 3.58634,1.8809 4.33334,1.6328 0.81687,-0.27131 1.50527,-8.25334 1.72726,-20.027695 z m 38.964245,17.795555 c 2.40213,-2.40214 2.66666,-4.44444 2.66666,-20.587983 0,-9.856721 -0.54965,-18.261013 -1.22144,-18.676205 -0.6718,-0.415192 -2.7718,-0.165453 -4.666665,0.554976 l -3.44523,1.309871 V 95.74401 c 0,22.17847 0.73388,24.18802 6.666675,18.25523 z M 50.109485,30.330945 c -0.32861,-0.328615 -2.70836,0.09917 -5.28833,0.950637 -3.95544,1.305414 -5.0914,2.632699 -7.24583,8.466219 -1.40524,3.804956 -3.65891,12.447283 -5.00815,19.205171 -2.14786,10.757932 -2.23993,13.31942 -0.73981,20.582283 2.16716,10.492341 6.47903,19.007872 13.03457,25.742045 l 5.13806,5.27806 0.35349,-39.813468 c 0.19442,-21.897405 0.0846,-40.082331 -0.244,-40.410947 z m 75.359465,58.415877 c 4.55912,-12.050766 3.59103,-27.791404 -2.93278,-47.685703 -1.83607,-5.59911 -3.54548,-8.506829 -5.29095,-8.999999 -1.4182,-0.400703 -3.77855,-1.068983 -5.24522,-1.485068 -2.6256,-0.744866 -2.66573,-0.133987 -2.60614,39.666665 l 0.0605,40.423193 6.60478,-7.25242 c 3.86862,-4.247952 7.76682,-10.32392 9.40979,-14.666668 z M 60.579865,70.032236 63.999995,68.731904 V 49.323723 c 0,-16.738418 -0.30004,-19.523319 -2.18123,-20.245197 -1.19967,-0.460358 -3.14967,-0.22717 -4.33333,0.518198 -1.77989,1.120825 -2.21656,4.547824 -2.52481,19.814655 -0.34596,17.134309 -10e-4,21.921189 1.5774,21.921189 0.34194,0 2.16077,-0.585149 4.04184,-1.300332 z M 104.66667,50.792957 c 0,-16.805888 -0.32879,-20.04382 -2.15211,-21.193936 -1.18365,-0.746631 -3.133655,-0.980853 -4.333325,-0.520495 -3.23784,1.242475 -3.25508,36.989725 -0.0194,40.225402 1.189,1.189011 3.139005,1.973651 4.333335,1.743645 1.89038,-0.364056 2.17149,-2.986042 2.17149,-20.254616 z m -29.149315,4.91577 c 1.05528,-2.493247 1.81598,-9.055897 1.81598,-15.666666 V 28.665902 h -4.66667 -4.66667 v 18.206651 18.206649 l 2.85069,-2.539983 c 1.56788,-1.396992 3.66788,-4.470713 4.66667,-6.830492 z m 16.48264,-9.788181 V 28.665902 h -5.51501 -5.51501 l 0.66181,12.652533 c 0.56737,10.847008 1.17129,13.422407 4.23207,18.047551 1.96363,2.967258 4.14757,5.038208 4.8532,4.602109 0.71477,-0.441752 1.28294,-8.434464 1.28294,-18.047549 z M 29.756655,135.95219 C 13.226865,126.58254 5.2302255,112.19951 5.4270455,92.192121 c 0.1163,-11.822496 2.33906,-18.5224 2.47924,-7.473019 0.11661,9.191 3.0181695,20.579638 7.4931395,29.410568 3.42585,6.76059 13.75381,18.21694 21.26724,23.59081 6.19542,4.43119 2.24239,3.41959 -6.91001,-1.76829 z m 95.738535,-0.56494 c 3.21098,-2.90325 6.21518,-5.30325 6.676,-5.33333 0.46082,-0.0301 3.3536,-3.31555 6.42838,-7.30105 6.91011,-8.95678 10.58095,-18.22953 12.70243,-32.086969 l 1.63297,-10.666666 1.07364,6.666666 c 2.35208,14.605139 -3.89484,33.370859 -14.2115,42.691359 -4.44554,4.01626 -16.86379,11.30865 -19.2576,11.30865 -0.48536,0 1.7447,-2.37539 4.95568,-5.27866 z"
       id="path22263" />
    <path
       style="fill:#ac0000;stroke-width:0.665903"
       d="M 66.76569,140.18703 C 48.284412,136.86246 29.926349,121.81644 20.93912,102.62819 13.659019,87.084758 13.120628,71.520698 19.059043,48.277968 c 1.076105,-4.211836 2.131231,-8.225061 2.344725,-8.918276 0.351803,-1.14231 0.09942,-1.227844 -2.69396,-0.91299 -5.164278,0.582088 -4.691578,-1.244091 1.60837,-6.213614 4.718299,-3.721887 5.843165,-5.102469 6.383965,-7.835233 C 27.226004,21.750692 25.976515,18.764272 22.6431,14.696278 15.864021,6.4233068 20.164925,3.7557622 31.361021,9.2891725 36.906453,12.029874 37.989629,13.319582 40.026875,19.60737 l 1.414306,4.365138 38.680075,0.171829 38.680074,0.171828 0.40671,-2.502489 c 1.17156,-7.20865 4.80519,-11.798644 10.90322,-13.7729108 5.76214,-1.8655223 9.14872,-1.6529069 10.19342,0.6399611 0.70411,1.5453687 0.51331,1.9552537 -2.24736,4.8277967 -4.37457,4.551843 -5.20934,6.064776 -5.21236,9.446822 -0.003,2.934988 0.15625,3.164848 5.99582,8.675048 3.29918,3.113096 5.9973,5.925648 5.99581,6.250115 -0.001,0.324467 -1.35114,0.405113 -2.99925,0.179214 -2.93716,-0.402581 -2.99656,-0.373678 -2.99656,1.457897 0,1.027741 0.91565,4.929265 2.03478,8.670054 3.03085,10.130892 3.99517,16.169759 4.00034,25.051323 0.006,9.772287 -1.34293,17.340348 -4.50674,25.290597 -7.83113,19.678627 -23.98397,34.906687 -42.814369,40.363147 -4.063207,1.1774 -7.104693,1.48583 -16.314624,1.65443 -6.226193,0.11399 -12.739707,-0.0481 -14.474477,-0.36014 z m 10.645861,-33.47607 c -0.368526,-15.367493 -1.097345,-18.370835 -5.63536,-23.222338 -1.670612,-1.786019 -3.332239,-3.247309 -3.692503,-3.247309 -0.420464,0 -0.55806,6.810063 -0.384244,19.01739 0.22442,15.761287 0.437685,19.122967 1.245577,19.633947 0.536137,0.3391 2.729601,0.62114 4.874364,0.62675 l 3.899568,0.0102 z m 13.810509,12.04839 c 0.166569,-0.16656 0.50239,-9.126 0.746271,-19.909864 l 0.443425,-19.607028 -1.817383,1.664758 c -3.309272,3.031363 -6.49878,7.996649 -7.826358,12.183741 -0.993461,3.13328 -1.400574,6.847227 -1.68578,15.378773 l -0.376022,11.2479 5.106497,-0.32771 c 2.808579,-0.18025 5.242788,-0.464 5.40935,-0.63057 z m -28.171551,-5.27709 c 0.250594,-1.6183 0.672986,-10.64774 0.93865,-20.065444 L 64.472182,76.29374 62.534678,75.536521 C 61.469051,75.120052 59.488566,74.622376 58.1336,74.43057 c -2.268551,-0.321132 -2.504917,-0.197188 -2.985841,1.565671 -0.287248,1.052926 -0.527093,9.41778 -0.532991,18.588569 -0.01193,18.55149 0.171474,19.41334 4.534384,21.30804 2.908237,1.26297 3.377394,0.97308 3.901357,-2.41059 z m 39.154051,1.50001 c 1.03604,-1.03604 2.20994,-3.05872 2.60867,-4.49484 0.79042,-2.84687 0.9304,-27.937572 0.18361,-32.909729 -0.53927,-3.590423 -1.94874,-4.082505 -6.602698,-2.305137 l -2.983912,1.139567 0.265989,18.728642 c 0.279612,19.688207 0.587626,21.725207 3.285032,21.725207 0.747776,0 2.207269,-0.84767 3.243309,-1.88371 z M 50.845145,54.604047 c 0.04498,-10.9874 -0.10155,-21.085951 -0.325618,-22.441225 -0.386798,-2.33955 -0.51268,-2.444819 -2.489807,-2.0821 -4.575932,0.839489 -7.615764,2.685938 -9.049898,5.497073 -3.94224,7.72743 -9.147009,32.291605 -8.307399,39.207202 1.400664,11.536816 6.578414,22.801977 14.211258,30.919233 l 5.059045,5.38011 0.410321,-18.251601 c 0.225677,-10.038381 0.447121,-27.241293 0.492098,-38.228692 z m 63.108335,51.773963 c 11.18425,-12.511596 14.42906,-20.340944 14.41987,-34.793437 -0.005,-8.399851 -1.14673,-15.532538 -4.16225,-26.010426 -3.41484,-11.865425 -5.00152,-14.006196 -11.10424,-14.982061 -2.24067,-0.358299 -2.80177,-0.220784 -3.27391,0.802377 -0.76001,1.647032 -1.22887,79.478387 -0.47877,79.478387 0.31972,0 2.38941,-2.02268 4.5993,-4.49484 z M 61.808011,69.935063 64.350654,68.865061 64.138672,49.527374 c -0.202086,-18.434881 -0.27416,-19.383708 -1.543789,-20.32344 -1.588154,-1.175491 -4.957091,-0.715425 -6.113475,0.834862 -0.432438,0.579741 -0.975028,2.898041 -1.205755,5.151778 -0.655635,6.404244 -0.736266,33.218441 -0.105142,34.965548 0.635045,1.75796 2.046467,1.710953 6.6375,-0.221059 z m 41.824849,0.549756 c 1.20821,-1.453892 1.70957,-33.99718 0.58793,-38.162621 -1.3656,-5.071486 -6.736026,-5.22513 -7.795404,-0.223021 -0.883287,4.170635 -0.616966,31.429407 0.338518,34.648496 1.179261,3.973021 4.962456,6.031317 6.868956,3.737146 z M 73.306936,60.181098 c 3.204991,-4.624803 3.777923,-7.415759 4.118042,-20.060442 L 77.74291,28.300878 h -5.076877 -5.076878 v 18.665219 18.66522 l 1.989958,-1.471239 c 1.094477,-0.809181 2.771997,-2.599723 3.727823,-3.97898 z m 18.371847,0.694825 c 0.247536,-1.618298 0.472278,-9.609715 0.499427,-17.758703 l 0.04936,-14.816342 h -5.76118 -5.76118 l 0.456111,9.653138 c 0.711317,15.054382 1.882794,19.351715 6.685619,24.524883 2.268685,2.443619 3.277415,2.021634 3.831846,-1.602976 z"
       id="path57287" />
    <path
       style="fill:#ac0000;stroke-width:0.665903"
       d="M 31.87553,136.60945 C 23.846312,132.28127 16.686403,125.92025 12.65414,119.53273 7.8047692,111.85083 5.1445538,99.467401 5.9320149,88.240917 c 0.5119049,-7.298 1.7258697,-9.801159 1.7258697,-3.558691 0,8.836768 4.0048554,23.875264 8.3182164,31.235464 2.841556,4.84875 11.407187,14.6463 16.38461,18.74107 2.528298,2.07995 4.596906,3.8718 4.596906,3.98188 0,0.52337 -1.326987,-0.007 -5.082087,-2.03119 z"
       id="path57326" />
    <path
       style="fill:#ac0000;stroke-width:0.665903"
       d="m 123.25533,138.09845 c 0.69769,-0.77452 3.57533,-3.3345 6.39475,-5.68883 6.36491,-5.31497 11.18561,-11.30827 14.89646,-18.51991 3.44655,-6.69801 5.17787,-12.30109 6.87558,-22.251419 0.70386,-4.125359 1.42957,-7.650472 1.61268,-7.833586 0.63502,-0.635025 1.28919,9.915491 0.86905,14.016278 -1.33871,13.066517 -8.15906,26.617907 -16.60671,32.995937 -3.81137,2.87762 -13.63784,8.68976 -14.69159,8.68976 -0.34032,0 -0.0479,-0.6337 0.64978,-1.40823 z"
       id="path57365" />
    <path
       style="fill:#ac0000;stroke-width:0.166476"
       d=""
       id="path57404" />
    <path
       style="fill:#ac0000;stroke-width:0.166476"
       d="m 68.005345,140.24728 c -2.377594,-0.21606 -6.271913,-1.22013 -9.82207,-2.53242 -13.159773,-4.86443 -25.797099,-15.62078 -33.695787,-28.68042 -5.143577,-8.50436 -8.010239,-16.855271 -9.112482,-26.545705 -0.279538,-2.457571 -0.281266,-10.692999 -0.0028,-13.567773 0.735988,-7.599339 2.556873,-16.599473 5.611181,-27.73452 0.316398,-1.153488 0.57527,-2.257043 0.57527,-2.452344 0,-0.512151 -0.519098,-0.586015 -2.710664,-0.385709 -1.043702,0.09539 -2.040668,0.144391 -2.215481,0.108883 -0.174813,-0.03551 -0.518862,-0.106701 -0.764554,-0.158208 -0.968758,-0.203097 -0.69641,-1.182081 0.758848,-2.727772 0.469257,-0.498419 2.214635,-2.022817 3.878617,-3.387555 3.58379,-2.939296 4.913944,-4.306755 5.585782,-5.742438 1.533377,-3.276752 0.795268,-6.34402 -2.570795,-10.683134 -1.720833,-2.218286 -3.232648,-4.512511 -3.614064,-5.48445 -0.382713,-0.9752481 -0.451068,-2.4655072 -0.132009,-2.8780529 1.343085,-1.7366215 5.378746,-1.032207 11.523151,2.0113375 5.746887,2.8466384 6.531901,3.8177244 8.903305,11.0136444 l 1.183545,3.591414 19.511748,0.105356 c 10.731462,0.05795 28.164327,0.15239 38.739699,0.209876 l 19.227955,0.10452 0.38597,-2.288848 c 1.46742,-8.702015 5.72296,-13.1776975 14.16535,-14.8981473 1.82688,-0.3722947 3.99083,-0.437573 4.85988,-0.1466044 1.27373,0.4264613 2.30057,1.6812383 2.31023,2.8230592 0.005,0.5776315 -0.8121,1.6454245 -3.38143,4.4195205 -1.17509,1.268732 -2.50434,2.855479 -2.95389,3.526105 -1.12855,1.683518 -1.39412,2.653253 -1.39855,5.106759 -0.003,1.779827 0.0405,2.088493 0.4006,2.830088 0.30931,0.636959 1.70716,2.122148 5.95406,6.326078 3.05242,3.021535 5.54871,5.598896 5.54731,5.727469 -0.002,0.19561 -0.37619,0.212596 -2.29159,0.104059 -3.16441,-0.179315 -3.22686,-0.176088 -3.49758,0.180712 -0.54293,0.715571 0.0708,3.901596 2.13787,11.098989 1.83762,6.398301 2.78097,10.814356 3.35049,15.684494 0.34196,2.924137 0.28545,14.172484 -0.0868,17.282712 -0.94071,7.859291 -2.77631,14.018186 -6.36009,21.339665 -7.62419,15.57584 -20.38757,27.62904 -35.5884,33.6082 -5.111078,2.01041 -8.655637,2.77007 -14.434658,3.09358 -3.485593,0.19512 -17.822381,0.19339 -19.97709,-0.002 z m 16.814051,-20.72046 c 3.984902,-0.2779 6.170022,-0.53254 6.387102,-0.74432 0.175677,-0.17139 0.361948,-3.70842 0.596273,-11.3224 0.263449,-8.560395 0.701062,-28.163344 0.630292,-28.234113 -0.121531,-0.121531 -3.114995,2.793177 -4.179893,4.069924 -2.326484,2.789308 -4.419068,6.436657 -5.410867,9.431083 -1.207603,3.645972 -1.501535,6.484114 -1.939615,18.728526 -0.311197,8.69797 -0.31327,8.32412 0.04615,8.32234 0.160233,-8.3e-4 1.901985,-0.11376 3.870561,-0.25104 z m -7.073845,-2.53598 c -0.05064,-1.4421 -0.167594,-5.61856 -0.259893,-9.28103 -0.42279,-16.776462 -1.057676,-19.396687 -5.953243,-24.56953 -1.811186,-1.913769 -3.297452,-3.111938 -3.548624,-2.860766 -0.390529,0.390529 -0.509073,7.538526 -0.323316,19.495254 0.229754,14.788572 0.432844,18.275102 1.107988,19.021122 0.236519,0.26135 1.346721,0.52587 2.982586,0.71064 0.274685,0.031 1.756538,0.0676 3.293004,0.0814 l 2.793576,0.0249 z m 22.611349,-0.58267 c 2.64214,-1.40495 4.43041,-4.35851 4.76819,-7.87529 0.51689,-5.38141 0.52407,-26.281161 0.0104,-30.264012 -0.33873,-2.626385 -0.80733,-3.541988 -2.00875,-3.924917 -0.65206,-0.207832 -0.89868,-0.205068 -1.99272,0.02233 -0.68672,0.142735 -2.281514,0.652798 -3.543998,1.133475 l -2.295427,0.87396 0.09539,4.930362 c 0.05247,2.7117 0.168998,9.500122 0.258958,15.085384 0.223665,13.886608 0.480458,17.562998 1.353024,19.370738 0.619521,1.28349 1.749387,1.50171 3.354933,0.64797 z m -38.109216,-0.10911 c 0.846082,-0.93491 1.149041,-4.06415 1.597157,-16.496846 0.204003,-5.659901 0.663043,-21.332153 0.663905,-22.666578 l 6.66e-4,-0.94149 -1.456662,-0.529938 c -2.865962,-1.042642 -6.081674,-1.663059 -6.93611,-1.338203 -0.770321,0.292875 -1.068547,1.282927 -1.260725,4.185353 -0.276921,4.182296 -0.404109,22.987312 -0.185098,27.367222 0.378304,7.56556 0.911048,8.68158 4.894522,10.25337 1.425044,0.5623 2.276746,0.61535 2.682404,0.16711 z M 50.262792,99.881842 c 0.45741,-19.817886 0.631925,-36.282671 0.550494,-51.936825 -0.0982,-18.877214 -0.01758,-18.197443 -2.13496,-18.000654 -3.301223,0.306817 -7.166865,2.1293 -8.784724,4.141619 -2.133409,2.653568 -5.099449,12.187603 -7.418987,23.84758 -1.897074,9.536314 -2.297373,15.036847 -1.439471,19.779868 1.646428,9.102485 5.709539,18.166984 11.244362,25.08535 1.259345,1.57414 7.569218,8.39004 7.671998,8.28726 0.02966,-0.0297 0.169742,-5.07155 0.311288,-11.204198 z m 61.452028,8.988648 c 2.17298,-2.21234 5.71244,-6.35819 7.81477,-9.153619 5.07061,-6.742287 7.48102,-12.498473 8.51559,-20.335644 0.35961,-2.724197 0.41577,-11.914163 0.0919,-15.038349 -0.64724,-6.243548 -1.94135,-12.303766 -4.39035,-20.559755 -2.84663,-9.59648 -4.65474,-12.044436 -9.65896,-13.07705 -1.88473,-0.388912 -3.25946,-0.416063 -3.7478,-0.07402 -0.19649,0.137627 -0.43582,0.493469 -0.53184,0.790759 -0.2772,0.858273 -0.49429,8.400443 -0.69596,24.180087 -0.19999,15.647544 -0.14448,54.578871 0.0785,55.058811 0.2047,0.44059 0.62499,0.14233 2.52414,-1.79122 z M 58.602811,71.178358 c 0.63909,-0.177638 2.203182,-0.752579 3.475756,-1.277647 L 64.39234,68.946044 64.276385,55.781919 C 64.148559,41.270331 63.938362,32.868588 63.663669,31.29118 c -0.372561,-2.139401 -1.33858,-2.828398 -3.799668,-2.710045 -1.178255,0.05666 -1.584887,0.152656 -2.302196,0.54349 -1.004233,0.547167 -1.245518,0.86045 -1.611267,2.092061 -0.878065,2.956764 -1.081319,6.485392 -1.203307,20.890225 -0.10311,12.175788 0.04386,17.46955 0.51002,18.371013 0.560342,1.083584 1.362721,1.251572 3.34556,0.700434 z m 44.499699,-0.126557 c 0.62683,-0.46378 0.81321,-0.92977 1.01876,-2.547029 0.5963,-4.691874 0.97472,-19.913761 0.70149,-28.21764 -0.21346,-6.48738 -0.34435,-7.730143 -0.95508,-9.067763 -1.7116,-3.748801 -5.835084,-3.771218 -7.232343,-0.03932 -0.500246,1.336095 -0.657949,3.749284 -0.769219,11.770695 -0.138447,9.98043 0.231606,21.010372 0.789651,23.53668 0.475947,2.154639 2.221311,4.306441 3.939541,4.85693 0.7102,0.227532 2.00912,0.07597 2.5072,-0.292553 z M 68.972409,64.698416 c 2.440724,-1.861046 4.698107,-4.551406 6.024723,-7.180298 1.733026,-3.434251 2.165709,-6.516875 2.488679,-17.730413 0.0923,-3.204658 0.213745,-7.11892 0.269877,-8.698358 l 0.102061,-2.871707 h -5.175915 -5.175916 v 18.728522 c 0,10.300687 0.04188,18.728522 0.09307,18.728522 0.05119,0 0.669228,-0.439321 1.373425,-0.976268 z m 22.003723,-1.223223 c 0.934893,-1.537307 1.11932,-4.786129 1.27617,-22.480539 l 0.11326,-12.777014 h -5.85403 -5.85403 v 0.399858 c 0,0.817751 0.500072,10.93172 0.667533,13.500867 0.633632,9.721047 1.809485,14.40236 4.536975,18.06262 2.657156,3.565872 4.30386,4.626579 5.114122,3.294208 z"
       id="path57443" />
    <path
       style="fill:#ac0000;stroke-width:0.166476"
       d="m 76.162657,141.24684 c -2.318282,-0.0973 -8.475577,-0.61122 -8.601354,-0.7179 -0.01532,-0.013 3.524336,0.003 7.865898,0.0364 8.195358,0.0623 14.164117,-0.13287 17.197084,-0.56224 7.459655,-1.05604 16.800815,-5.17364 24.241695,-10.68579 9.10627,-6.74586 16.45324,-15.66609 21.48912,-26.09074 3.38914,-7.015781 5.25608,-13.415482 6.1711,-21.153984 0.42962,-3.633398 0.42921,-14.099178 -6.7e-4,-17.64643 -0.53933,-4.44996 -1.44452,-8.82595 -2.78477,-13.462398 -0.36702,-1.269687 -0.64221,-2.383845 -0.61152,-2.475906 0.0764,-0.229178 1.48692,4.584966 2.19652,7.496719 2.13843,8.774806 2.6392,18.501012 1.40748,27.336583 -2.0422,14.649442 -8.48739,27.743056 -18.96081,38.519506 -10.91543,11.23126 -22.20004,17.09459 -36.412485,18.91945 -2.053651,0.26368 -9.459272,0.72691 -10.117487,0.63285 -0.09156,-0.0131 -1.477472,-0.0788 -3.079801,-0.14608 z"
       id="path57482" />
    <path
       style="fill:#ac0000;stroke-width:0.0588581"
       d="M 66.244754,140.37675 C 60.60644,139.40226 55.06473,137.38978 49.575133,134.32312 42.087222,130.14014 35.106781,124.16008 29.36559,117.00984 25.055511,111.64194 21.547793,105.7097 19.029223,99.528991 15.711551,91.387247 14.281149,82.985333 14.62024,73.631442 c 0.03755,-1.035902 0.08416,-2.009268 0.103574,-2.163034 0.03306,-0.26183 0.04623,-0.279576 0.207615,-0.279576 h 0.172318 l -0.04747,1.250734 c -0.0692,1.823336 -0.04975,6.256977 0.03299,7.519118 0.433892,6.618836 1.64909,12.242555 3.949345,18.27687 1.263774,3.315286 3.22988,7.335086 5.15992,10.549706 6.698836,11.15737 16.681305,20.60999 27.773144,26.29899 4.55807,2.33783 9.225923,4.00452 13.81626,4.93319 1.390797,0.28137 1.870284,0.33228 4.400312,0.46716 0.178045,0.009 -0.325191,0.0225 -1.118304,0.029 -0.793112,0.006 -1.494995,0.0229 -1.559738,0.0366 -0.06474,0.0137 -0.634196,-0.0643 -1.265449,-0.17343 z"
       id="path57521" />
    <path
       style="fill:#ac0000;stroke-width:0.0588581"
       d="M 38.581463,140.29265 C 36.598572,139.6253 31.40452,136.96171 27.95176,134.84159 14.891017,126.8218 7.604256,115.4161 5.8616381,100.26472 5.3790131,96.068482 5.3260096,91.141729 5.7112501,86.285926 c 0.2960556,-3.731664 0.8383152,-6.624978 1.3240227,-7.064537 0.1386531,-0.12548 0.2208183,-0.07212 0.3540023,0.229882 0.2555094,0.579388 0.3888288,1.921762 0.4683516,4.715764 0.1071378,3.764251 0.29352,5.860741 0.7979714,8.975856 1.1471535,7.083959 3.3913749,14.220179 6.4123209,20.390029 2.129964,4.35014 6.241097,9.71786 12.132294,15.84057 3.218034,3.3445 6.444668,6.18431 9.881951,8.69726 1.532368,1.12029 2.60882,2.09465 2.541258,2.30025 -0.04233,0.1288 -0.536976,0.0916 -1.041959,-0.0784 z m -1.703015,-1.47797 c 0.06262,-0.0335 0.113847,-0.099 0.113847,-0.14552 0,-0.11046 -1.228656,-1.19987 -3.433336,-3.04424 -0.976582,-0.81699 -2.013591,-1.69776 -2.304464,-1.95727 -2.662694,-2.37563 -6.448964,-6.37999 -9.656635,-10.21285 -2.50486,-2.99308 -4.673438,-5.93786 -5.721399,-7.76927 C 12.09504,109.07714 8.5316898,96.62884 7.7977312,87.463087 7.7640323,87.042252 7.7120744,85.757675 7.6822691,84.608471 7.612641,81.923822 7.5150924,81.187695 7.2234755,81.146295 6.784163,81.083927 6.2906027,83.623917 5.9331186,87.786807 c -0.082463,0.960272 -0.1038756,1.855427 -0.1048924,4.384926 -0.0013,3.241279 0.024906,3.852791 0.2699233,6.297813 0.7682161,7.666024 3.0029594,15.132534 6.0864475,20.335464 3.886125,6.55725 11.211286,13.21174 19.52859,17.7406 2.259417,1.23028 3.978494,2.05968 4.634459,2.23599 0.399016,0.10725 0.392924,0.10687 0.530802,0.0331 z"
       id="path57560" />
    <path
       style="fill:#ac0000;stroke-width:0.0588581"
       d="m 14.768164,70.648715 c 0.630421,-8.631994 2.462489,-17.970351 5.68496,-28.977204 0.622397,-2.125894 0.701256,-2.501931 0.597386,-2.848618 -0.07288,-0.243259 -0.287007,-0.415843 -0.520836,-0.419794 -0.08809,-0.0015 -0.09106,-0.01006 -0.01764,-0.0509 0.04856,-0.02701 0.244393,-0.03101 0.435187,-0.0089 0.36162,0.04193 0.5654,0.190567 0.5654,0.412403 0,0.05629 -0.134008,0.5897 -0.297795,1.185356 -0.460387,1.674314 -1.585862,5.993216 -2.291501,8.793416 -2.038092,8.087786 -3.309853,15.391002 -3.725649,21.394908 l -0.07133,1.030016 -0.19913,0.01904 -0.19913,0.01904 z"
       id="path57599" />
    <path
       style="fill:#ac0000;stroke-width:0.0588581"
       d="m 15.392009,38.882245 c -1.210284,-0.433248 -0.941507,-1.715572 0.765656,-3.652917 0.953157,-1.081673 2.205319,-2.10564 4.678091,-3.82555 3.100184,-2.156301 4.968174,-4.372641 5.539277,-6.572263 0.208979,-0.804886 0.255073,-1.94506 0.113009,-2.79534 -0.346268,-2.072478 -1.465394,-4.054653 -3.805163,-6.739627 -1.847787,-2.120407 -2.974423,-3.860936 -3.507481,-5.4186705 -0.204868,-0.5986789 -0.21819,-0.681596 -0.220569,-1.3728869 -0.0023,-0.6771911 0.01,-0.7624012 0.15463,-1.0710106 0.292824,-0.6247021 0.899318,-1.0802335 1.760432,-1.3222415 0.52505,-0.1475603 2.310778,-0.1471257 3.114771,7.58e-4 2.315642,0.425931 5.029475,1.4020309 7.906962,2.8439421 4.445402,2.2275944 5.985078,3.7315574 7.328966,7.1589734 0.302253,0.770857 2.539208,7.611143 2.539208,7.764532 0,0.02952 -0.07079,0.0453 -0.15732,0.03506 -0.145073,-0.01717 -0.174457,-0.07132 -0.377425,-0.695492 C 39.392603,17.584309 39.033135,16.57651 38.379192,15.240883 37.116951,12.662858 35.599891,11.356881 31.547924,9.3601132 28.305254,7.7621591 25.879055,6.876163 23.719801,6.5014498 22.899564,6.3591074 21.722424,6.3325095 21.188998,6.4442656 20.42323,6.6046987 19.872716,6.9763168 19.580449,7.5300977 c -0.145577,0.2758376 -0.157158,0.350608 -0.155552,1.004322 0.0016,0.6609496 0.01599,0.747865 0.223782,1.3537355 0.275869,0.8043708 0.782484,1.7771598 1.425341,2.7368998 0.446979,0.66731 0.755659,1.075958 2.311899,3.06062 0.266531,0.339905 0.718243,0.962329 1.003804,1.383164 2.350829,3.464452 2.894572,5.882021 1.938611,8.619372 -0.398632,1.141464 -0.97451,1.984343 -2.196527,3.214931 -0.95211,0.95879 -1.643139,1.556179 -3.901621,3.372923 -2.412497,1.940635 -3.607682,3.032644 -4.380572,4.002417 -0.491668,0.616913 -0.655804,0.960042 -0.660446,1.38067 -0.0035,0.314102 0.01219,0.357428 0.18507,0.512006 0.387343,0.346345 1.399479,0.479052 2.724618,0.357241 1.498231,-0.137722 1.437033,-0.137087 0.882871,-0.0092 -0.275162,0.06351 -0.791641,0.184434 -1.147733,0.268713 -0.907329,0.214745 -1.988859,0.256512 -2.441985,0.09431 z"
       id="path57638" />
    <path
       style="fill:#ac0000;stroke-width:0.0588581"
       d="m 31.229265,65.904454 c -0.0063,-0.167052 0.22899,-1.763873 0.500561,-3.397187 1.9277,-11.593784 5.528141,-24.438757 7.781435,-27.761135 1.591368,-2.3464 4.559149,-3.942647 8.664067,-4.660045 1.049766,-0.183463 1.38043,-0.175224 1.67721,0.04179 0.101625,0.07431 0.06221,0.08358 -0.367542,0.08639 -1.805254,0.01184 -6.093181,1.344305 -7.616324,2.366758 -1.651731,1.108773 -2.719045,2.843574 -4.198653,6.82445 -1.975691,5.315584 -4.710811,16.460564 -6.211144,25.308968 -0.123502,0.728369 -0.226826,1.263873 -0.22961,1.190011 z"
       id="path57677" />
    <path
       style="fill:#ac0000;stroke-width:0.0588581"
       d="m 54.800944,54.149421 c 0.02519,-8.600917 0.114616,-12.881786 0.352868,-16.892265 0.158025,-2.660026 0.425466,-4.486039 0.887909,-6.062381 0.229121,-0.781011 0.338512,-0.999818 0.680776,-1.361712 0.639242,-0.675904 1.666005,-1.1045 2.890596,-1.206605 1.112786,-0.09278 1.740046,-0.0084 2.496898,0.33593 0.805139,0.36629 1.17923,0.885567 1.396216,1.938097 0.181943,0.882545 0.438266,4.52896 0.370298,5.267797 -0.01763,0.19169 -0.02737,0.142909 -0.03523,-0.176574 -0.03184,-1.293472 -0.229841,-3.307636 -0.424977,-4.322981 -0.239964,-1.248602 -0.630882,-2.055047 -1.158422,-2.389767 -1.050661,-0.666639 -3.111783,-0.593573 -4.55899,0.161614 -1.9911,1.039003 -2.409311,3.993014 -2.760677,19.499909 -0.03631,1.60241 -0.08697,5.111823 -0.112587,7.798693 -0.04228,4.435525 -0.04455,4.197133 -0.02468,-2.589755 z"
       id="path57716" />
    <path
       style="fill:#ac0000;stroke-width:0.0588581"
       d="m 14.664008,79.208243 c -0.02007,-0.121394 -0.03677,-1.371634 -0.03713,-2.778312 -6.79e-4,-2.683275 0.08534,-5.042883 0.188377,-5.167527 0.03345,-0.04046 0.113557,-0.07357 0.178011,-0.07357 0.100056,0 0.112143,0.02797 0.08267,0.191288 -0.01899,0.105209 -0.04569,1.634783 -0.05935,3.399054 l -0.02483,3.207764 0.04521,-2.707471 c 0.07826,-4.686685 0.376844,-8.134708 1.126413,-13.007632 0.825162,-5.364343 2.065903,-10.906546 4.44053,-19.835169 0.37882,-1.424365 0.754122,-2.836162 0.834006,-3.137325 0.230489,-0.868944 0.105748,-1.012169 -0.881544,-1.012169 -0.28967,0 -1.07368,0.05541 -1.742245,0.123137 -2.480381,0.251261 -3.600515,0.02375 -3.598749,-0.730959 0.0022,-0.940038 1.512592,-2.529361 5.267222,-5.542484 4.408588,-3.537928 5.522868,-4.851583 6.123624,-7.219305 0.653867,-2.577047 -0.171966,-5.183069 -2.757665,-8.702164 -0.225963,-0.307533 -0.747812,-0.982929 -1.159663,-1.50088 -2.037521,-2.562423 -3.049557,-4.384661 -3.236172,-5.8269489 l -0.05331,-0.4120065 0.02193,0.4414355 c 0.03613,0.7273186 0.474332,1.8250589 1.229165,3.0792119 0.468255,0.778003 0.843633,1.299487 2.083811,2.894882 1.570406,2.020207 2.392543,3.261578 3.05121,4.607123 0.349086,0.713122 0.723929,1.789842 0.854963,2.455845 0.117404,0.596724 0.102676,1.998531 -0.02733,2.601232 -0.512038,2.373792 -1.632718,3.814484 -5.272966,6.778669 -2.704972,2.202607 -3.723217,3.074113 -4.510449,3.860453 -0.924752,0.923704 -1.381488,1.499519 -1.556215,1.961949 -0.246853,0.65332 -0.10019,1.010339 0.517577,1.259926 0.316937,0.128047 0.410403,0.135572 1.648098,0.13267 l 1.312107,-0.0031 -0.458665,0.108286 c -1.172176,0.276741 -2.38735,0.367806 -2.848348,0.213459 -0.28097,-0.09407 -0.566112,-0.318887 -0.67739,-0.534074 -0.33573,-0.649231 0.337888,-1.961692 1.772196,-3.452905 0.916661,-0.953028 1.8273,-1.691062 3.962939,-3.211791 1.531032,-1.090205 2.198437,-1.628415 3.064621,-2.471372 1.541364,-1.500033 2.472208,-2.946487 2.838168,-4.410278 0.154311,-0.617228 0.213505,-2.007292 0.114353,-2.685398 -0.282313,-1.930752 -1.443536,-4.049936 -3.596396,-6.563277 -2.262443,-2.641273 -3.346385,-4.348155 -3.831059,-6.0327649 -0.153452,-0.5333602 -0.152734,-1.5345278 0.0014,-1.9401517 0.229428,-0.6038057 0.831676,-1.120969 1.586652,-1.362493 0.499944,-0.159937 1.990537,-0.2190688 2.889066,-0.1146092 2.10681,0.2449296 5.544817,1.4711202 8.744227,3.1186929 3.804718,1.9592829 5.296986,3.3630649 6.573994,6.1841799 0.153861,0.339906 0.767132,2.08799 1.362822,3.884633 1.545027,4.659904 1.564419,4.728397 1.289676,4.555093 C 41.47915,23.79298 41.052415,22.597959 40.405351,20.654837 39.270066,17.245615 39.07293,16.698917 38.609448,15.674449 37.343787,12.876867 35.895663,11.541097 31.989359,9.5679862 29.162513,8.1401197 27.037956,7.2831855 25.073536,6.7785084 23.885638,6.4733267 23.194167,6.3737078 22.21892,6.36725 21.305126,6.3612 20.94571,6.428819 20.396834,6.7100556 c -0.566819,0.29043 -1.005798,0.9265697 -0.994928,1.4417866 l 0.0056,0.2648613 0.05169,-0.3104033 c 0.190899,-1.1462659 1.069997,-1.6808524 2.759731,-1.6782132 1.159071,0.00181 2.442103,0.2482467 4.102576,0.787996 2.805726,0.912022 6.972563,2.921467 8.846199,4.266053 1.450575,1.040984 2.361899,2.143287 3.20762,3.879819 0.662049,1.359393 0.982132,2.262812 2.890935,8.159522 l 0.145382,0.449115 3.661424,0.0358 c 2.013782,0.01969 10.42863,0.06308 18.699659,0.09641 8.27103,0.03333 20.9314,0.0866 28.134156,0.118366 7.202756,0.03177 16.206332,0.06439 20.007952,0.07249 l 6.91202,0.01472 0.27744,-1.677455 c 0.43029,-2.601633 0.76352,-3.922055 1.38727,-5.497177 1.79568,-4.534516 4.94762,-7.5129917 9.57026,-9.0435973 4.89601,-1.6211163 8.19673,-1.6896229 9.66221,-0.2005394 0.52695,0.5354323 0.97357,1.62592 0.88652,2.1645657 -0.11874,0.734728 -0.4743,1.207738 -2.61826,3.483176 -3.22282,3.420436 -4.24595,4.801389 -4.77184,6.440639 -0.28729,0.895553 -0.365,1.560787 -0.36488,3.123797 0,1.215362 0.0149,1.437819 0.12218,1.833671 0.21029,0.776053 0.50321,1.271042 1.28335,2.168678 0.58425,0.672241 2.90398,2.974846 5.43853,5.398392 1.85482,1.773581 2.76698,2.68288 3.8544,3.842324 0.62844,0.670052 1.26625,1.444331 1.26625,1.537169 0,0.0319 -0.0993,0.102418 -0.22071,0.1567 -0.3346,0.149615 -1.82897,0.128154 -3.07534,-0.04416 -0.53414,-0.07385 -1.24062,-0.137545 -1.56997,-0.141546 -0.52197,-0.0063 -0.62016,0.0085 -0.76516,0.115732 -0.30403,0.224835 -0.34328,0.38091 -0.33908,1.348443 0.003,0.753469 0.0318,1.020899 0.19494,1.8246 0.40451,1.993252 1.00819,4.324337 1.98152,7.651548 2.44574,8.360477 3.42614,13.630029 3.73028,20.049895 0.0383,0.808751 0.047,0.870187 0.0546,0.384755 0.0122,-0.786097 -0.0943,-2.982874 -0.20021,-4.130965 -0.34283,-3.715483 -1.36041,-8.83505 -2.72603,-13.714959 -0.47487,-1.696892 -0.65697,-2.39941 -0.65072,-2.510245 0.0153,-0.271052 1.19324,3.712159 1.81327,6.131612 1.17771,4.595596 1.83352,8.795601 2.19642,14.066511 0.14805,2.150456 0.0748,9.392906 -0.10342,10.226589 -0.0218,0.102137 -0.0693,0.132431 -0.20749,0.132431 H 144.754 l 0.029,-1.36845 c 0.0283,-1.336796 0.0278,-1.345307 -0.0237,-0.367863 -0.029,0.550323 -0.069,1.166126 -0.0888,1.36845 l -0.0361,0.367863 h -8.32891 -8.3289 l 0.034,-0.220718 c 0.072,-0.467327 0.21147,-2.216388 0.2705,-3.391472 0.0788,-1.569533 0.0791,-7.078807 5.8e-4,-8.574414 -0.33951,-6.453097 -1.51441,-12.798021 -3.95029,-21.333065 -3.18664,-11.165595 -4.86074,-13.82237 -9.44017,-14.981433 -1.56326,-0.395664 -3.47109,-0.617437 -4.07182,-0.473323 -0.59085,0.141742 -0.97897,0.633177 -1.07548,1.361776 -0.24982,1.885833 -0.50672,13.368005 -0.64783,28.954642 -0.10627,11.737911 -0.11978,13.552252 -0.11994,16.112396 v 2.545611 h -1.88346 c -1.46719,0 -1.8836,-0.01626 -1.88409,-0.07357 -5.8e-4,-0.04046 -0.0398,-0.444379 -0.0878,-0.897586 -0.19205,-1.81593 -0.45306,-2.734552 -0.97238,-3.422396 -0.18312,-0.242543 -0.32877,-0.355427 -0.68662,-0.532183 l -0.4542,-0.224344 -0.76793,0.0058 c -1.16515,0.0088 -1.88353,0.213891 -5.292737,1.511158 l -1.581887,0.601941 0.04107,1.515595 0.04107,1.515596 h -1.505089 c -1.298615,0 -1.505083,-0.01211 -1.505083,-0.08829 0,-0.113107 -0.0827,-0.113107 -0.176574,0 -0.06475,0.07802 -1.688226,0.08829 -13.961652,0.08829 H 64.410352 l 0.04251,-1.577426 0.04251,-1.577426 -1.023304,-0.400517 c -2.141247,-0.83808 -3.899254,-1.296002 -5.897893,-1.536278 -0.834171,-0.100282 -1.293202,-0.08247 -1.570368,0.06093 -0.68745,0.355679 -0.983602,1.45762 -1.106841,4.118417 l -0.04089,0.882871 -2.113801,0.01547 -2.113801,0.01547 0.03842,-3.223232 c 0.151941,-12.748218 0.168335,-15.934414 0.139235,-27.06075 -0.03653,-13.966575 -0.08399,-16.087281 -0.396673,-17.723082 -0.152064,-0.795526 -0.333862,-1.214475 -0.596491,-1.374595 -0.274553,-0.16739 -0.911313,-0.157073 -1.887037,0.03057 -3.043706,0.585301 -5.422031,1.622318 -7.107856,3.099089 -0.881576,0.772255 -1.452339,1.562927 -2.091337,2.897106 -1.635434,3.414664 -3.618843,9.947485 -5.272912,17.367573 -1.373994,6.163683 -2.320004,11.807175 -2.737896,16.333113 -0.143059,1.549386 -0.14228,4.512678 0.0015,5.562087 0.140824,1.028104 0.416315,2.693028 0.563505,3.405534 0.06594,0.319187 0.119889,0.603913 0.119889,0.632724 0,0.03035 -3.42783,0.05238 -8.149633,0.05238 H 15.10151 l -0.01942,-0.544437 -0.01942,-0.544437 -0.01222,0.544437 -0.01221,0.544437 h -0.168873 c -0.149418,0 -0.173076,-0.02543 -0.205355,-0.220718 z m 130.200102,-4.67642 c -0.0109,-0.268605 -0.0199,-0.0646 -0.02,0.453354 0,0.517951 0.009,0.737721 0.0199,0.488375 0.011,-0.249346 0.0111,-0.673125 0,-0.941729 z m 0,-3.531484 c -0.0109,-0.268605 -0.0199,-0.0646 -0.02,0.453354 0,0.517951 0.009,0.737721 0.0199,0.488375 0.011,-0.249346 0.0111,-0.673125 0,-0.941729 z m -87.00663,0.329022 c 0.758626,-0.140412 2.391898,-0.719257 4.473889,-1.585583 1.067902,-0.444361 1.964988,-0.828916 1.993525,-0.854572 0.06724,-0.06044 -0.18413,-23.948353 -0.317683,-30.190027 -0.152722,-7.137557 -0.340938,-8.583989 -1.217583,-9.357108 -0.632708,-0.557991 -1.348776,-0.770792 -2.58956,-0.769563 -1.465063,0.0014 -2.451114,0.307958 -3.357559,1.043678 -0.45124,0.36625 -0.712852,0.952527 -1.04584,2.343744 -0.38467,1.607139 -0.560492,2.970314 -0.702215,5.444371 -0.45182,7.887396 -0.506406,27.455305 -0.08866,31.783356 0.07027,0.728039 0.183645,1.160964 0.389382,1.486867 0.470001,0.744531 1.088696,0.909069 2.462306,0.654837 z m 44.56275,0.002 c 0.38789,-0.106291 0.96296,-0.490841 1.15806,-0.774395 0.21745,-0.316027 0.26566,-0.472383 0.39291,-1.273977 0.34127,-2.149997 0.53977,-5.433491 0.77964,-12.896986 0.1015,-3.158392 0.10154,-15.94626 5e-5,-18.246 -0.17036,-3.860202 -0.31128,-5.232601 -0.64061,-6.238955 -0.65474,-2.000718 -2.08468,-3.330771 -3.73587,-3.47491 -1.071287,-0.09352 -2.200279,0.416702 -2.906893,1.313689 -0.615138,0.780871 -1.001341,1.788063 -1.167244,3.044092 -0.735296,5.566771 -0.489464,29.252993 0.348075,33.537709 0.377868,1.933116 1.811775,3.934344 3.380912,4.718563 0.86294,0.431276 1.56686,0.516997 2.39097,0.29117 z M 69.333392,64.365198 c 2.580563,-1.950983 5.096771,-5.273982 6.287034,-8.302889 0.831682,-2.116425 1.270799,-4.667362 1.540016,-8.946427 0.158781,-2.523736 0.244514,-4.995179 0.442041,-12.742771 0.06355,-2.492639 0.131148,-4.883012 0.150224,-5.311941 l 0.03467,-0.779869 h -5.124059 -5.12406 l 0.0091,18.260715 c 0.005,10.043394 0.02047,18.451363 0.03432,18.684376 l 0.02519,0.423654 0.451441,-0.331465 c 0.248292,-0.182313 0.82161,-0.611331 1.274042,-0.953383 z m 21.341551,-0.573753 c 0.637315,-0.575776 1.010828,-2.066399 1.169809,-4.668517 0.08167,-1.336585 0.169223,-3.74994 0.241307,-6.650961 0.05245,-2.110983 0.164596,-16.679717 0.171595,-22.292493 l 0.0024,-1.898173 H 86.46008 80.660106 l 0.03365,0.426721 c 0.01851,0.234697 0.125944,2.426424 0.238746,4.870505 0.3819,8.274561 0.543795,10.815854 0.884907,13.890504 0.830735,7.487955 2.358832,11.244324 6.174135,15.177257 0.989669,1.020184 1.498933,1.348452 2.105306,1.357059 0.310182,0.0044 0.358181,-0.01319 0.578128,-0.211902 z"
       id="path57755" />
    <path
       style="fill:#ac0000;stroke-width:0.0588581"
       d="M 67.59849,46.939308 V 28.340159 h 5.06324 5.063241 l -0.03831,1.191876 c -0.02107,0.655532 -0.09759,3.324009 -0.170041,5.92995 l -0.131726,4.738075 -0.008,-5.782805 -0.008,-5.782806 h -4.708646 -4.708645 v 18.249475 c 0,14.339493 0.01538,18.239971 0.07176,18.205121 0.281852,-0.174194 3.382679,-3.023282 3.760529,-3.455234 0.518468,-0.5927 1.275727,-1.583194 1.748921,-2.287586 0.86931,-1.294046 1.843158,-3.10846 2.173778,-4.050051 0.484921,-1.381032 0.93486,-3.837789 1.244849,-6.797127 0.06104,-0.582695 0.113718,-0.952123 0.117068,-0.820952 0.01008,0.394892 -0.222945,2.75248 -0.380011,3.844612 -0.49841,3.465599 -1.342441,5.642469 -3.271061,8.436504 -0.841811,1.21955 -1.950795,2.497025 -2.96437,3.414755 -0.56395,0.510623 -2.717213,2.164491 -2.818071,2.164491 -0.0201,0 -0.03655,-8.369617 -0.03655,-18.599149 z"
       id="path57794" />
    <path
       style="fill:#ac0000;stroke-width:0.0588581"
       d="m 89.52312,63.838536 c -0.560014,-0.257296 -1.361091,-1.002705 -2.474375,-2.302427 -3.693247,-4.311744 -4.939554,-8.583384 -5.615444,-19.246588 -0.15831,-2.497579 -0.206426,-3.425326 -0.442619,-8.53442 -0.111493,-2.411709 -0.218095,-4.616679 -0.236894,-4.899934 l -0.03418,-0.515008 h 5.748252 5.748251 l -0.03928,8.902283 c -0.05819,13.186609 -0.189369,19.851308 -0.450955,22.910502 -0.06267,0.732924 -0.279842,1.923816 -0.4347,2.383752 l -0.08918,0.264861 0.03025,-0.29429 c 0.01664,-0.16186 0.08143,-0.691582 0.143971,-1.177161 0.199425,-1.548251 0.37587,-4.12625 0.539808,-7.886981 0.03854,-0.884111 0.07491,-6.129066 0.09111,-13.140064 l 0.02697,-11.668612 h -5.537422 -5.537422 v 0.202153 c 0,0.317619 0.696415,13.555416 0.79598,15.130374 0.356363,5.637092 0.801487,8.523742 1.681892,10.907148 1.175717,3.182866 4.515665,7.873352 6.355034,8.924749 0.224502,0.128327 0.240251,0.148917 0.11352,0.148415 -0.08093,-2.95e-4 -0.25309,-0.04926 -0.382577,-0.108752 z"
       id="path57833" />
    <path
       style="fill:#ac0000;stroke-width:0.0588581"
       d="m 102.10425,29.369106 c -0.69428,-0.352913 -1.45323,-0.523671 -2.339827,-0.526444 -0.388463,-0.0012 -0.838727,0.01663 -1.000587,0.03966 l -0.29429,0.04187 0.277957,-0.145174 c 0.843992,-0.440807 1.928667,-0.415734 2.907557,0.06721 0.36646,0.180799 1.15258,0.79529 0.99341,0.776532 -0.0324,-0.0038 -0.27727,-0.117958 -0.54422,-0.253651 z"
       id="path57872" />
    <path
       style="fill:#ac0000;stroke-width:0.0588581"
       d="m 96.062803,37.227727 c 0.05276,-2.314902 0.225363,-4.406994 0.436373,-5.289167 0.06476,-0.270729 0.195403,-0.686192 0.290327,-0.923252 0.165299,-0.412815 0.639868,-1.233475 0.686389,-1.186954 0.01226,0.01226 -0.0434,0.183992 -0.123702,0.381615 -0.448364,1.10343 -0.912263,3.76779 -1.175765,6.752897 -0.131757,1.492616 -0.142157,1.516859 -0.113622,0.264861 z"
       id="path57911" />
    <path
       style="fill:#ac0000;stroke-width:0.0588581"
       d=""
       id="path57950" />
    <path
       style="fill:#ac0000;stroke-width:0.0588581"
       d="m 109.57322,36.050566 c -0.0106,-0.496287 0.092,-2.756224 0.16972,-3.737487 0.0696,-0.879883 0.20868,-1.257219 0.57423,-1.558538 0.28816,-0.237526 0.33887,-0.22407 0.16212,0.04302 -0.4163,0.629078 -0.68425,2.162867 -0.85084,4.87043 -0.0294,0.478187 -0.0501,0.621671 -0.0552,0.382578 z"
       id="path57989" />
    <path
       style="fill:#ac0000;stroke-width:0.0588581"
       d="m 114.59666,31.276887 c -2.95051,-0.85298 -3.08138,-0.918663 -1.20708,-0.605798 1.45905,0.24355 2.78572,0.640742 3.69056,1.104923 0.35925,0.184294 0.55246,0.329196 0.42999,0.322473 -0.0486,-0.0027 -1.35962,-0.372385 -2.91347,-0.821598 z"
       id="path58028" />
    <path
       style="fill:#ac0000;stroke-width:0.0588581"
       d="m 50.125898,100.54088 c -0.0045,-0.18802 0.06258,-7.723321 0.14916,-16.745123 0.236793,-24.674868 0.228314,-49.011977 -0.01823,-52.33612 -0.02041,-0.275162 -0.02158,-0.486077 -0.0026,-0.468702 0.08423,0.07711 0.278597,1.468828 0.332611,2.381589 0.145068,2.451457 0.190521,8.823044 0.16039,22.483781 -0.01692,7.672149 -0.05902,15.750419 -0.09355,17.951711 -0.03453,2.201291 -0.08972,5.73719 -0.122648,7.857552 -0.103931,6.692857 -0.384103,19.746242 -0.405133,18.875312 z"
       id="path58067" />
    <path
       style="fill:#ac0000;stroke-width:0.0588581"
       d="m 60.845033,116.47923 c -0.412918,-0.0897 -1.454358,-0.49433 -2.344736,-0.91099 -1.653063,-0.77356 -2.444846,-1.59454 -2.949494,-3.05826 -0.238659,-0.69223 -0.253737,-0.97138 -0.01824,-0.3377 0.403965,1.087 0.982385,1.72486 2.420897,2.66968 0.737585,0.48444 2.001599,1.09287 2.670349,1.28536 0.661519,0.1904 1.267826,0.21615 1.439137,0.0611 0.720343,-0.65191 1.326074,-7.11791 1.596485,-17.042027 0.07506,-2.754688 0.453014,-22.502446 0.43126,-22.532927 -0.03752,-0.05258 -3.953727,-1.510901 -4.467469,-1.663604 -0.881415,-0.261987 -1.848588,-0.420155 -2.589755,-0.423518 -0.745679,-0.0034 -1.10804,0.07866 -1.240533,0.280866 -0.355496,0.542556 -0.714728,3.715378 -0.906462,8.00607 -0.0958,2.143963 -0.109836,2.168907 -0.08277,0.147145 0.03644,-2.722255 0.183259,-5.763426 0.320432,-6.637333 0.07908,-0.50379 0.320438,-1.247829 0.483073,-1.489162 0.318706,-0.472928 0.712087,-0.578942 1.74521,-0.470324 2.026074,0.213012 4.049986,0.741655 6.390872,1.669287 l 0.647439,0.256564 0.0189,0.348437 c 0.0104,0.191641 -0.02294,1.818418 -0.07407,3.61506 -0.05113,1.796643 -0.172022,6.060909 -0.268642,9.476149 -0.288671,10.203632 -0.523152,16.299257 -0.795831,20.688607 -0.121567,1.9569 -0.191842,2.71586 -0.324527,3.50487 -0.292864,1.74153 -0.611026,2.41495 -1.220986,2.58435 -0.275506,0.0765 -0.421971,0.0719 -0.880537,-0.0277 z"
       id="path58106" />
    <path
       style="fill:#ac0000;stroke-width:0.0588581"
       d="m 35.996985,92.630402 c -0.669637,-1.345055 -1.529132,-3.357878 -2.181359,-5.108457 -1.441696,-3.869517 -2.435672,-7.820918 -3.042583,-12.095332 -0.139508,-0.982544 -0.13903,-4.511116 7.69e-4,-5.679804 l 0.09153,-0.765155 -0.02837,0.590296 c -0.0576,1.198371 -0.02545,3.485808 0.0617,4.389844 0.272478,2.826594 1.09647,6.942813 2.07236,10.352387 0.75518,2.638453 1.906088,5.74847 2.932893,7.925348 0.348937,0.739766 0.424258,1.056125 0.09306,0.390873 z"
       id="path58145" />
    <path
       style="fill:#ac0000;stroke-width:0.0588581"
       d="m 56.680318,71.383153 c 0.03237,-0.03032 0.204532,-0.0897 0.382578,-0.13196 0.783239,-0.185913 4.127485,-1.382267 6.84225,-2.447712 0.09762,-0.03831 0.1035,-0.708736 0.112531,-12.821042 0.0071,-9.590535 0.0211,-11.899148 0.0559,-9.249134 0.0816,6.214035 0.229706,19.795792 0.228813,20.982901 l -8.65e-4,1.147732 -0.897132,0.376855 c -3.110116,1.306456 -4.442038,1.802047 -5.397532,2.008349 -0.610051,0.131718 -1.410437,0.212575 -1.326546,0.134011 z"
       id="path58184" />
    <path
       style="fill:#ac0000;stroke-width:0.0588581"
       d="M 97.361745,68.149064 C 96.95304,67.335191 96.748175,66.683372 96.61937,65.78705 96.485445,64.855097 96.317692,62.915734 96.328821,62.428066 l 0.0076,-0.332806 0.05278,0.441436 c 0.308715,2.581897 0.720027,4.627119 1.159307,5.764583 0.19157,0.496047 0.102202,0.42321 -0.18676,-0.152215 z"
       id="path58223" />
    <path
       style="fill:#ac0000;stroke-width:0.0588581"
       d="m 100.97525,71.332857 c -0.75355,-0.163418 -1.525246,-0.616589 -2.284987,-1.341833 -0.373508,-0.35655 -0.501364,-0.563909 -0.206003,-0.334099 1.159721,0.902336 2.41754,1.420112 3.48734,1.435551 0.40794,0.0059 0.63152,-0.01987 0.82677,-0.09523 0.28226,-0.108957 0.68613,-0.483036 0.84165,-0.779569 0.0509,-0.09712 0.0937,-0.142152 0.095,-0.100079 0.008,0.267322 -0.535,0.823828 -1.02166,1.046631 -0.57053,0.261198 -1.08229,0.310849 -1.73808,0.168631 z"
       id="path58262" />
    <path
       style="fill:#ac0000;stroke-width:0.0588581"
       d="m 97.271971,116.08121 c -0.945206,-1.37381 -1.274892,-4.83029 -1.480542,-15.5222 -0.133621,-6.947096 -0.354768,-24.094452 -0.311236,-24.13276 0.08226,-0.07238 3.790355,-1.4529 4.490233,-1.671701 0.963714,-0.301283 1.411654,-0.389745 2.148324,-0.424263 0.45974,-0.02154 0.72422,-0.0068 0.9123,0.05092 l 0.26486,0.08126 -0.73573,0.07022 c -1.39947,0.133563 -1.98218,0.296758 -4.605402,1.289781 l -1.98622,0.751885 8.01e-4,11.830471 c 7.8e-4,11.523395 0.04902,16.897327 0.176463,19.658597 0.200846,4.35164 0.561005,6.76713 1.179671,7.91173 0.214022,0.39597 0.185213,0.45306 -0.05352,0.10607 z"
       id="path58301" />
    <path
       style="fill:#ac0000;stroke-width:0.0588581"
       d="m 80.762321,119.64367 c -0.02432,-0.0393 0.198891,-7.17103 0.371656,-11.87455 0.36249,-9.868767 0.861357,-13.158504 2.588379,-17.068839 0.678019,-1.535177 1.443094,-2.90362 2.566716,-4.590929 1.568908,-2.355984 2.72024,-3.689027 5.043933,-5.84 1.030924,-0.954296 1.044731,-0.964476 1.044731,-0.770358 0,0.361413 -0.466482,20.819986 -0.529852,23.237766 -0.141712,5.40689 -0.365009,12.01856 -0.398486,11.79898 -0.01569,-0.10289 0.473257,-30.954591 0.532825,-33.620613 0.01175,-0.526044 0.0062,-0.954408 -0.01228,-0.951921 -0.03086,0.0041 -0.715268,0.749007 -3.5192,3.830043 -1.282536,1.409286 -1.869769,2.142846 -2.631532,3.287261 -2.385369,3.583599 -3.612581,7.60972 -4.180175,13.71393 -0.26362,2.83512 -0.324617,5.16925 -0.325696,12.46319 -8.03e-4,5.42751 0.01036,6.25367 0.08452,6.25367 0.114752,0 9.301378,-0.75477 9.582007,-0.78726 0.337103,-0.039 0.208964,0.0566 -0.175154,0.13064 -1.046044,0.20177 -2.814844,0.36469 -6.794841,0.62589 -3.666941,0.24065 -3.213694,0.21789 -3.247554,0.1631 z"
       id="path58340" />
    <path
       style="fill:#ac0000;stroke-width:0.0588581"
       d="m 109.30609,110.55016 c -0.19027,-1.31704 -0.26874,-8.41304 -0.26965,-24.38195 -8.8e-4,-15.436323 0.081,-26.792441 0.28389,-39.376047 0.0209,-1.294877 0.0478,10.994687 0.0599,27.310143 0.0121,16.315456 0.0386,31.223684 0.0589,33.129384 l 0.0369,3.46491 2.88405,-3.16618 c 3.62309,-3.97753 4.05673,-4.458 4.64529,-5.14681 2.78442,-3.25876 5.45787,-7.258449 7.25852,-10.859316 2.12608,-4.251649 3.41082,-9.280834 3.89425,-15.244239 0.0358,-0.441399 0.0498,-0.504838 0.0559,-0.253695 0.0204,0.830537 -0.32519,4.053171 -0.6174,5.756924 -1.37182,7.998261 -4.87498,14.515749 -12.49633,23.248936 -1.5806,1.81118 -2.40273,2.70046 -3.67862,3.97906 -1.26667,1.26936 -1.84854,1.78903 -2.00317,1.78903 -0.0449,0 -0.0912,-0.10305 -0.11245,-0.25015 z"
       id="path58379" />
    <path
       style="fill:#ac0000;stroke-width:0.0588581"
       d=""
       id="path58418" />
    <path
       style="fill:#ac0000;stroke-width:0.0588581"
       d="m 105.36495,97.380671 c 0.0557,-9.186178 -0.21501,-16.930128 -0.72278,-20.677037 -0.0518,-0.382098 -0.0811,-0.707744 -0.0652,-0.723659 0.045,-0.04495 0.26502,0.827207 0.36532,1.447812 0.19828,1.226921 0.34551,3.817392 0.44324,7.798694 0.0658,2.678767 0.0647,12.105345 -0.002,14.626229 -0.0282,1.07313 -0.0351,0.18254 -0.019,-2.472039 z"
       id="path58457" />
    <path
       style="fill:#ac0000;stroke-width:0.0588581"
       d="m 55.623604,70.889813 c -0.259402,-0.287126 -0.417222,-0.635188 -0.497336,-1.096845 -0.08898,-0.512762 -0.176255,-1.899363 -0.206654,-3.283353 -0.02484,-1.130771 -0.02265,-1.168359 0.02574,-0.441435 0.172918,2.597667 0.389195,3.879399 0.787081,4.664502 0.11074,0.21851 0.180373,0.397292 0.15474,0.397292 -0.02563,0 -0.144242,-0.108072 -0.263575,-0.240161 z"
       id="path58496" />
    <path
       style="fill:#ac0000;stroke-width:0.0588581"
       d="m 67.623024,88.699107 c 5.6e-5,-0.615067 0.0088,-0.858688 0.01938,-0.54138 0.0106,0.317308 0.01056,0.820544 -1.03e-4,1.118303 -0.01066,0.297759 -0.01933,0.03814 -0.01928,-0.576923 z"
       id="path58535" />
    <path
       style="fill:#ac0000;stroke-width:0.0588581"
       d="m 72.407473,119.44636 c -1.510834,-0.0824 -2.773758,-0.28121 -3.319349,-0.52255 -0.216193,-0.0956 -0.282203,-0.16702 -0.407515,-0.44074 -0.465337,-1.01643 -0.670457,-4.0859 -0.845765,-12.65627 -0.240779,-11.771015 -0.21692,-22.836572 0.05321,-24.678915 0.02775,-0.189239 0.05286,3.902241 0.05755,9.375822 0.01353,15.803163 0.180577,22.895163 0.625493,26.555923 0.173509,1.42762 0.214462,1.49347 1.104132,1.77517 1.238799,0.39225 2.199306,0.47993 5.25733,0.47993 h 2.436374 l 0.0081,-6.0771 0.0081,-6.07709 0.134215,5.17951 c 0.07382,2.84873 0.136394,5.62315 0.139058,6.16538 l 0.0048,0.98587 -2.192463,-0.009 c -1.205855,-0.005 -2.584332,-0.0301 -3.063283,-0.0562 z"
       id="path58574" />
    <path
       style="fill:#ac0000;stroke-width:0.0588581"
       d="m 76.668797,94.783482 c -0.277231,-1.97951 -0.857456,-4.258417 -1.489179,-5.848943 -0.499624,-1.257932 -1.247321,-2.628973 -1.957161,-3.58882 -0.184561,-0.249564 -0.322733,-0.466585 -0.307048,-0.48227 0.04206,-0.04206 0.826371,0.984193 1.244559,1.62848 1.18728,1.829197 1.864873,3.704894 2.318508,6.418033 0.195546,1.16954 0.328838,2.241493 0.292335,2.351002 -0.01361,0.04083 -0.05952,-0.174038 -0.102014,-0.477482 z"
       id="path58613" />
    <path
       style="fill:#ac0000;stroke-width:0.0588581"
       d="m 71.685577,83.541068 c -0.159908,-0.164744 -1.026475,-0.958717 -1.925704,-1.764385 -0.89923,-0.805668 -1.605884,-1.464851 -1.570344,-1.464851 0.108382,0 0.578256,0.347841 1.200805,0.888938 0.689827,0.599573 2.660512,2.565306 2.616196,2.609622 -0.01662,0.01662 -0.161045,-0.104579 -0.320953,-0.269324 z"
       id="path58652" />
    <path
       style="fill:#ac0000;stroke-width:0.0588581"
       d="m 47.263028,108.19563 c -3.033155,-3.22743 -3.25811,-3.47386 -4.230837,-4.63486 -1.116668,-1.3328 -2.793416,-3.56039 -2.728689,-3.625118 0.01535,-0.01535 0.245765,0.268418 0.512037,0.630598 0.913673,1.24276 2.22936,2.83058 3.236454,3.90586 0.483583,0.51633 3.619227,3.75211 5.140528,5.3047 0.736466,0.75161 0.755638,0.77771 0.737619,1.00437 l -0.0185,0.2327 z"
       id="path58691" />
    <path
       style="fill:#ac0000;stroke-width:0.0416189"
       d="m 120.50771,140.57837 c 3e-4,-0.29372 1.92248,-2.32932 4.09939,-4.34129 3.04155,-2.81108 6.42914,-5.60744 7.37975,-6.09178 0.35485,-0.18079 0.22936,-0.0119 -0.43567,0.58622 -0.71113,0.63962 -1.11812,0.99025 -3.01184,2.59475 -2.02101,1.71235 -3.97598,3.45184 -4.89315,4.35383 -0.52111,0.51248 -0.96979,1.07157 -1.10788,1.38051 -0.10345,0.23145 -0.087,0.44133 0.0359,0.45885 0.85227,0.12145 10.68924,-5.66241 14.56022,-8.56102 3.76776,-2.82131 7.23041,-6.9911 10.13004,-12.1988 0.48299,-0.86744 1.47131,-2.82954 1.91819,-3.80813 2.47803,-5.42658 4.13109,-11.37681 4.72322,-17.001339 0.23181,-2.201884 0.17737,-6.658351 -0.12608,-10.319886 -0.0793,-0.956505 -0.0872,-0.875608 0.0854,-0.875608 0.0801,0 0.14567,0.0177 0.14567,0.03934 0,0.02163 0.0364,0.288516 0.0809,0.59307 0.40296,2.757812 0.48993,6.41355 0.22803,9.585043 -0.83654,10.13034 -4.69983,20.46636 -10.42123,27.88141 -1.26166,1.63514 -2.85653,3.36305 -4.22543,4.57791 -4.26851,3.78819 -15.52604,10.49451 -18.72613,11.15551 -0.39427,0.0814 -0.43941,0.0805 -0.43932,-0.009 z"
       id="path58730" />
    <path
       style="fill:#ac0000;stroke-width:0.0416189"
       d="m 134.44998,127.8954 c 0,-0.0139 0.17463,-0.22573 0.38807,-0.47067 1.45148,-1.66569 3.91724,-4.77622 5.15335,-6.50091 1.30104,-1.81526 2.55499,-3.78803 3.62423,-5.70179 0.57276,-1.02513 1.73047,-3.34418 2.21275,-4.43242 2.08354,-4.70141 3.62351,-9.85004 4.79262,-16.023288 0.33769,-1.78311 0.63644,-3.639503 1.49699,-9.301832 0.42615,-2.804076 0.7876,-5.131472 0.80321,-5.171991 0.0156,-0.04052 0.26066,1.373484 0.54454,3.142229 0.28389,1.768746 0.52517,3.240591 0.53619,3.270768 0.0149,0.04068 -0.0213,0.05144 -0.13973,0.04162 l -0.15978,-0.01325 -0.0733,-0.665903 c -0.20129,-1.829403 -0.4624,-2.673517 -0.66496,-2.149737 -0.23582,0.609785 -0.76944,3.234174 -1.49306,7.343055 -0.449,2.5495 -0.63635,3.556427 -0.93613,5.031302 -1.21664,5.985557 -2.54686,10.229397 -4.62886,14.767557 -0.50292,1.09623 -1.71318,3.49018 -2.2788,4.50756 -2.37959,4.28023 -5.16309,8.10702 -8.44222,11.60649 -0.62849,0.67071 -0.73514,0.77534 -0.73514,0.72121 z"
       id="path58769" />
    <path
       style="fill:#ac0000;stroke-width:0.0416189"
       d="m 145.20425,79.023959 c 0.043,-0.415212 0.10444,-1.488601 0.1542,-2.69215 0.0549,-1.327407 0.0273,-5.564931 -0.0438,-6.724135 -0.28519,-4.651762 -0.80632,-8.478195 -1.69141,-12.419222 -0.72353,-3.221649 -2.40825,-9.061717 -2.50228,-8.674101 -0.009,0.03845 0.0329,0.278439 0.0939,0.53331 0.0609,0.254871 0.10301,0.471188 0.0935,0.480705 -0.0451,0.04506 -1.15853,-3.909777 -1.61168,-5.724434 -0.56025,-2.243484 -0.79163,-3.459807 -0.82357,-4.329337 -0.0376,-1.024906 0.0823,-1.410928 0.4796,-1.543684 0.23254,-0.0777 0.94506,-0.05345 1.8476,0.06289 1.32439,0.170706 1.60566,0.194496 2.30461,0.194926 0.84912,5.25e-4 1.27499,-0.08286 1.33142,-0.260682 0.0515,-0.162398 -0.37521,-0.690991 -1.5899,-1.969277 -0.98471,-1.036274 -3.01009,-3.032491 -4.88426,-4.813939 -1.63738,-1.55637 -1.82583,-1.741044 -1.77662,-1.741044 0.0142,0 0.47131,0.359116 1.01571,0.798036 5.28799,4.263436 7.814,6.820324 7.90917,8.005835 0.0193,0.240693 0.0131,0.262822 -0.11396,0.407573 -0.38343,0.436703 -1.47231,0.389509 -3.66317,-0.158768 -1.18035,-0.295392 -1.86789,-0.377179 -2.25861,-0.268675 -0.59086,0.164087 -0.71016,0.974268 -0.38146,2.590631 0.27469,1.350774 0.79181,3.177128 2.10575,7.437128 0.32124,1.041514 0.69339,2.249503 0.82698,2.684421 1.80319,5.870102 2.92684,11.917845 3.30571,17.792096 0.20206,3.132845 0.20216,6.662447 2.5e-4,9.610167 -0.0336,0.490051 -0.061,0.90676 -0.061,0.926021 0,0.01926 -0.0206,0.03502 -0.0457,0.03502 -0.0308,0 -0.0376,-0.07822 -0.0209,-0.239309 z"
       id="path58808" />
    <path
       style="fill:#ac0000;stroke-width:0.0416189"
       d="m 134.26354,27.060797 c -0.53587,-0.591669 -0.95593,-1.253801 -1.15391,-1.818911 -0.16146,-0.460827 -0.20386,-0.794324 -0.22756,-1.789614 -0.0482,-2.023132 0.14945,-3.148927 0.7781,-4.432417 0.65969,-1.346886 1.65719,-2.592837 4.34825,-5.431272 1.72115,-1.815417 2.17831,-2.363235 2.46591,-2.954944 0.13052,-0.268544 0.15417,-0.362773 0.1693,-0.6746319 0.0152,-0.3121905 0.002,-0.4103663 -0.0959,-0.7075219 -0.45876,-1.3943003 -1.31327,-2.1043241 -2.87461,-2.3885399 -0.50581,-0.092074 -1.8513,-0.1048473 -2.51559,-0.023882 -2.32155,0.2829609 -5.36774,1.1528594 -7.28331,2.0798926 -4.40913,2.1337801 -7.22558,5.9968961 -8.42822,11.5603871 -0.0788,0.364693 -0.25912,1.370079 -0.40065,2.234192 l -0.25731,1.571115 -1.98068,-4.16e-4 c -1.08937,-2.08e-4 -5.67956,-0.01832 -10.20042,-0.0402 -4.52086,-0.02189 -12.976785,-0.06112 -18.79095,-0.08717 -5.814166,-0.02606 -13.371125,-0.06096 -16.793242,-0.07755 -4.119028,-0.01998 2.860727,-0.03257 20.650593,-0.03727 25.553559,-0.0068 26.873679,-0.01067 26.894069,-0.07993 0.0118,-0.04006 0.21993,-1.251841 0.46253,-2.692851 0.24259,-1.44101 0.48761,-2.817556 0.54448,-3.058992 0.46014,-1.953432 1.39569,-3.870633 2.68345,-5.499117 0.5308,-0.671256 1.66763,-1.779231 2.34926,-2.289644 2.73088,-2.0449123 6.81929,-3.6057655 10.50519,-4.0106203 0.70649,-0.0776 2.02601,-0.08792 2.58481,-0.020215 0.92604,0.1121992 1.7462,0.4274785 2.15254,0.8274562 0.34244,0.3370753 0.944,1.389693 1.16032,2.0303243 0.14248,0.4219364 0.15088,0.9416898 0.0217,1.3435748 -0.26989,0.839812 -1.08253,1.819972 -3.11016,3.751303 -1.27203,1.211623 -1.89825,1.847204 -2.35234,2.387491 -2.35839,2.806085 -3.12296,5.595801 -2.25845,8.24055 0.21044,0.643812 0.77678,1.727336 1.14747,2.195369 0.22433,0.283243 0.0932,0.211865 -0.19466,-0.105936 z"
       id="path58847" />
  </g>
</svg>
