<?xml version="1.0" encoding="UTF-8" standalone="no"?>
<!-- Created with Inkscape (http://www.inkscape.org/) -->

<svg
   version="1.1"
   id="svg70859"
   width="178.66667"
   height="172"
   viewBox="0 0 178.66667 172"
   sodipodi:docname="cleric-symbol.svg"
   inkscape:version="1.1.2 (b8e25be833, 2022-02-05)"
   xmlns:inkscape="http://www.inkscape.org/namespaces/inkscape"
   xmlns:sodipodi="http://sodipodi.sourceforge.net/DTD/sodipodi-0.dtd"
   xmlns="http://www.w3.org/2000/svg"
   xmlns:svg="http://www.w3.org/2000/svg">
  <defs
     id="defs70863" />
  <sodipodi:namedview
     id="namedview70861"
     pagecolor="#ffffff"
     bordercolor="#666666"
     borderopacity="1.0"
     inkscape:pageshadow="2"
     inkscape:pageopacity="0.0"
     inkscape:pagecheckerboard="0"
     showgrid="false"
     inkscape:zoom="4"
     inkscape:cx="50.5"
     inkscape:cy="72"
     inkscape:window-width="3440"
     inkscape:window-height="1377"
     inkscape:window-x="-8"
     inkscape:window-y="-8"
     inkscape:window-maximized="1"
     inkscape:current-layer="g70865" />
  <g
     inkscape:groupmode="layer"
     inkscape:label="Image"
     id="g70865">
    <path
       style="fill:#ff0000;fill-opacity:1;stroke-width:1.33333"
       d="m 87.279111,159.04143 c -1.22054,-5.65451 -4.95953,-12.96829 -9.21538,-18.02608 -1.86838,-2.22044 -3.39706,-4.32 -3.39706,-4.66567 0,-0.34568 2.55,-0.13465 5.66666,0.46894 3.11667,0.60358 9.41667,0.74017 14,0.3035 4.58334,-0.43665 8.333339,-0.41625 8.333339,0.0453 0,0.4616 -2.10438,3.59614 -4.676399,6.96566 -2.57202,3.36954 -5.34581,8.78492 -6.16399,12.0342 -1.88311,7.4785 -3.35278,8.40743 -4.54717,2.87411 z M 34.942351,140.5521 c 23.16087,-36.20103 23.89283,-37.18952 27.52268,-37.16856 5.09623,0.0294 6.86453,1.58988 7.71073,6.80438 0.73618,4.53655 0.4757,4.83524 -16.56562,18.99605 -24.01702,19.95738 -24.25629,20.10309 -18.66779,11.36813 z M 126,130.28171 l -17.33333,-14.30718 -0.40639,-6.3057 c -0.39931,-6.19586 -0.33733,-6.30571 3.55762,-6.30571 2.1802,0 4.94418,0.37613 6.14217,0.83585 1.198,0.45971 6.51737,7.50971 11.82082,15.66666 13.61366,20.93841 15.92125,24.83816 14.66119,24.77704 -0.60981,-0.0296 -8.90874,-6.49201 -18.44208,-14.36096 z M 78.666671,111.19534 V 95.027554 l -15.25404,0.583883 -15.25405,0.583881 -0.90219,-8.424565 c -1.28757,-12.023178 -0.7637,-12.407638 16.90687,-12.407638 h 14.50341 V 60.029782 44.696449 h 10.55702 10.55703 l -0.75517,15.333333 -0.75516,15.333333 h 16.254229 16.25422 L 130.38942,85.696449 130,96.029782 l -6,0.178301 c -3.3,0.09807 -10.41637,0.248067 -15.81416,0.333334 l -9.814169,0.155032 0.50123,14.644101 c 0.3903,11.40295 0.10371,14.79665 -1.29488,15.33334 -0.98787,0.37908 -5.64705,0.68923 -10.35374,0.68923 h -8.55761 z M 34.585791,97.265665 c -2.34566,-2.826343 -10.98806,-7.16456 -19.91912,-9.99878 -5.5232496,-1.752768 -6.4318196,-2.35721 -3.68097,-2.448814 5.52829,-0.18409 16.32392,-4.684086 21.97532,-9.160082 l 5.03898,-3.990942 v 13.848034 c 0,7.616418 -0.37653,13.848034 -0.83674,13.848034 -0.46021,0 -1.62007,-0.94385 -2.57747,-2.09745 z M 140.34763,86.029782 c 0.0257,-7.333333 0.19784,-13.333333 0.38232,-13.333333 0.18448,0 3.42688,2.080405 7.20535,4.623124 6.67118,4.489372 13.9441,7.279286 19.39804,7.441142 1.46666,0.04353 -0.63334,1.144048 -4.66667,2.445603 -9.3116,3.004845 -14.66663,5.806797 -17.87647,9.353625 -1.39525,1.541752 -2.97618,2.803172 -3.51316,2.803172 -0.53698,0 -0.95521,-6 -0.92941,-13.333333 z M 45.255891,50.430334 C 37.598481,41.117305 30.134201,31.967305 28.668601,30.097001 l -2.66474,-3.400552 3.3314,2.1334 c 1.83228,1.17337 11.88141,7.684534 22.33141,14.469253 l 19,12.335852 v 5.864081 5.86408 h -5.74411 c -5.73752,0 -5.76008,-0.01943 -19.66667,-16.932781 z M 108,61.572194 v -5.790923 l 19,-12.654336 c 10.45,-6.959884 20.5,-13.4354 22.33334,-14.390034 l 3.33333,-1.735699 -2.75077,3.180957 c -1.51292,1.749526 -8.65335,10.258242 -15.86762,18.908256 -7.21426,8.650015 -14.18697,16.300015 -15.4949,17 -1.30794,0.699986 -4.21751,1.2727 -6.46572,1.2727 -3.93388,0 -4.08766,-0.217857 -4.08766,-5.790921 z M 76.000001,32.859709 c 0,-0.643542 0.99502,-1.993542 2.21115,-3 2.99225,-2.476351 9.76977,-17.027488 9.85727,-21.1632597 0.0465,-2.1983874 1.15661,-0.407748 3.26035,5.2591017 1.7544,4.725839 5.01078,11.175839 7.23639,14.333334 l 4.046559,5.740897 H 89.305861 c -7.31822,0 -13.30586,-0.526533 -13.30586,-1.170073 z"
       id="path70949" />
    <path
       style="fill:#ac0000;stroke-width:0.394044"
       d="M 79.005727,110.92863 V 94.69392 l -3.644902,0.23301 c -5.645058,0.360877 -26.735144,1.11532 -26.888594,0.961872 -0.259428,-0.259426 -1.384029,-11.473555 -1.384029,-13.801053 0,-2.743506 0.744189,-4.411489 2.335345,-5.234308 1.879903,-0.972136 7.506983,-1.387459 18.844494,-1.390872 l 10.737686,-0.0032 V 60.091638 44.72394 h 10.245132 10.245132 v 1.272893 c 0,1.128522 -0.964174,21.293488 -1.300395,27.196752 l -0.129045,2.265751 h 16.317359 16.31736 l -0.22889,4.038946 c -0.12588,2.22142 -0.33763,6.803949 -0.47055,10.183401 l -0.24167,6.14445 -8.89107,0.258757 c -4.89009,0.142313 -11.95934,0.258753 -15.70944,0.258753 h -6.818384 l 0.08481,14.562107 c 0.07873,13.51881 0.0344,14.61276 -0.618806,15.26919 -0.627112,0.6302 -1.687405,0.72237 -9.752577,0.84774 l -9.048966,0.14066 z"
       id="path17628" />
    <path
       style="fill:#ac0000;stroke-width:0.394044"
       d="m 109.15006,66.662615 c -0.70477,-0.532209 -0.79978,-1.129706 -0.89865,-5.651779 l -0.11056,-5.056655 15.8723,-10.510005 c 22.47058,-14.879124 26.1317,-17.190126 26.55779,-16.76404 0.16073,0.160738 -16.28375,19.932083 -21.86539,26.288936 -7.13599,8.127087 -9.58793,10.585917 -11.20593,11.237402 -2.36659,0.952904 -7.33248,1.224193 -8.34956,0.456141 z"
       id="path17667" />
    <path
       style="fill:#ac0000;stroke-width:0.394044"
       d="m 141.09742,98.215349 c -0.42453,-1.452679 -0.71427,-19.584385 -0.35858,-22.439352 l 0.32874,-2.638665 4.5315,2.955379 c 7.80614,5.091046 14.37436,8.002646 19.49681,8.642654 2.80031,0.349875 2.66209,0.444831 -4.07838,2.801875 -7.87347,2.753236 -12.44049,5.188842 -16.17118,8.624151 -1.75637,1.617306 -3.26009,2.940556 -3.3416,2.940556 -0.0815,0 -0.2648,-0.398969 -0.40731,-0.886598 z"
       id="path17706" />
    <path
       style="fill:#ac0000;stroke-width:0.394044"
       d="m 142.05269,142.76913 c -4.09037,-3.08576 -9.67154,-7.57826 -21.36023,-17.1937 -13.27043,-10.91661 -11.85681,-9.0218 -12.32722,-16.5234 -0.26706,-4.25876 0.0326,-5.0817 1.98377,-5.44774 1.9483,-0.3655 7.26391,0.49099 8.18573,1.31895 2.39182,2.14828 15.54808,21.47822 22.99126,33.78008 2.09163,3.457 3.2131,5.72747 2.819,5.7072 -0.0688,-0.004 -1.10033,-0.74216 -2.29231,-1.64139 z"
       id="path17745" />
    <path
       style="fill:#ac0000;stroke-width:0.139315"
       d="m 88.656146,162.37032 c -0.347977,-0.20326 -0.895312,-1.66893 -1.456044,-3.89902 -0.864332,-3.43755 -2.259313,-6.86158 -4.222047,-10.36314 -1.626858,-2.90236 -3.082727,-4.99689 -5.724329,-8.23547 -0.624992,-0.76624 -1.452868,-1.86335 -1.839725,-2.43802 l -0.703377,-1.04487 1.06861,-0.0408 c 0.708407,-0.0271 1.923038,0.10054 3.603424,0.37857 1.394146,0.23066 3.537883,0.49216 4.763859,0.58112 2.522456,0.18302 8.155126,0.0953 10.65763,-0.16594 1.780911,-0.18592 7.174483,-0.25291 7.562093,-0.0939 0.23366,0.0958 0.23049,0.13621 -0.0548,0.69658 -0.43156,0.84766 -1.43299,2.31564 -3.542061,5.19225 -3.631211,4.95268 -5.873777,9.17722 -6.978563,13.14621 -1.026656,3.6883 -1.684038,5.42054 -2.320307,6.11414 -0.313503,0.34176 -0.468259,0.37451 -0.814363,0.17234 z"
       id="path17784" />
    <path
       style="fill:#ac0000;stroke-width:0.139315"
       d="m 32.184627,145.41048 c 0.38365,-0.93018 1.381861,-2.55363 6.037864,-9.81974 17.916256,-27.95994 20.374715,-31.37833 23.023929,-32.01387 1.411304,-0.33857 4.376654,0.0283 5.704671,0.70584 1.906066,0.9724 3.225902,4.05147 3.2524,7.58758 0.01122,1.49668 9.7e-5,1.5535 -0.476121,2.4333 -1.064077,1.96584 -4.080268,4.73996 -15.394354,14.15884 -17.294055,14.39715 -21.189893,17.47048 -22.146104,17.47048 -0.197065,0 -0.197282,-0.0496 -0.0023,-0.52243 z"
       id="path17823" />
    <path
       style="fill:#ac0000;stroke-width:0.139315"
       d="M 36.276873,98.78596 C 35.940205,98.524007 35.15226,97.777805 34.525886,97.127735 31.471061,93.95735 24.057127,90.249038 14.697777,87.210083 12.077086,86.359151 9.8885174,85.50937 9.6844683,85.263506 9.4983893,85.039294 9.5664332,85.024644 11.930597,84.7799 c 3.801914,-0.393583 8.89145,-2.132928 14.360804,-4.907791 3.108773,-1.577229 5.43958,-3.113346 8.885744,-5.856147 l 2.716651,-2.162181 0.0424,7.400207 c 0.05436,9.487632 -0.190482,17.2537 -0.616522,19.555477 -0.105975,0.572551 -0.281833,0.568587 -1.0428,-0.02351 z"
       id="path17862" />
    <path
       style="fill:#ac0000;stroke-width:0.139315"
       d="M 62.761599,67.212968 C 61.204139,67.071991 60.19137,66.673015 58.877113,65.682691 56.761569,64.088583 54.332039,61.335898 44.853316,49.793576 32.10889,34.274581 26.418172,27.236166 26.615141,27.236166 c 0.113524,0 10.243433,6.547074 36.494747,23.586965 l 7.383717,4.792817 0.03634,5.871531 0.03634,5.871529 -3.310254,-0.01942 c -1.820639,-0.01068 -3.843134,-0.06766 -4.494434,-0.126615 z"
       id="path17901" />
    <path
       style="fill:#ac0000;stroke-width:0.0246277"
       d="m 110.7016,67.328027 c -0.79295,-0.04892 -1.31212,-0.160598 -1.65759,-0.356567 -0.17644,-0.100082 -0.43477,-0.359052 -0.54411,-0.545454 -0.17266,-0.294346 -0.31098,-0.812941 -0.38233,-1.433452 -0.088,-0.765139 -0.0981,-1.305143 -0.0993,-5.291939 l -0.001,-3.912787 6.98534,-4.652502 6.98534,-4.652502 0.2085,0.0072 0.2085,0.0072 -7.14061,4.727817 -7.1406,4.727816 0.0154,0.49326 c 0.008,0.271294 0.0372,1.523931 0.0638,2.783639 0.0868,4.110644 0.12322,5.026296 0.23483,5.910653 0.13911,1.102352 0.4785,1.566198 1.30344,1.781427 0.53781,0.140314 1.51503,0.216591 2.45046,0.191269 2.16916,-0.05872 4.38602,-0.45679 5.51661,-0.990594 1.55924,-0.73619 3.99631,-3.186779 10.39381,-10.451461 1.88665,-2.142392 4.26013,-4.913719 7.40863,-8.650487 l 0.45132,-0.535652 h 0.12131 0.12131 l -0.68282,0.818871 c -3.18349,3.817805 -5.14176,6.123359 -7.35791,8.662801 -4.683,5.366137 -8.38067,9.276684 -9.47054,10.015763 -0.87136,0.590897 -3.3874,1.185227 -5.66018,1.337028 -0.33474,0.02236 -2.00905,0.02863 -2.33152,0.0087 z"
       id="path17940" />
    <path
       style="fill:#ac0000;stroke-width:0.0246277"
       d="m 110.47995,67.303078 c -0.58412,-0.0505 -1.17994,-0.193594 -1.43995,-0.345828 -0.14441,-0.08456 -0.43959,-0.382267 -0.52593,-0.530443 -0.21191,-0.363686 -0.36324,-1.043337 -0.43723,-1.963749 -0.0196,-0.244424 -0.0323,-1.66832 -0.0402,-4.512684 l -0.0115,-4.155583 6.96566,-4.637547 c 3.83112,-2.55065 6.97732,-4.64469 6.99157,-4.653421 0.0142,-0.0087 0.10254,-0.0083 0.19621,0.001 l 0.17031,0.01691 -3.44089,2.278064 c -1.89248,1.252936 -5.09496,3.373501 -7.1166,4.712369 l -3.67572,2.434304 0.007,0.237804 c 0.004,0.130791 0.0342,1.456875 0.0674,2.946852 0.0983,4.413376 0.13058,5.206457 0.247,6.065829 0.0409,0.301906 0.13886,0.710133 0.19536,0.814137 0.049,0.09024 0.0457,0.06247 -0.0125,-0.102907 -0.17328,-0.493 -0.25947,-1.412325 -0.31908,-3.403061 -0.0338,-1.129488 -0.15215,-6.543489 -0.14316,-6.5503 0.004,-0.003 3.22411,-2.134959 7.15596,-4.737727 l 7.14881,-4.732305 h 6.73648 6.73649 l -0.25555,0.301689 c -0.14056,0.165929 -0.80843,0.955556 -1.48416,1.754725 -2.74585,3.24743 -4.48229,5.26832 -6.25315,7.277492 -3.50793,3.979987 -5.25719,5.887654 -6.94495,7.573857 -1.50262,1.501237 -2.33457,2.199816 -3.11885,2.61887 -0.92228,0.492784 -2.68558,0.878309 -4.76376,1.04154 -0.52424,0.04118 -2.02755,0.04157 -2.42583,6.28e-4 -0.92966,-0.09556 -1.38833,-0.244096 -1.70378,-0.551761 -0.0873,-0.08513 -0.19378,-0.215737 -0.23665,-0.290236 -0.0429,-0.0745 -0.0782,-0.123318 -0.0785,-0.108486 -8.8e-4,0.04384 0.18326,0.315272 0.2785,0.41051 0.27445,0.274451 0.62931,0.413553 1.3035,0.510951 0.4777,0.06901 0.94402,0.09804 1.57691,0.09815 2.20993,3.95e-4 4.74399,-0.435764 5.94049,-1.022468 1.22726,-0.601789 3.00315,-2.273116 6.48999,-6.107872 2.43187,-2.674514 5.06494,-5.674838 7.93141,-9.037658 0.78461,-0.92047 3.72138,-4.389945 3.77971,-4.465316 0.003,-0.0042 0.0523,-0.0042 0.10899,0 l 0.10304,0.0077 -1.54554,1.847079 c -3.17556,3.795117 -5.06046,6.001216 -7.37524,8.632016 -2.92518,3.324529 -4.9597,5.531954 -6.7199,7.291009 -1.28008,1.279242 -1.70038,1.645692 -2.14445,1.869707 -1.00293,0.505929 -3.05124,0.971878 -5.03637,1.145669 -0.30833,0.02699 -0.73023,0.03564 -1.6008,0.03282 -0.65018,-0.0021 -1.22646,-0.0077 -1.28065,-0.01235 z"
       id="path17979" />
    <path
       style="fill:#ac0000;stroke-width:0.0246277"
       d=""
       id="path18018" />
    <path
       style="fill:#ac0000;stroke-width:0.0246277"
       d="m 110.35682,67.292 c -0.52875,-0.05062 -1.06315,-0.186034 -1.3138,-0.332922 -0.14664,-0.08594 -0.4445,-0.384404 -0.53111,-0.532187 -0.10353,-0.176665 -0.22978,-0.554416 -0.2967,-0.887768 -0.1638,-0.815931 -0.18437,-1.498787 -0.18513,-6.143187 l -5.8e-4,-3.601773 4.90707,-3.270676 c 2.69889,-1.798872 5.84452,-3.89362 6.99029,-4.654995 l 2.08323,-1.38432 0.17021,0.01929 0.17022,0.01929 -0.43099,0.284682 c -3.47085,2.29263 -13.73885,9.09822 -13.76512,9.123469 -0.0305,0.02928 -0.0278,0.360682 0.0196,2.478998 0.11031,4.923135 0.14034,5.749818 0.23864,6.57034 0.0436,0.36411 0.0863,0.622388 0.10043,0.60822 0.006,-0.0056 -0.007,-0.114245 -0.0269,-0.241463 -0.0841,-0.524054 -0.14252,-1.407892 -0.18548,-2.804902 -0.0333,-1.08237 -0.1529,-6.579181 -0.14335,-6.587631 0.009,-0.0077 12.4911,-8.272006 13.58421,-8.993784 l 0.72092,-0.476023 6.85939,2.52e-4 c 5.6099,2.05e-4 6.85582,0.0061 6.83979,0.03216 -0.0617,0.10043 -4.10373,4.908372 -5.52171,6.567983 -3.89522,4.558992 -7.53409,8.599575 -9.87778,10.96825 -1.32508,1.339202 -1.88208,1.831704 -2.33976,2.068839 -0.99187,0.513917 -3.04669,0.986037 -5.04868,1.160002 -0.479,0.04162 -2.61223,0.04859 -3.01689,0.0099 z m 2.81987,-0.217623 c 2.07238,-0.174895 3.66059,-0.515434 4.6177,-0.990112 1.28733,-0.638457 3.23835,-2.511434 7.23053,-6.941321 1.65784,-1.83961 3.54438,-3.979499 5.22125,-5.92244 1.8599,-2.155017 5.69811,-6.683058 5.68015,-6.701025 -0.006,-0.006 -0.3031,0.335604 -0.6602,0.759139 -5.50964,6.534703 -9.80171,11.432186 -12.90175,14.721598 -0.5689,0.603645 -2.17969,2.213865 -2.54467,2.54377 -1.07307,0.969927 -1.76666,1.446938 -2.50086,1.719957 -1.41617,0.526611 -3.86023,0.873458 -5.81684,0.825491 -1.64846,-0.04041 -2.34493,-0.250366 -2.71167,-0.817441 -0.11771,-0.182013 -0.14792,-0.207062 -0.0658,-0.05458 0.0941,0.174863 0.40317,0.465067 0.59107,0.555059 0.3348,0.160345 0.87521,0.271159 1.58307,0.324619 0.36431,0.02751 1.85954,0.0126 2.27806,-0.02272 z m -4.52849,-1.076396 c -0.029,-0.04993 -0.0361,-0.03395 -0.0123,0.02799 0.008,0.02201 0.0205,0.03483 0.0269,0.02849 0.006,-0.0063 -2.3e-4,-0.03176 -0.0146,-0.05648 z m -0.0756,-0.231098 c -0.0257,-0.08725 -0.0476,-0.143718 -0.0487,-0.125484 -0.003,0.04433 0.074,0.305536 0.086,0.293547 0.005,-0.0052 -0.0116,-0.08081 -0.0373,-0.168063 z"
       id="path18057" />
    <path
       style="fill:#ac0000;stroke-width:0.0246277"
       d="m 110.45533,67.302745 c -0.0542,-0.0049 -0.22376,-0.02563 -0.37683,-0.04614 -1.2738,-0.170679 -1.71966,-0.651498 -1.92455,-2.075442 -0.10109,-0.702552 -0.10565,-0.909066 -0.11534,-5.224975 l -0.009,-4.174399 5.53196,-3.681844 c 3.04258,-2.025015 6.18995,-4.118144 6.99416,-4.651399 l 1.46219,-0.969554 0.19111,0.02423 c 0.10871,0.01378 0.20287,0.01501 0.21837,0.0028 0.0153,-0.012 3.04207,-0.02129 6.89096,-0.02115 5.46418,2e-4 6.85992,0.0065 6.84516,0.03087 -0.0368,0.06085 -2.74278,3.292059 -4.11955,4.919218 -4.55789,5.386866 -8.61074,9.919298 -11.29388,12.630321 -1.30971,1.32333 -1.86409,1.815621 -2.30269,2.044798 -1.0202,0.533079 -3.19225,1.028086 -5.19521,1.18398 -0.29864,0.02324 -2.5563,0.03023 -2.79648,0.0087 z m 1.59598,-0.198247 c -0.1381,-0.0044 -0.37083,-0.0044 -0.51718,-2.5e-5 -0.14635,0.0044 -0.0334,0.0079 0.25109,0.008 0.28445,2e-5 0.40419,-0.0035 0.26609,-0.0079 z m -0.91182,-0.02427 c -0.0572,-0.0052 -0.1569,-0.0052 -0.22165,-1.47e-4 -0.0648,0.0051 -0.018,0.0093 0.10392,0.0094 0.12191,7.4e-5 0.17489,-0.0041 0.11773,-0.0093 z m 1.69857,-1.72e-4 c -0.0711,-0.005 -0.18748,-0.005 -0.25859,0 -0.0711,0.005 -0.0129,0.009 0.12929,0.009 0.14223,0 0.20041,-0.0041 0.1293,-0.009 z m -2.10567,-0.02411 c -0.0373,-0.0056 -0.0982,-0.0056 -0.13545,0 -0.0373,0.0056 -0.007,0.01026 0.0677,0.01026 0.0745,0 0.10498,-0.0046 0.0677,-0.01026 z m 2.48685,-3.35e-4 c -0.0511,-0.0053 -0.12868,-0.0052 -0.1724,1.97e-4 -0.0437,0.0054 -0.002,0.0098 0.0929,0.0097 0.0948,-9.9e-5 0.13059,-0.0046 0.0795,-0.0099 z m -2.73284,-0.02358 c -0.0236,-0.0062 -0.0679,-0.0064 -0.0985,-4.98e-4 -0.0306,0.0059 -0.0114,0.01093 0.0428,0.01121 0.0542,2.73e-4 0.0792,-0.0045 0.0557,-0.01071 z m 3.05399,-6.75e-4 c -0.037,-0.0056 -0.1035,-0.0057 -0.14777,-2.51e-4 -0.0443,0.0055 -0.014,0.01008 0.0673,0.01022 0.0813,1.47e-4 0.11749,-0.0043 0.0805,-0.01 z m -3.2513,-0.024 c -0.0237,-0.0062 -0.0625,-0.0062 -0.0862,0 -0.0237,0.0062 -0.004,0.01126 0.0431,0.01126 0.0474,0 0.0668,-0.0051 0.0431,-0.01126 z m 3.50979,-3.6e-4 c -0.0303,-0.0058 -0.0857,-0.006 -0.12314,-3.35e-4 -0.0374,0.0057 -0.0127,0.01044 0.0551,0.01063 0.0677,1.97e-4 0.0984,-0.0044 0.0681,-0.01029 z m -3.6694,-0.02345 c -0.0167,-0.0067 -0.0499,-0.0072 -0.0739,-9.13e-4 -0.024,0.0062 -0.0103,0.01176 0.0303,0.01226 0.0406,5.03e-4 0.0602,-0.0046 0.0436,-0.01135 z m 3.89071,-0.0012 c -0.0305,-0.0059 -0.0803,-0.0059 -0.11083,0 -0.0305,0.0059 -0.006,0.01067 0.0554,0.01067 0.0609,0 0.0859,-0.0048 0.0554,-0.01067 z m -4.03895,-0.02356 c -0.0169,-0.0068 -0.0446,-0.0068 -0.0616,0 -0.0169,0.0068 -0.003,0.01242 0.0308,0.01242 0.0339,0 0.0477,-0.0056 0.0308,-0.01242 z m 4.24857,-6.11e-4 c -0.0235,-0.0062 -0.0679,-0.0064 -0.0985,-4.98e-4 -0.0306,0.0059 -0.0114,0.01094 0.0428,0.01121 0.0542,2.73e-4 0.0793,-0.0045 0.0557,-0.01071 z m -4.3599,-0.02259 c -0.008,-0.0082 -0.0294,-0.0091 -0.0472,-0.0019 -0.0196,0.0079 -0.0138,0.0137 0.0149,0.01488 0.026,0.0011 0.0405,-0.0048 0.0323,-0.01293 z m 4.55692,-0.002 c -0.0235,-0.0062 -0.0679,-0.0064 -0.0985,-4.97e-4 -0.0306,0.0059 -0.0114,0.01093 0.0428,0.01121 0.0542,2.74e-4 0.0793,-0.0045 0.0557,-0.01071 z m -4.65544,-0.02259 c -0.008,-0.0082 -0.0294,-0.0091 -0.0472,-0.0019 -0.0196,0.0079 -0.0138,0.0137 0.0149,0.01488 0.026,0.0011 0.0405,-0.0048 0.0323,-0.01293 z m 4.82755,-0.0021 c -0.0237,-0.0062 -0.0625,-0.0062 -0.0862,0 -0.0237,0.0062 -0.004,0.01126 0.0431,0.01126 0.0474,0 0.0668,-0.0051 0.0431,-0.01126 z m -4.99327,-0.04459 c -0.11244,-0.0433 -0.15668,-0.04266 -0.0616,8.89e-4 0.0406,0.01861 0.0905,0.03349 0.11083,0.03307 0.0203,-4.18e-4 -0.002,-0.0157 -0.0493,-0.03396 z m 5.16566,0.01996 c -0.0237,-0.0062 -0.0625,-0.0062 -0.0862,0 -0.0237,0.0062 -0.004,0.01126 0.0431,0.01126 0.0474,0 0.0668,-0.0051 0.0431,-0.01126 z m 0.47409,-0.06795 c 0.088,-0.01779 0.13791,-0.03297 0.11082,-0.03375 -0.0271,-7.74e-4 -0.16008,0.01966 -0.29553,0.0454 -0.14123,0.02684 -0.1885,0.04124 -0.11082,0.03375 0.0745,-0.0072 0.20748,-0.02762 0.29553,-0.0454 z m -5.78957,0.0017 c -0.025,-0.02282 -0.26885,-0.137982 -0.26885,-0.126989 0,0.01499 0.22506,0.133594 0.25654,0.135193 0.0124,6.3e-4 0.018,-0.0031 0.0123,-0.0082 z m 6.33714,-0.103548 c 0.63005,-0.13274 1.51622,-0.391181 1.69104,-0.49317 0.0352,-0.02056 0.0419,-0.02954 0.0148,-0.01995 -0.67264,0.238152 -1.11187,0.363269 -1.76088,0.501597 -0.18286,0.03897 -0.31325,0.07183 -0.28977,0.07301 0.0235,0.0012 0.17865,-0.02649 0.34479,-0.06149 z m -6.63062,-0.0417 c 0,-0.0038 -0.0693,-0.06558 -0.15392,-0.13739 l -0.15393,-0.130555 0.1456,0.13739 c 0.13415,0.126588 0.16225,0.1492 0.16225,0.130555 z m -0.29553,-0.297996 c 0,-0.0051 -0.0194,-0.02451 -0.0431,-0.0431 -0.0391,-0.03063 -0.0399,-0.02976 -0.009,0.0093 0.0322,0.04102 0.0524,0.05407 0.0524,0.0338 z m 8.96872,-0.314235 c 1.44327,-0.741361 3.68041,-2.959626 8.83878,-8.764209 2.30185,-2.590205 4.4721,-5.104668 7.64157,-8.853552 1.49368,-1.766744 1.55376,-1.838431 1.57897,-1.88402 0.0356,-0.06442 0.002,-0.02514 -1.46618,1.711626 -3.49788,4.137861 -5.40705,6.348649 -8.04987,9.321592 -2.51479,2.828922 -3.84752,4.266553 -5.33247,5.752163 -1.60121,1.601925 -2.3903,2.262684 -3.22007,2.696364 -0.153,0.07996 -0.26892,0.14565 -0.2576,0.145969 0.0113,3.17e-4 0.1314,-0.05635 0.26687,-0.125933 z m -9.27206,-0.321405 c -0.008,-0.01965 -0.0137,-0.01381 -0.0149,0.01488 -10e-4,0.02596 0.005,0.04051 0.0129,0.03232 0.008,-0.0082 0.009,-0.02943 0.002,-0.0472 z m -0.0493,-0.221649 c -0.008,-0.01965 -0.0137,-0.01381 -0.0149,0.01488 -0.001,0.02596 0.005,0.04051 0.0129,0.03232 0.008,-0.0082 0.009,-0.02942 0.002,-0.0472 z m -0.0513,-0.315543 c -0.0188,-0.12868 -0.0354,-0.203939 -0.0368,-0.167243 -0.003,0.08458 0.0518,0.458849 0.0628,0.425834 0.004,-0.01355 -0.007,-0.129911 -0.026,-0.258591 z m -0.0639,-0.620146 c -0.0161,-0.193957 -0.0386,-0.496721 -0.05,-0.672809 l -0.0208,-0.320161 0.0107,0.369416 c 0.0114,0.392696 0.0601,1.005529 0.0784,0.987184 0.006,-0.006 -0.002,-0.169673 -0.0182,-0.36363 z m -0.0805,-1.454739 c -0.005,-0.08466 -0.009,-0.01539 -0.009,0.153923 0,0.169315 0.004,0.238581 0.009,0.153923 0.005,-0.08466 0.005,-0.223189 0,-0.307846 z m -0.0245,-0.788087 c -0.005,-0.111749 -0.008,-0.02032 -0.008,0.203178 0,0.223497 0.004,0.314927 0.008,0.203179 0.005,-0.111748 0.005,-0.294609 0,-0.406357 z m -0.0246,-0.949478 c -0.004,-0.131345 -0.008,-0.01716 -0.008,0.253744 3e-5,0.270905 0.004,0.37837 0.008,0.238811 0.004,-0.13956 0.004,-0.361209 -4e-5,-0.492555 z m -0.0246,-1.057682 c -0.004,-0.145611 -0.008,-0.02647 -0.008,0.264748 0,0.291223 0.004,0.41036 0.008,0.264748 0.004,-0.145611 0.004,-0.383884 0,-0.529496 z m -0.0555,-2.489535 c -0.0224,-1.034 -0.0371,-1.88348 -0.0326,-1.887733 0.0165,-0.01565 14.04869,-9.306037 14.12702,-9.353133 0.0446,-0.02682 0.0761,-0.05379 0.0699,-0.05994 -0.006,-0.0062 -1.1121,0.717573 -2.45766,1.608281 -1.34557,0.890708 -3.08926,2.044973 -3.87489,2.565035 -0.78562,0.52006 -1.87171,1.239534 -2.41352,1.598829 -0.54181,0.359296 -1.99361,1.32155 -3.22623,2.138343 l -2.24112,1.485079 v 0.464214 c 0,0.628301 0.0718,3.682217 0.0819,3.481109 0.004,-0.08804 -0.0103,-1.00608 -0.0328,-2.040079 z"
       id="path18096" />
    <path
       style="fill:#ac0000;stroke-width:0.0246277"
       d="m 129.83865,94.071736 c 0.007,-0.118521 0.046,-1.074385 0.0863,-2.124141 0.23185,-6.042247 0.41424,-9.948873 0.68876,-14.752005 0.0538,-0.941395 0.0978,-1.719938 0.0979,-1.730097 2e-5,-0.01016 -7.3421,-0.01847 -16.31583,-0.01847 -13.0363,0 -16.315852,-0.0062 -16.315809,-0.03079 3e-5,-0.01693 0.02207,-0.407589 0.04898,-0.868127 0.276803,-4.737466 1.070842,-20.900359 1.280672,-26.068442 0.01402,-0.345404 0.03183,-0.708355 0.03957,-0.806558 l 0.01408,-0.178551 h 0.08675 0.08675 l -0.01597,0.24012 c -0.0088,0.132066 -0.31412,6.318858 -0.678527,13.748425 -0.364408,7.429568 -0.668986,13.594194 -0.67684,13.69917 l -0.01428,0.190865 h 16.254874 c 15.46419,0 16.2549,0.0021 16.25544,0.0431 0.002,0.131574 -0.69332,18.588851 -0.70485,18.717068 l -0.0138,0.153923 h -0.1086 -0.10859 z"
       id="path18135" />
    <path
       style="fill:#ac0000;stroke-width:0.0246277"
       d="m 53.011168,75.854495 c 0,-0.132608 0.001,-0.134495 0.08004,-0.146683 0.404545,-0.0624 1.632549,-0.15845 2.690578,-0.210441 2.096594,-0.103028 4.420931,-0.123321 14.17941,-0.123804 l 8.712056,-4.28e-4 v -13.93929 -13.93929 h 0.16008 0.160081 v 13.973559 13.97356 l -7.591495,0.01274 c -7.098323,0.01191 -8.683083,0.025 -10.990121,0.09078 -2.924103,0.08337 -5.127336,0.210439 -6.854516,0.395322 -0.604016,0.06466 -0.546114,0.07378 -0.546114,-0.08603 z"
       id="path18174" />
    <path
       style="fill:#ac0000;stroke-width:0.0348289"
       d="m 99.465646,47.254051 c 0.01202,-0.129302 0.03247,-0.756222 0.04545,-1.393154 l 0.0236,-1.15806 h 0.118901 0.118901 l -0.02118,0.304753 c -0.01934,0.278242 -0.123363,2.33335 -0.123363,2.437178 0,0.02476 -0.0407,0.04438 -0.09207,0.04438 h -0.09207 z"
       id="path18213" />
    <path
       style="fill:#ac0000;stroke-width:0.0348289"
       d="m 78.695801,46.095991 v -1.393154 l 0.148023,-1.2e-5 0.148022,-1.2e-5 -0.0095,1.393166 -0.0095,1.393167 h -0.138539 -0.138538 z"
       id="path18252" />
    <path
       style="fill:#ac0000;stroke-width:0.0492554"
       d="M 78.685567,111.16838 V 94.986813 l -0.38173,0.02679 c -0.209951,0.01473 -1.27941,0.05989 -2.376575,0.100336 -2.296575,0.08467 -13.529533,0.512696 -21.939176,0.835974 -3.16732,0.121756 -5.771107,0.209032 -5.786193,0.193946 -0.04189,-0.04189 -1.071086,-9.699138 -1.246408,-11.695402 -0.08563,-0.975004 -0.08495,-3.799124 10e-4,-4.285224 0.240948,-1.362157 0.707075,-2.291815 1.464217,-2.920273 0.808983,-0.671489 2.097643,-1.14674 3.823215,-1.409981 0.370395,-0.0565 0.687703,-0.102735 0.705129,-0.102735 0.01743,0 0.02467,0.06004 0.0161,0.133426 -0.01551,0.132812 -0.01899,0.133929 -0.754417,0.242597 -1.312811,0.193983 -2.151769,0.414375 -2.778136,0.729808 -1.805383,0.909177 -2.534664,2.911919 -2.323584,6.380996 0.235238,3.866104 1.060694,11.795713 1.313894,12.621706 0.02387,0.07787 0.111041,0.0862 0.902444,0.0862 2.830706,0 18.514988,-0.568894 24.483892,-0.88807 0.528265,-0.02825 1.81137,-0.105967 2.851345,-0.17271 1.039975,-0.06674 1.987527,-0.12135 2.10567,-0.12135 H 78.9811 v 16.232373 16.23236 l 0.652634,-0.0267 c 0.358949,-0.0147 1.627893,-0.0385 2.819874,-0.0528 1.191982,-0.0144 3.508219,-0.0481 5.147194,-0.075 8.324335,-0.13674 9.489538,-0.2299 10.135169,-0.81038 0.763169,-0.68616 0.792545,-1.40924 0.699998,-17.22999 -0.03341,-5.7104 -0.05199,-10.391286 -0.04131,-10.40197 0.0167,-0.01669 0.396861,10.88238 0.540283,15.48955 0.07068,2.27047 0.06974,6.88553 -0.0017,8.05326 -0.144407,2.36218 -0.421858,3.58953 -0.946537,4.1871 -0.255276,0.29075 -0.558005,0.39759 -1.519973,0.53648 -2.362115,0.34102 -5.947687,0.47165 -12.966495,0.47238 l -4.814695,4.9e-4 z"
       id="path18291" />
    <path
       style="fill:#ac0000;stroke-width:0.0492554"
       d="m 144.21171,144.50858 c -1.31895,-0.70129 -8.17156,-6.03711 -16.14756,-12.57338 -2.03851,-1.67054 -19.22939,-15.84962 -19.31704,-15.93274 -0.0802,-0.0761 -0.56086,-7.49704 -0.59417,-9.17415 -0.0357,-1.79831 0.0664,-2.39574 0.48772,-2.85281 0.42196,-0.45778 0.96923,-0.56605 2.87366,-0.56852 2.14246,-0.003 4.1034,0.19726 5.593,0.57055 0.8729,0.21875 0.98823,0.28018 1.56027,0.8311 1.83913,1.77123 5.71346,6.96203 9.83941,13.18278 1.80322,2.71875 6.95545,10.6764 9.67112,14.93711 3.75369,5.88931 5.8242,9.37393 6.31274,10.62421 0.35182,0.90037 0.25299,1.23879 -0.27915,0.95585 z m 0.22213,-0.18689 c 0.0827,-0.42664 -1.24328,-2.94304 -3.45368,-6.55422 -7.54804,-12.33143 -19.49413,-29.87811 -22.24077,-32.66772 -0.34138,-0.34672 -0.69399,-0.52818 -1.4985,-0.77116 -1.68248,-0.50814 -4.25572,-0.85605 -5.95795,-0.80552 -0.94649,0.0281 -1.40271,0.11788 -1.94396,0.38258 -0.52901,0.25871 -0.83435,0.74236 -0.97872,1.55025 -0.0944,0.52851 -0.10773,2.21321 -0.0274,3.47251 0.0285,0.44699 0.0751,1.32251 0.1035,1.94559 0.064,1.40426 0.12857,2.19152 0.22412,2.73367 0.28017,1.5897 1.04516,2.71744 3.10747,4.58106 0.99668,0.90066 2.20397,1.90987 6.24758,5.22256 1.86952,1.53159 4.57387,3.74914 6.00967,4.92788 5.33549,4.38026 9.39579,7.67759 12.437,10.09994 4.08813,3.25625 7.75174,6.02946 7.9055,5.98418 0.0271,-0.008 0.0568,-0.0537 0.0661,-0.1016 z"
       id="path18330" />
    <path
       style="fill:#ac0000;stroke-width:0.0348289"
       d="m 141.18078,99.240092 c -0.32289,-0.529414 -0.57096,-2.986799 -0.74139,-7.344154 -0.0584,-1.49378 -0.0577,-10.494141 0.001,-13.060822 0.0841,-3.672773 0.18194,-5.798598 0.27902,-6.061049 0.0241,-0.06504 0.0568,-0.05194 0.46028,0.18416 0.96532,0.564867 2.49947,1.55444 5.52792,3.565684 2.25651,1.498587 2.74185,1.812173 3.61366,2.334858 5.39144,3.232353 10.89299,5.296134 15.48143,5.807503 0.25861,0.02882 0.76666,0.07002 1.12901,0.09155 0.65099,0.03868 0.79196,0.0617 0.83844,0.136901 0.10126,0.163835 -0.62674,0.604125 -1.8218,1.101815 -0.91191,0.379773 -1.67706,0.653943 -3.73302,1.33763 -2.66897,0.887535 -4.2482,1.453792 -5.90349,2.116784 -4.4365,1.776949 -7.66658,3.582286 -9.94794,5.560046 -0.61556,0.533645 -0.97013,0.878761 -1.8423,1.793165 -0.37317,0.391241 -0.85149,0.869267 -1.06293,1.06228 -0.89704,0.818851 -1.71888,1.393293 -2.10337,1.470191 -0.0896,0.01792 -0.1125,0.0053 -0.17459,-0.09654 z m 0.48231,-0.229618 c 0.2951,-0.224026 1.30636,-1.117496 2.63286,-2.326194 1.33444,-1.215921 1.93668,-1.725992 2.82114,-2.389366 2.98942,-2.242162 6.8715,-4.187355 12.32941,-6.177897 0.38312,-0.139726 1.52594,-0.546703 2.5396,-0.904392 3.96826,-1.400281 4.82671,-1.761607 4.82671,-2.031596 0,-0.195214 -0.31256,-0.277501 -1.8111,-0.476802 -4.01654,-0.534188 -8.75591,-2.368846 -14.41915,-5.581797 -1.98211,-1.124518 -3.13806,-1.845989 -7.16939,-4.47467 -1.29008,-0.841212 -2.35002,-1.524455 -2.35543,-1.518319 -0.0304,0.03454 -0.3723,3.028996 -0.40088,3.511457 -0.22002,3.713394 -0.0124,17.394523 0.31585,20.810242 0.0635,0.661258 0.21103,1.210048 0.41421,1.541177 0.0845,0.13769 0.11598,0.139761 0.27617,0.01816 z"
       id="path18369" />
    <path
       style="fill:#ac0000;stroke-width:0.278631"
       d="m 80.338231,33.571348 c -3.130569,-0.299438 -4.132693,-0.531103 -4.132693,-0.95537 0,-0.207089 0.865503,-1.329406 1.92334,-2.494037 2.165372,-2.383977 3.768361,-4.974456 5.97125,-9.649726 2.053277,-4.357741 3.533632,-8.388295 3.92543,-10.6877455 l 0.326809,-1.9180261 0.49012,0.7480175 c 0.269565,0.4114096 1.281184,2.7164361 2.24804,5.1222811 2.971332,7.393616 6.052822,13.080263 9.937263,18.338436 0.59973,0.811825 1.09042,1.54409 1.09042,1.627257 0,0.22344 -19.287102,0.107356 -21.779979,-0.131087 z"
       id="path18408" />
    <path
       style="fill:#ac0000;stroke-width:0.0492554"
       d="m 85.791342,33.72926 c 0.07487,-0.01132 0.185696,-0.01102 0.246277,6.72e-4 0.06058,0.01169 -6.77e-4,0.02096 -0.13613,0.02059 -0.135452,-3.7e-4 -0.185019,-0.0099 -0.110147,-0.02126 z"
       id="path18447" />
    <path
       style="fill:#ac0000;stroke-width:0.0174144"
       d="M 86.758681,34.000271 C 80.913412,33.897704 76.488189,33.45839 76.049573,32.937124 c -0.04351,-0.0517 -0.04652,-0.06461 -0.03585,-0.153349 0.0769,-0.639055 0.988585,-1.874133 2.063959,-2.796079 0.685645,-0.587821 1.197716,-1.204007 1.997371,-2.40348 1.383369,-2.075037 3.208794,-5.511971 4.673009,-8.798402 0.109554,-0.245895 0.111078,-0.248155 0.167323,-0.248155 h 0.05676 l -0.05333,0.125329 c -0.08707,0.204609 -0.569346,1.258707 -0.803155,1.755429 -1.679367,3.567787 -2.988652,5.876644 -4.409284,7.775542 -0.527651,0.70529 -0.922733,1.183717 -1.646591,1.993952 -0.97752,1.094166 -1.725235,2.047596 -1.838605,2.344449 -0.174353,0.456537 0.791358,0.71786 3.71975,1.006571 0.920988,0.0908 1.66054,0.122845 4.040147,0.175058 2.951749,0.06477 5.877628,0.09529 10.300634,0.107449 5.198489,0.01429 7.741269,-0.02233 7.831739,-0.112802 0.0445,-0.04449 -0.35434,-0.646382 -1.14436,-1.727039 -1.297791,-1.7752 -2.329019,-3.312704 -3.398927,-5.067598 -1.456989,-2.389796 -2.81138,-4.935822 -4.145566,-7.792957 -0.13865,-0.296916 -0.256085,-0.549643 -0.260967,-0.561615 -0.0056,-0.01385 0.0061,-0.02154 0.03217,-0.02114 0.03589,5.53e-4 0.05615,0.03391 0.161292,0.26557 0.402648,0.887143 1.344775,2.811413 1.873312,3.826187 1.09953,2.111058 2.169664,3.957589 3.03779,5.241743 0.126262,0.18677 1.148001,1.642412 2.270536,3.234761 1.12253,1.592348 2.04096,2.899083 2.04096,2.903856 0,0.01394 -14.996592,0.0043 -15.821012,-0.01014 z"
       id="path18486" />
    <path
       style="fill:#ac0000;stroke-width:0.0348289"
       d="m 70.580858,67.036841 c 0.0016,-2.695236 -0.08376,-11.424465 -0.112046,-11.458693 -0.04972,-0.06016 -0.0068,-0.05446 0.09568,0.01271 l 0.08585,0.05625 v 5.847243 c 0,3.874942 -0.01175,5.847242 -0.03483,5.847242 -0.02058,0 -0.03475,-0.124683 -0.03465,-0.304753 z"
       id="path18525" />
    <path
       style="fill:#ac0000;stroke-width:0.0348289"
       d="M 65.861367,67.303893 C 64.206902,67.275535 62.937006,67.2243 62.465554,67.166886 61.295719,67.024421 60.374391,66.68176 59.400615,66.026969 57.256587,64.585274 55.044436,62.142756 46.633054,51.929825 41.841283,46.111753 33.522774,35.94615 33.522774,35.908455 c 0,-0.0095 1.469472,-0.01732 3.265493,-0.01732 h 3.265493 l 2.751192,1.780943 c 2.609044,1.688925 19.783456,12.829235 25.139484,16.306913 1.375559,0.893153 2.51185,1.621116 2.525092,1.617695 0.01324,-0.0034 0.05934,0.0058 0.102442,0.02044 l 0.07837,0.02666 -0.005,3.924607 c -0.0028,2.158533 -0.01537,4.747438 -0.02799,5.753121 l -0.02296,1.828515 -0.01182,-2.472849 c -0.0065,-1.360067 -0.02343,-3.350536 -0.03762,-4.423264 -0.01652,-1.248901 -0.02023,-0.32503 -0.01034,2.568628 l 0.01545,4.519044 -1.578095,-0.0057 c -0.867953,-0.0031 -2.267707,-0.01754 -3.110566,-0.03198 z m 4.640858,-10.857177 c -0.0058,-0.281365 -0.01062,-0.04138 -0.0106,0.533293 1.3e-5,0.574676 0.0048,0.804884 0.01063,0.511573 0.0058,-0.293311 0.0058,-0.763501 -2.8e-5,-1.044866 z"
       id="path18564" />
    <path
       style="fill:#ac0000;stroke-width:0.0348289"
       d="M 65.701013,67.304026 C 62.310914,67.242761 61.537536,67.137568 60.358408,66.577342 59.835042,66.32868 59.471997,66.103701 58.895596,65.670835 56.896236,64.169354 54.47225,61.455068 46.70198,52.016897 41.271652,45.420939 33.522774,35.950714 33.522774,35.910042 c 0,-0.0104 1.470892,-0.01891 3.268649,-0.01891 h 3.268649 l 2.643549,1.711767 c 2.746986,1.778745 11.033943,7.153726 20.092807,13.032342 7.218058,4.684052 7.615706,4.940993 7.659075,4.948909 0.02096,0.0038 0.07337,0.01881 0.116467,0.0333 l 0.07837,0.02634 -0.005,4.116165 c -0.0027,2.263891 -0.01535,4.852796 -0.02805,5.753122 l -0.02309,1.636956 -0.01156,-2.403191 c -0.0064,-1.321755 -0.02261,-2.975255 -0.03611,-3.674444 -0.0135,-0.69919 -0.01673,0.425347 -0.0072,2.49897 l 0.01737,3.770224 -1.703364,-0.0057 c -0.936851,-0.0031 -2.355425,-0.01747 -3.152387,-0.03188 z"
       id="path18603" />
    <path
       style="fill:#ac0000;stroke-width:0.0348289"
       d="M 62.8835,67.303076 C 60.582414,67.138937 59.216125,66.369028 56.699751,63.818511 54.726475,61.818461 52.704812,59.454595 46.144893,51.47705 43.396141,48.134282 39.482544,43.360732 36.936082,40.244744 35.472372,38.45367 34.075895,36.745314 33.8328,36.448398 c -0.404705,-0.494305 -0.481514,-0.602782 -0.384245,-0.542666 0.0192,0.01186 0.376502,0.440522 0.794014,0.952574 4.795748,5.881683 12.463649,15.226104 15.211195,18.53699 6.57064,7.917844 8.729727,10.149888 10.800158,11.165107 1.133109,0.555611 1.961562,0.691584 4.614823,0.757425 0.201137,0.005 -0.07314,0.01014 -0.609505,0.01145 -0.536364,0.0013 -1.155447,-0.01049 -1.37574,-0.0262 z"
       id="path18642" />
    <path
       style="fill:#ac0000;stroke-width:0.00870721"
       d="m 37.697928,94.588644 c 2.5e-5,-0.02514 0.0039,-0.118201 0.0086,-0.206797 0.08992,-1.700728 0.169589,-4.556579 0.209023,-7.492557 0.02816,-2.096848 0.03963,-6.193521 0.02253,-8.047643 l -0.0069,-0.750997 h 0.03202 0.03202 l -0.0039,4.921752 c -0.0024,3.065772 -0.0075,5.128611 -0.0134,5.470308 -0.02825,1.625122 -0.0519,2.679589 -0.0754,3.360984 -0.0026,0.07662 -0.01061,0.30976 -0.0177,0.51808 -0.01438,0.422225 -0.03598,0.989837 -0.04324,1.136291 -0.0026,0.05268 -0.01444,0.309324 -0.02629,0.570323 -0.01185,0.260998 -0.02379,0.495114 -0.02655,0.520256 l -0.005,0.04571 h -0.04291 -0.04291 l 4.5e-5,-0.04571 z"
       id="path18681" />
    <path
       style="fill:#ac0000;stroke-width:0.00435361"
       d="m 33.33719,96.06757 c -0.805472,-0.658593 -1.965327,-1.437623 -3.290771,-2.210285 -2.47512,-1.44286 -5.561546,-2.917673 -9.00979,-4.305222 l -0.04354,-0.01752 0.08078,-2.2e-4 0.08078,-2.19e-4 0.213087,0.08532 c 2.307748,0.924056 4.493922,1.916304 6.375618,2.893731 2.242284,1.16473 4.085176,2.320037 5.452893,3.418412 0.197982,0.158993 0.193735,0.155343 0.193735,0.166529 0,0.0055 -7.4e-4,0.01 -0.0016,0.01 -9.04e-4,0 -0.02392,-0.01822 -0.05116,-0.04048 z"
       id="path18720" />
    <path
       style="fill:#ac0000;stroke-width:0.00615693"
       d="m 54.870732,128.01886 c 0.0067,-0.006 0.365397,-0.3061 0.797152,-0.66627 5.824426,-4.85869 9.075713,-7.66889 11.057846,-9.55768 0.512581,-0.48844 1.004515,-0.98058 1.411726,-1.41232 l 0.04797,-0.0509 0.07007,0.002 0.07008,0.002 -0.09903,0.10775 c -1.324064,1.44065 -3.433293,3.35506 -7.279092,6.60678 -1.295898,1.09571 -4.302397,3.61025 -5.890019,4.92622 l -0.06556,0.0543 h -0.06664 c -0.06516,0 -0.06637,-2.5e-4 -0.0545,-0.0114 z"
       id="path18981" />
    <path
       style="fill:#ac0000;stroke-width:0.00615693"
       d="m 68.19108,116.32886 c 0,-0.002 0.05794,-0.0668 0.128753,-0.1445 0.534145,-0.58596 0.938489,-1.10119 1.21876,-1.55301 0.159322,-0.25683 0.368924,-0.64582 0.46679,-0.86629 0.100635,-0.22671 0.15156,-0.41982 0.177074,-0.67149 0.02394,-0.23613 0.03163,-0.65721 0.02243,-1.22831 -0.0093,-0.57772 -0.028,-0.91806 -0.07459,-1.3576 -0.0066,-0.0627 -0.01208,-0.11737 -0.01209,-0.1216 -1.1e-5,-0.005 0.0127,-0.008 0.04308,-0.008 0.0237,0 0.0431,0.002 0.0431,0.004 0,0.002 0.0096,0.0651 0.02127,0.14007 0.07661,0.4907 0.118102,0.83044 0.145226,1.18907 0.01074,0.14195 0.01458,0.55765 0.0064,0.69573 -0.03827,0.64856 -0.182144,1.17622 -0.484391,1.77656 -0.311992,0.6197 -0.768393,1.25261 -1.486356,2.0612 l -0.07696,0.0867 -0.06927,3e-4 c -0.0381,1.7e-4 -0.06927,-10e-4 -0.06927,-0.003 z"
       id="path19020" />
    <path
       style="fill:#ac0000;stroke-width:0.00615693"
       d="m 32.807202,145.72426 c 1.140742,-0.60686 3.455727,-2.37188 8.416524,-6.41704 1.578263,-1.28695 4.530177,-3.71656 6.289304,-5.17649 l 0.08004,-0.0664 0.0666,-1.1e-4 0.0666,-1.1e-4 -0.109703,0.091 c -0.807737,0.67036 -3.109324,2.57266 -4.028589,3.3297 -5.168686,4.25656 -7.986891,6.48753 -9.635596,7.62783 -0.320257,0.22149 -0.713726,0.4759 -0.927075,0.59942 l -0.08665,0.0502 -0.101132,-1.5e-4 -0.101131,-1.6e-4 z"
       id="path19059" />
    <path
       style="fill:#ac0000;stroke-width:0.00435361"
       d="m 32.096968,146.06393 c -0.06736,-0.0152 -0.106627,-0.0515 -0.12753,-0.1179 -0.01332,-0.0423 -0.01318,-0.13489 3.29e-4,-0.20686 0.08918,-0.47524 0.604341,-1.434 1.753297,-3.26303 0.06167,-0.0982 0.124114,-0.19759 0.138764,-0.22094 l 0.02663,-0.0425 h 0.05987 c 0.03293,0 0.05987,7.2e-4 0.05987,0.002 0,8.8e-4 -0.05221,0.0856 -0.116033,0.1883 -0.219726,0.35353 -0.46629,0.75547 -0.637967,1.04 -0.581805,0.96423 -0.881624,1.51426 -1.066722,1.95694 -0.121539,0.29068 -0.160367,0.41482 -0.147592,0.47191 0.0067,0.0298 0.02445,0.0469 0.0577,0.0554 0.03495,0.009 0.139422,0.008 0.19312,-0.002 0.0968,-0.018 0.227325,-0.0638 0.372233,-0.13049 l 0.06748,-0.0311 0.102214,0.001 0.102214,0.001 -0.04344,0.0242 c -0.146099,0.0815 -0.339003,0.1735 -0.452936,0.21611 -0.143523,0.0537 -0.267266,0.0747 -0.341501,0.058 z"
       id="path19098" />
    <path
       style="fill:#ac0000;stroke-width:0.0348289"
       d="m 98.369333,96.520531 -0.01264,-0.157742 6.234367,-0.01962 c 3.4289,-0.01079 7.04152,-0.03577 8.02805,-0.0555 5.4307,-0.108623 5.61723,-0.113224 12.83443,-0.316546 2.06883,-0.05828 3.88887,-0.114764 4.04451,-0.125512 l 0.283,-0.01954 0.0254,-0.76347 0.0254,-0.76347 h 0.10633 0.10633 l -0.0229,0.632502 c -0.0126,0.347877 -0.0229,0.730357 -0.0229,0.849956 v 0.217452 l -0.357,0.0209 c -0.31489,0.01844 -2.51106,0.08392 -6.5217,0.194442 -4.93675,0.136049 -13.36728,0.296529 -23.11372,0.439981 l -1.624311,0.02391 z"
       id="path19137" />
    <path
       style="fill:#ac0000;stroke-width:0.00390625"
       d="m 88.927734,162.58383 c -0.107113,-0.01 -0.218101,-0.0581 -0.322742,-0.14104 -0.212649,-0.16855 -0.426792,-0.5042 -0.625163,-0.9799 -0.24192,-0.58013 -0.462204,-1.34288 -0.696627,-2.41211 -0.112722,-0.51414 -0.217763,-0.94224 -0.345526,-1.4082 -0.0162,-0.0591 -0.02946,-0.10883 -0.02946,-0.11056 -5e-6,-0.002 0.0091,-0.003 0.0203,-0.002 l 0.02031,0.001 0.03452,0.125 c 0.01898,0.0687 0.05541,0.20322 0.08094,0.29883 0.0434,0.16249 0.06463,0.24461 0.181829,0.70312 0.499908,1.95584 0.994238,3.31079 1.331661,3.65004 0.0422,0.0424 0.07253,0.0632 0.151967,0.10407 0.09975,0.0513 0.163218,0.0733 0.238229,0.0824 0.08749,0.0106 0.17564,-0.0154 0.269209,-0.0795 0.104703,-0.0717 0.264712,-0.2377 0.385201,-0.3996 0.201312,-0.27049 0.412964,-0.66383 0.629529,-1.16992 0.314062,-0.73393 0.657377,-1.73602 1.072058,-3.12919 0.02914,-0.0979 0.05299,-0.18009 0.05299,-0.18262 0,-0.003 0.01296,-0.005 0.04436,-0.005 h 0.04436 l -0.01931,0.0693 c -0.599331,2.15246 -1.132031,3.55664 -1.641569,4.32715 -0.104492,0.15801 -0.190494,0.26733 -0.293075,0.37255 -0.174825,0.17932 -0.3359,0.27063 -0.503907,0.28565 -0.02363,0.002 -0.04385,0.004 -0.04492,0.003 -0.0011,-2.8e-4 -0.0169,-0.002 -0.03516,-0.003 z"
       id="path19176" />
    <path
       style="fill:#ac0000;stroke-width:0.0078125"
       d="m 91.399362,157.4668 c 0.01887,-0.0609 0.263306,-0.91584 0.423841,-1.48243 0.683965,-2.41393 1.775501,-4.89603 3.330867,-7.57421 0.128169,-0.2207 0.584646,-0.98481 0.6036,-1.0104 0.006,-0.008 0.01778,-0.0132 0.02726,-0.0117 0.01533,0.002 0.01216,0.0101 -0.03933,0.0963 -1.428416,2.39125 -2.731363,5.09277 -3.462777,7.17969 -0.20609,0.58803 -0.341486,1.03498 -0.489907,1.61719 -0.106732,0.41867 -0.290349,1.11478 -0.325086,1.23242 -0.0032,0.0108 -0.01276,0.0137 -0.04563,0.0137 h -0.04159 z"
       id="path19215" />
    <path
       style="fill:#ac0000;stroke-width:0.0078125"
       d="m 86.906253,157.51758 c -0.0019,-0.005 -0.03011,-0.10293 -0.06274,-0.2168 -0.440936,-1.53877 -1.041766,-3.18106 -1.779224,-4.86328 -0.623733,-1.42281 -1.327906,-2.83889 -2.111441,-4.24609 -0.148599,-0.26688 -0.424682,-0.753 -0.446987,-0.78704 -0.01141,-0.0174 -0.0111,-0.0177 0.02327,-0.0177 h 0.03483 l 0.183754,0.32226 c 1.685257,2.95559 2.94877,5.79297 3.845146,8.63477 0.12371,0.3922 0.348546,1.15043 0.348546,1.17542 0,0.0116 -0.03104,0.0102 -0.03515,-0.002 z"
       id="path19254" />
    <path
       style="fill:#ac0000;stroke-width:0.00552427"
       d="m 95.793634,147.39337 c 0,-0.008 -0.0033,-0.009 -0.01381,-0.007 -0.0076,0.001 -0.01381,0.002 -0.01381,2.2e-4 0,-0.007 0.310379,-0.50412 0.503214,-0.80613 0.799229,-1.25171 1.524643,-2.3041 2.634543,-3.82202 1.218009,-1.66578 1.923779,-2.65998 2.494159,-3.51344 0.33022,-0.49411 0.56785,-0.87116 0.74247,-1.17805 l 0.0291,-0.0511 h 0.0493 c 0.0271,0 0.0493,0.001 0.0493,0.002 0,0.0115 -0.27595,0.46281 -0.441,0.72123 -0.88346,1.38324 -2.236092,3.28326 -3.832477,5.38341 -0.705547,0.92819 -1.383592,1.93346 -2.084734,3.09083 -0.06166,0.10178 -0.11304,0.18609 -0.114173,0.18736 -0.0011,0.001 -0.0021,-0.002 -0.0021,-0.008 z"
       id="path19293" />
    <path
       style="fill:#ac0000;stroke-width:0.00390625"
       d="m 102.2653,138.01764 c -0.002,-0.002 -0.0241,-0.004 -0.0491,-0.005 l -0.0454,-0.001 0.0543,-0.0996 c 0.0602,-0.1105 0.17876,-0.34392 0.22215,-0.4375 0.0994,-0.21433 0.11129,-0.29627 0.0515,-0.35451 -0.0291,-0.0283 -0.10946,-0.0684 -0.16651,-0.0829 -0.12839,-0.0328 -0.48547,-0.0551 -1.13691,-0.0708 -0.2696,-0.006 -1.444051,-0.009 -1.890623,-0.004 -1.595759,0.0179 -3.059876,0.0679 -4.017578,0.13731 -0.173321,0.0126 -0.328765,0.026 -0.537109,0.0466 -0.440873,0.0436 -0.813754,0.0724 -1.416016,0.10949 -0.08406,0.005 -0.410105,0.0233 -0.418945,0.0233 -0.0057,1e-5 -0.0068,-0.004 -0.0068,-0.0209 v -0.0209 l 0.0459,-0.003 c 0.291362,-0.017 0.85959,-0.0629 1.432617,-0.11575 1.896503,-0.17496 3.309401,-0.26242 4.871093,-0.30152 0.267604,-0.007 1.282591,-0.007 1.496101,0 0.52907,0.0166 0.87254,0.0396 1.18164,0.0792 0.44697,0.0573 0.69398,0.14183 0.7249,0.24819 0.005,0.0177 0.005,0.0257 0.002,0.0511 -0.019,0.12534 -0.13397,0.37268 -0.34464,0.74141 -0.0258,0.0451 -0.0472,0.0824 -0.0476,0.0829 -4e-4,5e-4 -0.002,-7.6e-4 -0.004,-0.003 z"
       id="path19332" />
    <path
       style="fill:#ac0000;stroke-width:0.00390625"
       d="m 79.108781,142.31152 c -0.342352,-0.44597 -0.65642,-0.83572 -1.108785,-1.37597 -1.180817,-1.41024 -2.209067,-2.74136 -2.824341,-3.65625 -0.207239,-0.30816 -0.335629,-0.51923 -0.4236,-0.69637 -0.07212,-0.14524 -0.09471,-0.22459 -0.07496,-0.26332 0.0628,-0.12311 0.53856,-0.16309 1.338527,-0.1125 0.774064,0.049 1.810944,0.17833 2.960937,0.36944 0.432995,0.072 0.74988,0.12874 1.273438,0.22818 0.263581,0.0501 0.424982,0.0788 0.601885,0.10719 1.273797,0.20434 2.947559,0.34811 4.890302,0.42005 0.321369,0.0119 0.711014,0.0231 1.017579,0.0293 0.110644,0.002 0.231494,0.005 0.268554,0.006 l 0.06738,0.002 v 0.0152 0.0152 l -0.08887,-3e-5 c -0.190694,-8e-5 -0.86779,-0.0112 -1.192383,-0.0196 -1.168819,-0.0302 -1.792201,-0.0705 -2.902344,-0.18767 -1.202388,-0.12689 -2.463382,-0.29421 -3.5625,-0.47271 -1.094197,-0.17771 -1.867111,-0.28037 -2.52539,-0.33544 -0.479161,-0.0401 -0.787943,-0.0482 -1.208985,-0.0316 -0.114941,0.005 -0.365193,0.0142 -0.556114,0.0216 -0.190922,0.007 -0.347725,0.0139 -0.348453,0.0147 -0.0012,10e-4 0.623899,0.93152 0.749992,1.11633 0.260561,0.38191 0.744772,1.03614 1.212764,1.63861 0.220215,0.28349 0.393536,0.50117 0.662508,0.83203 0.696336,0.85658 1.282092,1.5974 1.763603,2.23047 0.05229,0.0687 0.100214,0.13159 0.106496,0.13965 l 0.01142,0.0147 h -0.03522 -0.03522 z"
       id="path19371" />
    <path
       style="fill:#ac0000;stroke-width:0.00390625"
       d="m 82.457218,147.32484 c -0.738514,-1.27329 -1.607168,-2.62054 -2.454771,-3.80726 -0.162619,-0.22768 -0.391719,-0.54147 -0.521914,-0.71485 -0.02178,-0.029 -0.04092,-0.0549 -0.04252,-0.0576 -0.0022,-0.004 0.0048,-0.005 0.03052,-0.005 h 0.03345 l 0.05732,0.0772 c 1.101174,1.48199 2.00366,2.84843 2.918554,4.41895 l 0.08533,0.14648 -0.02946,0.001 c -0.0162,6.3e-4 -0.0313,0.003 -0.03355,0.005 -0.0027,0.002 -0.01777,-0.0202 -0.04297,-0.0636 z"
       id="path19410" />
    <path
       style="fill:#ac0000;stroke-width:0.00390625"
       d="m 139.46933,42.290072 c 0.002,-0.0027 0.0875,-0.105939 0.19086,-0.229492 1.70077,-2.033812 4.29703,-5.161485 5.78716,-6.971699 l 0.17765,-0.215806 0.15979,-1.4e-5 c 0.15184,-1.3e-5 0.15948,3.26e-4 0.15382,0.0068 -0.0202,0.02319 -1.61713,1.925024 -2.37057,2.823242 -1.15791,1.380413 -2.67527,3.191772 -3.43327,4.098512 l -0.41211,0.49297 -0.12816,1.56e-4 c -0.10111,1.25e-4 -0.12753,-8.66e-4 -0.12517,-0.0047 z"
       id="path19449" />
    <path
       style="fill:#ac0000;stroke-width:0.0220971"
       d="m 135.99934,46.443273 c 0.0167,-0.02087 0.39362,-0.470823 0.83764,-0.999893 0.44402,-0.529069 1.21753,-1.451671 1.71891,-2.050226 l 0.9116,-1.088281 h 0.11088 c 0.1034,0 0.10892,0.0027 0.082,0.04067 -0.0159,0.02237 -0.79867,0.96205 -1.73953,2.088175 l -1.71064,2.0475 h -0.1206 c -0.11101,0 -0.11818,-0.003 -0.0903,-0.03795 z"
       id="path19488" />
    <path
       style="fill:#ac0000;stroke-width:0.0220971"
       d="m 122.02122,46.461045 c 0.0251,-0.02414 6.66987,-4.444472 8.53942,-5.680727 8.55725,-5.658573 16.04869,-10.472675 18.35495,-11.795143 0.37101,-0.212746 3.63165,-1.912559 3.64436,-1.89985 0.005,0.005 -0.5195,0.619803 -1.16546,1.366327 -1.48133,1.711946 -2.10112,2.43561 -3.2348,3.776949 -0.77188,0.91325 -2.19523,2.604191 -2.20969,2.625099 -0.003,0.0036 -0.0697,0.0036 -0.14929,0 l -0.14472,-0.0066 0.20039,-0.243068 c 2.37534,-2.881174 4.37764,-5.376453 4.66981,-5.819534 0.0615,-0.09329 0.0622,-0.09737 0.0216,-0.127058 -0.42392,-0.309977 -3.68669,1.699619 -16.93776,10.432253 -1.29985,0.856613 -3.55853,2.349477 -9.02147,5.962681 l -2.16032,1.428842 h -0.21401 c -0.1297,0 -0.20574,-0.0079 -0.19302,-0.02018 z"
       id="path19527" />
    <path
       style="fill:#ac0000;stroke-width:0.00390625"
       d=""
       id="path19566" />
    <path
       style="fill:#ac0000;stroke-width:0.00390625"
       d="m 146.55133,33.762695 c 0.002,-0.0027 0.0269,-0.03389 0.0561,-0.06934 0.0874,-0.105974 0.47769,-0.58305 0.7366,-0.90039 1.81076,-2.219434 3.04248,-3.772904 3.21,-4.048518 0.0109,-0.01792 0.0198,-0.03782 0.021,-0.04697 0.002,-0.01452 8.7e-4,-0.01708 -0.0125,-0.02967 -0.0337,-0.03182 -0.0745,-0.04257 -0.15049,-0.03966 -0.0762,0.0029 -0.16,0.02185 -0.28127,0.0635 -0.59478,0.204304 -1.81045,0.891077 -3.99607,2.257523 -0.14502,0.09067 -0.27774,0.173834 -0.29493,0.18482 l -0.0312,0.01997 -0.001,-0.131478 c -7.9e-4,-0.101896 9e-5,-0.13256 0.004,-0.136287 0.01,-0.0095 1.02887,-0.645172 1.4815,-0.924088 0.68657,-0.423076 1.37404,-0.835588 1.65124,-0.990815 0.46531,-0.260567 3.59419,-1.891227 3.60607,-1.879353 0.006,0.0062 -0.4726,0.566951 -1.38234,1.618992 -1.56579,1.810717 -2.24867,2.611558 -4.02131,4.715968 l -0.28697,0.340673 h -0.15564 c -0.1235,0 -0.15504,-0.001 -0.15269,-0.0049 z"
       id="path19605" />
    <path
       style="fill:#ac0000;stroke-width:0.00390625"
       d="m 146.87178,33.758789 c 0.004,-0.0048 0.13511,-0.159961 0.29057,-0.344727 1.60482,-1.90726 2.48541,-2.940203 3.95286,-4.636718 1.01787,-1.176768 1.45127,-1.684824 1.4437,-1.692395 -0.0122,-0.01216 -3.01851,1.552453 -3.58039,1.863365 -0.43725,0.241945 -1.65509,0.983603 -2.95508,1.799622 -0.11387,0.07148 -0.20923,0.130812 -0.21192,0.131858 -0.003,0.001 -0.005,-4.84e-4 -0.005,-0.0034 3e-5,-0.0029 0.0101,-0.0116 0.0225,-0.01931 0.0123,-0.0077 0.17623,-0.11031 0.36422,-0.228012 1.49114,-0.933619 2.50022,-1.543277 3.03125,-1.831397 0.10989,-0.05962 3.42294,-1.784238 3.42453,-1.782647 7.4e-4,7.33e-4 -0.61949,0.719233 -1.37828,1.596667 -1.67309,1.934689 -1.71111,1.978939 -2.48992,2.898069 -0.46674,0.550829 -1.79825,2.128165 -1.89027,2.239257 -0.008,0.01021 -0.0179,0.01855 -0.0211,0.01855 -0.004,0 -0.004,-0.0021 0.002,-0.0088 z"
       id="path19644" />
    <path
       style="fill:#ac0000;stroke-width:0.00390625"
       d=""
       id="path19683" />
    <path
       style="fill:#ac0000;stroke-width:0.00390625"
       d="m 145.22948,32.509436 9.9e-4,-0.976911 0.11133,-0.07051 c 2.85765,-1.809844 4.32956,-2.648295 4.91406,-2.799216 0.10531,-0.02719 0.19609,-0.03354 0.24805,-0.01735 0.0357,0.01113 0.0645,0.02926 0.0645,0.04066 0,0.09459 -1.26511,1.692708 -3.5495,4.483809 l -0.25736,0.314453 -0.7665,9.86e-4 -0.7665,9.87e-4 z"
       id="path19722" />
    <path
       style="fill:#ac0000;stroke-width:0.00552427"
       d="m 85.862537,16.170727 c 0.0015,-0.0039 0.06734,-0.168598 0.14631,-0.365983 1.136292,-2.840074 1.839378,-5.120796 2.017312,-6.5438983 0.02818,-0.2254255 0.03546,-0.324839 0.05006,-0.6844138 0.01254,-0.30882 0.04892,-0.5230322 0.110291,-0.6494137 0.04734,-0.09749 0.09642,-0.1378865 0.166966,-0.1374249 0.03196,2.092e-4 0.04314,0.00333 0.08286,0.023105 0.09187,0.045738 0.183919,0.1351925 0.305546,0.296933 0.412206,0.548151 1.015825,1.8220092 1.797266,3.7928957 0.250934,0.632886 0.410412,1.048747 0.755057,1.968919 0.309584,0.82656 0.578437,1.5086 0.861247,2.18485 0.02605,0.06229 0.04737,0.115112 0.04738,0.117391 0,0.0023 -0.02201,0.0041 -0.04893,0.0041 h -0.04895 l -0.03718,-0.08701 C 91.762667,15.376922 91.447081,14.614076 91.05935,13.653238 90.271388,11.70058 89.508445,9.9296538 89.070907,9.0377085 88.951358,8.7940025 88.893758,8.6896901 88.794839,8.537762 88.498436,8.0825188 88.354759,7.8654688 88.351847,7.8685439 c -0.0018,0.00195 -0.06359,0.3577872 -0.137198,0.790752 -0.239111,1.4063591 -0.238625,1.4036771 -0.321017,1.7732911 -0.31955,1.433514 -0.956246,3.353433 -1.86726,5.630614 l -0.04586,0.114629 h -0.06035 c -0.04691,0 -0.05975,-0.0016 -0.05763,-0.0071 z"
       id="path19958" />
    <path
       style="fill:#ac0000;stroke-width:0.00552427"
       d="m 84.822687,18.611024 c -1.41e-4,-0.0032 0.02356,-0.05911 0.05268,-0.124296 0.275267,-0.616359 0.696162,-1.602657 0.936354,-2.194194 l 0.04651,-0.114552 0.06003,-7.6e-5 c 0.05456,-6.9e-5 0.05978,8.05e-4 0.05728,0.0096 -0.0069,0.02425 -0.236206,0.581144 -0.396343,0.962605 -0.248573,0.592124 -0.603824,1.409298 -0.606632,1.395419 -0.0015,-0.0072 -0.0099,-0.0088 -0.04515,-0.0088 -0.03876,0 -0.0452,0.0015 -0.06061,0.01451 -0.0095,0.008 -0.02323,0.026 -0.03055,0.04005 -0.0073,0.01405 -0.01342,0.02294 -0.01356,0.01977 z"
       id="path19997" />
  </g>
</svg>
