<?xml version="1.0" encoding="UTF-8" standalone="no"?>
<!-- Created with Inkscape (http://www.inkscape.org/) -->

<svg
   version="1.1"
   id="svg70859"
   width="178.66667"
   height="172"
   viewBox="0 0 178.66667 172"
   sodipodi:docname="cleric-symbol.svg"
   inkscape:version="1.1.2 (b8e25be833, 2022-02-05)"
   xmlns:inkscape="http://www.inkscape.org/namespaces/inkscape"
   xmlns:sodipodi="http://sodipodi.sourceforge.net/DTD/sodipodi-0.dtd"
   xmlns="http://www.w3.org/2000/svg"
   xmlns:svg="http://www.w3.org/2000/svg">
  <defs
     id="defs70863" />
  <sodipodi:namedview
     id="namedview70861"
     pagecolor="#ffffff"
     bordercolor="#666666"
     borderopacity="1.0"
     inkscape:pageshadow="2"
     inkscape:pageopacity="0.0"
     inkscape:pagecheckerboard="0"
     showgrid="false"
     inkscape:zoom="2.5377907"
     inkscape:cx="164.31615"
     inkscape:cy="123.72967"
     inkscape:window-width="3440"
     inkscape:window-height="1377"
     inkscape:window-x="-8"
     inkscape:window-y="-8"
     inkscape:window-maximized="1"
     inkscape:current-layer="g70865" />
  <g
     inkscape:groupmode="layer"
     inkscape:label="Image"
     id="g70865">
    <path
       style="fill:#ff0000;fill-opacity:1;stroke-width:1.33333"
       d="m 87.279111,159.04143 c -1.22054,-5.65451 -4.95953,-12.96829 -9.21538,-18.02608 -1.86838,-2.22044 -3.39706,-4.32 -3.39706,-4.66567 0,-0.34568 2.55,-0.13465 5.66666,0.46894 3.11667,0.60358 9.41667,0.74017 14,0.3035 4.58334,-0.43665 8.333339,-0.41625 8.333339,0.0453 0,0.4616 -2.10438,3.59614 -4.676399,6.96566 -2.57202,3.36954 -5.34581,8.78492 -6.16399,12.0342 -1.88311,7.4785 -3.35278,8.40743 -4.54717,2.87411 z M 34.942351,140.5521 c 23.16087,-36.20103 23.89283,-37.18952 27.52268,-37.16856 5.09623,0.0294 6.86453,1.58988 7.71073,6.80438 0.73618,4.53655 0.4757,4.83524 -16.56562,18.99605 -24.01702,19.95738 -24.25629,20.10309 -18.66779,11.36813 z M 126,130.28171 l -17.33333,-14.30718 -0.40639,-6.3057 c -0.39931,-6.19586 -0.33733,-6.30571 3.55762,-6.30571 2.1802,0 4.94418,0.37613 6.14217,0.83585 1.198,0.45971 6.51737,7.50971 11.82082,15.66666 13.61366,20.93841 15.92125,24.83816 14.66119,24.77704 -0.60981,-0.0296 -8.90874,-6.49201 -18.44208,-14.36096 z M 78.666671,111.19534 V 95.027554 l -15.25404,0.583883 -15.25405,0.583881 -0.90219,-8.424565 c -1.28757,-12.023178 -0.7637,-12.407638 16.90687,-12.407638 h 14.50341 V 60.029782 44.696449 h 10.55702 10.55703 l -0.75517,15.333333 -0.75516,15.333333 h 16.254229 16.25422 L 130.38942,85.696449 130,96.029782 l -6,0.178301 c -3.3,0.09807 -10.41637,0.248067 -15.81416,0.333334 l -9.814169,0.155032 0.50123,14.644101 c 0.3903,11.40295 0.10371,14.79665 -1.29488,15.33334 -0.98787,0.37908 -5.64705,0.68923 -10.35374,0.68923 h -8.55761 z M 34.585791,97.265665 c -2.34566,-2.826343 -10.98806,-7.16456 -19.91912,-9.99878 -5.5232496,-1.752768 -6.4318196,-2.35721 -3.68097,-2.448814 5.52829,-0.18409 16.32392,-4.684086 21.97532,-9.160082 l 5.03898,-3.990942 v 13.848034 c 0,7.616418 -0.37653,13.848034 -0.83674,13.848034 -0.46021,0 -1.62007,-0.94385 -2.57747,-2.09745 z M 140.34763,86.029782 c 0.0257,-7.333333 0.19784,-13.333333 0.38232,-13.333333 0.18448,0 3.42688,2.080405 7.20535,4.623124 6.67118,4.489372 13.9441,7.279286 19.39804,7.441142 1.46666,0.04353 -0.63334,1.144048 -4.66667,2.445603 -9.3116,3.004845 -14.66663,5.806797 -17.87647,9.353625 -1.39525,1.541752 -2.97618,2.803172 -3.51316,2.803172 -0.53698,0 -0.95521,-6 -0.92941,-13.333333 z M 45.255891,50.430334 C 37.598481,41.117305 30.134201,31.967305 28.668601,30.097001 l -2.66474,-3.400552 3.3314,2.1334 c 1.83228,1.17337 11.88141,7.684534 22.33141,14.469253 l 19,12.335852 v 5.864081 5.86408 h -5.74411 c -5.73752,0 -5.76008,-0.01943 -19.66667,-16.932781 z M 108,61.572194 v -5.790923 l 19,-12.654336 c 10.45,-6.959884 20.5,-13.4354 22.33334,-14.390034 l 3.33333,-1.735699 -2.75077,3.180957 c -1.51292,1.749526 -8.65335,10.258242 -15.86762,18.908256 -7.21426,8.650015 -14.18697,16.300015 -15.4949,17 -1.30794,0.699986 -4.21751,1.2727 -6.46572,1.2727 -3.93388,0 -4.08766,-0.217857 -4.08766,-5.790921 z M 76.000001,32.859709 c 0,-0.643542 0.99502,-1.993542 2.21115,-3 2.99225,-2.476351 9.76977,-17.027488 9.85727,-21.1632597 0.0465,-2.1983874 1.15661,-0.407748 3.26035,5.2591017 1.7544,4.725839 5.01078,11.175839 7.23639,14.333334 l 4.046559,5.740897 H 89.305861 c -7.31822,0 -13.30586,-0.526533 -13.30586,-1.170073 z"
       id="path70949" />
  </g>
</svg>
