<?xml version="1.0" encoding="UTF-8" standalone="no"?>
<!-- Created with Inkscape (http://www.inkscape.org/) -->

<svg
   version="1.1"
   id="svg61731"
   width="158.66667"
   height="174.66667"
   viewBox="0 0 158.66667 174.66667"
   sodipodi:docname="druid-symbol.svg"
   inkscape:version="1.1.2 (b8e25be833, 2022-02-05)"
   xmlns:inkscape="http://www.inkscape.org/namespaces/inkscape"
   xmlns:sodipodi="http://sodipodi.sourceforge.net/DTD/sodipodi-0.dtd"
   xmlns="http://www.w3.org/2000/svg"
   xmlns:svg="http://www.w3.org/2000/svg">
  <defs
     id="defs61735" />
  <sodipodi:namedview
     id="namedview61733"
     pagecolor="#ffffff"
     bordercolor="#666666"
     borderopacity="1.0"
     inkscape:pageshadow="2"
     inkscape:pageopacity="0.0"
     inkscape:pagecheckerboard="0"
     showgrid="false"
     inkscape:zoom="45.254834"
     inkscape:cx="61.628775"
     inkscape:cy="15.357475"
     inkscape:window-width="3440"
     inkscape:window-height="1377"
     inkscape:window-x="-8"
     inkscape:window-y="-8"
     inkscape:window-maximized="1"
     inkscape:current-layer="g61737" />
  <g
     inkscape:groupmode="layer"
     inkscape:label="Image"
     id="g61737">
    <path
       style="fill:#ff0000;fill-opacity:1;stroke-width:1.33333"
       d="m 71.062939,167.80031 c -0.41184,-2.01666 -1.72246,-11.46666 -2.91248,-21 -2.07781,-16.64535 -2.35659,-17.56206 -7.02382,-23.09608 -10.02728,-11.88956 -11.15961,-8.39988 12.37306,-38.131971 l 20.93517,-26.450317 -3.75084,-3.952175 c -2.06297,-2.173696 -6.52502,-6.28845 -9.91568,-9.1439 l -6.16483,-5.191725 -6.1685,5.429731 c -6.43471,5.664052 -7.59272,9.027922 -4.10446,11.922917 1.69263,1.404756 2.84734,1.339475 6.41702,-0.362787 4.45627,-2.125046 8.85227,-1.170889 8.85227,1.921398 0,1.884253 -10.3986,15.721572 -11.8146,15.721572 -1.88137,0 -13.29156,-8.055052 -20.16849,-14.238004 -5.65809,-5.087114 -6.68358,-6.741248 -6.68358,-10.780778 0,-5.359144 4.1045,-9.934459 20.78565,-23.169944 12.00964,-9.528926 12.00719,-9.527696 15.39377,-7.715256 7.8905,4.222868 32.180421,23.343479 33.259301,26.181158 0.67537,1.776366 1.20401,7.240696 1.17474,12.142957 l -0.0532,8.9132 -16.728991,19.333334 c -9.20097,10.633333 -18.22595,21.25412 -20.05553,23.60174 l -3.32652,4.26841 4.10872,5.97183 c 4.73072,6.87586 4.99401,10.24836 2.61462,33.49136 -1.40385,13.71352 -2.64928,18 -5.22988,18 -0.58527,0 -1.40109,-1.65 -1.81292,-3.66667 z m -22.3287,0.2532 c -7.80942,-0.90692 -16.20942,-2.12474 -18.66667,-2.70626 -4.24846,-1.00542 -4.04239,-1.12726 4.19895,-2.48246 l 8.66666,-1.42514 -8.97231,-6.41695 c -11.17435,-7.99183 -18.47047,-16.18968 -23.67062,-26.5961 -3.6466399,-7.29757 -4.0237399,-9.26505 -4.0237399,-20.99344 0,-12.192197 0.27776,-13.496437 4.7988399,-22.533533 2.63935,-5.275766 8.0332,-13.006379 11.98633,-17.179143 l 7.1875,-7.586845 -4.00414,9.010003 c -5.1976,11.69547 -7.92928,23.521397 -7.9284,34.323338 9.7e-4,11.88765 1.83016,14.26147 3.9621,5.1418 2.36944,-10.135613 7.22272,-19.918951 12.16473,-24.521901 3.10651,-2.89338 4.00411,-3.28165 3.34804,-1.448235 -2.65553,7.421011 -3.76785,14.961372 -3.01609,20.446046 1.49623,10.91616 9.69196,21.65525 20.43705,26.77922 2.77784,1.32466 4.81263,3.55077 5.64061,6.17096 2.14069,6.7743 4.63865,31.43198 3.30294,32.60367 -0.66706,0.58515 -7.60236,0.32189 -15.41178,-0.58503 z m 34.32373,0.94871 c -0.38793,-0.62768 0.16593,-9.412 1.23079,-19.52071 l 1.9361,-18.37949 6.48104,-6.85274 c 8.170551,-8.63916 9.375991,-10.94046 11.465261,-21.88836 l 1.69729,-8.893947 1.47705,5.333334 c 0.81238,2.933343 1.88826,9.417033 2.39083,14.408203 1.00911,10.02155 1.79799,10.07723 5.01964,0.35428 2.85659,-8.62119 2.75299,-17.341589 -0.32344,-27.226186 l -2.50065,-8.034622 3.38027,-4.750838 c 1.85915,-2.61296 3.7464,-4.750838 4.1939,-4.750838 1.52245,0 11.83943,17.977362 13.4404,23.419897 0.92688,3.150993 1.39736,10.686247 1.12386,18.000007 -0.60428,16.15859 -4.00026,23.38978 -18.53744,39.47244 l -10.64287,11.77433 3.68826,0.84225 c 2.02854,0.46323 5.75826,0.91323 8.28826,1 8.82012,0.30247 2.05408,2.47103 -12.6,4.03835 -8.066671,0.86277 -15.979901,1.8448 -17.584961,2.18227 -1.60505,0.33748 -3.23567,0.1 -3.62359,-0.52763 z m 55.209221,-29.86857 c 3.7e-4,-0.18334 1.26156,-3.63334 2.80265,-7.66667 5.43804,-14.23248 4.69403,-37.04618 -1.6806,-51.532649 -1.56524,-3.557047 -5.21193,-9.963599 -8.10377,-14.236783 -2.89183,-4.273185 -4.9664,-8.060907 -4.61014,-8.417162 0.35625,-0.356255 4.6031,3.052312 9.43743,7.574592 6.08756,5.694614 10.12657,10.937919 13.1384,17.055793 4.03336,8.192933 4.34848,9.802318 4.34583,22.194839 -0.003,12.50414 -0.27851,13.87463 -4.29932,21.36137 -4.236,7.88743 -8.70904,14 -10.24487,14 -0.43245,0 -0.78597,-0.15 -0.78561,-0.33333 z M 55.679659,18.598935 c -1.74984,-2.224563 -2.74648,-5.458021 -2.74648,-8.9105691 V 4.2693825 l 5.97321,5.9321285 c 3.28527,3.26267 5.98527,6.313122 6,6.778781 0.0147,0.46566 -1.43729,1.805957 -3.22673,2.978441 -3.10161,2.032254 -3.38175,1.968766 -6,-1.359798 z"
       id="path61821" />
    <path
       style="fill:#ac0000;stroke-width:0.0250095"
       d="m 56.437749,107.85992 c 0.703257,-1.15032 1.724454,-2.64348 2.869273,-4.19535 1.705492,-2.3119 3.568897,-4.705468 7.943776,-10.203894 5.082181,-6.387376 3.700299,-4.643615 20.230618,-25.528495 l 5.87416,-7.421583 9.080994,-1e-5 9.081,-1.1e-5 -0.006,1.219226 c -0.003,0.670574 -0.013,2.085807 -0.0218,3.144961 l -0.0161,1.925735 -3.36699,3.890896 C 93.323811,87.774821 92.875308,88.293604 90.022193,91.60997 84.664501,97.837574 79.466055,103.94904 76.945439,106.98344 l -0.866398,1.04299 -9.872249,10e-4 -9.872249,0.001 z"
       id="path22260" />
    <path
       style="fill:#ac0000;stroke-width:0.0250095"
       d="m 67.600805,75.427457 c -1.05214,-0.18721 -4.088443,-1.997703 -8.065579,-4.80936 -4.447811,-3.144403 -9.104817,-6.841003 -12.383328,-9.829539 l -0.291213,-0.265455 16.232695,-0.0063 c 8.927982,-0.0034 16.237132,-0.0018 16.242554,0.0036 0.0054,0.0054 -0.06926,0.1678 -0.165968,0.360839 -1.520848,3.035904 -7.253391,10.763945 -10.067624,13.572164 -0.600225,0.598942 -0.981601,0.903832 -1.217168,0.973063 -0.08814,0.0259 -0.143198,0.02609 -0.284369,9.73e-4 z"
       id="path22299" />
    <path
       style="fill:#ac0000;stroke-width:0.100038"
       d="m 72.420179,171.09031 c -0.581133,-0.68619 -1.096049,-2.14554 -1.438363,-4.07656 -0.433607,-2.44601 -1.477899,-10.03358 -2.705498,-19.6575 -1.753377,-13.74582 -2.199685,-16.02216 -3.719886,-18.97284 -0.89743,-1.7419 -1.858885,-2.9729 -6.593389,-8.44186 -1.898891,-2.19347 -2.851399,-3.62332 -3.295917,-4.94765 -0.540414,-1.61004 -0.111465,-3.7402 1.22889,-6.10268 l 0.425483,-0.74994 9.778733,-0.0255 c 5.378303,-0.014 9.778733,7.3e-4 9.778733,0.0328 0,0.0321 -0.353928,0.49371 -0.786505,1.02588 -1.388054,1.70763 -3.715214,4.73609 -3.715214,4.83482 0,0.0526 1.12032,1.72495 2.489599,3.71634 2.674838,3.8901 3.508291,5.25059 4.134062,6.74823 1.2315,2.94733 1.538659,5.20833 1.448519,10.66258 -0.0719,4.35061 -0.280682,7.17732 -1.223966,16.57148 -0.783195,7.79984 -1.40469,12.16198 -2.145065,15.05575 -0.669374,2.61626 -1.354131,3.91048 -2.324951,4.39426 -0.701037,0.34934 -0.99474,0.33447 -1.335265,-0.0676 z"
       id="path22338" />
    <path
       style="fill:#ac0000;stroke-width:0.100038"
       d="m 45.894043,59.547731 c -2.624418,-2.564708 -3.34474,-3.428436 -4.025436,-4.826843 -0.561048,-1.152606 -0.766256,-1.974955 -0.861235,-3.451317 -0.313479,-4.872738 2.514205,-8.786266 12.363001,-17.110448 5.128222,-4.334362 15.262118,-12.340813 17.556701,-13.87096 1.802371,-1.201914 1.579173,-1.13085 3.551823,-1.13085 h 1.733558 l 0.951969,0.50865 c 6.128902,3.274754 24.341996,17.169511 31.047436,23.686063 2.04497,1.987365 2.19657,2.247287 2.57567,4.416208 0.43677,2.498872 0.70488,6.408033 0.70497,10.278924 l 6e-5,2.425926 h -9.01569 c -7.19751,0 -8.99615,-0.02522 -8.918828,-0.125048 0.05327,-0.06878 0.283912,-0.365485 0.512538,-0.659355 l 0.415682,-0.534307 -0.199008,-0.252997 C 93.867615,58.367892 89.87859,54.253949 88.439193,52.870182 85.384233,49.93329 83.039489,47.853399 78.179843,43.76969 76.39166,42.267026 74.85494,40.974025 74.764908,40.896355 c -0.146048,-0.125996 -0.528868,0.179032 -3.551355,2.829697 -7.17535,6.292648 -9.009246,8.651416 -8.816858,11.340295 0.07185,1.004264 0.427524,1.671042 1.428069,2.677215 1.077507,1.083568 1.769794,1.428833 2.865159,1.428946 0.950644,9.8e-5 1.672122,-0.214702 3.561964,-1.060475 2.514546,-1.125353 3.578718,-1.38487 5.408351,-1.31892 1.312931,0.04733 2.032464,0.250331 2.745274,0.774537 0.841024,0.618496 1.301188,1.710309 1.060053,2.515147 l -0.116934,0.390287 H 63.094786 46.84094 Z"
       id="path22377" />
    <path
       style="fill:#ac0000;stroke-width:0.0125048"
       d="m 56.352761,108.01629 c 0,-0.009 0.2119,-0.3538 0.366726,-0.59676 1.299292,-2.03886 2.834632,-4.14952 5.685439,-7.815884 L 62.50945,99.46922 h 10.383043 c 5.710675,0 10.383045,0.0028 10.383045,0.0062 0,0.0034 -0.162013,0.19615 -0.36003,0.428288 -2.083333,2.442322 -4.458987,5.257152 -5.909389,7.001822 l -0.927078,1.11518 -9.86314,8.8e-4 c -5.424727,4.8e-4 -9.86314,-0.002 -9.86314,-0.005 z"
       id="path22416" />
    <path
       style="fill:#ac0000;stroke-width:0.0125048"
       d="m 60.328143,122.75642 c -0.222898,-0.25953 -0.65297,-0.75612 -0.955716,-1.10355 -1.664061,-1.90962 -1.991919,-2.29242 -2.527747,-2.95131 -1.635539,-2.01116 -2.33629,-3.39711 -2.456322,-4.8581 -0.01909,-0.23233 -0.008,-0.83347 0.01948,-1.05666 0.159976,-1.2991 0.703759,-2.68564 1.76178,-4.4922 l 0.151882,-0.25934 9.877176,-1.3e-4 c 7.899831,-1.1e-4 9.87477,0.003 9.865158,0.0155 -0.0066,0.009 -0.104608,0.12817 -0.217772,0.26573 -0.741457,0.90124 -0.880925,1.07747 -2.679746,3.38608 -0.872341,1.11956 -1.588587,2.03306 -1.59166,2.02998 -0.01763,-0.0176 1.170397,-1.58003 2.178562,-2.86509 0.48346,-0.61624 0.864501,-1.0959 1.256632,-1.58185 0.643687,-0.7977 0.88698,-1.11882 0.864614,-1.14119 -0.02942,-0.0294 -2.287793,-0.0368 -9.023945,-0.0294 -3.844592,0.004 -7.787639,0.0114 -8.762325,0.0159 l -1.772158,0.008 -0.255601,0.4513 c -0.323251,0.57074 -0.389307,0.69352 -0.575814,1.07028 -0.567642,1.14669 -0.899513,2.19846 -1.016018,3.21998 -0.03257,0.28556 -0.0327,1.00153 -2.34e-4,1.24422 0.05198,0.38853 0.131754,0.70973 0.265534,1.06916 0.331146,0.8897 0.884523,1.82018 1.77164,2.97894 0.45996,0.60081 0.905612,1.13895 1.799533,2.17303 1.185399,1.37125 2.461871,2.86246 2.461871,2.87602 0,0.0359 -0.09214,-0.0619 -0.438803,-0.46554 z"
       id="path22455" />
    <path
       style="fill:#ac0000;stroke-width:0.00625239"
       d="m 98.27814,60.46565 c -0.803218,-0.0017 -2.490812,-0.01352 -2.979262,-0.02081 -1.039528,-0.01551 -1.534777,-0.03569 -1.689307,-0.06883 -0.06495,-0.01393 -0.10135,0.04077 0.413516,-0.621454 0.292105,-0.37571 0.464154,-0.602044 0.460922,-0.606353 -0.0304,-0.04054 -0.20061,-0.256013 -0.232625,-0.294486 -0.177676,-0.21352 -0.745745,-0.822617 -1.50348,-1.612068 -0.151308,-0.15764 -0.283115,-0.296222 -0.292906,-0.307959 l -0.0178,-0.02134 h 9.197872 9.19786 v 1.778804 1.778804 l -5.98822,-0.0015 c -3.29352,-8.42e-4 -6.24848,-0.0021 -6.56657,-0.0028 z"
       id="path22494" />
    <path
       style="fill:#ac0000;stroke-width:0.00625239"
       d="m 86.831692,68.73405 c 0.09846,-0.123804 7.586328,-9.585217 7.602286,-9.605983 0.0035,-0.0046 -0.340602,-0.371734 -1.005152,-1.072284 -0.555795,-0.585903 -1.027733,-1.082863 -1.048751,-1.104356 l -0.03822,-0.03908 h 0.04164 0.04164 l 0.27713,0.289173 c 0.795089,0.829641 1.334001,1.406627 1.525646,1.633436 0.06726,0.0796 0.242287,0.3016 0.246555,0.312724 0.0041,0.01072 -0.02697,0.05171 -0.518066,0.683175 -0.348932,0.448665 -0.404766,0.523284 -0.397207,0.530843 0.04689,0.04689 0.56307,0.07256 1.802207,0.08964 1.232291,0.01698 2.369662,0.01997 8.75491,0.02297 l 6.71662,0.0032 v 0.015 0.015 l -8.73927,1.3e-5 -8.739276,1.2e-5 -3.278519,4.142195 c -1.803185,2.278205 -3.281139,4.142192 -3.284343,4.142192 -0.0032,0 0.01487,-0.02602 0.04017,-0.05783 z"
       id="path22533" />
    <path
       style="fill:#ac0000;stroke-width:0.00625239"
       d="m 46.242145,59.883921 c -0.852419,-0.832966 -1.314543,-1.292329 -1.917247,-1.905792 l -0.09239,-0.09404 v -0.867266 -0.867266 h 9.202374 9.202373 l 0.03604,0.07972 c 0.194032,0.429239 0.54303,0.898504 1.053571,1.416639 0.323783,0.328599 0.539218,0.530196 0.763418,0.714379 0.716031,0.588228 1.331315,0.815525 2.207053,0.815327 0.931167,-2.11e-4 1.640567,-0.210071 3.491958,-1.033016 0.377509,-0.167803 0.638841,-0.281839 0.853451,-0.372416 0.178303,-0.07525 0.530522,-0.220097 0.535214,-0.220097 0.0014,0 0.0025,0.65697 0.0025,1.459932 v 1.459933 H 59.211158 46.841867 Z"
       id="path22572" />
    <path
       style="fill:#ac0000;stroke-width:0.00625239"
       d="M 46.930414,60.6031 C 46.20723,59.941316 45.748403,59.511388 45.220387,59.000773 44.999105,58.786784 44.444028,58.231818 44.318238,58.098805 l -0.08621,-0.09116 0.0018,-0.05658 0.0018,-0.05658 0.33193,0.338939 c 0.35463,0.362119 0.811211,0.814195 1.711027,1.694144 l 0.561034,0.548647 H 59.21003 71.580441 v 0.01876 0.01876 l -7.523184,9.23e-4 c -4.137752,5.07e-4 -9.700603,0.0026 -12.361892,0.0047 l -4.838708,0.0038 0.166611,0.15199 c 0.09164,0.08359 0.166612,0.15323 0.166612,0.154747 0,0.0093 -0.03369,-0.02013 -0.259474,-0.22674 z"
       id="path22611" />
    <path
       style="fill:#ac0000;stroke-width:0.00884221"
       d="M 93.687622,31.220313 C 88.17994,26.975198 82.817074,23.1315 79.412376,20.988893 78.374515,20.335757 77.799868,20.001467 76.750383,19.440328 l -0.530532,-0.283666 -1.414754,1.3e-4 c -0.840478,7.7e-5 -1.468592,0.0037 -1.547387,0.0089 -0.518152,0.03432 -0.780913,0.122874 -1.295384,0.436584 -0.187667,0.114434 -1.081548,0.709008 -1.357279,0.902808 -1.894071,1.331263 -6.646814,5.028305 -11.768981,9.154803 -0.213982,0.172387 -0.394031,0.317298 -0.40011,0.322025 -0.0084,0.0066 -0.01105,1.42e-4 -0.01105,-0.02711 v -0.0357 l 0.223266,-0.180326 c 1.794122,-1.449063 6.377344,-5.082958 8.216623,-6.514705 3.447068,-2.683295 5.117116,-3.814988 6.357549,-4.308137 0.327758,-0.130304 0.633223,-0.213659 0.954959,-0.260588 0.151614,-0.02211 0.557654,-0.02195 0.707377,2.8e-4 0.289887,0.04305 0.568051,0.120188 0.866536,0.240306 0.414634,0.166858 1.200821,0.571236 2.020445,1.039221 3.318071,1.894537 9.286726,6.099998 15.940295,11.231389 0.22006,0.169716 0.40011,0.310275 0.40011,0.312353 0,0.0021 -0.01891,0.0038 -0.04202,0.0038 -0.04153,0 -0.04592,-0.003 -0.382426,-0.262376 z"
       id="path22650" />
    <path
       style="fill:#ac0000;stroke-width:0.00442111"
       d="m 72.820021,171.45971 c -0.190904,-0.0374 -0.398012,-0.22294 -0.61997,-0.55556 -0.451093,-0.676 -0.884556,-1.86615 -1.139136,-3.12771 -0.03125,-0.15486 -0.07808,-0.40846 -0.113067,-0.61225 -0.01231,-0.0717 -0.02317,-0.1339 -0.02413,-0.13816 -0.0015,-0.007 0.0019,-0.008 0.02769,-0.008 l 0.02943,1e-5 0.02134,0.11825 c 0.02742,0.1519 0.09648,0.49848 0.131051,0.65763 0.335322,1.54373 0.778966,2.68644 1.275324,3.28488 0.153795,0.18542 0.296312,0.28379 0.462305,0.3191 0.05152,0.011 0.182518,0.0108 0.245371,-2.2e-4 0.167211,-0.0294 0.35329,-0.0977 0.610112,-0.22391 0.308293,-0.15149 0.558865,-0.35309 0.804898,-0.64761 0.305232,-0.36538 0.588889,-0.8754 0.851109,-1.53031 0.206686,-0.51621 0.415701,-1.16337 0.607732,-1.88168 l 0.02571,-0.0962 h 0.0384 0.03841 l -0.008,0.0298 c -0.133448,0.50027 -0.243179,0.87114 -0.367257,1.24122 -0.280784,0.8375 -0.57778,1.48586 -0.906668,1.97932 -0.455994,0.68416 -0.967538,1.06186 -1.579534,1.16624 -0.142909,0.0244 -0.349589,0.0368 -0.411163,0.0248 z"
       id="path22689" />
    <path
       style="fill:#ac0000;stroke-width:0.00390625"
       d="m 76.017578,167.01508 c 0,-0.002 0.01574,-0.0636 0.03498,-0.13784 0.218557,-0.84381 0.406531,-1.71281 0.60336,-2.78935 0.05582,-0.30533 0.149942,-0.84916 0.188443,-1.08887 l 0.01082,-0.0674 h 0.03237 c 0.0178,0 0.03237,10e-4 0.03237,0.003 0,0.0113 -0.09759,0.5897 -0.146813,0.8701 -0.20682,1.17817 -0.434739,2.26339 -0.651391,3.10156 l -0.02827,0.10937 -0.03793,0.001 c -0.02086,6.2e-4 -0.03793,-1.3e-4 -0.03793,-0.002 z"
       id="path22728" />
    <path
       style="fill:#ac0000;stroke-width:0.00390625"
       d="m 70.903027,166.90527 c -0.122855,-0.73785 -0.248376,-1.54457 -0.409192,-2.62988 -0.07187,-0.48502 -0.195007,-1.33111 -0.195007,-1.3399 0,-0.002 0.01183,-0.004 0.02691,-0.004 h 0.02691 l 0.0023,0.0127 c 0.0013,0.007 0.01899,0.12871 0.03936,0.2705 0.224832,1.56557 0.44362,2.98954 0.568373,3.69922 0.0087,0.0494 0.0158,0.0929 0.0158,0.0967 8e-6,0.006 -0.0039,0.007 -0.02839,0.007 h -0.02839 z"
       id="path22767" />
    <path
       style="fill:#ac0000;stroke-width:0.00390625"
       d="m 76.857422,162.92524 c 0,-0.004 0.0035,-0.0268 0.0077,-0.0518 0.01329,-0.0783 0.07717,-0.482 0.109658,-0.69297 0.161294,-1.04742 0.334879,-2.31075 0.488,-3.5516 0.02386,-0.19336 0.04423,-0.35552 0.04526,-0.36036 0.0018,-0.008 0.0039,-0.009 0.03323,-0.009 h 0.03135 l -0.0022,0.0127 c -0.0012,0.007 -0.01443,0.11289 -0.02938,0.23535 -0.157844,1.29305 -0.347637,2.67733 -0.51786,3.77706 -0.03812,0.24631 -0.09827,0.62495 -0.101333,0.63798 -0.0019,0.008 -0.0041,0.009 -0.03324,0.009 -0.02628,0 -0.03118,-0.001 -0.03118,-0.006 z"
       id="path22806" />
    <path
       style="fill:#ac0000;stroke-width:0.00390625"
       d="m 69.501953,157.20823 c 0,-0.003 -0.03071,-0.23328 -0.06825,-0.5127 -0.283172,-2.10788 -0.699626,-5.28877 -0.882742,-6.74241 -0.0097,-0.0773 -0.01856,-0.14545 -0.01959,-0.15136 l -0.0019,-0.0107 h 0.0292 c 0.01606,0 0.0292,0.001 0.0292,0.003 0,0.0123 0.303468,2.34702 0.463132,3.56309 0.170998,1.3024 0.506434,3.82814 0.511137,3.84871 0.0014,0.006 -0.0019,0.007 -0.02932,0.007 -0.02132,0 -0.03088,-0.001 -0.03088,-0.005 z"
       id="path22845" />
    <path
       style="fill:#ac0000;stroke-width:0.00390625"
       d="m 68.529297,149.78801 c 0,-0.002 -0.007,-0.0575 -0.01549,-0.12402 -0.01992,-0.15564 -0.101976,-0.80191 -0.152508,-1.2011 -0.02162,-0.1708 -0.112166,-0.89238 -0.201211,-1.60352 -0.08904,-0.71113 -0.162891,-1.29868 -0.164102,-1.30566 l -0.0022,-0.0127 h 0.02354 c 0.02125,0 0.02372,8.5e-4 0.02541,0.009 10e-4,0.005 0.009,0.065 0.01777,0.13379 0.0087,0.0687 0.04744,0.3711 0.08598,0.67188 0.03854,0.30078 0.13522,1.05576 0.21484,1.67773 0.184731,1.44306 0.222088,1.73384 0.224452,1.74707 l 0.0019,0.0108 h -0.0292 c -0.01606,0 -0.0292,-0.001 -0.0292,-0.003 z"
       id="path22884" />
    <path
       style="fill:#ac0000;stroke-width:0.00390625"
       d="m 67.994141,145.5387 c 0,-0.0194 -0.316571,-2.50577 -0.431748,-3.39093 -0.02465,-0.18942 -0.04481,-0.34719 -0.04481,-0.35058 0,-0.005 0.0041,-0.006 0.0166,-0.006 h 0.0166 l 0.05205,0.3916 c 0.137338,1.03326 0.438178,3.33655 0.438178,3.35478 0,0.002 -0.01055,0.004 -0.02344,0.004 -0.01289,0 -0.02344,-0.001 -0.02344,-0.002 z"
       id="path22923" />
    <path
       style="fill:#ac0000;stroke-width:0.00390625"
       d="m 67.515734,141.78613 c -8.79e-4,-0.003 -0.01059,-0.0743 -0.02159,-0.15918 -0.129436,-0.9992 -0.341584,-2.54252 -0.470553,-3.42316 -0.0119,-0.0813 -0.02164,-0.15115 -0.02164,-0.15528 0,-0.006 0.0028,-0.007 0.01367,-0.007 0.0088,0 0.01367,0.002 0.01367,0.005 0,0.003 0.01836,0.13165 0.0408,0.28613 0.101854,0.70125 0.196824,1.375 0.308566,2.18908 0.05312,0.38699 0.170168,1.2552 0.170168,1.26222 0,0.006 -0.003,0.007 -0.01575,0.007 -0.0091,0 -0.01642,-0.002 -0.01735,-0.005 z"
       id="path22962" />
    <path
       style="fill:#ac0000;stroke-width:0.00390625"
       d="m 66.994755,138.00684 c -0.01207,-0.085 -0.09354,-0.62661 -0.12558,-0.83497 -0.158551,-1.03094 -0.312946,-1.94354 -0.460126,-2.71972 l -0.03055,-0.16113 h 0.0185 c 0.01421,0 0.01899,0.002 0.02061,0.007 0.0028,0.009 0.0682,0.36822 0.105477,0.5791 0.11843,0.67002 0.248687,1.46955 0.381203,2.33985 0.05345,0.35101 0.121112,0.80693 0.121112,0.81605 0,0.007 -0.0024,0.008 -0.01289,0.008 h -0.01289 z"
       id="path23001" />
    <path
       style="fill:#ac0000;stroke-width:0.00390625"
       d="m 66.371197,134.25488 c -0.0036,-0.0199 -0.02917,-0.14951 -0.05679,-0.28808 -0.261596,-1.31223 -0.534845,-2.3898 -0.842458,-3.32227 -0.02984,-0.0905 -0.129815,-0.38243 -0.140324,-0.40982 -0.002,-0.005 0.0014,-0.006 0.02277,-0.006 0.02492,0 0.02519,1.1e-4 0.0293,0.0127 0.0023,0.007 0.02471,0.0698 0.04983,0.13965 0.334615,0.9299 0.629173,2.07362 0.915988,3.55663 0.03442,0.17796 0.0665,0.34734 0.0665,0.35109 0,0.001 -0.0086,0.002 -0.01913,0.002 h -0.01913 z"
       id="path23040" />
    <path
       style="fill:#ac0000;stroke-width:0.00390625"
       d="m 65.326236,130.21973 c -0.002,-0.005 -0.02327,-0.0624 -0.04723,-0.12793 -0.457636,-1.25177 -1.050456,-2.3663 -1.879862,-3.53424 -0.02939,-0.0414 -0.05344,-0.0761 -0.05344,-0.0771 0,-10e-4 0.0093,-0.002 0.02075,-0.002 h 0.02074 l 0.08036,0.11425 c 0.486704,0.69203 0.816356,1.24628 1.21219,2.03809 0.230363,0.46081 0.408217,0.85522 0.574238,1.27344 0.04852,0.12223 0.122973,0.31721 0.122973,0.32206 0,0.001 -0.01058,0.002 -0.02352,0.002 -0.0207,0 -0.02396,-10e-4 -0.0272,-0.009 z"
       id="path23079" />
    <path
       style="fill:#ac0000;stroke-width:0.00390625"
       d="m 63.325604,126.4541 c -0.0097,-0.0134 -0.04381,-0.0605 -0.07572,-0.10449 -0.348637,-0.48114 -0.797932,-1.05455 -1.358982,-1.73438 -0.347029,-0.42049 -0.980286,-1.17338 -1.280766,-1.52272 -0.032,-0.0372 -0.05739,-0.0684 -0.05641,-0.0694 9.73e-4,-9.7e-4 0.02173,0.0207 0.04612,0.0481 0.07148,0.0804 0.1493,0.15731 0.159145,0.15731 0.0093,0 0.01133,-0.007 0.004,-0.0148 -0.0025,-0.003 -0.0037,-0.006 -0.0027,-0.007 0.0023,-0.002 -4.35e-4,-0.005 0.163876,0.18933 1.106112,1.31133 1.835605,2.22046 2.364968,2.94736 0.04541,0.0624 0.08571,0.11817 0.08954,0.12403 l 0.007,0.0106 h -0.02118 -0.02118 z"
       id="path23118" />
    <path
       style="fill:#ac0000;stroke-width:0.00390625"
       d="m 78.091798,153.0459 c 10e-7,-0.006 0.0088,-0.096 0.01958,-0.2002 0.18439,-1.78434 0.525589,-5.25598 0.673574,-6.85351 0.01612,-0.17403 0.03036,-0.32564 0.03164,-0.33692 l 0.0023,-0.0205 h 0.02524 0.02524 l -0.0022,0.0186 c -0.0012,0.0102 -0.02145,0.22861 -0.04493,0.48535 -0.160056,1.74993 -0.388368,4.0893 -0.640686,6.56473 -0.01929,0.18921 -0.03507,0.3461 -0.03507,0.34863 0,0.003 -0.0089,0.005 -0.02734,0.005 -0.02723,0 -0.02734,-5e-5 -0.02734,-0.0107 z"
       id="path23157" />
    <path
       style="fill:#ac0000;stroke-width:0.00390625"
       d="m 77.646484,157.11219 c 0,-0.004 0.0026,-0.028 0.0057,-0.0537 0.06757,-0.5512 0.276056,-2.45058 0.404973,-3.68944 l 0.03233,-0.31064 0.02854,-2.5e-4 0.02854,-2.5e-4 -0.002,0.0121 c -0.0011,0.007 -0.01,0.0912 -0.0197,0.18784 -0.108131,1.07552 -0.256414,2.45119 -0.395055,3.66504 l -0.02242,0.19629 h -0.03046 c -0.0266,0 -0.03046,-8.8e-4 -0.03046,-0.007 z"
       id="path23196" />
    <path
       style="fill:#ac0000;stroke-width:0.00390625"
       d="m 77.509766,158.25719 c 0,-0.002 0.02288,-0.19371 0.05085,-0.42692 0.02797,-0.23321 0.05835,-0.48818 0.06752,-0.5666 l 0.01667,-0.14258 0.03014,-0.001 c 0.02992,-0.001 0.03014,-0.001 0.03014,0.009 0,0.0183 -0.131195,1.12317 -0.133601,1.12516 -0.0032,0.003 -0.06171,0.006 -0.06171,0.003 z"
       id="path23235" />
    <path
       style="fill:#ac0000;stroke-width:0.00390625"
       d="m 78.819992,145.61621 c 0.0031,-0.0247 0.07654,-0.83558 0.113403,-1.25293 0.109158,-1.23589 0.196757,-2.31782 0.254122,-3.13867 0.01,-0.14287 0.01893,-0.26372 0.01989,-0.26856 0.0016,-0.008 0.004,-0.009 0.02509,-0.009 h 0.02336 v 0.0131 c 0,0.0154 -0.04699,0.64316 -0.0724,0.96733 -0.08115,1.03506 -0.169649,2.08543 -0.273378,3.24463 -0.02252,0.25164 -0.04094,0.45862 -0.04094,0.45996 0,0.001 -0.01159,0.002 -0.02576,0.002 h -0.02576 z"
       id="path23274" />
    <path
       style="fill:#ac0000;stroke-width:0.00390625"
       d="m 79.210295,140.90963 c 0.0014,-0.0212 0.0095,-0.14225 0.01809,-0.26901 0.08789,-1.30318 0.150087,-2.593 0.185644,-3.8496 0.0033,-0.11709 0.0077,-0.27266 0.0099,-0.34571 0.0021,-0.073 0.0038,-0.14468 0.0038,-0.15918 l 1.4e-5,-0.0264 h 0.04917 0.04917 l -0.0024,0.0459 c -0.0013,0.0252 -0.005,0.11621 -0.0083,0.20215 -0.04137,1.09691 -0.120187,2.49466 -0.222482,3.94531 -0.02931,0.41571 -0.03448,0.48827 -0.03481,0.48882 -1.77e-4,3e-4 -0.01158,0.002 -0.02535,0.003 l -0.02503,0.003 z"
       id="path23313" />
    <path
       style="fill:#ac0000;stroke-width:0.00390625"
       d="m 79.429411,136.19629 c 0.0013,-0.0349 0.0041,-0.14609 0.0062,-0.24707 0.03545,-1.69219 0.03917,-2.88978 0.01231,-3.95997 l -0.0026,-0.10449 h 0.04572 l 0.04572,1e-5 0.002,0.0127 c 0.0033,0.0211 0.01669,0.45892 0.02607,0.85059 0.0065,0.27075 0.009,1.39984 0.004,1.76367 -0.0078,0.56033 -0.023,1.18419 -0.0395,1.62109 -0.0021,0.0559 -0.0038,0.10728 -0.0039,0.11426 l -1.4e-5,0.0127 h -0.04918 -0.04918 z"
       id="path23352" />
    <path
       style="fill:#ac0000;stroke-width:0.00390625"
       d="m 79.441921,131.77832 c -0.0032,-0.1271 -0.01195,-0.36775 -0.02014,-0.55371 -0.06035,-1.36979 -0.181554,-2.45827 -0.386684,-3.47266 -0.01629,-0.0806 -0.03393,-0.16561 -0.0392,-0.189 -0.0053,-0.0234 -0.0096,-0.0449 -0.0096,-0.0478 0,-0.004 0.0062,-0.005 0.02292,-0.005 h 0.02292 l 0.004,0.0185 c 0.01517,0.0706 0.09336,0.46418 0.106127,0.53418 0.152687,0.83698 0.258227,1.68404 0.330225,2.65039 0.02383,0.31989 0.05249,0.82009 0.06306,1.10059 l 0.0027,0.0713 h -0.04683 -0.04683 z"
       id="path23391" />
    <path
       style="fill:#ac0000;stroke-width:0.00390625"
       d="m 78.959283,127.39743 c -0.166299,-0.74414 -0.417501,-1.55702 -0.728801,-2.35837 -0.271207,-0.69814 -0.514783,-1.23887 -0.804653,-1.78631 -0.03333,-0.0629 -0.06059,-0.1153 -0.06059,-0.11635 0,-10e-4 0.01714,-10e-4 0.03809,-8e-4 l 0.03809,0.001 0.02659,0.0508 c 0.01463,0.0279 0.06829,0.1334 0.119259,0.23438 0.65321,1.29415 1.107161,2.56412 1.418632,3.96875 0.01096,0.0494 0.0214,0.0964 0.0232,0.10449 l 0.0033,0.0147 -0.024,-4e-5 -0.024,-4e-5 -0.02509,-0.11228 z"
       id="path23430" />
    <path
       style="fill:#ac0000;stroke-width:0.00552427"
       d="m 77.29561,123.01041 c -0.21352,-0.39451 -0.551784,-0.96105 -0.922982,-1.54587 -0.574567,-0.90522 -1.177762,-1.8064 -2.499328,-3.73402 -0.453391,-0.66131 -0.796696,-1.16332 -0.883067,-1.2913 l -0.0233,-0.0345 0.03197,7e-5 0.03197,6e-5 0.01988,0.0289 c 0.08401,0.1223 1.499163,2.17956 1.89904,2.76069 0.663754,0.96462 0.753428,1.09594 0.960559,1.40659 0.51281,0.76912 0.890701,1.37993 1.253901,2.02674 0.08791,0.15656 0.27223,0.49717 0.27223,0.50307 0,10e-4 -0.01678,0.002 -0.03729,0.002 l -0.03729,-1.8e-4 -0.06629,-0.12248 z"
       id="path23469" />
    <path
       style="fill:#ac0000;stroke-width:0.00390625"
       d="m 72.95487,116.3895 c -0.0085,-0.0124 -0.40903,-0.60353 -0.564281,-0.83286 -0.227709,-0.33637 -0.645202,-0.96362 -0.796068,-1.19604 -0.140066,-0.21578 -0.215559,-0.33928 -0.212675,-0.34793 9.5e-4,-0.003 1.629988,2.3606 1.645091,2.38674 0.0022,0.004 -0.0047,0.005 -0.02964,0.005 l -0.03246,-1.5e-4 -0.01,-0.0145 z"
       id="path23508" />
    <path
       style="fill:#ac0000;stroke-width:0.00390625"
       d="m 67.798828,115.70898 v -3.71093 h 2.53125 c 1.392188,0 2.53125,10e-4 2.53125,0.002 0,0.001 -0.04361,0.0588 -0.09692,0.12793 -0.474896,0.61582 -0.991661,1.30243 -1.21619,1.61592 -0.101926,0.14231 -0.171264,0.24858 -0.171264,0.26249 0,0.0275 0.171211,0.29521 0.601562,0.94072 0.476671,0.715 0.976136,1.45047 1.88872,2.78117 0.490513,0.71524 0.732128,1.06878 0.94906,1.38867 0.06411,0.0945 0.136594,0.20132 0.161086,0.2373 l 0.04453,0.0654 H 71.41037 67.798829 Z"
       id="path23547" />
    <path
       style="fill:#ac0000;stroke-width:0.00390625"
       d="m 71.388672,113.98727 c 0,-0.006 0.09768,-0.15155 0.155827,-0.23259 0.043,-0.0599 0.05922,-0.0772 0.03718,-0.0396 -0.03075,0.0525 0.0019,0.0125 0.311199,-0.38112 0.110583,-0.14072 0.216592,-0.27573 0.235575,-0.30002 0.01898,-0.0243 0.03537,-0.0433 0.03642,-0.0423 0.0014,10e-4 -0.753206,0.97421 -0.772906,0.99639 -0.002,0.002 -0.0033,0.002 -0.0033,-8.2e-4 z"
       id="path23586" />
    <path
       style="fill:#ac0000;stroke-width:0.00390625"
       d="m 76.4559,107.57555 c 0.04165,-0.0502 0.171361,-0.20631 0.288247,-0.34703 1.009829,-1.21577 2.11778,-2.53473 3.601265,-4.28711 0.785809,-0.92825 2.262534,-2.66742 2.281522,-2.687 0.006,-0.006 0.0127,-0.0106 0.01494,-0.01 0.0022,7.9e-4 -0.110325,0.13592 -0.250138,0.30027 -2.405775,2.8281 -4.45267,5.2563 -5.920526,7.02344 -0.04372,0.0526 -0.08209,0.0963 -0.08527,0.097 -0.0032,7.3e-4 0.0283,-0.0397 0.06995,-0.0898 z"
       id="path23625" />
    <path
       style="fill:#ac0000;stroke-width:0.00390625"
       d="m 109.38574,69.21582 c 0.0494,-0.05568 2.08338,-2.407327 2.08639,-2.412207 0.004,-0.0064 0.0247,-2.456129 0.0374,-4.414404 0.002,-0.310153 0.005,-0.564889 0.006,-0.56608 0.001,-0.0012 0.003,-0.0013 0.004,-3.07e-4 10e-4,10e-4 -0.005,1.120885 -0.013,2.488584 l -0.0149,2.486724 -0.0109,0.01305 c -0.006,0.0072 -0.48208,0.557526 -1.0579,1.223005 -0.72027,0.832425 -1.0493,1.209961 -1.05449,1.209961 -0.006,0 -0.002,-0.0064 0.0176,-0.02832 z"
       id="path23664" />
    <path
       style="fill:#ac0000;stroke-width:0.176777"
       d="m 83.917827,169.41767 c -0.970033,-0.27974 -1.016766,-0.57954 -0.777039,-4.98478 0.117316,-2.15581 0.332826,-5.31177 0.478912,-7.01324 0.293693,-3.42068 2.501551,-24.86305 2.651307,-25.74908 0.07195,-0.42572 1.023191,-1.53888 4.003151,-4.68459 11.251952,-11.87779 11.760422,-12.84056 14.549782,-27.549089 0.54393,-2.868202 1.00982,-5.285632 1.03532,-5.372067 0.0747,-0.253151 1.66546,5.794871 2.14065,8.138546 0.5589,2.75657 1.21643,7.20856 1.69318,11.46404 0.61374,5.47826 1.02635,7.15946 1.75712,7.15946 0.66385,0 1.46662,-1.60385 2.92238,-5.83866 2.53956,-7.38754 3.12428,-13.8183 1.92837,-21.208173 -0.42312,-2.614565 -1.17631,-5.514608 -2.77718,-10.692992 l -1.47492,-4.770973 1.50494,-2.123318 c 3.63334,-5.126264 5.58427,-7.432505 6.1151,-7.228805 1.10515,0.424086 6.59255,9.380406 10.33055,16.861136 2.84087,5.685321 3.25728,7.045052 3.7625,12.285981 0.28431,2.949264 0.28247,13.039284 -0.003,16.175064 -0.96118,10.56022 -3.45823,16.92415 -9.98827,25.45585 -2.87396,3.75492 -4.80003,5.98384 -13.24525,15.32784 -3.09385,3.42311 -5.62608,6.28689 -5.62717,6.36396 -0.003,0.18051 3.63547,1.00927 6.01786,1.37089 1.01472,0.15402 3.41862,0.39855 5.342,0.54339 1.92337,0.14483 3.70317,0.34171 3.95512,0.4375 0.82363,0.31314 0.29,0.65643 -1.94968,1.25423 -3.05033,0.81418 -7.17051,1.44186 -16.08668,2.4507 -7.885768,0.89225 -12.975919,1.52829 -14.937633,1.86654 -1.687995,0.29105 -2.472851,0.30538 -3.321471,0.0606 z"
       id="path23703" />
    <path
       style="fill:#ac0000;stroke-width:0.176777"
       d="m 58.247921,168.80059 c -11.500077,-0.80067 -29.69677,-3.35357 -30.642135,-4.29893 -0.291246,-0.29125 1.601127,-0.70062 8.272059,-1.78949 3.601708,-0.58789 6.689421,-1.12428 6.861584,-1.19197 0.238767,-0.0939 -0.975062,-1.04563 -5.116971,-4.01216 -10.429182,-7.46963 -14.962747,-11.48763 -19.846224,-17.58929 -3.146327,-3.93117 -5.534236,-7.76073 -7.9820197,-12.801 -1.596645,-3.28768 -2.5020941,-5.85776 -2.9013697,-8.23542 C 6.4789267,116.41747 6.2585597,108.20937 6.451151,102.4304 6.6953846,95.101815 6.9812305,93.832325 9.7135713,87.941435 12.495214,81.944248 16.707171,75.351734 21.117599,70.091959 c 1.485103,-1.7711 8.35033,-9.039927 8.446838,-8.943419 0.04191,0.04191 -0.855041,2.170756 -1.993218,4.730777 -5.732403,12.893506 -8.251105,21.765425 -9.111117,32.093152 -0.231894,2.784771 -0.119124,11.894011 0.165969,13.406521 0.384795,2.04145 0.76666,2.90714 1.282375,2.90714 0.339231,0 0.95772,-0.86587 1.344863,-1.88279 0.216512,-0.56871 0.788682,-2.54546 1.271489,-4.39278 2.738869,-10.479474 6.749773,-18.532156 11.668142,-23.426099 1.982726,-1.972879 3.450317,-3.159508 3.654754,-2.955072 0.05471,0.05471 -0.219367,1.08078 -0.609054,2.280163 -3.241683,9.977318 -3.604006,17.887028 -1.143752,24.968658 1.682573,4.84315 4.419286,9.17906 8.360991,13.24674 3.088438,3.18714 5.943463,5.33193 9.814566,7.37304 4.399507,2.31971 5.912451,4.11102 6.898348,8.16755 2.087655,8.5898 4.047543,29.65524 2.868741,30.83404 -0.212764,0.21277 -0.777874,0.28405 -2.545411,0.32109 -1.249562,0.0262 -2.709453,0.0171 -3.244202,-0.0201 z"
       id="path23742" />
    <path
       style="fill:#ac0000;stroke-width:0.176777"
       d="m 138.56269,139.276 c -0.24023,-0.0981 -0.0295,-0.7561 1.88768,-5.89574 1.61317,-4.32453 2.32821,-6.74904 2.99115,-10.14228 2.6003,-13.30946 1.30262,-29.91457 -3.24868,-41.570281 -1.50258,-3.848044 -4.65276,-9.614266 -8.3744,-15.328854 -2.60679,-4.002733 -3.35573,-5.224396 -4.15612,-6.779416 -0.7666,-1.48937 -1.03995,-2.195392 -0.84997,-2.195392 0.79896,0 8.3091,6.485872 12.28375,10.608448 4.64411,4.816941 7.43774,8.790976 10.37515,14.759008 2.92143,5.935573 3.56234,8.144078 3.88022,13.370822 0.22587,3.713838 0.22629,12.317735 7.1e-4,16.025575 -0.28778,4.73151 -0.87261,6.88048 -3.01685,11.08547 -3.53492,6.93218 -7.38437,12.83596 -9.94149,15.24699 -0.91238,0.86025 -1.29954,1.0327 -1.83121,0.81565 z"
       id="path23781" />
    <path
       style="fill:#ac0000;stroke-width:0.0220971"
       d="M 58.504716,21.278545 C 58.312812,21.236909 57.999452,21.080089 57.772834,20.912278 57.551526,20.748399 57.076211,20.27877 56.769073,19.920524 56.426744,19.521233 55.607631,18.491307 55.40374,18.203799 55.031864,17.679416 54.774409,17.243915 54.460924,16.608964 53.71182,15.091687 53.221781,13.321822 53.034546,11.45734 c -0.07881,-0.784814 -0.08377,-0.998735 -0.09446,-4.0762129 l -0.01075,-3.092892 1.852749,1.8370895 c 3.186964,3.1600264 5.43809,5.4101384 5.98685,5.9841534 2.590685,2.709908 4.119162,4.522952 4.119162,4.886056 0,0.455932 -1.431895,1.772149 -3.193029,2.935077 -1.821194,1.202586 -2.513029,1.494889 -3.190352,1.347934 z"
       id="path23820" />
  </g>
</svg>
