<?xml version="1.0" encoding="UTF-8" standalone="no"?>
<!-- Created with Inkscape (http://www.inkscape.org/) -->

<svg
   version="1.1"
   id="svg61731"
   width="158.66667"
   height="174.66667"
   viewBox="0 0 158.66667 174.66667"
   sodipodi:docname="druid-symbol.svg"
   inkscape:version="1.1.2 (b8e25be833, 2022-02-05)"
   xmlns:inkscape="http://www.inkscape.org/namespaces/inkscape"
   xmlns:sodipodi="http://sodipodi.sourceforge.net/DTD/sodipodi-0.dtd"
   xmlns="http://www.w3.org/2000/svg"
   xmlns:svg="http://www.w3.org/2000/svg">
  <defs
     id="defs61735" />
  <sodipodi:namedview
     id="namedview61733"
     pagecolor="#ffffff"
     bordercolor="#666666"
     borderopacity="1.0"
     inkscape:pageshadow="2"
     inkscape:pageopacity="0.0"
     inkscape:pagecheckerboard="0"
     showgrid="false"
     inkscape:zoom="2.4990457"
     inkscape:cx="123.6472"
     inkscape:cy="111.64261"
     inkscape:window-width="3440"
     inkscape:window-height="1377"
     inkscape:window-x="-8"
     inkscape:window-y="-8"
     inkscape:window-maximized="1"
     inkscape:current-layer="g61737" />
  <g
     inkscape:groupmode="layer"
     inkscape:label="Image"
     id="g61737">
    <path
       style="fill:#ff0000;fill-opacity:1;stroke-width:1.33333"
       d="m 71.062939,167.80031 c -0.41184,-2.01666 -1.72246,-11.46666 -2.91248,-21 -2.07781,-16.64535 -2.35659,-17.56206 -7.02382,-23.09608 -10.02728,-11.88956 -11.15961,-8.39988 12.37306,-38.131971 l 20.93517,-26.450317 -3.75084,-3.952175 c -2.06297,-2.173696 -6.52502,-6.28845 -9.91568,-9.1439 l -6.16483,-5.191725 -6.1685,5.429731 c -6.43471,5.664052 -7.59272,9.027922 -4.10446,11.922917 1.69263,1.404756 2.84734,1.339475 6.41702,-0.362787 4.45627,-2.125046 8.85227,-1.170889 8.85227,1.921398 0,1.884253 -10.3986,15.721572 -11.8146,15.721572 -1.88137,0 -13.29156,-8.055052 -20.16849,-14.238004 -5.65809,-5.087114 -6.68358,-6.741248 -6.68358,-10.780778 0,-5.359144 4.1045,-9.934459 20.78565,-23.169944 12.00964,-9.528926 12.00719,-9.527696 15.39377,-7.715256 7.8905,4.222868 32.180421,23.343479 33.259301,26.181158 0.67537,1.776366 1.20401,7.240696 1.17474,12.142957 l -0.0532,8.9132 -16.728991,19.333334 c -9.20097,10.633333 -18.22595,21.25412 -20.05553,23.60174 l -3.32652,4.26841 4.10872,5.97183 c 4.73072,6.87586 4.99401,10.24836 2.61462,33.49136 -1.40385,13.71352 -2.64928,18 -5.22988,18 -0.58527,0 -1.40109,-1.65 -1.81292,-3.66667 z m -22.3287,0.2532 c -7.80942,-0.90692 -16.20942,-2.12474 -18.66667,-2.70626 -4.24846,-1.00542 -4.04239,-1.12726 4.19895,-2.48246 l 8.66666,-1.42514 -8.97231,-6.41695 c -11.17435,-7.99183 -18.47047,-16.18968 -23.67062,-26.5961 -3.6466399,-7.29757 -4.0237399,-9.26505 -4.0237399,-20.99344 0,-12.192197 0.27776,-13.496437 4.7988399,-22.533533 2.63935,-5.275766 8.0332,-13.006379 11.98633,-17.179143 l 7.1875,-7.586845 -4.00414,9.010003 c -5.1976,11.69547 -7.92928,23.521397 -7.9284,34.323338 9.7e-4,11.88765 1.83016,14.26147 3.9621,5.1418 2.36944,-10.135613 7.22272,-19.918951 12.16473,-24.521901 3.10651,-2.89338 4.00411,-3.28165 3.34804,-1.448235 -2.65553,7.421011 -3.76785,14.961372 -3.01609,20.446046 1.49623,10.91616 9.69196,21.65525 20.43705,26.77922 2.77784,1.32466 4.81263,3.55077 5.64061,6.17096 2.14069,6.7743 4.63865,31.43198 3.30294,32.60367 -0.66706,0.58515 -7.60236,0.32189 -15.41178,-0.58503 z m 34.32373,0.94871 c -0.38793,-0.62768 0.16593,-9.412 1.23079,-19.52071 l 1.9361,-18.37949 6.48104,-6.85274 c 8.170551,-8.63916 9.375991,-10.94046 11.465261,-21.88836 l 1.69729,-8.893947 1.47705,5.333334 c 0.81238,2.933343 1.88826,9.417033 2.39083,14.408203 1.00911,10.02155 1.79799,10.07723 5.01964,0.35428 2.85659,-8.62119 2.75299,-17.341589 -0.32344,-27.226186 l -2.50065,-8.034622 3.38027,-4.750838 c 1.85915,-2.61296 3.7464,-4.750838 4.1939,-4.750838 1.52245,0 11.83943,17.977362 13.4404,23.419897 0.92688,3.150993 1.39736,10.686247 1.12386,18.000007 -0.60428,16.15859 -4.00026,23.38978 -18.53744,39.47244 l -10.64287,11.77433 3.68826,0.84225 c 2.02854,0.46323 5.75826,0.91323 8.28826,1 8.82012,0.30247 2.05408,2.47103 -12.6,4.03835 -8.066671,0.86277 -15.979901,1.8448 -17.584961,2.18227 -1.60505,0.33748 -3.23567,0.1 -3.62359,-0.52763 z m 55.209221,-29.86857 c 3.7e-4,-0.18334 1.26156,-3.63334 2.80265,-7.66667 5.43804,-14.23248 4.69403,-37.04618 -1.6806,-51.532649 -1.56524,-3.557047 -5.21193,-9.963599 -8.10377,-14.236783 -2.89183,-4.273185 -4.9664,-8.060907 -4.61014,-8.417162 0.35625,-0.356255 4.6031,3.052312 9.43743,7.574592 6.08756,5.694614 10.12657,10.937919 13.1384,17.055793 4.03336,8.192933 4.34848,9.802318 4.34583,22.194839 -0.003,12.50414 -0.27851,13.87463 -4.29932,21.36137 -4.236,7.88743 -8.70904,14 -10.24487,14 -0.43245,0 -0.78597,-0.15 -0.78561,-0.33333 z M 55.679659,18.598935 c -1.74984,-2.224563 -2.74648,-5.458021 -2.74648,-8.9105691 V 4.2693825 l 5.97321,5.9321285 c 3.28527,3.26267 5.98527,6.313122 6,6.778781 0.0147,0.46566 -1.43729,1.805957 -3.22673,2.978441 -3.10161,2.032254 -3.38175,1.968766 -6,-1.359798 z"
       id="path61821" />
  </g>
</svg>
