<?xml version="1.0" encoding="UTF-8" standalone="no"?>
<!-- Created with Inkscape (http://www.inkscape.org/) -->

<svg
   version="1.1"
   id="svg41989"
   width="162.66667"
   height="150.66667"
   viewBox="0 0 162.66667 150.66667"
   sodipodi:docname="fighter-symbol.svg"
   inkscape:version="1.1.2 (b8e25be833, 2022-02-05)"
   xmlns:inkscape="http://www.inkscape.org/namespaces/inkscape"
   xmlns:sodipodi="http://sodipodi.sourceforge.net/DTD/sodipodi-0.dtd"
   xmlns="http://www.w3.org/2000/svg"
   xmlns:svg="http://www.w3.org/2000/svg">
  <defs
     id="defs41993" />
  <sodipodi:namedview
     id="namedview41991"
     pagecolor="#ffffff"
     bordercolor="#666666"
     borderopacity="1.0"
     inkscape:pageshadow="2"
     inkscape:pageopacity="0.0"
     inkscape:pagecheckerboard="0"
     showgrid="false"
     inkscape:zoom="1.4485619"
     inkscape:cx="124.95151"
     inkscape:cy="154.63613"
     inkscape:window-width="3440"
     inkscape:window-height="1377"
     inkscape:window-x="-8"
     inkscape:window-y="-8"
     inkscape:window-maximized="1"
     inkscape:current-layer="g41995" />
  <g
     inkscape:groupmode="layer"
     inkscape:label="Image"
     id="g41995">
    <path
       style="fill:#ff0000;fill-opacity:1;stroke-width:1.33333"
       d="m 71.371046,146.57808 c -7.3977,-1.23678 -16.84421,-4.57902 -22.32203,-7.8977 l -3.61765,-2.19171 4.04805,-4.911 c 4.68607,-5.68501 7.02074,-5.99904 20.77118,-2.79382 9.95503,2.3205 17.8382,1.84547 29.47104,-1.77591 l 7.054964,-2.19625 6.06136,6.06136 6.06136,6.06135 -8.44966,3.56014 c -8.46061,3.56473 -24.771854,7.57668 -29.782994,7.32549 -1.46666,-0.0735 -5.6497,-0.6324 -9.29562,-1.24195 z m -47.0213,-13.13672 c 0.37353,-2.7849 1.64895,-7.09849 2.83426,-9.58574 1.18532,-2.48726 19.88956,-22.71506 41.56499,-44.95067 21.67542,-22.235613 39.184084,-41.105721 38.908134,-41.933573 -0.27595,-0.827854 -3.9117,-2.731336 -8.079424,-4.229964 -4.16774,-1.498627 -7.57967,-3.32852 -7.58208,-4.066428 -0.002,-0.737908 4.6476,-5.739742 10.333334,-11.115185 l 10.33771,-9.7735338 0.41239,5.4891028 c 0.3524,4.690758 1.21362,6.069514 5.92134,9.479774 l 5.50896,3.99067 7.41199,-7.089705 C 145.43479,6.7302469 144.3228,7.1942075 149.94922,12.134269 l 4.89337,4.296441 -10.13145,10.191224 -10.13146,10.191224 4.05186,5.593422 c 3.42532,4.728512 4.77217,5.593421 8.71016,5.593421 2.56206,0 4.6583,0.523721 4.6583,1.163827 0,0.640104 -4.59696,5.530488 -10.21546,10.867519 l -10.21547,9.703693 -2.78453,-7.766971 c -1.5315,-4.271833 -3.48494,-7.995684 -4.34099,-8.275224 -0.85605,-0.279541 -19.30561,16.909577 -40.999024,38.198038 -21.69341,21.288467 -41.30449,39.669127 -43.58018,40.845937 -2.27568,1.1768 -6.85024,2.95602 -10.16568,3.95382 l -6.02807,1.81419 z M 103.66667,59.628159 c 11.40415,-11.652845 15.61998,-17.08083 10,-12.87525 -4.33898,3.246969 -27.000004,25.852882 -27.000004,26.934337 0,2.304069 5.17224,-1.973398 17.000004,-14.059087 z m 27.66667,76.738511 c -3.66667,-1.11229 -8.46667,-3.26749 -10.66667,-4.78934 -5.35251,-3.70257 -23.633334,-21.36707 -30.223044,-29.20409 l -5.29179,-6.293438 6.33389,-6.77144 6.33388,-6.77144 12.559784,12.398207 c 17.87943,17.649421 25.28069,26.812721 26.98489,33.409251 0.80362,3.11059 1.76583,6.70562 2.13827,7.98896 0.78537,2.70622 0.64385,2.70681 -8.16921,0.0333 z M 20.962586,108.34218 c -1.87523,-4.22153 -4.14608,-10.375511 -5.04631,-13.675511 -1.9297,-7.073712 -2.14891,-25.296479 -0.34312,-28.523254 1.16119,-2.074935 1.54052,-2.033316 4.79416,0.525994 6.22207,4.894281 9.20553,10.552489 11.78283,22.346409 3.24647,14.856052 3.17593,17.941482 -0.48348,21.148372 -7.31615,6.41145 -7.02468,6.46106 -10.70408,-1.82201 z m 111.083314,1.32449 -5.18417,-5 2.68384,-11.333335 c 1.47612,-6.233333 2.98127,-12.833171 3.34478,-14.666304 0.89827,-4.529776 12.26224,-15.381114 14.14063,-13.502727 1.95032,1.950319 1.76005,23.560065 -0.2715,30.835698 -2.40262,8.604548 -6.88132,18.666668 -8.30864,18.666668 -0.67142,0 -3.55364,-2.25 -6.40494,-5 z m -56.045894,-3.46002 c 0,-0.98634 1.2,-2.87933 2.66666,-4.20665 2.57335,-2.32884 2.75999,-2.32884 5.33334,0 4.29648,3.88827 3.35793,6 -2.66667,6 -3.57871,0 -5.33333,-0.58999 -5.33333,-1.79335 z M 53.333336,80.000002 c 0,-6.012344 2.11084,-6.964139 5.97507,-2.69421 2.30762,2.549891 2.2808,2.728723 -0.79335,5.288975 -4.51309,3.758656 -5.18172,3.423834 -5.18172,-2.594765 z m 50.000004,2.666666 c -2.32885,-2.573344 -2.32885,-2.759989 0,-5.333333 3.88826,-4.296484 6,-3.357936 6,2.666667 0,6.024603 -2.11174,6.963151 -6,2.666666 z M 51.538816,63.921292 C 37.210816,50.3613 38.214946,50.339326 33.463856,64.316817 l -2.25441,6.632349 -10.49274,-11.141249 -10.49273,-11.141249 5.0852,-0.666667 c 3.83188,-0.502357 6.07271,-1.890073 9.09189,-5.630483 l 4.00669,-4.963815 -9.63136,-10.13932 C 9.8057256,17.822599 9.2725256,16.93505 11.003586,14.327934 c 1.0222,-1.539521 3.11816,-3.635478 4.65768,-4.6576818 2.60596,-1.7302938 3.48339,-1.2085736 12.71447,7.5600518 l 9.91534,9.418605 5.52113,-3.999484 c 4.65591,-3.372723 5.52113,-4.72949 5.52113,-8.657787 0,-2.562068 0.66207,-4.6583048 1.47126,-4.6583048 1.91862,0 19.86207,17.9434498 19.86207,19.8620698 0,0.809195 -0.75,1.477126 -1.66666,1.48429 -0.91667,0.0072 -4.896,1.516313 -8.84295,3.353666 l -7.17629,3.340643 12.17629,12.586491 c 6.69695,6.922571 12.17628,13.19231 12.17628,13.932755 0,0.740445 -1.19931,1.988113 -2.66513,2.772597 -2.32782,1.245814 -4.18409,-0.03795 -14.66667,-10.143178 -6.60084,-6.363233 -12.00153,-11.097841 -12.00153,-10.52135 0,0.576489 4.8,6.047955 10.66666,12.158811 5.86667,6.110857 10.66667,12.003615 10.66667,13.095016 0,1.091403 -1.1424,2.59576 -2.53866,3.343019 -2.16146,1.156775 -4.42826,-0.429653 -15.25586,-10.676871 z m 26.06119,-6.854624 c -2.99779,-2.997783 -1.7777,-5.066667 2.98797,-5.066667 5.50588,0 7.2702,2.143712 3.87888,4.712975 -3.0632,2.320676 -4.8099,2.410643 -6.86685,0.353692 z m -2.5917,-31.639133 c -5.94571,-4.307048 -9.94172,-9.250569 -8.87401,-10.978159 0.90048,-1.457013 29.4976,-1.457013 30.39808,0 0.37936,0.613824 -0.24894,2.456215 -1.39623,4.094203 -2.10039,2.998731 -12.06707,10.789755 -13.80281,10.789755 -0.51328,0 -3.35954,-1.757609 -6.32503,-3.905799 z M 5.3833956,11.873317 c -0.0568,-3.9268051 4.05504,-8.3318661 7.1472004,-7.6568542 1.5847,0.3459357 1.00167,1.6854163 -2.5174,5.7835372 -4.4633304,5.197771 -4.5810104,5.245387 -4.6298004,1.873317 z M 151.33334,8.0000002 c -3.67398,-3.8348068 -3.71182,-4.0000001 -0.91612,-4.0000001 3.345,0 8.73898,4.7959032 7.55273,6.7152999 -1.27479,2.062636 -2.56467,1.534892 -6.63661,-2.7152998 z"
       id="path42079" />
  </g>
</svg>
