<?xml version="1.0" encoding="UTF-8" standalone="no"?>
<!-- Created with Inkscape (http://www.inkscape.org/) -->

<svg
   version="1.1"
   id="svg9"
   width="142.66667"
   height="174.66667"
   viewBox="0 0 142.66667 174.66667"
   sodipodi:docname="monk-symbol.svg"
   inkscape:version="1.1.2 (b8e25be833, 2022-02-05)"
   xmlns:inkscape="http://www.inkscape.org/namespaces/inkscape"
   xmlns:sodipodi="http://sodipodi.sourceforge.net/DTD/sodipodi-0.dtd"
   xmlns="http://www.w3.org/2000/svg"
   xmlns:svg="http://www.w3.org/2000/svg">
  <defs
     id="defs13" />
  <sodipodi:namedview
     id="namedview11"
     pagecolor="#ffffff"
     bordercolor="#666666"
     borderopacity="1.0"
     inkscape:pageshadow="2"
     inkscape:pageopacity="0.0"
     inkscape:pagecheckerboard="0"
     showgrid="false"
     inkscape:zoom="3.3435114"
     inkscape:cx="194.4064"
     inkscape:cy="97.801373"
     inkscape:window-width="3440"
     inkscape:window-height="1377"
     inkscape:window-x="-8"
     inkscape:window-y="-8"
     inkscape:window-maximized="1"
     inkscape:current-layer="g15" />
  <g
     inkscape:groupmode="layer"
     inkscape:label="Image"
     id="g15">
    <path
       style="fill:#ff0000;fill-opacity:1;stroke-width:1.33333"
       d="m 71.528605,165.94406 c -0.49394,-1.83333 -2.36435,-11.35773 -4.15646,-21.16534 -1.79211,-9.8076 -3.52316,-18.09678 -3.84678,-18.4204 -0.32361,-0.32362 -1.29378,3.80079 -2.15592,9.16534 -2.21781,13.79995 -2.73133,15.37123 -4.17847,12.78534 -0.63697,-1.1382 -4.48964,-11.57706 -8.56148,-23.19744 -4.40861,-12.58144 -9.276,-23.84697 -12.03273,-27.849622 -3.40441,-4.943048 -5.68348,-10.895464 -8.61307,-22.495333 -2.19103,-8.675532 -3.98369,-16.963819 -3.98369,-18.418416 0,-1.454597 1.65,-4.977776 3.66666,-7.829288 l 3.66667,-5.184566 20.51457,-0.02847 20.51456,-0.02847 -0.86069,6.279464 c -0.47339,3.453706 -1.38158,6.800347 -2.01822,7.436982 -1.74836,1.748362 -10.69868,3.549328 -17.81689,3.585078 -6.62271,0.03327 -8.48056,1.812024 -3.33333,3.191429 1.65,0.442182 6.88364,0.812161 11.63031,0.822174 8.47484,0.01788 8.72001,0.120294 13.60982,5.684874 5.43495,6.184968 6.38612,4.999778 3.21061,-4.000559 l -1.88259,-5.33583 6.06869,-0.831806 c 3.33778,-0.457494 12.33613,-0.831806 19.996345,-0.831806 h 13.92767 l -0.87887,10.333334 c -1.12828,13.265699 -3.74916,22.61077 -8.58555,30.612801 -2.12322,3.51296 -7.036105,16.09684 -10.917525,27.96418 -3.88142,11.86734 -7.44639,21.33639 -7.92216,21.04235 -0.47577,-0.29404 -1.64131,-5.07274 -2.59008,-10.61933 -0.94878,-5.54659 -2.1703,-10.3599 -2.7145,-10.69623 -0.5442,-0.33633 -2.58627,7.93272 -4.53793,18.3757 -1.95166,10.44296 -3.72227,19.8872 -3.93469,20.9872 -0.22351,1.15749 -0.76452,0.59582 -1.28428,-1.33334 z m 3.06122,-63.66665 c 0.0423,-2.383344 0.52684,-4.307214 1.07684,-4.275276 0.55,0.03193 3.53379,0.548408 6.63064,1.147712 7.08861,1.371794 6.19295,-0.236775 -2.61782,-4.701532 l -6.79847,-3.445043 -7.77384,3.715555 c -4.27561,2.043556 -7.77384,4.059559 -7.77384,4.480005 0,0.420445 2.62304,0.555835 5.82898,0.300855 5.82509,-0.463291 5.82956,-0.460185 6.71226,4.657054 0.48581,2.81636 1.2733,6.92066 1.74999,9.12066 l 0.86669,4 1.01087,-5.33334 c 0.55597,-2.93333 1.04544,-7.28333 1.0877,-9.66665 z m -48.58982,55.75667 c -5.454,-2.31466 -9.29138,-7.9684 -9.14695,-13.47655 0.18729,-7.14277 3.41344,-11.55675 9.68011,-13.24418 6.05397,-1.63017 10.14731,-0.44168 14.31359,4.15591 4.12726,4.55454 4.86347,8.32508 2.65673,13.60655 -2.9697,7.10749 -11.53505,11.49123 -17.50348,8.95827 z m -2.58663,-14.82311 c 2.39222,-1.98536 2.60529,-8.38251 0.25329,-7.60445 -3.19179,1.05588 -5.47662,6.95505 -4.29785,11.0966 0.98493,3.46052 1.1701,3.57544 1.6184,1.00444 0.27841,-1.59675 1.37019,-3.62022 2.42616,-4.49659 z m 83.506395,13.42231 c -5.03182,-3.13248 -8.678145,-10.53147 -7.501145,-15.221 0.43842,-1.7468 2.535795,-4.84175 4.660825,-6.87767 3.05613,-2.92795 5.12014,-3.70166 9.87492,-3.70166 7.2837,0 10.83041,2.78897 12.78697,10.05507 1.70465,6.3306 0.98576,8.87451 -3.80491,13.46427 -5.1378,4.92232 -10.53836,5.69144 -16.01666,2.28099 z m 18.41357,-12.62019 c 0,-1.70881 -1.18781,-4.5234 -2.63958,-6.25465 -2.24217,-2.6738 -2.83635,-2.84777 -3.94652,-1.15556 -0.90983,1.38685 -0.7006,2.80478 0.68863,4.66666 1.09756,1.47099 2.34171,3.71778 2.76477,4.99286 1.03597,3.12236 3.1327,1.61689 3.1327,-2.24931 z M 9.7713247,122.75224 c -8.1552,-7.01481 -2.63124,-21.3415 8.2286703,-21.3415 10.85992,0 16.38389,14.32669 8.22868,21.3415 -2.3354,2.00883 -5.38521,3.19182 -8.22868,3.19182 -2.84346,0 -5.89327,-1.18299 -8.2286703,-3.19182 z M 13.190195,110.8872 c 1.80128,-1.80128 1.95724,-6.27647 0.21874,-6.27647 -2.27123,0 -5.4089303,5.84414 -5.4089303,10.07445 0,5.78525 1.80837,6.99464 2.8492103,1.90548 0.47549,-2.32485 1.52893,-4.89141 2.34098,-5.70346 z m 103.462665,10.79729 c -2.90273,-3.4497 -3.44014,-5.14723 -2.82656,-8.92833 2.57689,-15.879516 24.40148,-14.554047 23.98166,1.45647 -0.2995,11.42236 -13.81443,16.19575 -21.1551,7.47186 z M 136,114.82871 c 0,-4.34877 -3.10689,-10.21798 -5.40894,-10.21798 -1.89797,0 -1.42999,4.32679 0.78468,7.25484 1.07668,1.42349 1.9576,4.0089 1.9576,5.74535 0,1.76527 0.58782,2.79389 1.33333,2.33314 C 135.4,119.49084 136,117.18893 136,114.82871 Z M 17.866665,92.077399 c -2.49333,-2.493333 -4.53109,-5.043333 -4.52835,-5.666667 0.0109,-2.496008 5.41306,-9.8 7.24815,-9.8 1.36628,0 0.9688,0.990189 -1.31374,3.272727 -3.45002,3.450025 -4.08449,6.741309 -1.93939,10.060607 1.0174,1.574318 1.29684,1.263568 1.31291,-1.460016 0.0112,-1.90301 1.14334,-4.476246 2.5158,-5.718303 2.39224,-2.164947 2.55757,-2.011311 4,3.717109 0.82754,3.286468 1.50462,6.909704 1.50462,8.051636 0,3.457984 -4.00247,2.340432 -8.8,-2.457093 z m 98.821895,-3.8 c 1.52721,-13.391083 3.57884,-15.52048 9.37205,-9.727274 5.25553,5.255531 4.24595,12.799361 -2.15597,16.109921 -7.3153,3.782888 -8.27828,2.931124 -7.21608,-6.382647 z m 10.76635,-0.343047 c 0.8621,-3.434869 -2.30001,-9.990287 -4.81898,-9.990287 -2.04261,0 -1.52488,3.489001 0.80462,5.422317 1.22897,1.019949 1.86174,3.032981 1.51823,4.829925 -0.79794,4.174165 1.44173,3.939124 2.49613,-0.261955 z M 76.221055,34.072285 c 0.29865,-11.735199 0.9375,-21.73122 1.41966,-22.213382 0.48216,-0.482161 4.13355,0.14776 8.11419,1.399825 l 7.23752,2.276482 0.82553,6.871093 c 1.06416,8.857183 1.07132,19.424715 0.0168,24.697545 -0.85691,4.284558 -1.21797,4.472004 -14.32902,7.438981 l -3.82765,0.86618 z m 21.95266,16.87178 c -1.04906,-3.914569 -1.07058,-18.848671 -0.0311,-21.557618 1.01395,-2.642292 4.173865,-2.67638 10.313085,-0.111253 5.63733,2.355428 7.54426,5.389179 7.54426,12.002204 0,6.825751 -1.94142,9.673191 -7.68235,11.267558 -7.33478,2.037006 -9.250005,1.734749 -10.143925,-1.600891 z M 33.000005,37.837266 c -2.56282,-1.4927 -3.07304,-7.107373 -1.11409,-12.259798 1.10709,-2.911884 11.93007,-8.966737 16.02793,-8.966737 0.89243,0 1.41949,4.208072 1.41949,11.333333 v 11.333334 l -7,-0.04055 c -3.85,-0.02229 -8.05,-0.652113 -9.33333,-1.399586 z m 23.52954,0.419715 c -1.86458,-1.242143 -3.23441,-16.262909 -2.24497,-24.617142 l 0.75354,-6.3624416 h 7.62433 7.62434 l 0.85661,8.1955886 c 0.47113,4.507573 0.85661,11.707573 0.85661,16 v 7.804412 l -7,-0.02042 c -3.85,-0.0112 -7.66171,-0.46123 -8.47046,-1 z"
       id="path179" />
  </g>
</svg>
