<?xml version="1.0" encoding="UTF-8" standalone="no"?>
<!-- Created with Inkscape (http://www.inkscape.org/) -->

<svg
   version="1.1"
   id="svg9"
   width="142.66667"
   height="174.66667"
   viewBox="0 0 142.66667 174.66667"
   sodipodi:docname="monk-symbol.svg"
   inkscape:version="1.1.2 (b8e25be833, 2022-02-05)"
   xmlns:inkscape="http://www.inkscape.org/namespaces/inkscape"
   xmlns:sodipodi="http://sodipodi.sourceforge.net/DTD/sodipodi-0.dtd"
   xmlns="http://www.w3.org/2000/svg"
   xmlns:svg="http://www.w3.org/2000/svg">
  <defs
     id="defs13" />
  <sodipodi:namedview
     id="namedview11"
     pagecolor="#ffffff"
     bordercolor="#666666"
     borderopacity="1.0"
     inkscape:pageshadow="2"
     inkscape:pageopacity="0.0"
     inkscape:pagecheckerboard="0"
     showgrid="false"
     inkscape:zoom="3.3435114"
     inkscape:cx="194.4064"
     inkscape:cy="97.801371"
     inkscape:window-width="3440"
     inkscape:window-height="1377"
     inkscape:window-x="-8"
     inkscape:window-y="-8"
     inkscape:window-maximized="1"
     inkscape:current-layer="g15" />
  <g
     inkscape:groupmode="layer"
     inkscape:label="Image"
     id="g15">
    <path
       style="fill:#ff0000;fill-opacity:1;stroke-width:1.33333"
       d="m 71.528605,165.94406 c -0.49394,-1.83333 -2.36435,-11.35773 -4.15646,-21.16534 -1.79211,-9.8076 -3.52316,-18.09678 -3.84678,-18.4204 -0.32361,-0.32362 -1.29378,3.80079 -2.15592,9.16534 -2.21781,13.79995 -2.73133,15.37123 -4.17847,12.78534 -0.63697,-1.1382 -4.48964,-11.57706 -8.56148,-23.19744 -4.40861,-12.58144 -9.276,-23.84697 -12.03273,-27.849622 -3.40441,-4.943048 -5.68348,-10.895464 -8.61307,-22.495333 -2.19103,-8.675532 -3.98369,-16.963819 -3.98369,-18.418416 0,-1.454597 1.65,-4.977776 3.66666,-7.829288 l 3.66667,-5.184566 20.51457,-0.02847 20.51456,-0.02847 -0.86069,6.279464 c -0.47339,3.453706 -1.38158,6.800347 -2.01822,7.436982 -1.74836,1.748362 -10.69868,3.549328 -17.81689,3.585078 -6.62271,0.03327 -8.48056,1.812024 -3.33333,3.191429 1.65,0.442182 6.88364,0.812161 11.63031,0.822174 8.47484,0.01788 8.72001,0.120294 13.60982,5.684874 5.43495,6.184968 6.38612,4.999778 3.21061,-4.000559 l -1.88259,-5.33583 6.06869,-0.831806 c 3.33778,-0.457494 12.33613,-0.831806 19.996345,-0.831806 h 13.92767 l -0.87887,10.333334 c -1.12828,13.265699 -3.74916,22.61077 -8.58555,30.612801 -2.12322,3.51296 -7.036105,16.09684 -10.917525,27.96418 -3.88142,11.86734 -7.44639,21.33639 -7.92216,21.04235 -0.47577,-0.29404 -1.64131,-5.07274 -2.59008,-10.61933 -0.94878,-5.54659 -2.1703,-10.3599 -2.7145,-10.69623 -0.5442,-0.33633 -2.58627,7.93272 -4.53793,18.3757 -1.95166,10.44296 -3.72227,19.8872 -3.93469,20.9872 -0.22351,1.15749 -0.76452,0.59582 -1.28428,-1.33334 z m 3.06122,-63.66665 c 0.0423,-2.383344 0.52684,-4.307214 1.07684,-4.275276 0.55,0.03193 3.53379,0.548408 6.63064,1.147712 7.08861,1.371794 6.19295,-0.236775 -2.61782,-4.701532 l -6.79847,-3.445043 -7.77384,3.715555 c -4.27561,2.043556 -7.77384,4.059559 -7.77384,4.480005 0,0.420445 2.62304,0.555835 5.82898,0.300855 5.82509,-0.463291 5.82956,-0.460185 6.71226,4.657054 0.48581,2.81636 1.2733,6.92066 1.74999,9.12066 l 0.86669,4 1.01087,-5.33334 c 0.55597,-2.93333 1.04544,-7.28333 1.0877,-9.66665 z m -48.58982,55.75667 c -5.454,-2.31466 -9.29138,-7.9684 -9.14695,-13.47655 0.18729,-7.14277 3.41344,-11.55675 9.68011,-13.24418 6.05397,-1.63017 10.14731,-0.44168 14.31359,4.15591 4.12726,4.55454 4.86347,8.32508 2.65673,13.60655 -2.9697,7.10749 -11.53505,11.49123 -17.50348,8.95827 z m -2.58663,-14.82311 c 2.39222,-1.98536 2.60529,-8.38251 0.25329,-7.60445 -3.19179,1.05588 -5.47662,6.95505 -4.29785,11.0966 0.98493,3.46052 1.1701,3.57544 1.6184,1.00444 0.27841,-1.59675 1.37019,-3.62022 2.42616,-4.49659 z m 83.506395,13.42231 c -5.03182,-3.13248 -8.678145,-10.53147 -7.501145,-15.221 0.43842,-1.7468 2.535795,-4.84175 4.660825,-6.87767 3.05613,-2.92795 5.12014,-3.70166 9.87492,-3.70166 7.2837,0 10.83041,2.78897 12.78697,10.05507 1.70465,6.3306 0.98576,8.87451 -3.80491,13.46427 -5.1378,4.92232 -10.53836,5.69144 -16.01666,2.28099 z m 18.41357,-12.62019 c 0,-1.70881 -1.18781,-4.5234 -2.63958,-6.25465 -2.24217,-2.6738 -2.83635,-2.84777 -3.94652,-1.15556 -0.90983,1.38685 -0.7006,2.80478 0.68863,4.66666 1.09756,1.47099 2.34171,3.71778 2.76477,4.99286 1.03597,3.12236 3.1327,1.61689 3.1327,-2.24931 z M 9.7713247,122.75224 c -8.1552,-7.01481 -2.63124,-21.3415 8.2286703,-21.3415 10.85992,0 16.38389,14.32669 8.22868,21.3415 -2.3354,2.00883 -5.38521,3.19182 -8.22868,3.19182 -2.84346,0 -5.89327,-1.18299 -8.2286703,-3.19182 z M 13.190195,110.8872 c 1.80128,-1.80128 1.95724,-6.27647 0.21874,-6.27647 -2.27123,0 -5.4089303,5.84414 -5.4089303,10.07445 0,5.78525 1.80837,6.99464 2.8492103,1.90548 0.47549,-2.32485 1.52893,-4.89141 2.34098,-5.70346 z m 103.462665,10.79729 c -2.90273,-3.4497 -3.44014,-5.14723 -2.82656,-8.92833 2.57689,-15.879516 24.40148,-14.554047 23.98166,1.45647 -0.2995,11.42236 -13.81443,16.19575 -21.1551,7.47186 z M 136,114.82871 c 0,-4.34877 -3.10689,-10.21798 -5.40894,-10.21798 -1.89797,0 -1.42999,4.32679 0.78468,7.25484 1.07668,1.42349 1.9576,4.0089 1.9576,5.74535 0,1.76527 0.58782,2.79389 1.33333,2.33314 C 135.4,119.49084 136,117.18893 136,114.82871 Z M 17.866665,92.077399 c -2.49333,-2.493333 -4.53109,-5.043333 -4.52835,-5.666667 0.0109,-2.496008 5.41306,-9.8 7.24815,-9.8 1.36628,0 0.9688,0.990189 -1.31374,3.272727 -3.45002,3.450025 -4.08449,6.741309 -1.93939,10.060607 1.0174,1.574318 1.29684,1.263568 1.31291,-1.460016 0.0112,-1.90301 1.14334,-4.476246 2.5158,-5.718303 2.39224,-2.164947 2.55757,-2.011311 4,3.717109 0.82754,3.286468 1.50462,6.909704 1.50462,8.051636 0,3.457984 -4.00247,2.340432 -8.8,-2.457093 z m 98.821895,-3.8 c 1.52721,-13.391083 3.57884,-15.52048 9.37205,-9.727274 5.25553,5.255531 4.24595,12.799361 -2.15597,16.109921 -7.3153,3.782888 -8.27828,2.931124 -7.21608,-6.382647 z m 10.76635,-0.343047 c 0.8621,-3.434869 -2.30001,-9.990287 -4.81898,-9.990287 -2.04261,0 -1.52488,3.489001 0.80462,5.422317 1.22897,1.019949 1.86174,3.032981 1.51823,4.829925 -0.79794,4.174165 1.44173,3.939124 2.49613,-0.261955 z M 76.221055,34.072285 c 0.29865,-11.735199 0.9375,-21.73122 1.41966,-22.213382 0.48216,-0.482161 4.13355,0.14776 8.11419,1.399825 l 7.23752,2.276482 0.82553,6.871093 c 1.06416,8.857183 1.07132,19.424715 0.0168,24.697545 -0.85691,4.284558 -1.21797,4.472004 -14.32902,7.438981 l -3.82765,0.86618 z m 21.95266,16.87178 c -1.04906,-3.914569 -1.07058,-18.848671 -0.0311,-21.557618 1.01395,-2.642292 4.173865,-2.67638 10.313085,-0.111253 5.63733,2.355428 7.54426,5.389179 7.54426,12.002204 0,6.825751 -1.94142,9.673191 -7.68235,11.267558 -7.33478,2.037006 -9.250005,1.734749 -10.143925,-1.600891 z M 33.000005,37.837266 c -2.56282,-1.4927 -3.07304,-7.107373 -1.11409,-12.259798 1.10709,-2.911884 11.93007,-8.966737 16.02793,-8.966737 0.89243,0 1.41949,4.208072 1.41949,11.333333 v 11.333334 l -7,-0.04055 c -3.85,-0.02229 -8.05,-0.652113 -9.33333,-1.399586 z m 23.52954,0.419715 c -1.86458,-1.242143 -3.23441,-16.262909 -2.24497,-24.617142 l 0.75354,-6.3624416 h 7.62433 7.62434 l 0.85661,8.1955886 c 0.47113,4.507573 0.85661,11.707573 0.85661,16 v 7.804412 l -7,-0.02042 c -3.85,-0.0112 -7.66171,-0.46123 -8.47046,-1 z"
       id="path179" />
    <path
       style="fill:#ac0000;stroke-width:0.299087"
       d="m 71.823933,166.1427 c -0.65715,-2.2549 -1.03734,-4.13683 -3.957614,-19.59019 -2.76905,-14.6531 -3.873745,-19.87135 -4.296157,-20.29376 -0.504353,-0.50436 -1.169893,2.42468 -3.150051,13.8634 -1.050758,6.06987 -1.773851,8.9726 -2.23515,8.9726 -0.679941,0 -1.935041,-3.13425 -7.485516,-18.69292 C 44.102034,111.90846 40.159837,102.57291 36.495739,96.765906 34.290037,93.270222 32.713887,89.836096 31.104104,85.018574 29.517451,80.270275 26.651586,69.097255 25.120921,61.692209 c -1.071576,-5.18407 -1.085392,-5.335271 -0.614924,-6.729452 0.706333,-2.093142 2.166817,-4.673924 4.674911,-8.260908 l 2.223202,-3.179541 20.405194,-0.0026 20.405195,-0.0026 -0.134514,0.822489 c -0.07398,0.452368 -0.347949,2.302968 -0.608815,4.112443 -0.651591,4.519724 -1.539514,7.732376 -2.346668,8.490659 -1.636717,1.537616 -7.979967,2.874101 -16.362968,3.447579 -3.251828,0.222456 -6.166655,0.566647 -6.627401,0.782582 -1.985599,0.930576 -0.100867,2.444953 3.725014,2.993038 1.200072,0.171919 5.479381,0.419419 9.509575,0.550001 9.214597,0.29856 8.826161,0.152483 13.448769,5.057624 3.668613,3.892838 5.196818,5.029729 5.712539,4.249771 0.48936,-0.740093 0.036,-2.884482 -1.673714,-7.916686 -0.892642,-2.627316 -1.524971,-4.865437 -1.405175,-4.973603 0.42298,-0.381917 8.371382,-1.18033 14.573975,-1.463949 8.506299,-0.388957 24.674654,-0.389152 24.674654,-2.97e-4 0,0.165028 -0.2725,3.428813 -0.60555,7.252854 -1.31497,15.098085 -3.11595,22.264016 -7.91842,31.506607 -4.03808,7.77147 -6.694578,14.51656 -12.710325,32.27268 -3.184087,9.39816 -5.517191,15.75363 -6.390596,17.40822 l -0.441333,0.83607 -0.347802,-0.89726 c -0.406061,-1.04756 -1.395721,-5.5306 -2.704261,-12.25 -1.001477,-5.14262 -1.734662,-7.68676 -2.263701,-7.85502 -0.925725,-0.29443 -2.617925,6.96786 -6.531502,28.03082 -1.085033,5.83967 -2.087572,10.88675 -2.227864,11.21575 -0.211849,0.49679 -0.336332,0.31938 -0.734483,-1.0468 z m 1.716752,-53.68608 c 0.422724,-2.46746 0.915101,-6.35134 1.094176,-8.63084 0.179073,-2.2795 0.448023,-4.466576 0.597665,-4.860163 0.332304,-0.874024 0.612755,-0.881184 4.538262,-0.115887 4.260997,0.830705 6.974713,1.063822 7.247414,0.622582 0.509913,-0.825057 -1.504478,-2.184715 -8.93056,-6.027863 L 72.865766,90.742018 65.892929,94.19 c -10.713195,5.297545 -10.985199,5.755115 -3.234118,5.440466 6.398752,-0.259751 6.051034,-0.493834 7.057413,4.751054 1.706772,8.89507 2.619818,13.02234 2.831365,12.79872 0.123478,-0.13052 0.570373,-2.25615 0.993096,-4.72362 z"
       id="path59668" />
    <path
       style="fill:#ac0000;stroke-width:0.299087"
       d="m 100.04452,53.305446 c -1.940348,-0.96486 -2.511553,-4.730108 -2.324327,-15.321427 0.13668,-7.731966 0.263719,-8.572303 1.465143,-9.691599 1.850474,-1.723983 9.851594,0.520858 13.452914,3.774428 2.38115,2.151228 3.50581,5.967768 3.15383,10.702559 -0.22739,3.058802 -0.58075,4.256306 -1.77331,6.009602 -1.28922,1.895422 -3.24059,2.935483 -7.54915,4.023622 -3.80456,0.960854 -5.27289,1.075763 -6.4251,0.502815 z"
       id="path59707" />
    <path
       style="fill:#ac0000;stroke-width:0.299087"
       d="m 75.949836,49.274544 c 0.101123,-3.24883 0.317882,-10.415696 0.481687,-15.92637 0.459188,-15.447849 0.909407,-21.149525 1.693788,-21.45052 0.698618,-0.268085 4.815753,0.653309 9.737814,2.179273 2.505077,0.776637 4.658571,1.503328 4.785543,1.614867 0.126972,0.11154 0.522809,2.481139 0.879638,5.265777 0.54099,4.221803 0.650946,6.628241 0.661815,14.48421 0.01994,14.413108 -0.299622,15.223265 -6.707243,17.004207 -2.066855,0.574465 -11.198979,2.73552 -11.55968,2.73552 -0.08647,0 -0.07448,-2.658134 0.02664,-5.906964 z"
       id="path59746" />
    <path
       style="fill:#ac0000;stroke-width:0.299087"
       d="m 59.208384,38.734882 c -2.461238,-0.361635 -2.757131,-0.53358 -3.246299,-1.886439 -1.659985,-4.590908 -2.307084,-17.66913 -1.267842,-25.623759 0.267995,-2.0513098 0.487265,-3.7673201 0.487265,-3.8133562 0,-0.046036 3.349444,-0.083702 7.443209,-0.083702 h 7.44321 l 0.177915,1.2711187 c 0.869478,6.2120315 1.68408,18.7240145 1.684352,25.8710045 l 1.72e-4,4.561074 -5.607876,-0.03731 c -3.084333,-0.02052 -6.28568,-0.136904 -7.114106,-0.258626 z"
       id="path59785" />
    <path
       style="fill:#ac0000;stroke-width:0.299087"
       d="m 36.189498,38.550379 c -2.612782,-0.46602 -3.587401,-1.012582 -4.458595,-2.500363 -1.196464,-2.043261 -0.905062,-8.099187 0.510623,-10.611778 1.634676,-2.901261 11.624567,-8.539836 15.13007,-8.539836 0.804587,0 0.913159,0.125386 1.230151,1.420662 0.206832,0.845145 0.412755,5.328121 0.508321,11.06621 l 0.160642,9.645549 -5.344259,-0.02684 c -3.188052,-0.01601 -6.30962,-0.199022 -7.736953,-0.453604 z"
       id="path59824" />
    <path
       style="fill:#ac0000;stroke-width:0.299087"
       d="m 117.07742,95.98872 c -0.88159,-1.062257 -0.60739,-6.977324 0.61614,-13.29123 1.55155,-8.006638 3.58447,-8.876996 8.4672,-3.625082 3.07652,3.309131 3.90457,7.388081 2.20502,10.861843 -1.08367,2.214944 -2.65946,3.587242 -5.96855,5.197811 -2.89472,1.408889 -4.62964,1.688266 -5.31981,0.856658 z m 9.42949,-5.290659 c 0.97273,-1.375885 1.41368,-3.647375 1.06949,-5.509293 -0.67359,-3.643738 -3.05228,-7.276666 -4.76447,-7.276666 -2.20096,0 -2.07758,2.730223 0.23685,5.241078 1.48978,1.616222 1.94325,3.025473 1.69099,5.255115 -0.29758,2.63032 0.65434,3.863775 1.76714,2.289766 z"
       id="path59863" />
    <path
       style="fill:#ac0000;stroke-width:0.299087"
       d="m 123.08145,125.60461 c -4.85789,-1.36181 -9.27894,-6.40785 -9.27894,-10.59068 0,-9.62262 9.39212,-16.106327 17.54972,-12.11518 6.83371,3.34342 8.44228,13.35112 3.10958,19.34628 -2.67147,3.00335 -7.53231,4.43831 -11.38036,3.35958 z m 12.34219,-6.64821 c 1.55165,-3.87797 0.25981,-10.07122 -2.76371,-13.2496 -1.89269,-1.98963 -3.30491,-1.52345 -3.30491,1.09098 0,1.19608 0.24443,2.01748 1.07244,3.604 0.58984,1.13016 1.34706,2.5882 1.68271,3.24007 0.33566,0.65188 0.74287,2.06506 0.90493,3.14041 0.38802,2.57481 0.69284,3.30108 1.38551,3.30108 0.38242,0 0.72162,-0.37366 1.02303,-1.12694 z"
       id="path59902" />
    <path
       style="fill:#ac0000;stroke-width:0.299087"
       d="m 111.55936,158.36864 c -7.87337,-1.6856 -14.41946,-12.22169 -11.36798,-18.29706 1.7082,-3.40095 5.04048,-6.84423 7.80857,-8.06869 3.3174,-1.46745 9.2228,-1.30034 12.59896,0.35652 2.93383,1.43978 4.51497,3.72423 5.92713,8.56359 1.06915,3.6639 1.08403,6.40657 0.0463,8.52643 -1.53694,3.13949 -5.85846,7.08484 -9.1134,8.32011 -1.77232,0.67261 -4.33878,0.93323 -5.89953,0.5991 z m 12.81527,-10.61705 c 1.33066,-1.33065 1.36784,-4.67549 0.0832,-7.48158 -0.94928,-2.07349 -3.64528,-4.99552 -4.49506,-4.87193 -0.33361,0.0485 -0.92497,0.55929 -1.31413,1.13503 -0.96027,1.42065 -0.74473,2.49496 1.1061,5.51304 0.81838,1.33449 1.77157,3.09624 2.1182,3.91499 0.58055,1.37124 1.2905,2.23635 1.83527,2.23635 0.1213,0 0.42121,-0.20065 0.66645,-0.4459 z"
       id="path59941" />
    <path
       style="fill:#ac0000;stroke-width:0.299087"
       d="m 27.216895,158.24616 c -2.24044,-0.71041 -3.885532,-1.75978 -5.858713,-3.73715 -2.251891,-2.25666 -3.6263,-4.8193 -4.151578,-7.74078 -0.617332,-3.43346 0.484863,-8.26545 2.490373,-10.91773 2.343837,-3.09972 7.314183,-5.15328 11.990044,-4.95385 3.349984,0.14289 5.580865,1.25571 8.42785,4.20404 3.577279,3.70463 4.812207,6.67087 4.255434,10.22138 -0.971698,6.19644 -5.836825,11.4426 -11.947227,12.88293 -2.290537,0.53992 -3.600602,0.55028 -5.206183,0.0412 z m -6.1571,-10.05855 c 0.403542,-1.88165 1.259956,-3.58049 2.527288,-5.0133 1.623503,-1.83548 2.305152,-4.65478 1.605709,-6.6412 -0.445955,-1.26652 -1.183562,-1.4417 -2.543154,-0.604 -2.922175,1.80049 -4.444837,7.40266 -3.177511,11.69069 0.783328,2.65042 1.115547,2.76923 1.587668,0.56781 z"
       id="path59980" />
    <path
       style="fill:#ac0000;stroke-width:0.299087"
       d="m 14.651346,125.228 c -3.398029,-1.17501 -6.1646838,-3.49005 -7.5467153,-6.31482 -1.5877149,-3.24517 -1.1768477,-8.30838 0.9445051,-11.63934 1.1565882,-1.81609 3.2016872,-3.61809 5.2539362,-4.62942 1.747761,-0.86128 2.203863,-0.95492 4.651356,-0.95492 2.53572,0 2.863213,0.074 4.996456,1.12826 2.664771,1.317 4.374137,3.05956 5.652044,5.7618 1.549042,3.27557 1.765587,6.61016 0.620796,9.55971 -2.159378,5.56363 -9.149431,8.96394 -14.572378,7.08873 z m -4.372803,-6.26624 c 0.182439,-0.45237 0.677031,-2.03379 1.099094,-3.51427 0.48144,-1.68876 1.201781,-3.34193 1.933158,-4.43657 2.78315,-4.1655 1.335787,-8.49136 -1.812489,-5.41715 -1.351155,1.31937 -2.7736326,4.11536 -3.2847629,6.45646 -0.4238975,1.94155 -0.2670396,6.06529 0.2685874,7.06107 0.4993876,0.92841 1.3916331,0.85414 1.7964125,-0.14954 z"
       id="path60019" />
    <path
       style="fill:#ac0000;stroke-width:0.299087"
       d="m 23.238544,95.858444 c -0.707614,-0.321145 -2.105795,-1.226666 -3.107069,-2.012267 -2.173221,-1.705114 -6.164247,-6.170867 -6.41783,-7.181222 -0.09907,-0.394749 0.02251,-1.233626 0.270199,-1.864172 1.455811,-3.706133 7.101773,-9.781866 7.101773,-7.642359 0,0.243468 -0.82788,1.353828 -1.839733,2.467466 -3.336521,3.67215 -4.050134,6.546072 -2.406615,9.692127 1.152458,2.206058 1.654136,2.109554 1.898951,-0.365288 0.267373,-2.702874 1.243236,-4.825935 2.880793,-6.26737 1.044054,-0.919012 1.438052,-1.110622 1.750506,-0.851308 0.518837,0.430595 1.446748,3.559993 2.367043,7.98289 0.881553,4.236707 0.91912,5.479787 0.185664,6.143555 -0.697377,0.631118 -1.102122,0.615726 -2.683682,-0.102052 z"
       id="path60058" />
  </g>
</svg>
