<?xml version="1.0" encoding="UTF-8" standalone="no"?>
<!-- Created with Inkscape (http://www.inkscape.org/) -->

<svg
   version="1.1"
   id="svg53225"
   width="184"
   height="164"
   viewBox="0 0 184 164"
   sodipodi:docname="paladin-symbol.svg"
   inkscape:version="1.1.2 (b8e25be833, 2022-02-05)"
   xmlns:inkscape="http://www.inkscape.org/namespaces/inkscape"
   xmlns:sodipodi="http://sodipodi.sourceforge.net/DTD/sodipodi-0.dtd"
   xmlns="http://www.w3.org/2000/svg"
   xmlns:svg="http://www.w3.org/2000/svg">
  <defs
     id="defs53229" />
  <sodipodi:namedview
     id="namedview53227"
     pagecolor="#ffffff"
     bordercolor="#666666"
     borderopacity="1.0"
     inkscape:pageshadow="2"
     inkscape:pageopacity="0.0"
     inkscape:pagecheckerboard="0"
     showgrid="false"
     inkscape:zoom="2.6615854"
     inkscape:cx="19.537228"
     inkscape:cy="93.928979"
     inkscape:window-width="3440"
     inkscape:window-height="1377"
     inkscape:window-x="-8"
     inkscape:window-y="-8"
     inkscape:window-maximized="1"
     inkscape:current-layer="g53231" />
  <g
     inkscape:groupmode="layer"
     inkscape:label="Image"
     id="g53231">
    <path
       style="fill:#ff0000;fill-opacity:1;stroke-width:1.33333"
       d="m 63.915236,146.76289 c -8.06667,-4.95467 -16.56398,-10.41525 -18.88293,-12.13464 -4.19633,-3.11139 -4.20736,-3.15139 -2.33333,-8.46294 1.03561,-2.93523 1.88293,-8.42744 1.88293,-12.20491 0,-6.73242 -0.18441,-7.05112 -9.33334,-16.129931 -5.13333,-5.093998 -9.33333,-9.797852 -9.33333,-10.45301 0,-0.655158 1.5,-0.904452 3.33333,-0.553988 4.86463,0.929933 4.09627,-0.508014 -2.49723,-4.6734 -6.34702,-4.009675 -12.1268,-11.441164 -13.60734,-17.495968 l -0.93971,-3.843035 5.16499,3.509701 c 8.32578,5.65752 8.3535,4.07327 0.0751,-4.292426 -5.39655,-5.45345 -8.0836804,-9.366846 -8.9264604,-13 -2.48241,-10.701534 -1.78926,-10.962208 6.7306404,-2.531207 4.4,4.354088 7.99512,7.335307 7.98915,6.624929 -0.006,-0.710378 -3.90597,-6.54906 -8.66667,-12.974848 C 6.1925056,26.838224 5.9194856,26.218903 6.0481356,18.813884 6.3382056,2.1172398 6.4308356,2.1901572 25.637736,34.23462 c 9.71573,16.209565 18.19336,29.798501 18.83918,30.197636 0.64581,0.399135 1.11828,-1.247227 1.04993,-3.658581 -0.0811,-2.8625 1.29594,-6.448179 3.96741,-10.33041 4.32061,-6.2788 24.88743,-26.612796 26.91751,-26.612796 2.05992,0 2.79979,5.512414 2.81859,21 0.0101,8.375528 0.56736,15 1.26169,15 2.3673,0 2.98108,-5.5601 2.59734,-23.528894 -0.38009,-17.797875 -0.33995,-18.083792 2.88686,-20.563651 4.14512,-3.185596 6.31641,-3.186719 11.14161,-0.0057 l 3.869294,2.55079 -0.28684,18.445248 c -0.15777,10.144886 0.11524,19.493078 0.60669,20.773758 2.10953,5.497325 3.27489,1.40336 3.27489,-11.504851 0,-14.807872 0.94545,-22.166667 2.84795,-22.166667 2.23364,0 22.35755,20.233992 26.41956,26.564083 2.2362,3.484824 4.06583,7.933515 4.06583,9.88598 0,1.952465 0.45,3.528599 1,3.502519 0.55,-0.02608 9.1,-13.328212 19,-29.560292 19.67216,-32.2545551 19.44425,-32.0831319 19.84225,-14.924464 0.14289,6.160714 -0.44468,7.604605 -6.23973,15.333333 -12.67091,16.898896 -13.28359,18.446237 -3.64239,9.198841 l 9.03573,-8.666699 -0.81658,5.333333 c -0.44914,2.933333 -0.8232,6.310293 -0.83127,7.504355 -0.008,1.194062 -4.06468,6.552718 -9.01468,11.908128 l -9,9.737105 6.39356,-3.736787 c 3.51647,-2.055233 6.6492,-3.48115 6.96164,-3.168705 0.63784,0.637828 -3.87647,9.956988 -6.38921,13.189675 -0.89796,1.15524 -4.21355,3.962406 -7.36798,6.238145 l -5.7353,4.137709 3.7353,0.42852 c 3.67096,0.421139 3.56611,0.605303 -6.08593,10.688892 l -9.82125,10.260367 0.72404,9.07296 c 0.39821,4.99013 1.10986,10.5772 1.58142,12.41572 0.78078,3.04398 -0.1937,4.01416 -10.90277,10.85474 -20.44545,13.05982 -25.66896,16.01626 -26.92562,15.23961 -0.67281,-0.41583 -1.59894,-9.60928 -2.05807,-20.42991 -0.45912,-10.82062 -1.18638,-25.52386 -1.616134,-32.67386 l -0.78135,-12.999997 h 8.898154 c 4.89398,0 10.03987,-0.611035 11.43532,-1.357856 2.28911,-1.225095 9.28751,-11.593106 9.28751,-13.759288 0,-0.485571 -5.05092,-0.882856 -11.22428,-0.882856 -12.36402,0 -15.44238,-0.69292 -15.44238,-3.475986 0,-3.608586 -2.597914,-1.782872 -6.193524,4.352592 -3.62745,6.189767 -3.64604,6.200332 -5.72288,3.252284 -5.1769,-7.348561 -7.99913,-10.139068 -8.04147,-7.951065 -0.055,2.844008 -3.90794,3.781709 -15.63011,3.803968 -5.27339,0.01 -9.94791,0.600587 -10.38782,1.312383 -1.1717,1.895852 2.71231,8.709484 6.79564,11.921429 2.8203,2.218449 5.4278,2.784395 12.82863,2.784395 h 9.28884 l -0.76883,9 c -0.42286,4.949997 -1.10832,17.699997 -1.52325,28.333327 -0.81567,20.90268 -1.7081,29.35024 -3.09576,29.30377 -0.48554,-0.0162 -7.4828,-4.08336 -15.54947,-9.03801 z"
       id="path53315" />
    <path
       style="fill:#ac0000;stroke-width:0.265671"
       d="m 75.029622,153.20409 c -11.28163,-6.46377 -29.509652,-18.08178 -32.037374,-20.41968 -1.620722,-1.49902 -1.648043,-1.92735 -0.382619,-5.99836 1.497158,-4.81652 1.967325,-7.92569 1.99784,-13.21158 0.03755,-6.50533 0.142243,-6.32651 -9.409713,-16.073113 -5.982528,-6.10444 -9.029136,-9.518587 -9.029136,-10.118398 0,-0.53795 1.300935,-0.681809 3.352888,-0.370766 4.584764,0.694972 4.015489,-0.551265 -2.116458,-4.633296 -5.620249,-3.741393 -9.807224,-8.320748 -12.407295,-13.570037 -1.235584,-2.494523 -2.643748,-6.863469 -2.317374,-7.189843 0.08098,-0.08098 1.983329,1.072693 4.227443,2.563712 5.24994,3.488133 6.869755,4.220727 6.869755,3.106983 0,-0.552552 -2.05669,-3.004777 -5.967512,-7.115169 C 11.214236,53.242128 9.4098382,50.406337 8.2590177,45.164116 7.3341866,40.951325 7.2056394,39.683063 7.6432503,39.088884 c 0.3425559,-0.465113 0.416786,-0.469563 1.1872223,-0.07115 0.4520009,0.23374 3.1736394,2.642877 6.0480854,5.353638 4.746214,4.475942 7.727109,7.036024 8.192566,7.036024 0.916455,0 -2.114711,-4.801293 -8.88939,-14.080577 C 9.3857211,30.75771 8.4997876,29.420303 7.3518499,27.016401 L 6.3761106,24.9731 6.2871148,19.347151 C 6.1921721,13.345267 6.5078505,9.4795315 7.1762081,8.459489 7.566043,7.8645257 7.6276603,7.8526313 8.359488,8.2310741 c 1.6276841,0.8417082 5.167921,6.1783039 15.688795,23.6494789 15.006082,24.919402 19.989544,32.810402 20.720993,32.810402 0.408469,0 0.793347,-1.467629 0.793347,-3.025223 0,-3.406442 1.733752,-7.958685 4.421796,-11.610135 1.762338,-2.393966 4.595459,-5.550061 9.383382,-10.453078 C 68.4148,30.338046 75.314296,24.04325 76.421744,24.04325 c 0.252978,0 0.649033,0.268992 0.880119,0.597761 1.149969,1.636067 1.450924,4.701248 1.72812,17.600721 0.218977,10.190266 0.504345,15.184264 0.974764,17.058562 0.192338,0.766331 0.96618,0.792069 1.652887,0.05498 1.427478,-1.53222 1.729243,-6.034529 1.521183,-22.695832 -0.183048,-14.658055 -0.06737,-16.937699 0.951446,-18.750441 0.582341,-1.036135 2.716295,-2.785503 4.603942,-3.774207 1.426333,-0.74708 3.577527,-0.742138 5.24967,0.01206 0.69553,0.313709 2.518404,1.38355 4.050836,2.377423 l 2.786239,1.807044 -0.16373,15.674605 c -0.18738,17.938281 0.0155,22.830012 1.02275,24.659507 0.80343,1.4593 1.63438,1.620645 2.03502,0.395135 0.607,-1.856739 0.83929,-5.235446 1.0924,-15.888983 0.24601,-10.35478 0.46355,-13.650731 1.08456,-16.432325 0.36005,-1.612752 0.97062,-2.696007 1.51957,-2.696007 0.9507,0 5.17269,3.732484 12.28722,10.862629 10.80033,10.824027 14.27731,15.097915 16.52591,20.313584 1.05889,2.456137 1.41003,3.785641 1.66921,6.320145 0.0842,0.823843 0.31263,1.71597 0.50753,1.982505 0.31355,0.428815 0.40797,0.440114 0.82002,0.09814 1.06009,-0.879791 8.47631,-12.459278 19.64748,-30.677011 11.74536,-19.154115 14.47532,-23.2503418 16.33368,-24.5081409 0.647,-0.4379126 0.97429,-0.5220649 1.2241,-0.3147419 0.63999,0.5311461 0.9546,3.0346948 1.09955,8.7497708 0.23667,9.3317 0.56914,8.567559 -9.9117,22.780727 -4.15714,5.637552 -6.48489,9.063508 -6.48489,9.544411 0,1.105506 1.64081,-0.246905 9.64171,-7.946983 3.03809,-2.923866 5.59255,-5.247382 5.67657,-5.163366 0.084,0.08402 -0.0983,1.815422 -0.40518,3.847568 -0.30687,2.032146 -0.63793,4.735397 -0.73569,6.007224 -0.15274,1.98717 -0.30567,2.52486 -1.0873,3.822887 -1.44309,2.396477 -5.41252,7.136286 -11.4759,13.703082 -3.08798,3.344374 -5.56233,6.132868 -5.49855,6.196653 0.0638,0.06378 1.97304,-0.971055 4.24279,-2.299638 4.61067,-2.698826 8.60028,-4.694079 8.86225,-4.432114 0.50554,0.505541 -2.91743,7.903333 -5.34989,11.562264 -1.4508,2.182319 -4.62605,4.960388 -10.20437,8.927939 -2.05441,1.461192 -3.74129,2.731616 -3.74863,2.823164 -0.007,0.09155 1.14139,0.311794 2.55271,0.489435 1.41131,0.177644 2.72638,0.384525 2.92238,0.459736 1.11902,0.42941 -0.1175,1.996416 -8.43325,10.687167 -3.27533,3.423031 -6.70671,7.032101 -7.62528,8.020151 l -1.67013,1.79646 0.55485,6.72461 c 0.30518,3.69853 0.80027,8.39833 1.10021,10.444 0.98019,6.685 0.98507,6.53727 -0.26089,7.88898 -1.48051,1.60617 -3.97176,3.34816 -12.9315,9.04232 -14.78743,9.39781 -21.83257,13.48806 -23.23214,13.48806 -0.38325,0 -0.5952,-0.26894 -0.78516,-0.99627 -0.70511,-2.69975 -1.37669,-11.07814 -2.01771,-25.17235 -0.50803,-11.16985 -1.399598,-28.2381 -1.734694,-33.208913 -0.137905,-2.045669 -0.252508,-4.328189 -0.254676,-5.072265 l -0.0039,-1.35287 6.97387,-0.168013 c 7.16847,-0.1727 11.47703,-0.632091 13.0851,-1.39517 2.08782,-0.990736 9.43054,-11.618294 9.43054,-13.649386 0,-0.851093 -1.33174,-0.978966 -13.94774,-1.33924 -11.03508,-0.315129 -12.35782,-0.673267 -12.72557,-3.445499 -0.2223,-1.675772 -0.65225,-2.042529 -1.7369,-1.48163 -1.05517,0.545646 -2.685254,2.635097 -4.821461,6.18017 -2.219678,3.683588 -3.07943,4.853777 -3.56614,4.853777 -0.218632,0 -1.609949,-1.637619 -3.091816,-3.639155 -2.969038,-4.010236 -5.825363,-7.11402 -6.377465,-6.929987 -0.195994,0.06533 -0.537987,0.641346 -0.759985,1.280033 -0.811721,2.335317 -2.896882,2.841814 -13.071909,3.175229 -7.895686,0.258724 -11.408891,0.606323 -12.362853,1.223185 -2.393316,1.547599 3.188419,10.830507 8.099871,13.47078 2.318537,1.246388 4.275689,1.509167 12.622488,1.694767 7.521144,0.167243 7.637999,0.178351 7.634787,0.725846 -0.0019,0.305801 -0.176238,2.528611 -0.387657,4.939578 -0.554142,6.319323 -1.117926,16.164753 -1.734305,30.286533 -0.955707,21.896 -1.792051,30.28652 -3.018881,30.28652 -0.190948,0 -2.190106,-1.0559 -4.442573,-2.34644 z"
       id="path26794" />
    <path
       style="fill:#ac0000;stroke-width:0.00415111"
       d="m 79.413793,155.7889 c -0.407078,-0.10936 -2.495359,-1.25949 -5.79483,-3.19153 l -0.250105,-0.14646 v -0.10129 c 0,-0.0557 6.15e-4,-0.1013 0.0014,-0.1013 7.5e-4,0 0.103023,0.0591 0.227273,0.13129 1.163496,0.67619 2.118158,1.22081 2.907528,1.6587 1.511432,0.83843 2.648589,1.42445 2.918693,1.50413 0.03061,0.009 0.0422,0.0105 0.06803,0.009 0.08431,-0.006 0.157137,-0.0467 0.241317,-0.13474 0.479501,-0.50139 0.89234,-2.46571 1.277832,-6.08004 0.02738,-0.2567 0.06658,-0.63919 0.06658,-0.64966 0,-0.008 0.0028,-0.008 0.09122,-0.008 h 0.09122 l -0.002,0.0114 c -0.0011,0.006 -0.0077,0.0674 -0.0146,0.13595 -0.0069,0.0685 -0.02467,0.23661 -0.03943,0.3736 -0.378207,3.51053 -0.80105,5.56413 -1.295679,6.29267 -0.0492,0.0725 -0.08002,0.11057 -0.128595,0.15905 -0.09661,0.0964 -0.19941,0.14678 -0.29823,0.14619 -0.02335,-1.4e-4 -0.0487,-0.003 -0.06758,-0.008 z"
       id="path26833" />
    <path
       style="fill:#ac0000;stroke-width:0.00415111"
       d="m 73.136396,152.31419 c -1.882895,-1.10853 -3.766124,-2.23441 -5.863448,-3.50545 l -0.211707,-0.1283 0.15217,-0.001 0.152171,-0.001 0.279545,0.16886 c 1.927542,1.16433 3.898341,2.33579 5.46734,3.24983 l 0.256271,0.14929 5.8e-5,0.10067 c 4.2e-5,0.0554 -0.0013,0.10062 -0.0031,0.10057 -0.0017,-5e-5 -0.10492,-0.06 -0.229349,-0.13329 z"
       id="path26872" />
    <path
       style="fill:#ac0000;stroke-width:0.00415111"
       d="m 66.994823,148.64022 c -0.03425,-0.0209 -0.225717,-0.13728 -0.425489,-0.25869 -2.215551,-1.34653 -4.46778,-2.7339 -6.849237,-4.21915 l -0.213683,-0.13327 h 0.153701 0.153701 l 0.269613,0.16858 c 2.292652,1.43348 4.929472,3.0567 7.027625,4.3262 0.130138,0.0787 0.240298,0.14571 0.244802,0.14882 0.007,0.005 -0.01455,0.006 -0.145289,0.006 l -0.153477,-1e-4 -0.06227,-0.0379 z"
       id="path26911" />
    <path
       style="fill:#ac0000;stroke-width:0.00415111"
       d="m 59.252996,143.87073 c -2.078728,-1.29927 -4.205352,-2.6437 -6.09591,-3.85379 -0.610558,-0.3908 -0.98142,-0.62904 -0.985682,-0.63321 -0.0024,-0.002 0.0615,-0.004 0.166748,-0.004 h 0.170691 l 0.167417,0.10859 c 1.951235,1.26565 4.578151,2.93783 6.838256,4.35293 0.162101,0.1015 0.295508,0.18526 0.296459,0.18613 9.51e-4,8.8e-4 -0.06723,0.002 -0.151515,0.002 l -0.153246,-6e-5 -0.253218,-0.15827 z"
       id="path26950" />
    <path
       style="fill:#ac0000;stroke-width:0.00415111"
       d="m 51.96783,139.25369 c -3.241037,-2.08581 -5.756696,-3.7625 -6.845225,-4.56236 -0.05936,-0.0436 -0.172032,-0.12687 -0.250381,-0.18501 l -0.142451,-0.10571 0.179275,-0.001 0.179276,-0.001 0.03582,0.0257 c 1.490137,1.0672 4.107385,2.82657 7.022145,4.72042 0.182649,0.11867 0.338532,0.22013 0.346407,0.22547 l 0.01432,0.01 -0.169947,0.001 -0.169947,0.001 z"
       id="path26989" />
    <path
       style="fill:#ac0000;stroke-width:0.00415111"
       d="m 44.478359,134.21323 c -1.097003,-0.81886 -1.611695,-1.23848 -2.02071,-1.64747 -0.459998,-0.45996 -0.724226,-0.86371 -0.854678,-1.30599 -0.06791,-0.23024 -0.09806,-0.45593 -0.09806,-0.73407 v -0.11224 h 0.104816 0.104815 l -0.0014,0.12349 c -0.0044,0.39583 0.05826,0.69331 0.210563,0.99939 0.17455,0.35079 0.450249,0.67636 1.021674,1.2065 0.125366,0.11631 0.1879,0.17136 0.321659,0.28316 0.36669,0.3065 0.941782,0.74164 1.680651,1.27168 l 0.140588,0.10085 H 44.90745 44.726603 Z"
       id="path27028" />
    <path
       style="fill:#ac0000;stroke-width:0.00415111"
       d="m 41.508062,130.38337 c 0.01404,-0.31338 0.07766,-0.6973 0.187968,-1.1343 0.158027,-0.62602 0.383423,-1.32201 0.919525,-2.83936 0.04275,-0.121 0.109941,-0.31527 0.149307,-0.43171 l 0.07157,-0.21171 0.04026,-0.001 c 0.03698,-10e-4 0.04008,-5.9e-4 0.03815,0.006 -0.03862,0.13602 -0.18161,0.60809 -0.314718,1.03897 -0.34518,1.11737 -0.497276,1.63832 -0.627787,2.15027 -0.15011,0.58884 -0.233979,1.0522 -0.254142,1.40412 l -0.0028,0.0488 h -0.104342 -0.104342 z"
       id="path27067" />
    <path
       style="fill:#ac0000;stroke-width:0.00415111"
       d="m 42.839088,125.7571 c 0.0013,-0.004 0.01649,-0.0523 0.0338,-0.10704 0.365362,-1.15668 0.724361,-2.70711 1.006356,-4.34622 0.01611,-0.0936 0.03022,-0.1744 0.03138,-0.17953 0.0021,-0.009 0.0033,-0.009 0.06221,-0.009 0.03306,0 0.06011,6.8e-4 0.06011,0.002 0,0.006 -0.08514,0.46729 -0.111693,0.60457 -0.237317,1.22697 -0.549175,2.4878 -0.978999,3.95807 l -0.02427,0.083 -0.04061,10e-4 c -0.03739,0.001 -0.04042,6.1e-4 -0.03828,-0.006 z"
       id="path27106" />
    <path
       style="fill:#ac0000;stroke-width:0.00415111"
       d="m 43.912556,121.11297 c 0,-0.001 0.01388,-0.0856 0.03084,-0.18784 0.176047,-1.06065 0.328168,-2.20594 0.436002,-3.28257 0.01682,-0.16797 0.04789,-0.49622 0.04789,-0.50601 0,-0.006 0.0056,-0.007 0.0338,-0.007 h 0.0338 l -0.0029,0.0467 c -0.06456,1.05429 -0.19152,2.24547 -0.346975,3.25551 -0.03102,0.20151 -0.100666,0.62519 -0.110382,0.67144 l -0.0024,0.0114 h -0.05986 c -0.03292,0 -0.05986,-9e-4 -0.05986,-0.002 z"
       id="path27145" />
    <path
       style="fill:#ac0000;stroke-width:0.00415111"
       d="m 44.429186,117.11222 c 0.0013,-0.01 0.007,-0.0718 0.01261,-0.13799 0.06256,-0.73668 0.103028,-1.39795 0.12447,-2.03404 0.01545,-0.45835 0.01669,-0.56192 0.01615,-1.346 l -5.4e-4,-0.78145 h 0.01444 0.01444 l -0.0026,0.41615 c -0.01035,1.63208 -0.03862,2.66192 -0.102093,3.71836 -0.0045,0.0742 -0.0081,0.14238 -0.0082,0.15152 -5e-5,0.009 -0.0015,0.0186 -0.0031,0.0212 -0.0017,0.002 -0.01764,0.006 -0.03547,0.007 l -0.03242,0.003 z"
       id="path27184" />
    <path
       style="fill:#ac0000;stroke-width:0.00415111"
       d="m 44.579391,112.69962 c -0.0013,-0.0622 -0.0044,-0.23734 -0.0069,-0.38916 -0.0274,-1.69876 -0.1524,-2.76293 -0.438356,-3.73186 -0.02488,-0.0843 -0.119282,-0.37511 -0.132393,-0.40784 -0.0027,-0.007 0.0024,-0.007 0.07359,-0.007 h 0.0765 l 0.03174,0.0986 c 0.241277,0.74942 0.361565,1.53292 0.405483,2.64115 0.01498,0.3779 0.02077,0.76412 0.02083,1.38958 l 5.4e-5,0.51993 h -0.01406 -0.01406 z"
       id="path27223" />
    <path
       style="fill:#ac0000;stroke-width:0.00415111"
       d="m 43.995684,108.15415 c -0.0021,-0.005 -0.0189,-0.0499 -0.03728,-0.0995 -0.153932,-0.41511 -0.362683,-0.85258 -0.61364,-1.28597 -0.553581,-0.95602 -1.386749,-2.02439 -2.649278,-3.39717 -0.08792,-0.0956 -0.16242,-0.17732 -0.165552,-0.18161 -0.0055,-0.008 -0.0033,-0.008 0.07057,-0.007 l 0.07626,3e-4 0.105853,0.11657 c 0.951758,1.04807 1.567344,1.78453 2.067213,2.47313 0.56458,0.77774 0.969316,1.4965 1.221345,2.16896 0.02556,0.0682 0.078,0.21512 0.078,0.21854 0,0.002 -0.03366,0.004 -0.07481,0.004 -0.07367,0 -0.07487,-1.4e-4 -0.07868,-0.009 z"
       id="path27262" />
    <path
       style="fill:#ac0000;stroke-width:0.00415111"
       d="m 40.416732,103.06904 c -0.619583,-0.66619 -1.445142,-1.51899 -2.43605,-2.51642 l -0.354852,-0.35719 0.101634,-0.001 0.101635,-10e-4 0.03502,0.0365 c 0.01926,0.0201 0.127606,0.13181 0.240764,0.24828 1.021765,1.0517 1.860096,1.93227 2.430419,2.55287 0.05455,0.0594 0.108632,0.11774 0.12018,0.12972 l 0.02099,0.0218 h -0.07727 -0.07727 z"
       id="path27301" />
    <path
       style="fill:#ac0000;stroke-width:0.00415111"
       d="m 37.590318,100.15776 c -0.05589,-0.0565 -1.642939,-1.636712 -2.376106,-2.365824 -0.789917,-0.78555 -1.722728,-1.725866 -2.187691,-2.205295 l -0.04125,-0.04253 h 0.151656 0.151657 l 0.111579,0.115194 c 0.642515,0.663327 1.233774,1.269305 2.305625,2.363021 0.752748,0.768105 1.185091,1.209987 1.606328,1.641769 0.231643,0.237442 0.442627,0.453655 0.468855,0.480485 l 0.04769,0.0488 h -0.101573 -0.101573 z"
       id="path27340" />
    <path
       style="fill:#ac0000;stroke-width:0.00415111"
       d="m 32.728802,95.28155 c -1.362026,-1.40187 -2.538061,-2.65036 -3.59854,-3.820244 -0.233106,-0.257154 -0.499008,-0.553402 -0.503351,-0.560795 -0.0028,-0.0047 0.01972,-0.0056 0.136987,-0.0054 l 0.140306,2.04e-4 0.02456,0.02782 c 0.04588,0.05196 0.406286,0.446179 0.604173,0.660861 0.950516,1.031189 2.06873,2.212533 3.370847,3.561152 0.183799,0.190363 0.34507,0.358016 0.358379,0.372562 l 0.0242,0.02645 h -0.151234 -0.151234 z"
       id="path27379" />
    <path
       style="fill:#ac0000;stroke-width:0.00415111"
       d="m 28.493448,90.751647 c -0.862519,-0.970397 -1.565636,-1.81202 -2.001016,-2.395193 -0.319164,-0.427507 -0.495302,-0.708662 -0.557389,-0.889716 -0.01433,-0.0418 -0.01518,-0.0472 -0.01512,-0.09617 1.41e-4,-0.111076 0.04088,-0.20371 0.130269,-0.29624 0.369347,-0.38231 1.454065,-0.508992 2.758538,-0.322163 0.141258,0.02023 0.286255,0.04475 0.489831,0.08284 0.953241,0.178326 1.631861,0.261255 2.139899,0.261502 0.515393,2.5e-4 0.825255,-0.09264 0.914915,-0.274282 0.0106,-0.02147 0.022,-0.05211 0.02533,-0.06809 0.0079,-0.03765 0.0078,-0.100698 0,-0.14181 -0.0034,-0.01789 -0.0062,-0.033 -0.0062,-0.03357 -10e-7,-5.71e-4 0.03238,-0.001 0.07196,-0.001 h 0.07196 l 0.0068,0.02453 c 0.08864,0.31882 -0.123182,0.504422 -0.646807,0.566745 -0.22183,0.0264 -0.552636,0.02956 -0.886263,0.0085 -0.423263,-0.02677 -0.832994,-0.07329 -1.459875,-0.165735 -1.036518,-0.152859 -1.804561,-0.197264 -2.404812,-0.139036 -0.604735,0.05866 -0.935312,0.226351 -0.9573,0.485601 -0.0093,0.11017 0.06936,0.282232 0.261951,0.572696 0.329352,0.496718 0.955172,1.262838 1.898912,2.324624 0.170308,0.19161 0.476499,0.532925 0.551976,0.615293 l 0.02177,0.02376 -0.140089,0.0011 -0.140088,0.0011 z"
       id="path27418" />
    <path
       style="fill:#ac0000;stroke-width:0.00415111"
       d="m 32.37058,86.572513 c -0.02694,-0.08635 -0.05807,-0.155328 -0.107096,-0.237332 -0.166208,-0.278009 -0.532048,-0.655106 -1.072016,-1.105001 -0.86925,-0.724251 -2.227292,-1.673868 -4.10465,-2.870197 l -0.15279,-0.09736 0.145781,-0.0011 0.145781,-0.0011 0.301738,0.202102 c 1.646552,1.102852 2.728745,1.880826 3.547909,2.550542 0.741652,0.606346 1.196705,1.075549 1.378541,1.421408 0.02399,0.04563 0.05982,0.128885 0.05982,0.138998 0,0.0066 -0.140949,0.0057 -0.143018,-9.74e-4 z"
       id="path27457" />
    <path
       style="fill:#ac0000;stroke-width:0.00415111"
       d="m 26.764082,82.155487 c -0.690498,-0.43978 -1.262531,-0.834847 -1.890609,-1.305726 -0.863387,-0.647292 -1.739925,-1.376722 -2.542017,-2.115391 -0.06705,-0.06175 -0.125897,-0.115505 -0.13076,-0.11945 -0.0084,-0.0068 -5.48e-4,-0.0072 0.161353,-0.0072 h 0.170196 l 0.09755,0.08752 c 1.359766,1.219964 2.828172,2.365047 4.414709,3.442652 0.09361,0.06358 0.171971,0.11718 0.17414,0.119111 0.0022,0.0019 -0.06228,0.0034 -0.143214,0.0033 l -0.147157,-2.41e-4 -0.164192,-0.104575 z"
       id="path27496" />
    <path
       style="fill:#ac0000;stroke-width:0.00415111"
       d="M 22.135209,78.553848 C 21.767126,78.20921 21.594513,78.041916 21.201529,77.648936 20.522187,76.969602 19.982912,76.391058 19.372694,75.686931 19.187809,75.473593 18.790759,75.003059 18.764471,74.96614 l -0.0082,-0.01156 0.130005,5.5e-5 0.130005,5.6e-5 0.02283,0.02796 c 0.195229,0.239044 0.624977,0.733048 0.937961,1.078206 0.745999,0.822683 1.631367,1.708619 2.441045,2.44261 0.05137,0.04657 0.09799,0.089 0.103591,0.09429 l 0.01019,0.0096 -0.168537,0.0011 -0.168537,0.0011 z"
       id="path27535" />
    <path
       style="fill:#ac0000;stroke-width:0.00415111"
       d="m 18.739712,74.936941 c -0.09493,-0.113921 -0.396914,-0.4908 -0.547981,-0.683895 -1.175991,-1.503161 -2.206332,-3.061858 -3.034864,-4.591132 -0.08642,-0.159509 -0.185876,-0.34694 -0.185876,-0.350291 0,-0.0014 0.06248,-0.0026 0.138837,-0.0026 h 0.138836 l 0.02257,0.04255 c 0.01241,0.0234 0.05713,0.107929 0.09937,0.187838 0.785603,1.486223 1.729279,2.955761 2.784375,4.335962 0.269529,0.352579 0.646465,0.825496 0.854352,1.071901 0.0058,0.0069 -5.19e-4,0.0073 -0.124396,0.0073 h -0.130524 z"
       id="path27574" />
    <path
       style="fill:#ac0000;stroke-width:0.00415111"
       d="m 14.957266,69.287241 c -0.09605,-0.17939 -0.332733,-0.654651 -0.458407,-0.920475 -0.58696,-1.241524 -1.026601,-2.433561 -1.316756,-3.570237 -0.0184,-0.07207 -0.03345,-0.13235 -0.03345,-0.133951 0,-0.0016 0.04234,-0.0024 0.09409,-0.0018 l 0.09409,0.0011 0.04646,0.139063 c 0.245736,0.73545 0.571058,1.612648 0.861997,2.324286 0.331641,0.811192 0.620323,1.441688 0.965212,2.108065 l 0.03921,0.07576 -0.140397,-4.1e-5 -0.140396,-4.2e-5 -0.01165,-0.02176 z"
       id="path27613" />
    <path
       style="fill:#ac0000;stroke-width:0.00415111"
       d="m 23.252463,67.764484 c -0.200195,-0.01924 -0.490314,-0.108478 -0.826847,-0.254329 -0.274339,-0.118897 -0.676818,-0.320869 -1.04323,-0.523516 -0.979772,-0.541871 -2.335011,-1.388847 -4.211304,-2.631916 -0.630154,-0.417485 -0.906023,-0.59896 -1.257788,-0.827408 -1.686567,-1.095314 -2.986477,-1.871441 -3.201344,-1.911399 l -0.02534,-0.0047 -0.01372,0.01587 c -0.02883,0.03335 -0.04095,0.09604 -0.04062,0.209995 2.55e-4,0.08706 0.0048,0.144973 0.02073,0.265671 0.05972,0.451645 0.260269,1.233904 0.550211,2.146126 0.03791,0.119268 0.126472,0.3932 0.131213,0.40585 0.0016,0.0042 -0.01756,0.005 -0.09263,0.0042 l -0.0946,-0.0011 -0.468196,-1.913663 c -0.257507,-1.052515 -0.467796,-1.916104 -0.467309,-1.919086 5e-4,-0.0031 1.107076,0.7463 2.530991,1.713939 1.391557,0.945649 2.64592,1.797761 2.787473,1.893583 2.810025,1.902193 4.683802,2.9805 5.549177,3.193401 0.113647,0.02796 0.178315,0.03674 0.270684,0.03677 0.07278,0 0.08712,-0.0011 0.116231,-0.0091 0.08814,-0.02426 0.138369,-0.07071 0.160195,-0.148156 0.0099,-0.035 0.0077,-0.140082 -0.0039,-0.193027 -0.153403,-0.696459 -1.448295,-2.334864 -3.902487,-4.937749 -0.466197,-0.494443 -1.226056,-1.284352 -1.552355,-1.613746 l -0.08533,-0.08613 h 0.09995 0.09995 l 0.06167,0.06538 c 1.234022,1.30818 2.155405,2.310788 2.953619,3.214 1.51066,1.709372 2.343329,2.80515 2.463575,3.242019 0.02351,0.08541 0.01641,0.218217 -0.0172,0.321712 -0.06172,0.190081 -0.225346,0.272193 -0.491432,0.24662 z"
       id="path27652" />
    <path
       style="fill:#ac0000;stroke-width:0.00415111"
       d="m 18.071951,60.663531 c -0.0049,-0.0062 -0.235264,-0.241073 -0.51202,-0.522002 -0.643709,-0.653415 -0.844731,-0.859548 -1.200475,-1.231 -1.029761,-1.075228 -1.917733,-2.055949 -2.740596,-3.026851 -0.237564,-0.280304 -0.70267,-0.844328 -0.70267,-0.852112 0,-0.0013 0.06118,-0.0022 0.135949,-0.0021 l 0.135949,2.65e-4 0.06434,0.07954 c 0.310535,0.383896 0.936762,1.117898 1.429778,1.675847 0.897054,1.015201 1.765087,1.956058 3.186401,3.453727 0.209087,0.22032 0.387275,0.408521 0.395973,0.418225 l 0.01581,0.01764 h -0.09981 -0.09981 z"
       id="path27691" />
    <path
       style="fill:#ac0000;stroke-width:0.00415111"
       d="m 12.773704,54.855929 c -1.264072,-1.58548 -2.209121,-2.993882 -2.9323598,-4.370085 -0.058464,-0.111248 -0.197905,-0.385543 -0.210498,-0.414073 l -0.010536,-0.02387 h 0.1279863 0.1279863 l 0.04048,0.08406 c 0.069787,0.14492 0.2394662,0.473347 0.3458242,0.669367 0.607315,1.119305 1.37375,2.262184 2.37794,3.545894 0.09058,0.115799 0.43105,0.541933 0.505935,0.63324 l 0.04,0.04877 H 13.049173 12.91188 Z"
       id="path27730" />
    <path
       style="fill:#ac0000;stroke-width:0.00415111"
       d="M 9.5717913,49.949583 C 9.1376664,49.056285 8.7906106,48.115573 8.5703756,47.235196 8.4923743,46.92339 8.1988716,45.630515 8.0323579,44.865236 7.9730119,44.592489 7.8642848,44.079867 7.8642848,44.072814 c 0,-0.0014 0.035492,-0.0025 0.078871,-0.0025 0.043379,0 0.078871,8.7e-4 0.078871,0.0019 0,0.01515 0.2402366,1.119091 0.3071717,1.41152 0.3969264,1.734111 0.8595833,3.116403 1.4835973,4.432582 0.033345,0.07033 0.060628,0.128707 0.060628,0.129722 0,10e-4 -0.057117,0.0018 -0.1269259,0.0018 h -0.126926 z"
       id="path27769" />
    <path
       style="fill:#ac0000;stroke-width:0.00415111"
       d="m 16.79333,46.159556 c -0.610934,-0.566689 -1.131174,-1.053118 -1.832716,-1.713607 -0.194065,-0.182708 -0.441575,-0.415338 -0.550023,-0.516955 -2.56035,-2.399079 -4.8929341,-4.462958 -5.4916888,-4.859068 -0.104472,-0.06911 -0.4386504,-0.234581 -0.5818283,-0.28809 -0.2357125,-0.08809 -0.3600936,-0.07063 -0.5021125,0.0705 -0.048357,0.04805 -0.087992,0.09554 -0.1597163,0.191376 -0.065256,0.08719 -0.089196,0.124994 -0.1246079,0.196768 -0.2608426,0.528691 -0.1903911,1.537952 0.2684705,3.846007 0.054708,0.27518 0.1885076,0.927187 0.2004175,0.976638 0.00165,0.0069 -0.00343,0.0073 -0.077478,0.0062 l -0.079249,-0.0011 -0.01172,-0.05604 C 7.8230206,43.878024 7.7159176,43.343788 7.6858839,43.188186 7.4341554,41.884007 7.3016614,40.93614 7.270725,40.218123 c -0.00537,-0.124689 -0.00538,-0.422926 -2.07e-5,-0.525174 0.027933,-0.532507 0.1444605,-0.869233 0.3563698,-1.029787 0.043185,-0.03272 0.121795,-0.07218 0.1725671,-0.08663 0.065614,-0.01867 0.1194935,-0.0243 0.2099326,-0.02195 0.083926,0.0022 0.1373129,0.0093 0.2220846,0.0298 0.4440664,0.10714 1.0649307,0.484061 1.9074366,1.157988 1.034404,0.827427 2.4145,2.104013 4.588911,4.244735 0.08455,0.08325 0.342405,0.337348 0.572999,0.564673 0.697099,0.687216 1.200959,1.176703 1.685372,1.637296 0.05022,0.04775 0.09969,0.09492 0.10993,0.104816 l 0.01863,0.018 -0.07882,-1.24e-4 -0.07882,-1.25e-4 -0.163969,-0.152093 z"
       id="path27808" />
    <path
       style="fill:#ac0000;stroke-width:0.00415111"
       d="m 21.713459,50.509967 c -1.051007,-0.843293 -2.544388,-2.159114 -4.563824,-4.021196 l -0.189568,-0.174796 0.07686,-0.0011 0.07686,-0.0011 0.02561,0.02396 c 0.01409,0.01318 0.126453,0.11923 0.249701,0.235669 1.84507,1.743123 3.438896,3.134627 4.503874,3.932151 0.08676,0.06497 0.159517,0.119801 0.161686,0.121845 0.0023,0.0022 -0.03632,0.0037 -0.09442,0.0037 h -0.09836 z"
       id="path27847" />
    <path
       style="fill:#ac0000;stroke-width:0.00415111"
       d="m 23.02481,50.551281 c -0.575165,-1.15583 -2.403172,-3.958173 -4.784092,-7.334037 -0.05475,-0.07763 -0.10312,-0.146275 -0.107494,-0.152553 l -0.008,-0.01142 0.08019,1.87e-4 0.08019,1.87e-4 0.201309,0.289353 c 0.397882,0.5719 0.749748,1.081542 1.02805,1.489025 1.922027,2.814189 3.08756,4.70906 3.52849,5.736462 0.01461,0.03404 0.02603,0.06349 0.02538,0.06544 -6.5e-4,0.002 -0.02048,-0.03524 -0.04407,-0.08264 z"
       id="path27886" />
    <path
       style="fill:#ac0000;stroke-width:0.00415111"
       d="M 23.020001,51.397757 C 22.84205,51.347694 22.49913,51.124116 21.973049,50.715162 l -0.108094,-0.08403 0.09792,-0.0011 0.09792,-0.0011 0.102891,0.07349 c 0.281577,0.201106 0.518938,0.3503 0.692349,0.435179 0.130536,0.06389 0.209706,0.08932 0.277619,0.08915 0.04367,-1.05e-4 0.06477,-0.0074 0.08266,-0.02869 l 0.01124,-0.01336 v 0.03484 c 0,0.118018 -0.04883,0.180168 -0.144792,0.184298 -0.02595,0.0011 -0.0432,-5.47e-4 -0.06276,-0.0061 z"
       id="path27925" />
    <path
       style="fill:#ac0000;stroke-width:0.00415111"
       d="m 18.053321,42.952432 c -0.748195,-1.067308 -2.14776,-3.003052 -3.252531,-4.498591 -0.30748,-0.416238 -0.51956,-0.703059 -0.5241,-0.708802 -0.0033,-0.0041 0.01727,-0.0052 0.09986,-0.0052 h 0.103962 l 0.236258,0.324824 c 1.265722,1.740205 2.445106,3.387823 3.398558,4.747837 0.08403,0.119863 0.156391,0.22307 0.160801,0.229349 l 0.008,0.01141 -0.08019,-1.78e-4 -0.08019,-1.79e-4 -0.07044,-0.100485 z"
       id="path27964" />
    <path
       style="fill:#ac0000;stroke-width:0.00415111"
       d="M 14.094404,37.499085 C 12.707907,35.625954 11.738851,34.301077 11.032342,33.312687 10.960534,33.21223 10.895337,33.121165 10.887459,33.11032 l -0.01432,-0.01972 h 0.120233 0.120233 l 0.165253,0.231424 c 0.750918,1.051604 1.317222,1.833198 3.082637,4.25455 0.06354,0.08714 0.115518,0.159462 0.115518,0.160714 0,0.0013 -0.04564,0.0028 -0.101427,0.0035 l -0.101427,0.0012 z"
       id="path28003" />
    <path
       style="fill:#ac0000;stroke-width:0.00415111"
       d="m 10.868842,33.083338 c -0.0035,-0.004 -0.06787,-0.09413 -0.143135,-0.200291 C 10.185919,32.121661 9.8642289,31.656929 9.3953152,30.961081 8.8751329,30.189153 8.3356604,29.326103 7.963006,28.669666 7.8556418,28.480543 7.6567291,28.118028 7.6567291,28.111483 c 0,-0.0012 0.053705,-0.0022 0.1193446,-0.0022 l 0.1193445,2.2e-5 0.039005,0.07366 c 0.6549878,1.236936 1.4788397,2.512976 3.0604978,4.740317 0.06354,0.08948 0.115535,0.163737 0.115535,0.165007 0,0.0013 -0.05295,0.0023 -0.117664,0.0023 -0.106898,0 -0.118238,-6.65e-4 -0.12395,-0.0073 z"
       id="path28042" />
    <path
       style="fill:#ac0000;stroke-width:0.00415111"
       d="M 7.6114437,28.027239 C 7.2068356,27.259956 6.8757909,26.486076 6.6503469,25.780491 6.5782798,25.554939 6.4832447,25.226472 6.4869258,25.215664 c 6.956e-4,-0.002 0.1749241,0.360043 0.3871743,0.804635 0.2122502,0.444592 0.4342243,0.909221 0.4932758,1.032509 0.1245419,0.260019 0.3527517,0.719833 0.4550841,0.916937 0.038985,0.07509 0.070883,0.137201 0.070883,0.138024 0,8.24e-4 -0.053705,0.0015 -0.1193445,0.0015 l -0.1193445,-4.3e-5 -0.04321,-0.08194 z"
       id="path28081" />
    <path
       style="fill:#ac0000;stroke-width:0.00415111"
       d="m 6.3648908,24.717806 c -0.0016,-0.008 -0.014264,-0.06951 -0.028132,-0.136703 -0.2356479,-1.141816 -0.3223813,-2.432266 -0.3034355,-4.51462 0.00471,-0.517222 0.00712,-0.684992 0.02315,-1.608556 0.00561,-0.323061 0.01122,-0.651829 0.012473,-0.730596 0.00125,-0.07877 0.00335,-0.166097 0.00466,-0.194065 l 0.00238,-0.05085 h 0.097133 0.097133 l 3.03e-5,0.310296 c 5.7e-5,0.580681 0.00197,0.721196 0.058302,4.280836 0.022852,1.444069 0.041025,2.633051 0.040384,2.642184 l -0.00117,0.0166 -0.00292,-0.01453 z"
       id="path28120" />
    <path
       style="fill:#ac0000;stroke-width:0.00415111"
       d="m 6.0751548,17.439276 c 0,-0.05274 0.013651,-0.733371 0.024944,-1.243706 0.026859,-1.213772 0.055484,-2.126337 0.091408,-2.914082 0.014707,-0.32249 0.036696,-0.74723 0.039705,-0.766918 l 0.00206,-0.01349 h 0.086985 0.086985 v 0.01018 c 0,0.0056 -0.00464,0.07985 -0.010308,0.165007 -0.07918,1.189271 -0.1265452,2.819436 -0.1266486,4.358867 l -3e-5,0.447282 H 6.172706 6.0751548 Z"
       id="path28159" />
    <path
       style="fill:#ac0000;stroke-width:0.00415111"
       d="M 14.016415,15.573707 C 13.437617,14.671206 12.643124,13.468478 12.103255,12.677501 11.07258,11.167433 10.263076,10.082454 9.6239868,9.3545346 9.1990508,8.8705345 8.8341776,8.5283376 8.5325609,8.3309391 8.4495051,8.2765817 8.3873051,8.2423869 8.2171295,8.1575287 8.0020363,8.0502723 7.9218244,8.0165271 7.8186226,7.9898767 7.7690048,7.9770636 7.7561602,7.9753514 7.7065425,7.9749368 7.6446433,7.9744196 7.6163339,7.97987 7.5708939,8.0010529 7.4944208,8.0367028 7.4153403,8.1139246 7.3177336,8.2482628 7.2678954,8.3168562 7.1626886,8.4757112 7.1332282,8.5268531 6.8427759,9.0310649 6.6171158,10.117862 6.4717954,11.712367 c -0.019464,0.213568 -0.042908,0.501659 -0.054216,0.666254 -0.00361,0.05251 -0.00749,0.101547 -0.00864,0.108967 l -0.00208,0.01349 h -0.086985 -0.086985 v -0.0145 c 0,-0.02776 0.022556,-0.375277 0.039609,-0.61024 C 6.3991781,10.131009 6.6018125,9.034974 6.9125646,8.4143074 6.9570068,8.3255429 6.9761795,8.2918813 7.0236897,8.219205 7.1316346,8.0540818 7.247784,7.9389498 7.3794127,7.8665976 l 0.026864,-0.014766 h 0.341393 0.3413929 L 8.140717,7.87307 c 0.2049995,0.084288 0.4606983,0.2498177 0.7132984,0.4617622 1.0987293,0.9218904 2.6492306,2.9715018 5.0389986,6.6610658 0.191124,0.295077 0.476066,0.738633 0.476066,0.74107 0,0.0011 -0.05557,0.0019 -0.123496,0.0017 l -0.123495,-2.32e-4 -0.105674,-0.164773 z"
       id="path28198" />
    <path
       style="fill:#ac0000;stroke-width:0.00415111"
       d="m 7.4365617,7.8386115 c 0.095012,-0.044297 0.2259908,-0.066202 0.3428251,-0.057334 0.088345,0.00671 0.1905938,0.028642 0.2779248,0.059626 l 0.029058,0.010309 -0.3383158,-4.8e-5 -0.3383157,-4.8e-5 z"
       id="path28237" />
    <path
       style="fill:#ac0000;stroke-width:0.00415111"
       d="M 17.619715,21.306432 C 17.29898,20.781367 16.20833,19.029384 15.606127,18.071873 15.114946,17.29089 14.34767,16.083692 14.129291,15.748287 l -0.0061,-0.0093 h 0.124272 0.124272 l 0.02706,0.04255 c 0.01488,0.0234 0.09023,0.141553 0.167431,0.262558 0.8647,1.35527 1.918136,3.046669 3.116695,5.004168 0.102747,0.167809 0.191218,0.312112 0.196602,0.320673 l 0.0098,0.01557 -0.111094,-1.95e-4 -0.111094,-1.95e-4 -0.04743,-0.07764 z"
       id="path28276" />
    <path
       style="fill:#ac0000;stroke-width:0.00415111"
       d="m 20.706526,26.350232 c -0.0053,-0.0086 -0.06357,-0.104297 -0.129398,-0.212745 -0.410765,-0.676707 -1.292492,-2.121626 -1.811181,-2.968046 -0.245493,-0.400606 -1.076106,-1.751671 -1.091635,-1.775639 l -0.0061,-0.0093 h 0.110097 0.110097 l 0.03518,0.05708 c 0.416183,0.675237 2.98345,4.910703 2.98345,4.922083 0,0.0012 -0.04294,0.0022 -0.09542,0.0022 h -0.09542 z"
       id="path28315" />
    <path
       style="fill:#ac0000;stroke-width:0.00415111"
       d="m 23.644473,31.207035 c -1.015502,-1.684812 -2.867211,-4.745553 -2.923235,-4.831897 l -0.0061,-0.0093 h 0.09734 0.09734 l 0.175679,0.291616 c 0.552709,0.917459 1.466363,2.437381 2.284459,3.800345 l 0.932494,1.553554 h -0.08663 -0.08663 z"
       id="path28354" />
    <path
       style="fill:#ac0000;stroke-width:0.00415111"
       d="m 27.31404,37.292567 c -0.216923,-0.35624 -3.176579,-5.26601 -3.180393,-5.275949 -0.0017,-0.0044 0.01401,-0.0053 0.08366,-0.0044 l 0.08576,0.0011 1.086556,1.811961 c 0.919198,1.532872 2.075011,3.45736 2.096061,3.490048 l 0.006,0.0093 h -0.07904 -0.07904 z"
       id="path28393" />
    <path
       style="fill:#ac0000;stroke-width:0.00415111"
       d="m 30.743612,42.960913 c -0.03739,-0.05866 -2.374157,-3.919899 -3.162219,-5.225214 l -0.246857,-0.408885 0.07683,-0.0011 c 0.05807,-8.56e-4 0.07802,1.57e-4 0.0817,0.0042 0.0027,0.0029 0.167954,0.276143 0.367275,0.607195 0.741736,1.231944 1.780107,2.949886 2.60188,4.304705 0.234037,0.385846 0.429133,0.707609 0.433546,0.715029 l 0.008,0.01349 h -0.07711 c -0.07543,0 -0.07724,-2.03e-4 -0.08306,-0.0093 z"
       id="path28432" />
    <path
       style="fill:#ac0000;stroke-width:0.00415111"
       d="M 31.939673,44.930616 C 31.595877,44.364975 31.18767,43.692962 31.032547,43.437253 l -0.282043,-0.464924 0.07683,-0.0011 c 0.04226,-6.22e-4 0.07717,-6.22e-4 0.07758,0 4.15e-4,6.22e-4 0.162987,0.268256 0.361271,0.594741 0.320262,0.52733 1.248817,2.052638 1.398272,2.296897 0.03118,0.05096 0.05669,0.09346 0.05669,0.09444 0,9.8e-4 -0.03519,0.0018 -0.0782,0.0018 h -0.0782 z"
       id="path28471" />
    <path
       style="fill:#ac0000;stroke-width:0.00587056"
       d="m 36.956235,53.127111 c -0.04683,-0.07486 -0.841525,-1.365248 -1.172302,-1.903529 -1.146521,-1.865765 -3.214778,-5.252577 -3.210262,-5.256868 0.0011,-0.0011 0.0352,-0.0029 0.07568,-0.004 l 0.07361,-0.0021 0.272373,0.446163 c 1.240897,2.032659 2.61976,4.276713 3.798356,6.1817 0.181785,0.293822 0.334398,0.540166 0.339141,0.54743 l 0.0086,0.01321 h -0.08572 -0.08572 z"
       id="path28510" />
    <path
       style="fill:#ac0000;stroke-width:0.00587056"
       d="M 41.920523,60.984858 C 40.79168,59.269818 39.328632,56.958151 37.349575,53.7626 l -0.378116,-0.610539 0.08248,-0.0016 c 0.06115,-0.0012 0.0843,3.06e-4 0.08951,0.0059 0.0039,0.0041 0.137213,0.217526 0.296324,0.474216 1.697651,2.738787 3.414541,5.462964 4.561944,7.238402 0.08868,0.137224 0.163248,0.252801 0.165698,0.256837 0.0035,0.0057 -0.01246,0.0073 -0.07243,0.0073 h -0.07689 z"
       id="path28549" />
    <path
       style="fill:#ac0000;stroke-width:0.00587056"
       d="M 44.741039,64.684195 C 44.504222,64.629347 43.914113,63.914267 42.93933,62.50093 42.706296,62.163054 42.292559,61.549939 42.110382,61.272515 l -0.09156,-0.139426 0.07764,3.41e-4 0.07764,3.4e-4 0.170052,0.262367 c 0.533896,0.823731 1.092581,1.660954 1.434546,2.149753 0.407597,0.582613 0.625049,0.855061 0.720737,0.903014 0.111046,0.05565 0.208567,0.05923 0.304676,0.01118 0.361419,-0.1807 0.624305,-1.069272 0.707274,-2.390636 0.01888,-0.300713 0.02034,-0.382634 0.02065,-1.156501 3.39e-4,-0.848306 1.95e-4,-0.842955 0.03259,-1.209335 0.09587,-1.084187 0.381154,-2.272895 0.844986,-3.520869 l 0.03655,-0.09833 h 0.134107 0.134107 l -0.0087,0.02078 c -0.01394,0.03335 -0.0988,0.268432 -0.157798,0.437121 -0.544038,1.555472 -0.873809,3.062668 -0.962707,4.399986 -0.01543,0.232134 -0.02094,0.390955 -0.02672,0.77086 -0.0031,0.202416 -0.007,0.3852 -0.0087,0.406188 -0.0017,0.02099 -0.0058,0.08571 -0.0092,0.143828 -0.06141,1.056509 -0.305711,2.022595 -0.587864,2.324723 -0.07176,0.07684 -0.147301,0.111207 -0.211667,0.0963 z"
       id="path28588" />
    <path
       style="fill:#ac0000;stroke-width:0.00587056"
       d="m 46.472427,56.015428 c 0.618882,-1.619108 1.549098,-3.367088 2.740631,-5.14995 0.235177,-0.351889 0.383432,-0.565848 0.586783,-0.846829 l 0.02868,-0.03963 h 0.104495 0.104496 l -0.09598,0.131091 c -1.291979,1.764598 -2.42029,3.838112 -3.176663,5.837802 l -0.05163,0.136491 H 46.57965 46.446061 Z"
       id="path28627" />
    <path
       style="fill:#ac0000;stroke-width:0.00587056"
       d="m 49.840982,49.96365 c 0.03593,-0.05484 0.303456,-0.408594 0.518903,-0.686159 1.092877,-1.407981 2.878735,-3.470076 4.927808,-5.690042 l 0.169333,-0.183455 h 0.12938 0.129381 l -0.08733,0.09246 c -0.106637,0.112905 -0.52096,0.557236 -0.721211,0.773446 -2.09161,2.258305 -3.611524,4.033306 -4.736595,5.531537 l -0.133354,0.177584 h -0.103195 -0.103194 z"
       id="path28666" />
    <path
       style="fill:#ac0000;stroke-width:0.00587056"
       d="m 55.462127,43.400575 c 0,-0.0036 0.04507,-0.05242 0.487231,-0.527866 1.287274,-1.384178 2.704029,-2.868179 4.235506,-4.436546 l 0.193599,-0.198262 h 0.160769 0.160769 l -0.09606,0.09952 c -0.05284,0.05474 -0.344388,0.352635 -0.647896,0.661997 -1.618088,1.649296 -3.072803,3.1591 -4.089198,4.244051 l -0.149347,0.159421 -0.127685,5.52e-4 c -0.07023,3.03e-4 -0.127685,-9.87e-4 -0.127685,-0.0029 z"
       id="path28705" />
    <path
       style="fill:#ac0000;stroke-width:0.00587056"
       d="m 60.446653,38.168921 c 0.03702,-0.03794 0.316903,-0.322556 0.621967,-0.632484 1.837591,-1.866892 4.011633,-4.013094 5.782098,-5.708054 l 0.172883,-0.165511 h 0.15864 c 0.154203,0 0.158317,3.01e-4 0.147063,0.01078 -0.159266,0.148254 -1.339252,1.294812 -2.033862,1.976244 -1.173909,1.15164 -2.82969,2.802181 -4.009479,3.996791 l -0.583882,0.591217 h -0.161367 -0.161367 z"
       id="path28744" />
    <path
       style="fill:#ac0000;stroke-width:0.0117411"
       d="m 79.01888,41.47258 c -0.0029,-0.01453 -0.01376,-0.435889 -0.02423,-0.936355 -0.0463,-2.212855 -0.12889,-4.944516 -0.200205,-6.621993 -0.223854,-5.265618 -0.537857,-7.543204 -1.217266,-8.829324 -0.272245,-0.515359 -0.530422,-0.800314 -0.872422,-0.96291 -0.232994,-0.110772 -0.334846,-0.109143 -0.602441,0.0096 -1.051692,0.466817 -4.110004,3.073117 -8.172005,6.964201 -0.273325,0.261824 -0.519868,0.496019 -0.547874,0.520432 l -0.05092,0.04439 -0.147602,-0.0033 -0.147602,-0.0033 0.179192,-0.170246 c 0.914818,-0.869144 1.395681,-1.321769 2.039742,-1.919962 3.457123,-3.210913 5.903334,-5.22523 6.849523,-5.640196 0.164885,-0.07231 0.237459,-0.08743 0.382776,-0.07976 1.467051,0.07752 2.228145,3.196534 2.547585,10.440172 0.07619,1.727753 0.140899,4.230709 0.15844,6.128865 0.0035,0.381 0.0093,0.781225 0.01287,0.889391 l 0.0065,0.196663 h -0.09441 c -0.08854,0 -0.09474,-0.0016 -0.0996,-0.02642 z"
       id="path28783" />
    <path
       style="fill:#ac0000;stroke-width:0.0117411"
       d="m 79.417882,53.683347 c -0.003,-0.01453 -0.0084,-0.09246 -0.01214,-0.173181 -0.0037,-0.08072 -0.01718,-0.352821 -0.02993,-0.604668 -0.09924,-1.960669 -0.19441,-4.681969 -0.275927,-7.890035 -0.02841,-1.118235 -0.0762,-3.239599 -0.07623,-3.384378 l -3.1e-5,-0.132088 h 0.09393 0.09393 l 3.59e-4,0.267111 c 0.0018,1.315278 0.02494,5.15674 0.03448,5.714991 0.03803,2.226518 0.113533,4.385017 0.206176,5.893882 0.0095,0.154893 0.01729,0.293585 0.01729,0.308204 0,0.0366 -0.04444,0.03674 -0.0519,1.64e-4 z"
       id="path28822" />
    <path
       style="fill:#ac0000;stroke-width:0.0117411"
       d="m 38.939433,60.658552 c 0,-2.377479 0.0019,-4.320488 0.0043,-4.317798 0.0023,0.0027 0.193448,0.306052 0.424676,0.674137 2.946923,4.691113 4.640353,7.153537 5.219849,7.5902 0.160437,0.120893 0.233528,0.120172 0.356827,-0.0035 0.183389,-0.183973 0.34071,-0.596393 0.462931,-1.213576 0.105376,-0.532121 0.144396,-0.975207 0.165232,-1.876254 0.01149,-0.496939 0.02735,-0.750864 0.07112,-1.138889 0.356815,-3.16286 1.924027,-6.943229 4.183589,-10.091495 0.563007,-0.784442 1.501897,-1.965176 2.301384,-2.894187 1.138931,-1.323447 2.217164,-2.515454 3.716766,-4.108957 0.248936,-0.264523 0.478238,-0.508885 0.509558,-0.543027 l 0.05695,-0.06208 h 11.311393 11.311394 v 0.03816 c 8e-6,0.02099 0.0079,0.376303 0.01754,0.789591 0.214028,9.177267 0.479528,13.720565 0.91534,15.663467 0.06617,0.295013 0.138557,0.44594 0.272641,0.568485 0.335742,0.306849 0.883426,0.173246 1.377663,-0.336067 0.07435,-0.07661 0.165127,-0.178925 0.201734,-0.227357 0.802144,-1.061253 1.179053,-3.315281 1.336024,-7.989834 0.05882,-1.751538 0.08214,-3.57273 0.08227,-6.425329 l 1.12e-4,-2.081114 h 3.528207 3.528207 V 53.827176 64.981242 H 64.617267 38.939433 Z"
       id="path28861" />
    <path
       style="fill:#ac0000;stroke-width:0.0117411"
       d="m 80.510451,59.867747 c -0.215727,-0.05466 -0.386975,-0.227591 -0.471521,-0.476167 -0.06222,-0.182946 -0.159708,-0.68234 -0.234748,-1.202577 -0.132362,-0.917632 -0.249344,-2.211206 -0.351771,-3.889829 -0.03644,-0.597214 -0.03635,-0.589409 -0.007,-0.589409 0.02662,0 0.02896,0.01595 0.04822,0.328751 0.08195,1.330949 0.218924,2.773553 0.352844,3.716065 0.188897,1.329429 0.401875,2.036695 0.625967,2.078736 0.06064,0.01137 0.276507,-0.01539 0.392185,-0.04863 1.268513,-0.364492 1.924919,-2.748403 2.1916,-7.959369 0.105128,-2.054205 0.158982,-5.020452 0.142449,-7.846006 -0.0071,-1.207219 -0.0062,-1.306199 0.01166,-1.306199 0.01787,0 0.01884,0.204577 0.013,2.762099 -0.0059,2.582755 -0.01193,3.214457 -0.04336,4.540879 -0.124699,5.261642 -0.470371,7.776131 -1.236489,8.994499 -0.160802,0.255724 -0.395088,0.510363 -0.613805,0.667126 -0.117248,0.08404 -0.326697,0.189578 -0.43339,0.218384 -0.101187,0.02732 -0.300308,0.03333 -0.385883,0.01165 z"
       id="path28900" />
    <path
       style="fill:#ac0000;stroke-width:0.0117411"
       d="m 83.186857,41.998973 c -0.02637,-2.342354 -0.04586,-3.478752 -0.124353,-7.251121 -0.05436,-2.612168 -0.07936,-3.950227 -0.106102,-5.676833 -0.0064,-0.413287 -0.0149,-1.480555 -0.0189,-2.371707 -0.0098,-2.194435 0.01335,-3.475226 0.0845,-4.667096 0.0205,-0.343526 0.06232,-0.899281 0.07045,-0.936354 0.0055,-0.02489 0.01162,-0.02642 0.106214,-0.02642 h 0.100421 l -0.0069,0.06164 c -0.02036,0.182754 -0.05976,0.729154 -0.08233,1.141824 -0.05992,1.095713 -0.0832,2.024959 -0.101197,4.038946 -0.01787,2.000458 -0.0027,4.526957 0.05951,9.880155 0.02898,2.495659 0.04391,3.983305 0.05416,5.396024 0.0071,0.974339 0.006,1.092903 -0.01,1.092903 -0.01572,0 -0.01881,-0.08245 -0.02555,-0.681964 z"
       id="path28939" />
    <path
       style="fill:#ac0000;stroke-width:0.0117411"
       d="m 83.097794,21.045171 c 0,-0.04408 0.04709,-0.459154 0.07716,-0.680194 0.197272,-1.449862 0.527046,-2.364162 1.120118,-3.105527 0.339431,-0.424303 0.737518,-0.784583 1.608848,-1.456052 1.063692,-0.819708 1.85534,-1.338243 2.649573,-1.735491 0.764973,-0.382612 1.441848,-0.594647 2.18777,-0.685331 0.241688,-0.02938 0.871988,-0.02914 1.121277,4.27e-4 0.735879,0.08729 1.439608,0.291263 2.266037,0.656813 0.887921,0.392751 1.785914,0.908668 3.187714,1.831417 l 0.487257,0.320741 0.0034,0.09065 0.0034,0.09065 -0.150196,-0.09596 c -1.258566,-0.804073 -2.720282,-1.661871 -3.455971,-2.028113 -0.964351,-0.480075 -2.042107,-0.705847 -3.192936,-0.668864 -0.823761,0.02647 -1.59001,0.205602 -2.212083,0.517133 -1.227211,0.61458 -2.83581,1.780611 -3.828477,2.775163 -0.428756,0.42957 -0.682341,0.745592 -0.875266,1.090774 -0.355644,0.636317 -0.5721,1.3599 -0.714903,2.389819 -0.01889,0.136224 -0.08319,0.685124 -0.08319,0.710135 0,0.0033 -0.04491,0.0061 -0.0998,0.0061 -0.09306,0 -0.0998,-0.0016 -0.0998,-0.02427 z"
       id="path28978" />
    <path
       style="fill:#ac0000;stroke-width:0.0117411"
       d="m 100.71566,28.82152 c 0.01,-0.640762 0.1114,-10.491571 0.10805,-10.494551 -0.004,-0.0033 -2.863123,-1.85729 -2.946778,-1.910633 l -0.06751,-0.04305 v -0.08792 -0.08791 l 0.184922,0.121028 c 0.101708,0.06657 0.589111,0.387661 1.083119,0.713546 0.494008,0.325886 1.121977,0.739898 1.395487,0.920027 0.27352,0.18013 0.49974,0.333878 0.50273,0.341662 0.003,0.0078 -0.032,2.42001 -0.0777,5.360502 -0.0457,2.940492 -0.0831,5.411072 -0.083,5.490178 l 1.5e-4,0.143829 h -0.0534 -0.0534 z"
       id="path29017" />
    <path
       style="fill:#ac0000;stroke-width:0.0117411"
       d="m 100.60391,41.754367 c 2e-4,-1.402279 0.0318,-5.236425 0.0823,-9.994631 0.0128,-1.201117 0.0232,-2.248571 0.0232,-2.327677 l 4e-5,-0.143829 h 0.0501 0.0501 l -0.004,0.202534 c -0.0122,0.687688 -0.12199,7.962825 -0.13166,8.72659 -0.006,0.510151 -0.0153,1.66856 -0.0197,2.574241 -0.008,1.58648 -0.009,1.646692 -0.0294,1.646692 -0.0207,0 -0.0215,-0.02836 -0.0214,-0.68392 z"
       id="path29056" />
    <path
       style="fill:#ac0000;stroke-width:0.0117411"
       d="m 100.85709,54.610896 c -0.0108,-0.06789 -0.056,-0.742107 -0.0825,-1.229883 -0.11796,-2.177516 -0.17042,-4.940879 -0.17068,-8.990396 -1.2e-4,-1.700714 0.002,-1.962469 0.0167,-1.95687 0.0124,0.0048 0.0181,-0.0054 0.0215,-0.03853 0.003,-0.02475 0.006,0.353913 0.007,0.841463 0.009,3.865309 0.0948,7.758821 0.22513,10.255871 0.0244,0.46762 0.0584,1.047212 0.0646,1.10073 l 0.006,0.05577 h -0.041 c -0.0371,0 -0.0415,-0.0036 -0.047,-0.03816 z"
       id="path29095" />
    <path
       style="fill:#ac0000;stroke-width:0.0117411"
       d="m 102.25724,59.476819 c -0.21844,-0.227583 -0.4574,-0.580831 -0.64083,-0.947324 -0.20271,-0.405024 -0.37708,-1.008971 -0.50692,-1.755795 -0.0912,-0.524672 -0.19457,-1.384965 -0.24221,-2.01604 l -0.008,-0.108606 h 0.0412 0.0412 l 0.008,0.114476 c 0.0939,1.326622 0.19431,2.175131 0.3075,2.597724 0.0305,0.113744 0.2037,0.556515 0.33327,0.851817 0.24154,0.550464 0.54929,1.095689 0.74211,1.314738 0.0885,0.100525 0.0361,0.06504 -0.0753,-0.05099 z"
       id="path29134" />
    <path
       style="fill:#ac0000;stroke-width:0.0117411"
       d="m 103.09557,59.839052 c 0.0684,-0.03779 0.18811,-0.15625 0.25349,-0.250818 0.65036,-0.94078 1.05447,-4.112572 1.18802,-9.324489 0.0297,-1.160372 0.0365,-1.698758 0.0417,-3.34622 0.003,-0.962185 0.009,-1.888119 0.0126,-2.057631 l 0.007,-0.308205 h 0.0859 0.0859 l -0.005,0.149699 c -0.003,0.08234 -0.0159,0.553888 -0.0287,1.047896 -0.19637,7.591465 -0.42376,10.944847 -0.86324,12.730483 -0.17237,0.70036 -0.32716,1.052576 -0.54798,1.246863 -0.064,0.05633 -0.17675,0.117825 -0.2378,0.129726 -0.034,0.0066 -0.0338,0.0061 0.009,-0.0173 z"
       id="path29173" />
    <path
       style="fill:#ac0000;stroke-width:0.0117411"
       d="m 104.59974,43.403994 c 0.0282,-4.131397 0.16206,-7.956948 0.37791,-10.798897 0.0336,-0.442766 0.0842,-1.050679 0.0949,-1.141824 l 0.007,-0.06164 h 0.0867 c 0.0477,0 0.0867,0.004 0.0867,0.0088 -2e-5,0.0048 -0.0104,0.15146 -0.0231,0.325816 -0.13215,1.818204 -0.24989,4.67117 -0.35855,8.688431 -0.027,0.999357 -0.0997,3.945363 -0.0997,4.041881 v 0.08512 h -0.09 -0.09 z"
       id="path29212" />
    <path
       style="fill:#ac0000;stroke-width:0.0117411"
       d="m 117.75659,32.966071 c -0.39124,-0.385807 -0.92223,-0.907523 -1.17999,-1.15937 -5.24952,-5.129133 -8.36131,-7.766753 -9.16302,-7.766753 -0.41881,0 -0.88468,0.630998 -1.24429,1.685346 -0.38519,1.129332 -0.71559,3.112543 -0.88601,5.318234 -0.01,0.129152 -0.0212,0.262561 -0.0249,0.296463 l -0.007,0.06164 h -0.0881 -0.088 l 0.007,-0.06164 c 0.004,-0.0339 0.02,-0.199012 0.0362,-0.36691 0.28446,-2.962151 0.71301,-5.07611 1.2506,-6.168951 0.15795,-0.32108 0.28448,-0.509802 0.4576,-0.682538 0.24536,-0.244812 0.50711,-0.329936 0.77673,-0.252598 1.13322,0.325061 4.83192,3.492613 10.11599,8.663284 l 0.75437,0.738178 v 0.198606 c 0,0.109234 -0.001,0.198577 -0.003,0.198541 -0.002,-3.6e-5 -0.32304,-0.315726 -0.71427,-0.701532 z"
       id="path29251" />
    <path
       style="fill:#ac0000;stroke-width:0.0117411"
       d="m 128.53151,44.092883 c -1.89033,-2.119907 -4.80963,-5.158666 -8.78681,-9.146377 l -1.27149,-1.274856 0.003,-0.197884 0.003,-0.197884 0.94516,0.944952 c 3.46718,3.466418 6.73938,6.92442 9.47302,10.01091 l 0.0754,0.08512 -0.12179,-8.82e-4 -0.12178,-8.81e-4 -0.19816,-0.222221 z"
       id="path29290" />
    <path
       style="fill:#ac0000;stroke-width:0.0117411"
       d="m 136.75833,56.507087 c -0.0844,-0.234386 -0.47604,-1.175415 -0.6754,-1.622695 -1.27872,-2.86883 -2.91771,-5.368073 -5.64428,-8.606758 -0.49831,-0.59191 -1.45899,-1.696948 -1.66634,-1.916738 l -0.0415,-0.04403 0.12273,5.28e-4 0.12273,5.28e-4 0.21795,0.248971 c 2.28124,2.605911 3.82356,4.54154 4.6595,5.847729 0.99331,1.552073 1.94865,3.363082 2.69795,5.114413 0.14047,0.328315 0.40269,0.974218 0.40269,0.991893 0,0.0037 -0.0424,0.0067 -0.0943,0.0067 -0.0792,0 -0.0955,-0.0033 -0.1017,-0.02055 z"
       id="path29329" />
    <path
       style="fill:#ac0000;stroke-width:0.0117411"
       d="m 138.68076,63.816757 c -0.0707,-0.04302 -0.19241,-0.176915 -0.2806,-0.308772 -0.15918,-0.237987 -0.3299,-0.824768 -0.44074,-1.514858 -0.0166,-0.103322 -0.0516,-0.380706 -0.0778,-0.616409 -0.0995,-0.89617 -0.17149,-1.400481 -0.28671,-2.008881 -0.16701,-0.881845 -0.43376,-1.804681 -0.79809,-2.76095 l -0.0302,-0.07925 0.0968,9.4e-5 0.0968,9.4e-5 0.0991,0.267014 c 0.37142,1.001042 0.64476,1.941361 0.76364,2.62698 0.0558,0.322118 0.0711,0.488602 0.0826,0.898196 0.0233,0.83627 0.0599,1.268453 0.15265,1.80331 0.1778,1.025059 0.49471,1.65957 0.8292,1.660206 0.0541,1.17e-4 0.0668,-0.0052 0.12329,-0.05186 0.68892,-0.568428 4.8828,-6.927531 10.81224,-16.3944 l 0.56808,-0.907001 h 0.0622 c 0.0342,0 0.0622,0.0028 0.0622,0.0062 0,0.01092 -1.69915,2.719787 -2.73581,4.361544 -4.71376,7.465231 -7.64646,11.875195 -8.44723,12.702277 -0.12596,0.1301 -0.30505,0.272866 -0.39986,0.318764 -0.0325,0.01573 -0.0866,0.03001 -0.12283,0.03242 -0.0567,0.0038 -0.0727,-5.16e-4 -0.12883,-0.03467 z"
       id="path29368" />
    <path
       style="fill:#ac0000;stroke-width:0.0117411"
       d="m 150.39791,46.424768 c 0,-0.003 0.19202,-0.313432 0.42671,-0.689791 2.44953,-3.928163 4.80258,-7.746064 7.33417,-11.899974 l 0.90994,-1.493051 0.0793,-5.15e-4 c 0.0436,-2.83e-4 0.0793,0.0015 0.0793,0.004 0,0.0062 -2.3006,3.750251 -3.39886,5.531382 -1.49228,2.420143 -3.30092,5.338614 -4.4967,7.256014 -0.26983,0.43266 -0.56208,0.901571 -0.64946,1.042024 l -0.15885,0.25537 h -0.0627 c -0.0345,0 -0.0627,-0.0025 -0.0627,-0.0055 z"
       id="path29407" />
    <path
       style="fill:#ac0000;stroke-width:0.0117411"
       d="m 159.07823,32.332116 c 0.0214,-0.03758 2.48022,-4.066554 3.10438,-5.086841 1.92687,-3.149796 3.21468,-5.238885 4.39151,-7.123926 l 0.5809,-0.930484 h 0.11163 0.11162 l -0.0212,0.03229 c -0.11242,0.170953 -1.6564,2.638151 -2.43758,3.895117 -1.32828,2.137283 -3.45502,5.584898 -5.20568,8.438819 l -0.48068,0.783607 -0.0799,1.18e-4 c -0.044,1.17e-4 -0.0777,-0.0038 -0.0749,-0.0087 z"
       id="path29446" />
    <path
       style="fill:#ac0000;stroke-width:0.0117411"
       d="m 175.04252,29.282853 c 0,-0.003 0.0377,-0.06504 0.0837,-0.137959 0.0461,-0.07292 0.16952,-0.275235 0.27437,-0.449591 1.41934,-2.360322 1.98472,-4.002829 2.14805,-6.240406 0.0383,-0.52461 0.0437,-0.6997 0.0498,-1.611395 0.007,-1.069546 -0.01,-1.97872 -0.0846,-4.582047 -0.14007,-4.859616 -0.41713,-7.2244617 -0.934,-7.9721428 -0.27611,-0.3994177 -0.60258,-0.373966 -1.32017,0.1029227 -0.31696,0.2106431 -0.52431,0.3852115 -0.88124,0.7418932 -0.28388,0.2836953 -0.49867,0.521262 -0.78595,0.8693079 -1.22854,1.488395 -2.99487,4.094167 -6.06058,8.940865 l -0.15225,0.240693 -0.10774,0.0034 c -0.0593,0.0019 -0.10774,-1.04e-4 -0.10774,-0.0044 0,-0.0085 0.10261,-0.17227 0.68706,-1.096814 3.93225,-6.220437 6.04236,-9.0693604 7.37909,-9.9627655 0.26597,-0.1777573 0.49232,-0.2738436 0.70983,-0.3013149 0.18172,-0.022952 0.35836,0.023598 0.5156,0.1358751 0.45419,0.3243149 0.75558,1.2698119 0.93987,2.9485093 0.14112,1.285502 0.223,2.935117 0.30012,6.046678 0.0128,0.516609 0.0324,1.293284 0.0436,1.725945 0.0253,0.981945 0.0288,2.860528 0.006,3.299255 -0.0426,0.822819 -0.10065,1.393219 -0.20271,1.99012 -0.28705,1.678805 -0.8889,3.14504 -2.08079,5.06923 l -0.15455,0.249499 h -0.13242 c -0.0728,0 -0.13242,-0.0024 -0.13242,-0.0054 z"
       id="path29485" />
    <path
       style="fill:#ac0000;stroke-width:0.0117411"
       d="m 167.6717,39.582259 c 0.0446,-0.0589 1.91289,-2.592754 2.49978,-3.390249 2.5317,-3.440174 3.85823,-5.318747 4.77756,-6.765762 l 0.0876,-0.137898 0.13209,-6e-5 c 0.0726,-3.3e-5 0.13209,0.0024 0.13209,0.0053 0,0.0057 -0.17729,0.281602 -0.37001,0.575776 -0.30453,0.464843 -0.85708,1.262652 -1.36206,1.966638 -0.59818,0.833916 -1.09486,1.50571 -2.64758,3.581042 -1.19484,1.596998 -2.20818,2.956876 -2.7885,3.742103 l -0.3403,0.46046 -0.0748,3.79e-4 -0.0748,3.8e-4 z"
       id="path29524" />
    <path
       style="fill:#ac0000;stroke-width:0.0117411"
       d="m 173.5373,50.812643 c 0.4149,-0.584189 0.86043,-1.308875 1.1062,-1.799327 0.23496,-0.468883 0.35898,-0.825271 0.45757,-1.314894 0.0887,-0.440464 0.13131,-0.795146 0.21162,-1.76128 0.12321,-1.482224 0.38316,-3.605586 0.73379,-5.993843 0.19629,-1.336939 0.30863,-2.215111 0.38076,-2.976375 0.0483,-0.509527 0.0586,-0.850935 0.0266,-0.882912 -0.007,-0.0074 -0.0254,-0.0042 -0.0509,0.009 -0.27237,0.140502 -1.93348,1.634727 -4.14253,3.726342 -0.50387,0.477087 -0.49035,0.46416 -1.99649,1.909226 -1.3197,1.266186 -1.94653,1.865319 -2.65937,2.541857 -3.77814,3.58577 -5.41974,4.995014 -6.08301,5.221997 -0.19569,0.06697 -0.30581,0.0366 -0.35626,-0.09823 -0.0351,-0.09381 -0.0354,-0.223862 -6.7e-4,-0.328607 0.036,-0.108642 0.21367,-0.455422 0.36366,-0.709753 0.81394,-1.38013 2.70338,-4.088676 5.70464,-8.177692 0.22276,-0.303508 0.40615,-0.553422 0.40752,-0.555364 0.001,-0.0019 0.035,-0.0019 0.0747,0 l 0.0722,0.0035 -0.17421,0.234823 c -0.98847,1.33238 -2.35958,3.215513 -3.22715,4.432273 -2.71735,3.811088 -3.60646,5.382122 -2.91041,5.142644 0.55549,-0.191116 2.19029,-1.592275 5.25992,-4.508194 0.56858,-0.540106 1.36439,-1.302604 5.91092,-5.663511 2.33391,-2.238626 4.24551,-4.068196 4.24799,-4.065713 0.002,0.0025 -0.0326,0.246829 -0.0779,0.542988 -0.0453,0.296158 -0.24091,1.574037 -0.43466,2.83973 -0.43428,2.836988 -0.49819,3.276009 -0.65785,4.518507 -0.25272,1.966715 -0.41962,3.655964 -0.45841,4.639569 -0.0145,0.366416 -0.0223,0.426615 -0.0764,0.589211 -0.16574,0.497611 -0.60179,1.260044 -1.33673,2.337264 l -0.15421,0.226016 h -0.10862 -0.10861 z"
       id="path29563" />
    <path
       style="fill:#ac0000;stroke-width:0.0117411"
       d="m 163.9589,62.157162 c 0,-0.0034 0.21546,-0.242494 0.4788,-0.531286 4.10637,-4.503277 7.24909,-8.220579 8.88375,-10.507964 l 0.16152,-0.226017 h 0.10601 0.10602 l -0.0211,0.03229 c -0.0401,0.06153 -0.43302,0.608647 -0.59651,0.830685 -1.40307,1.905442 -3.26181,4.169097 -5.32662,6.48697 -0.703,0.789161 -0.97211,1.083687 -2.54514,2.785581 l -1.04995,1.135954 h -0.0984 c -0.0541,0 -0.0984,-0.0028 -0.0984,-0.0062 z"
       id="path29602" />
    <path
       style="fill:#ac0000;stroke-width:0.0117411"
       d="m 157.33691,69.531968 c 0,-0.01443 0.19305,-0.252871 0.43209,-0.533699 0.8556,-1.005167 2.55242,-2.892081 4.6576,-5.179398 0.40713,-0.442347 0.9162,-0.995794 1.13127,-1.229882 l 0.39105,-0.425616 h 0.10036 c 0.0933,0 0.0992,0.0014 0.0842,0.02017 -0.0128,0.01599 -6.69227,7.248228 -6.77469,7.33532 -0.0121,0.01274 -0.0219,0.01864 -0.0219,0.01311 z"
       id="path29641" />
    <path
       style="fill:#ac0000;stroke-width:0.0117411"
       d="m 163.72056,76.102659 c 0.52951,-0.573525 0.95271,-1.10812 1.33581,-1.687425 0.85669,-1.295443 1.86357,-3.09156 2.89935,-5.171964 1.42995,-2.872139 2.40238,-5.283426 2.44542,-6.063841 0.007,-0.135836 -0.007,-0.205679 -0.0511,-0.250016 -0.028,-0.02804 -0.0345,-0.02928 -0.11953,-0.02272 -0.50142,0.03872 -2.41445,0.934481 -5.03876,2.359363 -1.18986,0.646041 -2.12085,1.171534 -3.68831,2.081844 -1.83898,1.068004 -2.97463,1.701926 -3.70859,2.070154 -0.36081,0.181016 -0.49426,0.240734 -0.52229,0.233729 -0.008,-0.0019 1.25654,-0.74578 2.80918,-1.653075 1.55264,-0.907296 3.04301,-1.778217 3.31193,-1.935381 1.42008,-0.829933 2.50197,-1.423081 3.65318,-2.002865 1.60913,-0.810408 2.85511,-1.314895 3.34035,-1.352483 0.17666,-0.01368 0.23973,0.02667 0.26369,0.168704 0.12884,0.763863 -1.48743,4.570227 -3.58124,8.433903 -1.17315,2.164798 -2.34515,4.027468 -3.03759,4.827655 l -0.0991,0.114476 h -0.17548 -0.17548 z"
       id="path29680" />
    <path
       style="fill:#ac0000;stroke-width:0.0117411"
       d="m 151.08765,86.2723 c -0.0177,-0.0093 -0.0322,-0.02132 -0.0322,-0.02672 0,-0.0054 0.0304,-0.03913 0.0675,-0.07494 0.29706,-0.286515 1.6426,-1.291005 3.70726,-2.767591 0.44558,-0.318663 1.01355,-0.727455 1.26217,-0.908428 3.31079,-2.409962 5.64877,-4.339048 7.21586,-5.953853 l 0.27953,-0.288045 h 0.16896 0.16895 l -0.0382,0.0483 c -0.0629,0.0794 -0.63254,0.644839 -0.90355,0.89686 -1.48122,1.377453 -3.68534,3.171323 -5.75848,4.686678 -0.29204,0.213463 -6.0693,4.38256 -6.09369,4.397443 -0.006,0.004 -0.0263,-4.1e-4 -0.044,-0.0097 z"
       id="path29719" />
    <path
       style="fill:#ac0000;stroke-width:0.0117411"
       d="m 149.97679,95.910294 c 0.0946,-0.0977 0.85594,-0.902945 1.40154,-1.482444 3.96739,-4.213891 5.35325,-5.902339 5.49023,-6.688932 0.0257,-0.147602 -0.008,-0.29247 -0.0902,-0.389942 -0.0423,-0.05003 -0.15236,-0.122003 -0.23233,-0.15192 -0.2228,-0.08336 -1.24005,-0.246124 -2.87231,-0.459576 -0.65819,-0.08607 -1.00601,-0.136332 -1.42655,-0.206137 -0.43327,-0.07192 -0.995,-0.187615 -0.93077,-0.191708 0.0251,-0.0016 3.71865,0.421818 4.04217,0.463381 0.90808,0.116661 1.34742,0.24907 1.56329,0.471148 0.47446,0.488101 -0.14153,1.520702 -2.40796,4.036545 -0.85237,0.946181 -1.96279,2.13244 -3.76422,4.021335 -0.25558,0.267991 -0.498,0.52292 -0.53871,0.566509 l -0.074,0.07925 h -0.11276 -0.11276 z"
       id="path29758" />
    <path
       style="fill:#ac0000;stroke-width:0.0117411"
       d="m 141.04726,105.28558 c 0.0455,-0.0468 0.21989,-0.23042 0.38749,-0.408 1.11633,-1.18283 3.44689,-3.63198 5.79351,-6.088317 0.77144,-0.8075 1.69056,-1.770298 2.0425,-2.139551 l 0.63989,-0.671369 0.11114,-2.69e-4 0.11114,-2.69e-4 -0.0594,0.06164 c -0.0327,0.0339 -0.41028,0.428867 -0.83909,0.877698 -0.4288,0.448832 -2.4245,2.534496 -4.43488,4.634807 l -3.65523,3.81875 h -0.0899 -0.0899 z"
       id="path29797" />
    <path
       style="fill:#ac0000;stroke-width:0.0117411"
       d="m 139.54424,116.58641 c -0.027,-0.21302 -0.14488,-1.60808 -0.48187,-5.70325 -0.1387,-1.68544 -0.25515,-3.09085 -0.25878,-3.12314 l -0.007,-0.0587 0.83104,-0.89367 c 0.45706,-0.49151 0.94462,-1.01565 1.08346,-1.16474 l 0.25244,-0.27108 0.0851,-5.6e-4 c 0.0468,-3.1e-4 0.0851,0.002 0.0851,0.005 0,0.003 -0.49401,0.5215 -1.09779,1.15216 -0.97664,1.02012 -1.0978,1.15071 -1.0978,1.18332 0,0.0202 0.15851,2.02244 0.35224,4.4495 0.19372,2.42707 0.35223,4.42818 0.35223,4.44692 0,0.0318 -0.003,0.0341 -0.0459,0.0341 h -0.0459 z"
       id="path29836" />
    <path
       style="fill:#ac0000;stroke-width:0.0117411"
       d="m 140.83643,127.5056 c -0.0314,-0.22437 -0.11478,-0.80421 -0.18536,-1.28853 -0.27352,-1.87689 -0.32934,-2.28866 -0.46156,-3.40493 -0.13867,-1.17071 -0.31823,-2.84157 -0.46407,-4.31832 -0.0453,-0.45915 -0.17633,-1.83008 -0.17633,-1.84554 0,-0.004 0.0224,-0.006 0.0498,-0.004 l 0.0498,0.004 0.0377,0.45791 c 0.31223,3.78791 0.82247,8.11661 1.23984,10.5182 l 0.0503,0.2895 -0.0416,-6e-5 -0.0416,-6e-5 -0.057,-0.40795 z"
       id="path29875" />
    <path
       style="fill:#ac0000;stroke-width:0.0117411"
       d="m 129.91584,140.10845 c 0.0127,-0.009 0.40093,-0.2589 0.86265,-0.5558 5.08286,-3.26846 7.33226,-4.84059 8.66861,-6.05858 0.45282,-0.41271 1.02771,-1.01739 1.27612,-1.34226 0.23205,-0.30347 0.34587,-0.5767 0.40581,-0.97413 0.0258,-0.17138 0.0352,-0.68919 0.0178,-0.98181 -0.0298,-0.49884 -0.10418,-1.19055 -0.21775,-2.02391 -0.0375,-0.27535 -0.0381,-0.2583 0.008,-0.2583 h 0.0382 l 0.0564,0.29765 c 0.0726,0.38328 0.13218,0.65975 0.21928,1.01735 0.0385,0.15822 0.0832,0.35371 0.0992,0.43443 0.0997,0.50215 0.11965,0.94889 0.0591,1.32526 -0.2014,1.25158 -1.29456,2.43081 -4.11485,4.43883 -1.44568,1.0293 -3.23948,2.21626 -6.59591,4.36451 l -0.51987,0.33274 h -0.14318 c -0.12428,0 -0.14012,-0.002 -0.12002,-0.016 z"
       id="path29914" />
    <path
       style="fill:#ac0000;stroke-width:0.0117411"
       d="m 113.95996,150.08896 c 3.75496,-2.2635 9.95449,-6.13997 15.59746,-9.75285 l 0.33462,-0.21424 0.13462,0.002 c 0.074,10e-4 0.13599,0.003 0.13766,0.005 0.003,0.003 -0.40356,0.26361 -2.70269,1.72741 -5.00728,3.18802 -8.56078,5.42136 -11.62372,7.30541 -0.58887,0.36223 -1.96279,1.19977 -2.07334,1.26392 -0.052,0.0301 -0.0602,0.0312 -0.23419,0.0312 h -0.18032 z"
       id="path29953" />
    <path
       style="fill:#ac0000;stroke-width:0.0117411"
       d="m 103.7208,155.36538 c -0.1577,-0.0254 -0.28572,-0.0808 -0.34625,-0.14972 -0.53166,-0.60553 -1.25793,-6.86332 -1.73103,-14.91512 -0.0226,-0.38423 -0.0442,-0.73954 -0.0481,-0.78959 l -0.007,-0.091 h 0.083 0.083 v 0.0403 c 0,0.0221 0.0265,0.46463 0.0589,0.98332 0.4575,7.31955 0.92035,11.8585 1.40478,13.7761 0.0744,0.29467 0.13375,0.46999 0.21448,0.63402 0.20566,0.4179 0.45694,0.51424 0.97529,0.37394 0.48261,-0.13063 1.11527,-0.40152 2.13689,-0.91493 1.48441,-0.74599 3.45167,-1.85476 6.18883,-3.4881 l 0.61767,-0.36859 0.17806,0.003 0.17807,0.003 -0.80748,0.48345 c -4.85232,2.90517 -7.37299,4.18487 -8.66847,4.40085 -0.12953,0.0216 -0.42533,0.0324 -0.5107,0.0186 z"
       id="path29992" />
    <path
       style="fill:#ac0000;stroke-width:0.0117411"
       d="m 101.59001,139.39354 c -3e-5,-0.0145 -0.005,-0.11095 -0.0117,-0.21427 -0.051,-0.82594 -0.14517,-2.74752 -0.22314,-4.55556 -0.12433,-2.88282 -0.23885,-5.45475 -0.35235,-7.91352 -0.0322,-0.69742 -0.0585,-1.29313 -0.0585,-1.32381 l -1e-5,-0.0558 h 0.046 0.046 l 0.007,0.0851 c 0.004,0.0468 0.0175,0.3176 0.0305,0.60174 0.2371,5.18574 0.34845,7.48487 0.4876,10.06801 0.0665,1.23506 0.17515,3.14313 0.18629,3.27284 l 0.005,0.0616 h -0.0813 c -0.0765,0 -0.0813,-0.002 -0.0814,-0.0264 z"
       id="path30031" />
    <path
       style="fill:#ac0000;stroke-width:0.0117411"
       d="m 100.93902,125.31594 c -0.002,-0.008 -0.008,-0.0992 -0.0117,-0.20254 -0.0231,-0.6019 -0.31774,-6.70672 -0.47635,-9.86841 -0.13625,-2.71609 -0.28902,-5.68366 -0.29874,-5.80305 l -0.006,-0.0793 h 0.046 0.046 l 0.007,0.0969 c 0.004,0.0533 0.0256,0.4535 0.0479,0.88939 0.0224,0.43589 0.0882,1.71714 0.14633,2.84722 0.12043,2.34127 0.29537,5.82603 0.39906,7.94874 0.092,1.8831 0.19988,4.12921 0.19988,4.1608 0,0.0213 -0.007,0.0249 -0.0473,0.0249 -0.0276,0 -0.0492,-0.006 -0.0519,-0.0147 z"
       id="path30070" />
    <path
       style="fill:#ac0000;stroke-width:0.0117411"
       d="m 100.1459,109.33023 c 0,-0.0879 -0.227784,-4.24707 -0.317487,-5.79701 -0.0336,-0.5805 -0.484922,-8.122964 -0.659533,-11.021988 l -0.0034,-0.05578 0.06164,7e-6 0.06164,8e-6 v 0.07578 c 0,0.200008 0.102757,1.992642 0.199582,3.481782 0.138101,2.123952 0.284988,4.663861 0.522158,9.028921 0.0711,1.3089 0.22929,4.28143 0.22929,4.30899 0,0.006 -0.0211,0.0118 -0.047,0.0118 -0.0435,0 -0.047,-0.002 -0.047,-0.0325 z"
       id="path30109" />
    <path
       style="fill:#ac0000;stroke-width:0.0117411"
       d="m 99.15965,92.41285 c 0,-0.02344 -0.04227,-0.744611 -0.09393,-1.602599 -0.05166,-0.857989 -0.09393,-1.578273 -0.09393,-1.600631 v -0.04065 l 5.13968,-0.0044 c 3.60703,-0.0031 5.24996,-0.0085 5.50952,-0.01804 0.20341,-0.0075 0.56798,-0.02173 0.81014,-0.03161 3.3476,-0.13656 6.4753,-0.525011 8.08376,-1.003979 0.81551,-0.242844 1.11082,-0.433734 1.91454,-1.237591 0.577,-0.57709 1.10604,-1.182879 1.82472,-2.089414 1.38569,-1.747921 3.03117,-4.131408 4.186,-6.063441 l 0.21134,-0.353574 0.0734,-4.07e-4 c 0.0404,-2.24e-4 0.0734,0.003 0.0734,0.0072 0,0.0089 -0.0729,0.12827 -0.35049,0.573602 -1.58273,2.539244 -3.63879,5.370914 -5.17887,7.132531 -0.32602,0.372912 -0.51222,0.572241 -0.85103,0.911033 -0.58115,0.581129 -0.88453,0.817639 -1.25472,0.978154 -1.52176,0.659852 -5.2849,1.094986 -11.1272,1.286642 -1.07646,0.03531 -1.38245,0.04338 -4.01547,0.105874 -0.41005,0.0097 -0.96218,0.02296 -1.22694,0.0294 -0.26477,0.0064 -0.70594,0.0171 -0.98039,0.0237 -0.27445,0.0066 -0.70241,0.017 -0.95103,0.02312 -0.24862,0.0061 -0.71621,0.01721 -1.039089,0.02464 -0.322881,0.0074 -0.59064,0.01687 -0.595021,0.02098 -0.01342,0.01257 0.01226,2.050036 0.0308,2.443747 0.0096,0.203415 0.0176,0.405509 0.01784,0.449098 l 4.25e-4,0.07925 h -0.05871 -0.05871 z"
       id="path30148" />
    <path
       style="fill:#ac0000;stroke-width:0.0117411"
       d="m 91.780354,79.188518 c -0.332149,-0.07168 -0.667243,-0.378626 -1.205456,-1.104183 -0.07425,-0.100093 -0.342754,-0.475222 -0.59668,-0.83362 -2.721554,-3.841276 -4.559496,-6.17066 -5.942879,-7.53193 -0.536939,-0.528356 -0.930645,-0.840544 -1.260426,-0.999452 -0.167066,-0.0805 -0.253984,-0.103685 -0.389852,-0.103979 l -0.108065,-2.34e-4 0.03762,-0.03969 c 0.06236,-0.06579 0.135902,-0.107079 0.190713,-0.107079 0.517014,0 2.371479,1.896352 4.632898,4.737542 0.56969,0.715744 0.969109,1.23547 1.643548,2.138594 0.256623,0.343637 0.563241,0.750648 0.681373,0.904469 1.163727,1.515297 2.140988,2.642893 2.399395,2.768502 0.05161,0.02509 0.0658,0.0272 0.117411,0.01747 0.494123,-0.09314 1.311926,-1.21649 3.414458,-4.690146 0.651401,-1.076201 1.018222,-1.659833 1.505404,-2.395189 1.364877,-2.060152 2.454525,-3.349149 3.258704,-3.854883 0.11506,-0.07236 0.42396,-0.217965 0.55096,-0.259703 0.22107,-0.07266 0.3904,-0.08743 0.54601,-0.04763 0.10957,0.02802 0.17765,0.06587 0.26261,0.145989 0.24512,0.231169 0.38905,0.650171 0.51245,1.491886 0.071,0.484141 0.11391,0.69219 0.19473,0.943583 0.26914,0.837197 0.79443,1.312812 1.83042,1.657317 1.24756,0.414863 3.30547,0.638057 7.35581,0.79779 1.13103,0.0446 1.92385,0.07006 4.58491,0.14722 5.38743,0.156212 8.46838,0.279798 9.80384,0.393264 0.0743,0.0063 0.14691,0.01153 0.16144,0.01159 0.0234,1.05e-4 0.0264,0.006 0.0264,0.05266 0,0.05078 -0.001,0.05236 -0.0323,0.04721 -0.0817,-0.01349 -0.86698,-0.07555 -1.406,-0.111128 -2.19659,-0.144967 -4.75507,-0.210144 -8.30098,-0.211468 -1.68202,-6.28e-4 -4.20697,-0.04329 -5.21305,-0.08808 -0.0775,-0.0035 -0.27299,-0.01169 -0.43443,-0.01831 -2.65185,-0.108731 -4.568,-0.321006 -5.87643,-0.651007 -1.66849,-0.420811 -2.51075,-1.056431 -2.73687,-2.065399 -0.0426,-0.190322 -0.0575,-0.346519 -0.0688,-0.723268 -0.0118,-0.392904 -0.0232,-0.534746 -0.0601,-0.751431 -0.0853,-0.500777 -0.25595,-0.818993 -0.5067,-0.944829 -0.1095,-0.05496 -0.18883,-0.06914 -0.34357,-0.06141 -0.14931,0.0075 -0.24856,0.03287 -0.41593,0.106532 -0.55859,0.245835 -1.303733,0.93649 -2.141477,1.984889 -0.670558,0.839172 -1.388874,1.88388 -2.18029,3.170979 -0.238963,0.388631 -0.388994,0.640991 -1.03307,1.737686 -1.485993,2.53026 -2.062736,3.407983 -2.576888,3.921672 -0.224934,0.224731 -0.371112,0.327856 -0.548203,0.386743 -0.105841,0.03519 -0.249671,0.04836 -0.332667,0.03045 z"
       id="path30187" />
    <path
       style="fill:#ac0000;stroke-width:0.0117411"
       d="m 67.118126,73.059625 v -0.08268 l 0.06164,-4.7e-5 c 0.222234,-1.66e-4 3.406346,-0.116989 4.329539,-0.158849 5.94044,-0.269356 8.235886,-0.701223 9.381252,-1.764996 0.351492,-0.326452 0.591541,-0.716719 0.809865,-1.316659 0.06778,-0.186264 0.184654,-0.465966 0.230164,-0.550842 l 0.02886,-0.05382 -0.0068,0.170246 c -0.0092,0.232378 -0.02506,0.380016 -0.05822,0.542284 -0.07201,0.352413 -0.231333,0.688697 -0.460663,0.972321 -0.08508,0.10522 -0.305495,0.321646 -0.420349,0.412739 -1.422573,1.128268 -4.579713,1.684689 -10.513899,1.852992 -0.70851,0.02009 -1.460249,0.03458 -2.136885,0.04118 -0.35194,0.0034 -0.775941,0.0091 -0.942225,0.01253 l -0.302334,0.0063 z"
       id="path30226" />
    <path
       style="fill:#ac0000;stroke-width:0.0117411"
       d="m 126.68124,78.322093 c 0.0144,-0.02422 0.12776,-0.221027 0.25188,-0.437357 0.75095,-1.308822 1.25401,-2.342439 1.48933,-3.06006 0.14636,-0.446356 0.19769,-0.763999 0.13611,-0.842288 -0.12334,-0.15681 -0.84124,-0.315748 -2.01861,-0.446911 -0.20342,-0.02266 -0.4108,-0.04474 -0.46084,-0.04905 l -0.091,-0.0078 v -0.05162 -0.05162 l 0.0558,0.0064 c 0.0307,0.0035 0.14824,0.01451 0.26124,0.02444 0.4907,0.04314 0.95858,0.101651 1.30914,0.163714 0.61908,0.109602 0.95388,0.264651 1.05791,0.489927 0.0319,0.06903 0.034,0.08285 0.0336,0.220411 -4.6e-4,0.169475 -0.0245,0.295994 -0.10599,0.559071 -0.21561,0.695671 -0.77859,1.820971 -1.61614,3.230376 l -0.17617,0.296464 h -0.0762 -0.0762 z"
       id="path30265" />
    <path
       style="fill:#ac0000;stroke-width:0.0117411"
       d="m 56.145893,74.238776 c 0.435927,-0.395909 1.825684,-0.677215 4.461781,-0.903126 1.400109,-0.119988 3.716984,-0.249671 5.876432,-0.328923 0.267991,-0.0098 0.520278,-0.01995 0.560638,-0.02248 l 0.07338,-0.0046 v 0.07904 0.07904 l -1.088989,0.0074 c -1.0351,0.0071 -1.421835,0.01471 -2.186784,0.04323 -3.271103,0.121983 -6.038104,0.46161 -7.273625,0.892779 -0.147918,0.05162 -0.381005,0.156827 -0.439099,0.198193 -0.06311,0.04494 -0.05464,0.02381 0.01626,-0.04058 z"
       id="path30304" />
    <path
       style="fill:#ac0000;stroke-width:0.0117411"
       d="m 66.366695,88.448878 c -0.37671,-0.111951 -0.868907,-0.292967 -1.221077,-0.449082 -1.161081,-0.514697 -2.161905,-1.194011 -3.328608,-2.259314 -0.434371,-0.396619 -1.077281,-1.056709 -1.544708,-1.585987 -1.699107,-1.923935 -3.216156,-4.292069 -3.993903,-6.234536 -0.284165,-0.709718 -0.459435,-1.313492 -0.545333,-1.878579 -0.05382,-0.35403 -0.05,-0.863923 0.0081,-1.080184 0.01,-0.03722 0.01052,-0.03556 0.0056,0.01761 -0.03351,0.362788 -0.02936,0.591653 0.01666,0.917565 0.297037,2.103825 2.22859,5.550932 4.614199,8.23464 0.620435,0.697962 1.331467,1.400289 1.932519,1.908859 1.408458,1.191742 2.696501,1.902372 4.273768,2.357889 l 0.223082,0.06443 -0.199599,-5.51e-4 c -0.10978,-3.06e-4 -0.218092,-0.006 -0.240693,-0.01276 z"
       id="path30343" />
    <path
       style="fill:#ac0000;stroke-width:0.0117411"
       d="m 84.072307,96.895315 c 0,-0.03798 0.07913,-0.991592 0.175993,-2.120975 0.172456,-2.01075 0.286332,-3.420716 0.340263,-4.212995 0.02593,-0.380964 0.03032,-0.635761 0.01208,-0.701432 -0.0169,-0.06083 -0.08202,-0.130492 -0.1557,-0.166571 -0.390095,-0.191011 -1.414229,-0.250953 -6.067076,-0.3551 -3.709548,-0.08303 -5.646452,-0.143313 -6.792239,-0.211386 -0.05812,-0.0035 -0.245683,-0.01428 -0.41681,-0.02406 -2.026228,-0.115823 -3.47,-0.301525 -4.537207,-0.583589 l -0.188595,-0.04985 0.187613,-0.0032 0.187613,-0.0032 0.211585,0.05286 c 1.094554,0.273456 2.480722,0.456939 4.168344,0.551751 0.585236,0.03288 1.016075,0.05035 1.949026,0.07903 0.28121,0.0086 2.310408,0.01462 6.062755,0.01784 l 5.640076,0.0048 -0.0063,0.04341 c -0.0035,0.02387 -0.153234,1.767151 -0.332818,3.873949 l -0.326516,3.830541 h -0.05604 c -0.04675,0 -0.05604,-0.0036 -0.05604,-0.02178 z"
       id="path30382" />
    <path
       style="fill:#ac0000;stroke-width:0.0234822"
       d="m 81.095985,148.625 c 2.9e-5,-0.0291 0.01547,-0.20606 0.03432,-0.39333 0.112266,-1.11535 0.28929,-3.29948 0.42252,-5.21306 0.349566,-5.02083 0.640533,-10.62998 1.105432,-21.31013 0.04666,-1.07197 0.08956,-1.97281 0.09532,-2.00187 0.01388,-0.07 0.08003,-0.0693 0.08003,8.7e-4 0,0.0295 -0.03676,0.89338 -0.08169,1.91967 -0.04493,1.02629 -0.11371,2.6585 -0.152849,3.62714 -0.03914,0.96865 -0.102854,2.53785 -0.141586,3.48712 -0.346424,8.49021 -0.724491,14.8934 -1.12771,19.09963 -0.03821,0.39863 -0.06948,0.74998 -0.06948,0.78078 0,0.0484 -0.01123,0.056 -0.08219,0.056 -0.06959,0 -0.08218,-0.008 -0.08214,-0.0528 z"
       id="path30421" />
    <path
       style="fill:#ac0000;stroke-width:0.0234822"
       d="m 82.763172,119.54077 c 0,-0.21312 0.238608,-5.09833 0.387882,-7.9414 0.286921,-5.4647 0.548301,-9.69839 0.845204,-13.69015 0.07401,-0.995092 0.07285,-0.986254 0.130323,-0.986254 0.02779,0 0.04544,0.01601 0.0453,0.04109 -1.24e-4,0.0226 -0.03146,0.405656 -0.06963,0.851231 -0.283429,3.308503 -0.639873,9.147753 -1.009846,16.543243 -0.0833,1.665 -0.204951,4.22636 -0.223624,4.70819 -0.01861,0.48012 -0.03174,0.58706 -0.07208,0.58706 -0.02441,0 -0.03353,-0.0307 -0.03353,-0.11301 z"
       id="path30460" />
  </g>
</svg>
