<?xml version="1.0" encoding="UTF-8" standalone="no"?>
<!-- Created with Inkscape (http://www.inkscape.org/) -->

<svg
   version="1.1"
   id="svg53225"
   width="184"
   height="164"
   viewBox="0 0 184 164"
   sodipodi:docname="paladin-symbol.svg"
   inkscape:version="1.1.2 (b8e25be833, 2022-02-05)"
   xmlns:inkscape="http://www.inkscape.org/namespaces/inkscape"
   xmlns:sodipodi="http://sodipodi.sourceforge.net/DTD/sodipodi-0.dtd"
   xmlns="http://www.w3.org/2000/svg"
   xmlns:svg="http://www.w3.org/2000/svg">
  <defs
     id="defs53229" />
  <sodipodi:namedview
     id="namedview53227"
     pagecolor="#ffffff"
     bordercolor="#666666"
     borderopacity="1.0"
     inkscape:pageshadow="2"
     inkscape:pageopacity="0.0"
     inkscape:pagecheckerboard="0"
     showgrid="false"
     inkscape:zoom="1.3307927"
     inkscape:cx="386.23597"
     inkscape:cy="170.57503"
     inkscape:window-width="3440"
     inkscape:window-height="1377"
     inkscape:window-x="-8"
     inkscape:window-y="-8"
     inkscape:window-maximized="1"
     inkscape:current-layer="g53231" />
  <g
     inkscape:groupmode="layer"
     inkscape:label="Image"
     id="g53231">
    <path
       style="fill:#ff0000;fill-opacity:1;stroke-width:1.33333"
       d="m 63.915236,146.76289 c -8.06667,-4.95467 -16.56398,-10.41525 -18.88293,-12.13464 -4.19633,-3.11139 -4.20736,-3.15139 -2.33333,-8.46294 1.03561,-2.93523 1.88293,-8.42744 1.88293,-12.20491 0,-6.73242 -0.18441,-7.05112 -9.33334,-16.129931 -5.13333,-5.093998 -9.33333,-9.797852 -9.33333,-10.45301 0,-0.655158 1.5,-0.904452 3.33333,-0.553988 4.86463,0.929933 4.09627,-0.508014 -2.49723,-4.6734 -6.34702,-4.009675 -12.1268,-11.441164 -13.60734,-17.495968 l -0.93971,-3.843035 5.16499,3.509701 c 8.32578,5.65752 8.3535,4.07327 0.0751,-4.292426 -5.39655,-5.45345 -8.0836804,-9.366846 -8.9264604,-13 -2.48241,-10.701534 -1.78926,-10.962208 6.7306404,-2.531207 4.4,4.354088 7.99512,7.335307 7.98915,6.624929 -0.006,-0.710378 -3.90597,-6.54906 -8.66667,-12.974848 C 6.1925056,26.838224 5.9194856,26.218903 6.0481356,18.813884 6.3382056,2.1172398 6.4308356,2.1901572 25.637736,34.23462 c 9.71573,16.209565 18.19336,29.798501 18.83918,30.197636 0.64581,0.399135 1.11828,-1.247227 1.04993,-3.658581 -0.0811,-2.8625 1.29594,-6.448179 3.96741,-10.33041 4.32061,-6.2788 24.88743,-26.612796 26.91751,-26.612796 2.05992,0 2.79979,5.512414 2.81859,21 0.0101,8.375528 0.56736,15 1.26169,15 2.3673,0 2.98108,-5.5601 2.59734,-23.528894 -0.38009,-17.797875 -0.33995,-18.083792 2.88686,-20.563651 4.14512,-3.185596 6.31641,-3.186719 11.14161,-0.0057 l 3.869294,2.55079 -0.28684,18.445248 c -0.15777,10.144886 0.11524,19.493078 0.60669,20.773758 2.10953,5.497325 3.27489,1.40336 3.27489,-11.504851 0,-14.807872 0.94545,-22.166667 2.84795,-22.166667 2.23364,0 22.35755,20.233992 26.41956,26.564083 2.2362,3.484824 4.06583,7.933515 4.06583,9.88598 0,1.952465 0.45,3.528599 1,3.502519 0.55,-0.02608 9.1,-13.328212 19,-29.560292 19.67216,-32.2545551 19.44425,-32.0831319 19.84225,-14.924464 0.14289,6.160714 -0.44468,7.604605 -6.23973,15.333333 -12.67091,16.898896 -13.28359,18.446237 -3.64239,9.198841 l 9.03573,-8.666699 -0.81658,5.333333 c -0.44914,2.933333 -0.8232,6.310293 -0.83127,7.504355 -0.008,1.194062 -4.06468,6.552718 -9.01468,11.908128 l -9,9.737105 6.39356,-3.736787 c 3.51647,-2.055233 6.6492,-3.48115 6.96164,-3.168705 0.63784,0.637828 -3.87647,9.956988 -6.38921,13.189675 -0.89796,1.15524 -4.21355,3.962406 -7.36798,6.238145 l -5.7353,4.137709 3.7353,0.42852 c 3.67096,0.421139 3.56611,0.605303 -6.08593,10.688892 l -9.82125,10.260367 0.72404,9.07296 c 0.39821,4.99013 1.10986,10.5772 1.58142,12.41572 0.78078,3.04398 -0.1937,4.01416 -10.90277,10.85474 -20.44545,13.05982 -25.66896,16.01626 -26.92562,15.23961 -0.67281,-0.41583 -1.59894,-9.60928 -2.05807,-20.42991 -0.45912,-10.82062 -1.18638,-25.52386 -1.616134,-32.67386 l -0.78135,-12.999997 h 8.898154 c 4.89398,0 10.03987,-0.611035 11.43532,-1.357856 2.28911,-1.225095 9.28751,-11.593106 9.28751,-13.759288 0,-0.485571 -5.05092,-0.882856 -11.22428,-0.882856 -12.36402,0 -15.44238,-0.69292 -15.44238,-3.475986 0,-3.608586 -2.597914,-1.782872 -6.193524,4.352592 -3.62745,6.189767 -3.64604,6.200332 -5.72288,3.252284 -5.1769,-7.348561 -7.99913,-10.139068 -8.04147,-7.951065 -0.055,2.844008 -3.90794,3.781709 -15.63011,3.803968 -5.27339,0.01 -9.94791,0.600587 -10.38782,1.312383 -1.1717,1.895852 2.71231,8.709484 6.79564,11.921429 2.8203,2.218449 5.4278,2.784395 12.82863,2.784395 h 9.28884 l -0.76883,9 c -0.42286,4.949997 -1.10832,17.699997 -1.52325,28.333327 -0.81567,20.90268 -1.7081,29.35024 -3.09576,29.30377 -0.48554,-0.0162 -7.4828,-4.08336 -15.54947,-9.03801 z"
       id="path53315" />
  </g>
</svg>
