<?xml version="1.0" encoding="UTF-8" standalone="no"?>
<!-- Created with Inkscape (http://www.inkscape.org/) -->

<svg
   version="1.1"
   id="svg48231"
   width="161.33333"
   height="166.66667"
   viewBox="0 0 161.33333 166.66667"
   sodipodi:docname="ranger-symbol.svg"
   inkscape:version="1.1.2 (b8e25be833, 2022-02-05)"
   xmlns:inkscape="http://www.inkscape.org/namespaces/inkscape"
   xmlns:sodipodi="http://sodipodi.sourceforge.net/DTD/sodipodi-0.dtd"
   xmlns="http://www.w3.org/2000/svg"
   xmlns:svg="http://www.w3.org/2000/svg">
  <defs
     id="defs48235" />
  <sodipodi:namedview
     id="namedview48233"
     pagecolor="#ffffff"
     bordercolor="#666666"
     borderopacity="1.0"
     inkscape:pageshadow="2"
     inkscape:pageopacity="0.0"
     inkscape:pagecheckerboard="0"
     showgrid="false"
     inkscape:zoom="4"
     inkscape:cx="-104.5"
     inkscape:cy="71.25"
     inkscape:window-width="3440"
     inkscape:window-height="1377"
     inkscape:window-x="-8"
     inkscape:window-y="-8"
     inkscape:window-maximized="1"
     inkscape:current-layer="g48237" />
  <g
     inkscape:groupmode="layer"
     inkscape:label="Image"
     id="g48237">
    <path
       style="fill:#ff0000;fill-opacity:1;stroke-width:1.33333"
       d="m 71.481547,160.0485 c 0.53474,-0.91667 2.60889,-4.08573 4.60923,-7.04237 l 3.63696,-5.37572 -2.45126,-45.95762 c -1.3482,-25.276699 -2.85179,-50.046941 -3.3413,-55.044988 -0.93241,-9.51996 -0.62335,-9.223351 -6.92498,-6.645991 -2.08084,0.85106 -0.11872,-4.957953 7.07069,-20.933319 8.05403,-17.8966099 6.95834,-18.10460192 15.56744,2.955132 5.8268,14.25365 7.07803,18.427595 5.31877,17.742772 -4.30675,-1.676474 -4.76522,-1.364422 -5.83098,3.968763 -0.58618,2.933334 -2.27884,27.411109 -3.76147,54.395057 l -2.6957,49.061724 4.62297,6.86472 c 2.54264,3.7756 4.38008,7.10763 4.0832,7.40451 -0.29688,0.29686 -2.69791,-0.17247 -5.33561,-1.043 -3.53243,-1.1658 -5.89151,-1.20082 -8.95497,-0.13294 -5.40601,1.88455 -6.80724,1.83043 -5.61299,-0.21678 z m -27.50227,-24.41543 c -14.21512,-9.21182 -28.82561,-18.93624 -32.46776,-21.60982 l -6.6220796,-4.86105 5.2219496,-4.05685 c 7.31802,-5.685262 14.82709,-13.516067 22.20347,-23.15481 l 6.31486,-8.251644 -3.58304,-7.305676 -3.58304,-7.305678 -3.06515,2.879562 -3.06515,2.87956 V 47.643682 30.4407 l 11.38114,11.303896 c 9.63123,9.565854 10.94573,11.371773 8.54926,11.74535 -3.04447,0.474592 -2.93149,3.078245 0.47504,10.947634 l 1.59455,3.68358 7.0006,-3.127802 c 4.83654,-2.160918 7.86546,-4.59363 9.79837,-7.869667 3.61358,-6.124553 5.20103,-6.003722 5.20103,0.39588 0,2.825761 0.3705,8.682462 0.82333,13.014894 l 0.82333,7.87715 -5.92666,1.585138 c -3.25966,0.871827 -7.24928,2.665124 -8.86581,3.985107 l -2.93915,2.399967 8.75594,25.842103 c 4.81577,14.21315 8.52582,26.07221 8.24457,26.35346 -0.28125,0.28127 -5.54009,-9.99768 -11.68631,-22.84209 -6.14621,-12.84441 -11.65037,-23.353473 -12.23145,-23.353473 -1.52399,0 -8.57718,11.476173 -11.07841,18.025563 -4.0344,10.56392 -3.22125,11.83684 16.70366,26.1484 15.23756,10.94475 20.91293,15.82604 18.40056,15.82604 -0.29258,0 -12.16252,-7.53694 -26.37765,-16.74876 z m 50.81878,12.3733 c 1.9056,-1.62683 10.454293,-8.05787 18.997093,-14.2912 9.4396,-6.88769 15.53351,-12.23668 15.53527,-13.63623 0.005,-3.55828 -6.27865,-19.41128 -9.46942,-23.892314 -1.72592,-2.423834 -3.33795,-3.527848 -4.075,-2.790799 -0.6707,0.670699 -6.01939,10.994473 -11.88597,22.941713 -5.866583,11.94724 -10.995653,21.39312 -11.397933,20.99084 -0.57442,-0.57443 11.790503,-38.21139 16.195293,-49.296019 0.76264,-1.919188 -0.71107,-3.095204 -8.04697,-6.421461 l -8.980593,-4.071995 0.95288,-12.245207 c 0.52409,-6.734863 1.26875,-12.545205 1.6548,-12.911872 0.38605,-0.366667 1.38154,0.448333 2.2122,1.811109 3.815763,6.260133 6.520823,8.642929 12.751333,11.23221 l 6.70231,2.785355 1.4355,-5.331066 c 0.78953,-2.932085 1.74815,-6.145795 2.13027,-7.141576 0.439,-1.144017 -0.44714,-1.985064 -2.40718,-2.284677 -2.7899,-0.426466 -1.99742,-1.610751 7.87794,-11.772761 l 10.97989,-11.298594 0.0201,15.666667 c 0.0196,15.277741 -0.49709,17.282791 -3.6431,14.136779 -1.15096,-1.150962 -2.35651,0.339249 -4.86731,6.016618 l -3.33742,7.546506 6.49124,8.983381 c 8.32582,11.52231 12.5817,15.959867 20.46269,21.336213 3.50934,2.39406 6.00433,4.96172 5.54438,5.70592 -1.03124,1.66858 -23.71589,16.95439 -45.81497,30.87194 -16.120343,10.15224 -22.979723,13.30437 -16.017323,7.36052 z"
       id="path48321" />
    <path
       style="fill:#ac0000;stroke-width:0.381825"
       d="m 94.310809,148.84274 c 1.050019,-0.96632 6.032841,-4.82501 11.072931,-8.57485 14.74797,-10.97255 17.74327,-13.32527 21.11569,-16.58572 3.1571,-3.05229 3.18706,-3.09908 2.9335,-4.5819 -0.73017,-4.26998 -5.82505,-17.10772 -8.65366,-21.804951 -1.36712,-2.270256 -3.42887,-4.320898 -4.3443,-4.320898 -0.89936,0 -2.32306,2.556384 -11.04791,19.837539 -8.921301,17.67025 -11.994598,23.47219 -12.281356,23.18543 -0.406867,-0.40686 8.293046,-27.28279 13.419746,-41.456527 1.3671,-3.779584 2.48563,-7.215873 2.48563,-7.636201 0,-1.351902 -3.56824,-3.462784 -12.682209,-7.502486 -2.159953,-0.957381 -4.048777,-1.86189 -4.197387,-2.01002 -0.483975,-0.482405 1.603329,-23.577393 2.221269,-24.57724 0.333948,-0.540341 1.131954,0.293485 3.067997,3.20571 2.13644,3.213664 4.88422,6.025783 7.23277,7.402124 0.95786,0.561343 3.91656,1.93021 6.5749,3.041927 l 4.83334,2.021305 1.8045,-6.369756 c 0.99248,-3.503366 1.81157,-6.6607 1.82021,-7.016299 0.0196,-0.80512 -1.39978,-1.83532 -2.52858,-1.83532 -2.58829,0 -1.40411,-1.617995 9.45828,-12.923239 l 8.93175,-9.2959 0.10561,12.350501 c 0.10032,11.731829 -0.19107,16.788776 -1.01487,17.612573 -0.2365,0.2365 -0.7895,0.06836 -1.54539,-0.469882 -2.25654,-1.606803 -2.76615,-1.045158 -6.52667,7.193182 -2.63608,5.774969 -2.67115,5.893335 -2.0363,6.872853 1.45939,2.251715 8.87794,12.316977 11.5675,15.694446 3.79161,4.761382 8.30045,9.197098 12.2283,12.029999 7.10519,5.1245 8.53289,6.57204 7.59574,7.70124 -1.93057,2.32619 -38.4155,26.53764 -53.28435,35.35956 -4.417234,2.62081 -9.421796,5.25146 -9.939906,5.22491 -0.162745,-0.008 0.563206,-0.80578 1.613225,-1.77211 z"
       id="path30641" />
    <path
       style="fill:#ac0000;stroke-width:0.381825"
       d="m 71.210388,161.06756 c 0,-0.13946 1.962769,-3.21705 4.361708,-6.83909 l 4.361707,-6.58552 -1.493554,-27.81155 C 75.061801,56.921144 74.062056,41.989668 73.05649,39.423446 c -0.50747,-1.295072 -1.743179,-1.380448 -4.463093,-0.308357 -1.034886,0.407914 -1.966097,0.657176 -2.069358,0.553916 -0.601481,-0.601482 1.572524,-6.5013 6.597745,-17.904972 4.169124,-9.46094 6.579416,-14.3651163 7.391286,-15.0389083 1.787007,-1.4830844 3.057109,0.7614558 9.374203,16.5662083 4.221856,10.562672 6.007505,15.725437 5.585076,16.147867 -0.0924,0.0924 -0.71787,-0.02369 -1.389939,-0.257977 -1.956839,-0.682157 -3.314003,-0.532387 -3.924911,0.433135 -1.175543,1.857912 -1.798295,7.648809 -3.274644,30.450555 -1.304271,20.144048 -4.217712,72.280717 -4.217712,75.476867 0,1.94895 0.172675,2.3118 3.382147,7.10718 3.590514,5.3647 5.209373,8.22624 4.854552,8.58107 -0.1192,0.11919 -1.924026,-0.2411 -4.010726,-0.80066 -4.71076,-1.26321 -6.66817,-1.27468 -10.717001,-0.0628 -3.142511,0.94059 -4.963727,1.1978 -4.963727,0.701 z"
       id="path30680" />
    <path
       style="fill:#ac0000;stroke-width:0.381825"
       d="M 68.919438,151.3096 C 52.586497,141.10633 15.862799,116.96617 9.1096372,111.99389 L 5.23722,109.14268 8.7278121,106.45609 C 17.756167,99.507266 24.585665,92.368934 34.350306,79.674929 l 4.503012,-5.853899 -3.549365,-7.414524 c -1.952151,-4.077987 -3.660224,-7.414522 -3.79572,-7.414522 -0.135495,0 -1.567219,1.217094 -3.181608,2.704654 l -2.935253,2.704654 V 47.667677 30.934062 l 8.820118,8.778865 c 11.168199,11.115962 13.166813,13.55168 11.119749,13.55168 -0.373284,0 -1.082177,0.28261 -1.575319,0.628022 -0.808152,0.566049 -0.877136,0.839215 -0.699103,2.768232 0.214013,2.318813 3.505846,11.056132 4.276942,11.352029 0.734326,0.281787 9.687912,-3.946486 12.292379,-5.804996 1.382826,-0.986762 3.032719,-2.628219 3.912902,-3.892891 3.110829,-4.469728 3.889916,-5.432221 4.397083,-5.432221 0.841753,0 0.995636,0.925044 1.379534,8.292741 0.200695,3.851761 0.615629,9.267928 0.922074,12.035927 0.306445,2.767999 0.521791,5.051592 0.478545,5.074651 -0.04324,0.02306 -1.882749,0.515601 -4.087789,1.094543 -4.951841,1.300123 -9.570348,3.438424 -11.83658,5.480169 l -1.718213,1.548014 6.77845,20.178553 c 7.132124,21.23141 9.910356,29.96297 9.624621,30.2487 -0.09469,0.0947 -4.356377,-8.31792 -9.470413,-18.69469 -9.948015,-20.185285 -12.99748,-25.930619 -13.763277,-25.930619 -1.76302,0 -9.739238,13.585669 -12.105265,20.618559 -1.131266,3.36263 -1.142599,6.57663 -0.03067,8.69745 1.292922,2.46603 4.808932,5.66098 12.384788,11.25391 18.849344,13.91565 22.2122,16.54118 23.717805,18.51752 0.821398,1.07821 0.423051,1.08173 -1.290297,0.0114 z"
       id="path30719" />
    <path
       style="fill:#ac0000;stroke-width:0.0238641"
       d="m 96.781593,146.83857 c 0.05264,-0.0495 1.530296,-1.19659 2.636128,-2.04639 2.256419,-1.73402 3.907669,-2.97706 8.602999,-6.47625 11.23745,-8.37469 14.67932,-11.06803 17.51623,-13.70686 0.59106,-0.54979 2.08813,-2.0022 2.60164,-2.52402 0.89161,-0.90605 1.17387,-1.27128 1.32706,-1.71708 0.0574,-0.16708 0.0646,-0.22241 0.0634,-0.48681 -0.008,-1.68481 -1.97697,-7.63602 -4.61928,-13.96048 -0.58048,-1.3894 -1.24503,-2.90713 -1.74435,-3.98381 -0.10006,-0.21574 -0.18192,-0.39562 -0.18192,-0.39972 0,-0.004 5.45668,-0.007 12.12596,-0.007 h 12.12596 l 0.40865,0.30681 c 0.22475,0.16875 0.82208,0.60712 1.3274,0.97417 4.58681,3.33169 6.31293,4.78762 6.96748,5.87683 0.15504,0.25799 0.21975,0.46157 0.22045,0.69347 0.001,0.42417 -0.19287,0.67184 -1.10259,1.40661 -3.16822,2.55891 -14.82916,10.52229 -28.45778,19.43411 -11.32827,7.40761 -21.2535,13.64348 -26.13219,16.41846 l -0.4066,0.23128 h -1.65679 c -1.407882,0 -1.651541,-0.005 -1.621847,-0.0329 z"
       id="path30758" />
    <path
       style="fill:#ac0000;stroke-width:0.0238641"
       d="m 100.28876,146.76735 c 1.49908,-0.86446 2.12493,-1.23205 3.37677,-1.98335 6.51208,-3.90826 16.44888,-10.24778 27.98062,-17.85118 1.37622,-0.90741 8.25079,-5.49232 9.41437,-6.27881 8.61126,-5.8205 13.63362,-9.39139 14.71407,-10.46166 0.30524,-0.30237 0.38831,-0.46371 0.40003,-0.77705 0.007,-0.18413 -0.001,-0.24392 -0.0518,-0.38976 -0.37101,-1.06685 -2.1382,-2.6043 -7.29457,-6.34625 -0.88375,-0.64133 -1.5273,-1.12153 -1.5273,-1.13964 0,-0.005 0.0515,-0.01 0.11447,-0.01 0.11164,0 0.13041,0.0119 0.75769,0.48055 0.78243,0.58456 1.59252,1.16327 2.68359,1.91712 0.45282,0.31286 0.99925,0.69776 1.2143,0.85532 2.24017,1.64136 3.95416,3.29213 4.43988,4.27613 0.21016,0.42577 0.21171,0.58407 0.008,0.82922 -1.49053,1.79484 -18.74302,13.53004 -38.04586,25.8789 -8.11891,5.19402 -13.44893,8.5058 -17.52006,10.88599 l -0.37373,0.21851 -0.23481,-4.4e-4 -0.2348,-4.3e-4 z"
       id="path30797" />
    <path
       style="fill:#ac0000;stroke-width:0.0477281"
       d="m 92.198839,150.95744 c -0.102442,-0.0432 -0.06578,-0.23006 0.09307,-0.47436 0.206574,-0.3177 1.287992,-1.38707 2.162422,-2.13834 2.095123,-1.80004 8.700039,-6.7922 18.279539,-13.81614 5.78147,-4.23912 9.36759,-7.03002 12.01888,-9.35368 0.31027,-0.27193 0.57479,-0.48375 0.58782,-0.47072 0.013,0.013 -0.2657,0.28427 -0.61941,0.60275 -2.40269,2.16339 -5.8099,4.82906 -13.89641,10.87203 -7.45247,5.56916 -8.76363,6.55323 -10.57007,7.93317 -4.186005,3.1977 -5.568507,4.32114 -6.665047,5.41611 -0.766757,0.76565 -0.98668,1.03257 -0.912176,1.10707 0.130644,0.13065 3.117207,-1.35189 6.374114,-3.16411 0.941373,-0.52381 1.088219,-0.59129 1.258729,-0.57849 0.1861,0.014 0.14269,0.0431 -1.208883,0.81094 -3.977433,2.25966 -6.471686,3.43541 -6.902579,3.25377 z"
       id="path30836" />
    <path
       style="fill:#ac0000;stroke-width:0.0477281"
       d="m 128.31937,121.81206 c -0.001,-0.0208 0.1049,-0.16665 0.23586,-0.32402 0.34879,-0.41911 0.62485,-0.8412 0.72839,-1.11367 0.10045,-0.26437 0.0923,-0.52691 -0.0416,-1.34038 -0.6988,-4.24443 -5.31364,-15.97413 -8.39366,-21.334482 -1.23886,-2.156076 -2.71648,-3.840336 -3.84064,-4.377741 -0.25014,-0.119583 -0.37666,-0.15004 -0.63505,-0.152883 -0.2759,-0.003 -0.3105,-0.0125 -0.23864,-0.06528 0.23869,-0.175339 0.58134,-0.11093 1.08633,0.204201 0.99511,0.620991 2.44493,2.238273 3.42546,3.821124 2.50933,4.050761 7.24255,15.643561 8.53439,20.902771 0.1724,0.70188 0.33014,1.59005 0.33014,1.85891 0,0.29784 -0.1211,0.65067 -0.33092,0.96417 -0.19123,0.28572 -0.85594,1.0256 -0.86002,0.95728 z"
       id="path30875" />
    <path
       style="fill:#ac0000;stroke-width:0.0477281"
       d="m 146.57074,100.95636 c -1.64708,-1.327157 -3.21982,-2.765336 -5.08356,-4.648634 -3.27668,-3.311065 -4.96931,-5.358463 -9.85814,-11.92437 -3.9551,-5.311887 -7.10714,-9.703782 -7.30611,-10.179999 -0.0376,-0.0899 -0.0613,-0.170503 -0.0527,-0.179109 0.009,-0.0086 1.28242,1.738019 2.83069,3.881391 5.94185,8.225675 6.87373,9.481073 9.16617,12.348278 3.73147,4.66704 6.87925,7.867551 10.6043,10.781913 0.29531,0.23105 0.53694,0.42634 0.53694,0.43397 0,0.008 -0.0279,0.0246 -0.062,0.0377 -0.0341,0.0131 -0.38314,-0.23491 -0.77558,-0.55113 z"
       id="path30914" />
    <path
       style="fill:#ac0000;stroke-width:0.0477281"
       d=""
       id="path30953" />
    <path
       style="fill:#ac0000;stroke-width:0.0477281"
       d="m 105.45642,140.23721 c 16.35694,-12.20144 18.51533,-13.92917 22.64989,-18.13068 1.29365,-1.3146 1.50873,-1.70475 1.40407,-2.54701 -0.0282,-0.22695 -0.0928,-0.61463 -0.14364,-0.86153 -0.7834,-3.80741 -4.37378,-13.19366 -7.23806,-18.922308 -1.3973,-2.79465 -2.23063,-4.037627 -3.66419,-5.465413 -0.88435,-0.880789 -1.5924,-1.359712 -2.01024,-1.359712 -0.62004,0 -1.49526,1.290542 -3.75471,5.536465 -1.387,2.606428 -2.82687,5.420128 -7.88904,15.416188 -4.41923,8.7265 -6.372848,12.55169 -7.98312,15.63097 -2.250521,4.30361 -3.466215,6.41943 -3.688436,6.41943 -0.361674,0 4.19463,-14.55113 8.944466,-28.56529 1.87379,-5.5285 2.68041,-7.852353 4.34052,-12.504773 1.79095,-5.01913 2.58116,-7.466113 2.58169,-7.994464 3.3e-4,-0.341749 -0.12189,-0.573721 -0.53051,-1.006886 -1.23806,-1.312406 -4.44816,-3.042494 -11.706301,-6.309127 -3.58844,-1.61503 -4.588172,-2.100464 -4.64825,-2.257024 -0.0521,-0.135766 -0.03015,-1.684836 0.04256,-3.003328 0.408899,-7.415145 1.761509,-20.609569 2.200186,-21.46235 0.281624,-0.547471 1.028244,0.221035 2.928782,3.014633 1.746683,2.567446 3.235903,4.293644 5.132503,5.94923 1.53762,1.342221 2.82558,2.060829 6.92058,3.861295 1.09509,0.481482 6.71931,2.842028 6.73178,2.825399 0.01,-0.01292 1.08886,-3.822982 1.84168,-6.502068 0.84636,-3.011979 1.5527,-5.691453 1.73158,-6.568617 0.0658,-0.322917 0.0663,-0.390193 0.004,-0.596602 -0.17065,-0.565094 -0.9748,-1.226491 -1.78952,-1.471837 -0.14438,-0.04348 -0.51082,-0.09726 -0.81432,-0.119519 -0.6752,-0.04952 -0.88076,-0.125419 -0.97947,-0.361658 -0.12098,-0.289548 0.019,-0.668566 0.54127,-1.465483 l 0.21112,-0.322165 h 9.39814 9.39813 l -3.4e-4,0.680126 c -1.9e-4,0.37407 -0.0214,1.313718 -0.0472,2.088107 -0.14309,4.297863 -0.41028,6.424169 -0.88555,7.047291 -0.1087,0.142502 -0.14674,0.159658 -0.35404,0.159658 -0.31328,0 -0.56202,-0.115239 -1.33467,-0.618355 -0.78033,-0.508113 -1.06647,-0.632372 -1.45895,-0.633549 -1.01668,-0.003 -1.84492,1.170182 -3.86568,5.475845 -1.83818,3.916636 -3.12167,6.835975 -3.35739,7.636503 -0.23596,0.801304 -0.19313,1.082682 0.27374,1.798407 1.48449,2.275786 9.05218,12.533573 11.52541,15.622365 3.05723,3.818138 6.43734,7.311819 9.79009,10.119016 0.67374,0.56411 1.81843,1.43084 4.24349,3.21304 2.53884,1.86583 3.72932,2.81719 4.69315,3.75049 0.96935,0.93865 1.29966,1.42807 1.30058,1.92709 6.2e-4,0.34417 -0.11337,0.54551 -0.53381,0.94267 -2.7505,2.59829 -28.0073,19.53353 -45.13794,30.266 l -1.92938,1.20877 h -2.57402 -2.57403 z"
       id="path30992" />
    <path
       style="fill:#ac0000;stroke-width:0.011932"
       d="m 106.70969,110.20726 c 0.30137,-0.60197 2.34125,-4.61738 3.02626,-5.95706 3.031,-5.927729 4.54517,-8.725747 5.46392,-10.096711 0.16375,-0.244345 0.43797,-0.617757 0.44702,-0.608711 0.003,0.003 -0.0397,0.07457 -0.0948,0.159036 -0.89646,1.372901 -3.80751,6.910536 -7.545,14.352696 -0.53722,1.06971 -1.02212,2.03755 -1.07757,2.15075 l -0.10081,0.20583 h -0.11102 -0.11102 z"
       id="path31031" />
    <path
       style="fill:#ac0000;stroke-width:0.011932"
       d="m 96.858299,129.53681 c 0,-0.002 0.04478,-0.0891 0.09951,-0.19389 1.792521,-3.43274 4.219491,-8.18884 8.417511,-16.49569 l 1.22712,-2.42817 0.10955,-0.003 c 0.0603,-0.002 0.10956,-5.3e-4 0.10956,0.003 0,0.004 -0.17522,0.35678 -0.38938,0.78498 -0.50373,1.00714 -1.43538,2.89024 -2.47495,5.00246 -2.45442,4.98699 -4.665535,9.3405 -6.582885,12.96118 l -0.197458,0.37287 h -0.159289 c -0.08761,0 -0.159288,-0.002 -0.159288,-0.003 z"
       id="path31070" />
    <path
       style="fill:#ac0000;stroke-width:0.00390625"
       d="m 92.508427,137.32986 c -0.01626,-0.0128 -0.0221,-0.04 -0.0221,-0.10304 0,-0.49049 0.612024,-2.75464 1.793522,-6.63502 0.06443,-0.21162 0.130955,-0.42959 0.147824,-0.48438 0.01687,-0.0548 0.03532,-0.11499 0.04099,-0.13379 l 0.01032,-0.0342 h 0.12698 0.12698 l -0.0028,0.009 c -0.02473,0.0776 -0.275516,0.90569 -0.402511,1.3291 -0.675305,2.25157 -1.085419,3.74343 -1.200543,4.36719 -0.02712,0.14692 -0.03277,0.19276 -0.03307,0.26824 -2.56e-4,0.0643 2.91e-4,0.0698 0.0079,0.0801 0.02532,0.0341 0.06514,0.0167 0.144132,-0.0629 0.112715,-0.11358 0.281944,-0.35522 0.528191,-0.75419 0.528512,-0.85629 1.487814,-2.60496 2.755816,-5.02344 l 0.110594,-0.21093 0.163051,-0.001 c 0.08968,-5.6e-4 0.163051,2.1e-4 0.163051,0.002 0,0.001 -0.01651,0.0336 -0.03669,0.0713 -0.390422,0.72991 -0.68576,1.2772 -0.989612,1.83383 -1.663869,3.04804 -2.801229,4.93301 -3.247135,5.38153 -0.09333,0.0939 -0.152771,0.12636 -0.184933,0.10106 z"
       id="path31109" />
    <path
       style="fill:#ac0000;stroke-width:0.015625"
       d="m 96.664062,129.92005 c 0,-0.005 0.04355,-0.0939 0.09678,-0.19686 l 0.09678,-0.18723 0.05557,0.009 c 0.03056,0.005 0.09986,0.009 0.154005,0.009 l 0.09844,1.7e-4 -0.09844,0.18724 -0.09844,0.18725 -0.152344,2.5e-4 c -0.08379,1.4e-4 -0.152344,-0.004 -0.152344,-0.009 z"
       id="path31148" />
    <path
       style="fill:#ac0000;stroke-width:0.015625"
       d="m 94.498216,129.90302 c 0.0047,-0.0154 0.03744,-0.12294 0.07273,-0.23896 0.77378,-2.54367 2.36664,-7.53213 3.930234,-12.30856 l 0.420692,-1.28512 0.113281,-3e-5 c 0.0623,-2e-5 0.113281,0.004 0.113281,0.009 0,0.0118 -0.08228,0.26531 -0.575052,1.77173 -1.370342,4.18917 -2.74314,8.49728 -3.694396,11.59375 l -0.146403,0.47656 -0.121468,0.005 c -0.110687,0.004 -0.120708,0.002 -0.112902,-0.0234 z"
       id="path31187" />
    <path
       style="fill:#ac0000;stroke-width:0.015625"
       d="m 98.929687,116.05578 c 0,-0.008 0.43327,-1.31757 0.962822,-2.91016 1.774871,-5.33781 3.232781,-9.62872 4.729231,-13.919058 l 0.22617,-0.648437 0.11839,-0.0046 0.1184,-0.0046 -0.029,0.08268 c -1.70948,4.870925 -3.9843,11.584675 -5.802671,17.125645 l -0.09614,0.29297 H 99.0433 c -0.06247,0 -0.11359,-0.007 -0.11359,-0.0145 z"
       id="path31226" />
    <path
       style="fill:#ac0000;stroke-width:0.015625"
       d="m 104.85898,98.542969 c 0.006,-0.01504 0.14433,-0.406872 0.30758,-0.870739 1.21201,-3.443836 2.31058,-6.460286 3.0844,-8.469105 0.32143,-0.834433 0.45798,-1.176455 0.45907,-1.149857 0.002,0.05152 -0.40034,1.312524 -0.7784,2.438919 -0.45052,1.342297 -0.79934,2.339874 -1.4943,4.273438 -0.4987,1.387509 -0.74454,2.077206 -1.07212,3.007812 -0.12857,0.365235 -0.24496,0.693946 -0.25864,0.730469 l -0.0249,0.06641 h -0.11673 c -0.10487,0 -0.11565,-0.0028 -0.10598,-0.02734 z"
       id="path31265" />
    <path
       style="fill:#ac0000;stroke-width:0.015625"
       d="m 108.87482,87.231192 c 1.5e-4,-0.241661 -0.005,-0.296069 -0.0362,-0.415559 -0.15528,-0.587152 -0.5904,-1.101619 -1.46364,-1.730546 -0.71468,-0.514726 -1.7032,-1.075868 -3.25781,-1.84932 -1.38316,-0.688147 -1.6446,-0.808832 -7.710689,-3.559334 -2.595175,-1.17671 -4.72066,-2.141633 -4.7233,-2.144274 -0.0026,-0.0026 0.129082,-1.724934 0.292718,-3.82732 0.163635,-2.102385 0.297518,-3.836471 0.297518,-3.853523 0,-0.02712 0.01064,-0.031 0.08496,-0.031 h 0.08495 l -0.0069,0.05078 c -0.0082,0.06015 -0.0815,1.047913 -0.146988,1.980468 -0.225685,3.213736 -0.291824,5.166517 -0.186146,5.496023 0.02343,0.07306 0.169831,0.1587 0.8342,0.487981 0.908643,0.450351 1.808282,0.866917 3.571345,1.653664 2.931326,1.308072 4.519932,2.047278 6.303652,2.933208 3.8619,1.918105 5.71896,3.175906 6.12278,4.146998 0.0473,0.113797 0.049,0.125687 0.047,0.329001 -0.002,0.185794 -0.008,0.234771 -0.0549,0.41088 l -0.0528,0.199942 1.8e-4,-0.278067 z"
       id="path31304" />
    <path
       style="fill:#ac0000;stroke-width:0.015625"
       d="m 92.283836,69.753906 c 0.0036,-0.03652 0.07666,-0.973437 0.162326,-2.082031 0.196079,-2.537304 0.249479,-3.209023 0.327922,-4.125 0.330772,-3.862387 0.725111,-7.336143 1.061584,-9.351563 0.04233,-0.253515 0.08489,-0.497851 0.09459,-0.542968 l 0.01764,-0.08203 h 0.100268 c 0.05515,0 0.100267,0.0023 0.100267,0.0051 0,0.0028 -0.0137,0.0819 -0.03045,0.175782 -0.398557,2.2346 -1.18331,9.72062 -1.658716,15.823045 l -0.01917,0.246093 h -0.08141 -0.08141 z"
       id="path31343" />
    <path
       style="fill:#ac0000;stroke-width:0.015625"
       d="m 113.53125,67.420519 c -2.84086,-1.188514 -3.32053,-1.391808 -4.25781,-1.804553 -2.58449,-1.138119 -4.18713,-1.919844 -5.01737,-2.447335 -1.28873,-0.818789 -2.80079,-2.165392 -4.2074,-3.746983 -0.534745,-0.601275 -1.092491,-1.285941 -1.609967,-1.976336 -0.382978,-0.510952 -0.634261,-0.868335 -1.18102,-1.679687 -1.464443,-2.173131 -2.158902,-3.002389 -2.596461,-3.100448 -0.133165,-0.02984 -0.255143,0.0353 -0.326938,0.174602 -0.03634,0.07051 -0.09479,0.284348 -0.139449,0.510133 -0.04779,0.241645 -0.03343,0.2204 -0.149013,0.2204 -0.05528,0 -0.10051,-0.0041 -0.10051,-0.009 0,-0.005 0.02495,-0.126258 0.05545,-0.269531 0.112103,-0.526663 0.205703,-0.821995 0.284408,-0.897382 0.223878,-0.214437 0.647098,-0.03719 1.184932,0.496261 0.425651,0.422182 0.654381,0.728365 1.176323,1.574653 1.384687,2.245164 2.525005,3.82357 3.733285,5.167534 0.29236,0.325189 1.00392,1.044286 1.30033,1.314086 1.77145,1.612458 3.7471,2.828561 6.67933,4.11143 0.51357,0.224686 7.50948,3.136636 7.5625,3.147786 0.029,0.0061 0.072,-0.144878 0.60782,-2.138834 0.78251,-2.911774 1.07532,-3.992361 1.26936,-4.684468 0.6691,-2.386615 1.2809,-4.413035 1.61805,-5.359375 0.0689,-0.193359 0.1387,-0.400781 0.15514,-0.460937 0.23784,-0.87038 -0.33278,-1.558912 -1.59745,-1.927557 -0.26649,-0.07768 -0.42961,-0.113067 -0.87749,-0.190361 -0.19571,-0.03377 -0.42768,-0.07962 -0.51549,-0.101878 -1.07171,-0.271664 -1.14012,-0.836101 -0.26026,-2.147392 0.79474,-1.184424 2.43904,-3.038966 5.81843,-6.562375 0.29254,-0.305009 0.64088,-0.668357 0.77408,-0.807439 l 0.24219,-0.252877 0.177,-0.0012 0.177,-0.0012 -0.052,0.05982 c -0.0286,0.0329 -0.34775,0.372161 -0.70922,0.753906 -4.32741,4.570113 -6.16645,6.741349 -6.62941,7.826894 -0.22477,0.527044 -0.143,0.833285 0.25828,0.967363 0.16031,0.05356 0.35439,0.07901 0.71585,0.09386 0.51486,0.02116 0.80709,0.09444 1.25,0.31347 0.5716,0.282673 1.01782,0.680211 1.21926,1.086244 0.0913,0.184082 0.12299,0.312054 0.1121,0.453125 -0.0299,0.387434 -0.68169,2.932564 -1.52057,5.9375 -0.39483,1.414309 -2.08946,7.391278 -2.09825,7.400544 -0.005,0.0055 -1.14145,-0.463682 -2.52504,-1.042525 z"
       id="path31382" />
    <path
       style="fill:#ac0000;stroke-width:0.015625"
       d="m 135.56212,54.957031 c 0.009,-0.108986 0.032,-0.801456 0.0549,-1.675781 0.0757,-2.882147 0.0743,-6.911642 -0.005,-15.819277 -0.0316,-3.527164 -0.0596,-6.415199 -0.0623,-6.417855 -0.007,-0.0066 -9.84447,10.232033 -11.46213,11.929181 l -0.56906,0.597013 h -0.17891 -0.17891 l 0.40605,-0.417968 c 0.22332,-0.229883 0.6935,-0.714715 1.04484,-1.077403 0.35133,-0.362689 3.04348,-3.133792 5.98254,-6.158007 l 5.34375,-5.498572 0.01,0.478319 c 0.005,0.263075 0.0122,4.746288 0.0151,9.962694 0.005,9.453094 0.002,10.259461 -0.0483,12.328125 -0.0235,0.964617 -0.0473,1.727547 -0.0564,1.800781 l -0.008,0.06641 h -0.14792 -0.14791 z"
       id="path31421" />
    <path
       style="fill:#ac0000;stroke-width:0.015625"
       d="m 134.07669,61.422118 c -0.40736,-0.08863 -0.88237,-0.421279 -1.63326,-1.143761 -0.14284,-0.13743 -0.28559,-0.265873 -0.31723,-0.285428 -0.0316,-0.01956 -0.0538,-0.03929 -0.0492,-0.04386 0.005,-0.0046 0.0981,0.03715 0.20785,0.0927 0.21091,0.106754 0.46456,0.265383 0.86471,0.540789 0.62973,0.433409 1.0861,0.604174 1.36275,0.50991 0.5251,-0.17892 0.86627,-2.042543 1.02879,-5.619816 l 0.019,-0.417969 h 0.14575 0.14575 v 0.09052 c 0,0.04979 -0.0105,0.297639 -0.0232,0.550781 -0.16922,3.353116 -0.48732,4.996001 -1.07236,5.538383 -0.20082,0.186183 -0.41473,0.245303 -0.67928,0.187743 z"
       id="path31460" />
    <path
       style="fill:#ac0000;stroke-width:0.015625"
       d="m 124.21154,73.5 c -6.7e-4,-0.05915 0.0751,-0.390951 0.13176,-0.576646 0.23288,-0.763855 0.70386,-1.855051 2.39138,-5.540542 1.94458,-4.246884 2.75218,-5.800942 3.50696,-6.748354 0.36518,-0.458392 0.76225,-0.744664 1.0943,-0.788943 l 0.0703,-0.0094 -0.0781,0.02889 c -0.36977,0.136728 -0.73322,0.478768 -1.18409,1.114345 -0.40655,0.573095 -0.78991,1.245989 -1.36039,2.387816 -0.60156,1.204038 -0.64841,1.307386 -2.86531,6.320313 -0.92352,2.088281 -1.68527,3.807422 -1.69278,3.820312 -0.0111,0.01901 -0.0137,0.01753 -0.014,-0.0078 z"
       id="path31499" />
    <path
       style="fill:#ac0000;stroke-width:0.0110485"
       d="m 71.639692,161.6121 c -0.708103,-0.11093 -0.726905,-0.60773 -0.06458,-1.70653 0.470378,-0.78037 1.473762,-2.3287 2.924836,-4.51333 0.753105,-1.13382 0.814133,-1.22452 2.748883,-4.0852 l 1.414153,-2.09094 h 0.1097 c 0.08462,0 0.107887,0.003 0.101769,0.0138 -0.0044,0.008 -0.709115,1.07282 -1.566119,2.36715 -1.797111,2.71419 -2.534845,3.8315 -3.067596,4.64592 -1.633572,2.49725 -2.838836,4.40283 -3.001809,4.746 -0.03495,0.0736 -0.03704,0.0837 -0.02587,0.12517 0.0376,0.13965 0.223023,0.2018 0.602478,0.20195 0.439068,1.6e-4 1.059881,-0.0936 1.922447,-0.29025 0.69736,-0.15901 1.382517,-0.34423 2.65165,-0.71684 1.754344,-0.51505 2.96388,-0.75012 4.211999,-0.81858 0.313964,-0.0172 1.224578,-0.007 1.522195,0.0165 1.341629,0.10756 2.608522,0.35408 4.772971,0.92875 1.825733,0.48474 3.366705,0.81225 3.841817,0.81653 0.136636,0.001 0.141342,4.7e-4 0.168742,-0.0269 0.267933,-0.26734 -0.621967,-2.01895 -2.629531,-5.17574 -0.686944,-1.08019 -1.213176,-1.88347 -2.402019,-3.66662 -0.818933,-1.22832 -1.277024,-1.92347 -1.580921,-2.39903 -0.182932,-0.28627 -0.475107,-0.75562 -0.475107,-0.76321 0,-0.003 0.05132,-0.005 0.114043,-0.005 h 0.114043 l 1.746442,2.59365 c 0.960543,1.4265 1.852966,2.75523 1.983163,2.95272 2.075083,3.14765 3.585599,5.86817 3.628553,6.53522 0.0049,0.0755 0.0025,0.0934 -0.01636,0.12319 -0.109459,0.17272 -0.896108,0.1237 -2.089803,-0.13022 -0.932208,-0.19829 -1.930441,-0.47332 -3.18198,-0.87667 -0.577296,-0.18606 -0.719051,-0.22971 -1.077472,-0.33181 -1.080472,-0.30779 -2.023673,-0.48612 -2.982868,-0.56396 -0.297597,-0.0242 -1.049174,-0.0336 -1.354322,-0.017 -1.175423,0.0639 -2.231929,0.28666 -3.623047,0.76378 -0.590991,0.20269 -1.60409,0.53936 -1.92797,0.6407 -1.191277,0.37272 -2.092473,0.59771 -2.745564,0.68545 -0.192523,0.0259 -0.654842,0.0385 -0.766937,0.0209 z"
       id="path31538" />
    <path
       style="fill:#ac0000;stroke-width:0.0110485"
       d="m 83.684782,148.99789 c -0.192115,-0.32702 -0.31895,-0.55776 -0.444873,-0.8093 -0.115384,-0.2305 -0.230912,-0.48559 -0.223344,-0.49315 0.0023,-0.002 0.232832,0.33518 0.512296,0.74995 l 0.508117,0.75414 -0.05612,0.007 c -0.03087,0.004 -0.08127,0.008 -0.112003,0.008 l -0.05588,0.001 z"
       id="path31577" />
    <path
       style="fill:#ac0000;stroke-width:0.0110485"
       d="m 82.700797,146.43739 c -0.0309,-0.31768 -0.03816,-0.87945 -0.01884,-1.4584 0.05762,-1.72629 0.249528,-5.68381 0.583177,-12.02634 l 0.07411,-1.40869 0.09784,-0.003 0.09784,-0.003 -0.0071,0.0971 c -0.0039,0.0534 -0.188241,3.40091 -0.409623,7.43888 -0.221382,4.03797 -0.403927,7.36662 -0.405656,7.397 -0.0028,0.0494 -0.0041,0.0459 -0.01174,-0.0332 z"
       id="path31616" />
    <path
       style="fill:#ac0000;stroke-width:0.0110485"
       d="m 83.344687,131.48157 c 0,-0.0313 0.0075,-0.19161 0.01666,-0.35631 0.0092,-0.1647 0.07888,-1.4579 0.154922,-2.87377 0.07604,-1.41587 0.20778,-3.84461 0.292746,-5.39721 0.08497,-1.5526 0.174332,-3.18585 0.198589,-3.62945 0.02426,-0.4436 0.04701,-0.83762 0.05055,-0.87559 l 0.0064,-0.0691 h 0.09955 0.09955 l -0.007,0.0911 c -0.0038,0.0501 -0.165717,2.98974 -0.359724,6.53245 -0.194007,3.54272 -0.355909,6.48481 -0.359782,6.53798 l -0.007,0.0967 h -0.09274 -0.09274 z"
       id="path31655" />
    <path
       style="fill:#ac0000;stroke-width:0.0110485"
       d="m 84.062746,118.26637 c -1.81e-4,-0.0257 0.28737,-5.1892 0.439772,-7.89695 l 0.151422,-2.69032 0.09566,-0.003 0.09566,-0.003 -0.005,0.0639 c -0.0042,0.0534 -0.578532,10.5129 -0.578532,10.53587 0,0.004 -0.04475,0.008 -0.09944,0.008 -0.07213,0 -0.09946,-0.004 -0.09953,-0.0138 z"
       id="path31694" />
    <path
       style="fill:#ac0000;stroke-width:0.0110485"
       d="m 84.659464,107.62897 c 0,-0.074 0.534749,-9.448852 0.547477,-9.598006 l 0.0068,-0.0801 h 0.08324 0.08324 l -0.0072,0.102199 c -0.01003,0.142243 -0.525752,9.546847 -0.525752,9.587507 v 0.033 h -0.09391 -0.09391 z"
       id="path31733" />
    <path
       style="fill:#ac0000;stroke-width:0.0110485"
       d="m 85.211891,97.936394 c 0,-0.04488 0.428055,-7.384537 0.596935,-10.235371 0.06667,-1.125463 0.121221,-2.063898 0.121221,-2.085413 v -0.03912 h 0.07742 0.07742 l -0.0061,0.07458 c -0.0058,0.07043 -0.03818,0.62516 -0.209194,3.58249 -0.140112,2.422887 -0.314585,5.511369 -0.41974,7.430146 -0.0333,0.60767 -0.06362,1.145872 -0.06737,1.196004 l -0.0068,0.09115 h -0.08187 c -0.06012,0 -0.08187,-0.0038 -0.08187,-0.01447 z"
       id="path31772" />
    <path
       style="fill:#ac0000;stroke-width:0.0110485"
       d="m 85.960425,85.142838 c 0.04953,-0.848534 0.369422,-6.150211 0.467488,-7.747791 0.05483,-0.893275 0.110672,-1.803122 0.124085,-2.021884 l 0.02439,-0.397747 0.07458,-0.0033 c 0.06647,-0.0029 0.07458,-0.001 0.07458,0.01725 0,0.01129 -0.01489,0.256375 -0.0331,0.544646 -0.08363,1.324378 -0.278124,4.49641 -0.403032,6.573206 -0.08527,1.417784 -0.204686,3.431769 -0.204686,3.452162 0,0.01373 -0.01469,0.01708 -0.07481,0.01708 h -0.07481 z"
       id="path31811" />
    <path
       style="fill:#ac0000;stroke-width:0.0110485"
       d="m 86.581911,74.928111 c 0,-0.117377 0.550405,-8.686939 0.607594,-9.459967 0.0061,-0.08203 0.01105,-0.165314 0.01108,-0.185063 l 4.5e-5,-0.03591 h 0.07734 c 0.05923,0 0.07734,0.0037 0.07734,0.0156 0,0.0086 -0.02724,0.424969 -0.06053,0.925315 -0.166022,2.495082 -0.35281,5.379872 -0.480623,7.422837 -0.04277,0.683628 -0.08056,1.269063 -0.08398,1.300966 l -0.0062,0.05801 h -0.07102 -0.07102 z"
       id="path31850" />
    <path
       style="fill:#ac0000;stroke-width:0.0110485"
       d="m 87.206319,65.200217 c 0.0029,-0.02583 0.0103,-0.126506 0.01644,-0.223733 0.158732,-2.511836 0.575216,-8.331307 0.795458,-11.114835 0.115084,-1.454484 0.144971,-1.822419 0.150098,-1.847869 0.0046,-0.02271 0.0112,-0.02486 0.07674,-0.02486 h 0.07174 l -0.006,0.04143 c -0.01349,0.09392 -0.282121,3.65122 -0.430304,5.698287 -0.153003,2.113646 -0.396255,5.609735 -0.486228,6.988203 -0.01567,0.24003 -0.03116,0.457548 -0.03442,0.483374 l -0.0059,0.04696 h -0.07645 -0.07645 z"
       id="path31889" />
    <path
       style="fill:#ac0000;stroke-width:0.0110485"
       d="m 88.172901,51.968406 c 0,-0.05236 0.155722,-1.82781 0.232227,-2.647708 0.619164,-6.635519 1.171364,-9.311063 2.080327,-10.079695 0.300282,-0.253922 0.653897,-0.396909 1.129067,-0.456547 0.142834,-0.01793 0.604301,-0.01797 0.767874,-8e-5 0.533366,0.05835 0.98366,0.164409 1.695442,0.399335 0.610027,0.201341 0.980407,0.287258 1.237946,0.287167 0.144242,-5.1e-5 0.173385,-0.01567 0.200076,-0.107255 0.03011,-0.103309 0.01805,-0.404811 -0.0241,-0.60257 l -0.0065,-0.03038 h 0.09391 0.09391 l 0.0091,0.07458 c 0.01685,0.138042 0.01093,0.518612 -0.0095,0.610807 -0.0666,0.300432 -0.218443,0.427155 -0.465755,0.388706 -0.106189,-0.01651 -0.17997,-0.04125 -0.576769,-0.193435 -1.506505,-0.577781 -2.31947,-0.789232 -2.94901,-0.767035 -0.449729,0.01586 -0.780761,0.151704 -1.067416,0.438039 -0.561381,0.560754 -0.949058,1.711285 -1.467067,4.353893 -0.135473,0.691111 -0.285367,2.004388 -0.498116,4.364175 -0.09588,1.063528 -0.332029,3.884691 -0.332029,3.966652 0,0.01955 -0.0076,0.02187 -0.07182,0.02187 -0.0626,0 -0.07182,-0.0026 -0.07182,-0.02051 z"
       id="path31928" />
    <path
       style="fill:#ac0000;stroke-width:0.0110485"
       d="m 95.482264,38.70581 c -0.0596,-0.28525 -0.08515,-0.397161 -0.139369,-0.610432 -0.383402,-1.508101 -1.424213,-4.47904 -3.022631,-8.627935 -0.09344,-0.242531 -0.169887,-0.445134 -0.169887,-0.450229 0,-0.0051 0.06836,-0.0092 0.151917,-0.0092 l 0.151918,1.03e-4 0.103666,0.267824 c 0.810395,2.09367 1.214997,3.171211 1.677021,4.46627 0.809036,2.267732 1.304069,3.955895 1.417437,4.833737 0.0067,0.05165 0.01486,0.107586 0.0182,0.124297 l 0.0061,0.03038 h -0.09458 c -0.08918,0 -0.09488,-0.0014 -0.09977,-0.02486 z"
       id="path31967" />
    <path
       style="fill:#ac0000;stroke-width:0.0110485"
       d="M 91.852967,28.259412 C 90.441551,24.628474 88.285443,19.2561 86.959895,16.067344 l -0.132043,-0.317645 h 0.135177 0.135178 l 0.129551,0.317645 c 0.07125,0.174705 0.462659,1.138 0.869792,2.140656 0.407133,1.002655 1.067439,2.625962 1.467348,3.607349 0.886061,2.174419 1.141336,2.804215 1.630099,4.02167 0.493317,1.2288 1.25369,3.148821 1.25369,3.165701 0,0.0029 -0.06857,0.0052 -0.152374,0.0052 h -0.152374 z"
       id="path32006" />
    <path
       style="fill:#ac0000;stroke-width:0.0110485"
       d="m 71.725355,24.359276 c 0.0028,-0.0046 0.159212,-0.358801 0.347647,-0.787209 0.488709,-1.111081 1.133383,-2.559059 1.91352,-4.297883 0.372148,-0.829469 1.016039,-2.268818 1.430868,-3.198553 1.538833,-3.448909 1.987474,-4.433673 2.579679,-5.662379 1.306769,-2.7112814 2.186073,-4.0067972 2.976998,-4.3861388 0.19673,-0.094355 0.356596,-0.1287504 0.547611,-0.1178194 0.457748,0.026195 0.911459,0.3573603 1.425172,1.04024 0.871974,1.1591154 1.912194,3.3342972 3.812163,7.9715242 0.110794,0.270413 0.232509,0.567481 0.270479,0.66015 l 0.06903,0.168491 H 86.963264 86.828002 L 86.664479,15.360238 C 84.682857,10.640629 83.523525,8.2968592 82.599808,7.1428833 82.452511,6.9588684 82.162918,6.671145 82.029911,6.5766656 81.902983,6.4865045 81.735254,6.401809 81.61559,6.3674531 c -0.127402,-0.036578 -0.358877,-0.036556 -0.486135,4.53e-5 -0.255247,0.073412 -0.58567,0.2910806 -0.770024,0.5072591 -0.681021,0.7985812 -2.037116,3.4186325 -4.202262,8.1189975 -1.064269,2.310446 -2.51912,5.566425 -3.835469,8.583837 -0.167011,0.382832 -0.312896,0.717188 -0.324189,0.743014 l -0.02053,0.04696 h -0.128332 c -0.07058,0 -0.126064,-0.0037 -0.123292,-0.0083 z"
       id="path32045" />
    <path
       style="fill:#ac0000;stroke-width:0.0110485"
       d="m 66.534723,37.589907 c 0.0042,-0.01975 0.04218,-0.157718 0.08436,-0.306597 0.657046,-2.3194 2.21235,-6.281795 4.763902,-12.136825 l 0.337037,-0.773398 0.12918,-0.0031 c 0.101774,-0.0025 0.127899,-1.18e-4 0.123143,0.01105 -0.0033,0.0078 -0.131062,0.30254 -0.283869,0.654988 -2.282302,5.264113 -3.973401,9.511827 -4.706465,11.821732 -0.08821,0.277938 -0.232232,0.751384 -0.232232,0.763397 0,0.0026 -0.05011,0.0047 -0.111363,0.0047 h -0.111363 z"
       id="path32084" />
    <path
       style="fill:#ac0000;stroke-width:0.0110485"
       d="m 74.147644,49.091441 c -0.0028,-0.01367 -0.013,-0.13424 -0.02267,-0.267928 -0.07688,-1.061935 -0.214101,-2.561959 -0.442693,-4.839262 -0.260407,-2.594253 -0.44231,-3.703844 -0.730846,-4.458087 -0.123599,-0.323091 -0.262156,-0.556068 -0.434316,-0.73028 -0.267164,-0.270349 -0.562364,-0.375432 -1.010942,-0.359868 -0.374482,0.01299 -0.74492,0.09466 -1.358971,0.299594 -0.532898,0.177851 -1.037509,0.375483 -2.568786,1.006068 -0.699537,0.288072 -0.79372,0.319501 -0.933602,0.311547 -0.478682,-0.02722 -0.539301,-0.705067 -0.191636,-2.14291 l 0.06879,-0.2845 h 0.113123 0.113124 l -0.02193,0.07458 c -0.01206,0.04102 -0.05615,0.208818 -0.09797,0.372889 -0.22911,0.898711 -0.267242,1.42769 -0.114417,1.587205 0.02858,0.02983 0.03495,0.03141 0.126898,0.03141 0.297545,0 1.008618,-0.20854 1.95961,-0.574705 0.4276,-0.16464 0.715371,-0.268937 0.988845,-0.358387 1.143888,-0.374151 1.952142,-0.468094 2.507284,-0.291421 0.447373,0.142376 0.745355,0.439309 0.947879,0.94454 0.288153,0.718851 0.553598,2.386964 0.853323,5.362471 0.103618,1.02866 0.251421,2.678186 0.34252,3.822628 0.01814,0.227877 0.03577,0.437937 0.03918,0.466801 l 0.0062,0.05248 h -0.06646 c -0.06005,0 -0.06695,-0.0024 -0.07154,-0.02486 z"
       id="path32123" />
    <path
       style="fill:#ac0000;stroke-width:0.0110485"
       d="m 74.976406,61.454761 c -0.003,-0.01975 -0.03077,-0.446085 -0.0616,-0.947413 -0.212107,-3.448379 -0.54694,-8.45498 -0.724132,-10.827572 -0.0211,-0.282567 -0.03837,-0.524944 -0.03837,-0.538617 -2e-6,-0.02302 0.0049,-0.02486 0.06629,-0.02486 0.03646,0 0.06629,0.0037 0.06629,0.0083 0,0.0046 0.0322,0.423436 0.07155,0.93084 0.21586,2.783301 0.487574,6.693308 0.717879,10.330388 0.03328,0.525635 0.06348,0.989259 0.06711,1.030277 l 0.0066,0.07458 h -0.08303 -0.08303 z"
       id="path32162" />
    <path
       style="fill:#ac0000;stroke-width:0.0110485"
       d="m 75.776435,74.734193 c 0,-0.110569 -0.593571,-9.970286 -0.751387,-12.481175 -0.02425,-0.38587 -0.0441,-0.715255 -0.0441,-0.731966 l -6e-6,-0.03038 h 0.08286 c 0.04557,0 0.08286,0.003 0.08286,0.0067 0,0.0037 0.04218,0.681113 0.09373,1.505364 0.11105,1.7755 0.240873,3.896845 0.348316,5.691561 0.06979,1.165704 0.330163,5.581641 0.349017,5.919257 l 0.0076,0.135345 h -0.08443 c -0.06298,0 -0.08443,-0.0037 -0.08443,-0.01473 z"
       id="path32201" />
    <path
       style="fill:#ac0000;stroke-width:0.0110485"
       d="m 76.534259,87.960217 c -0.0032,-0.02583 -0.06086,-1.031382 -0.128053,-2.234568 -0.192568,-3.448097 -0.609177,-10.713706 -0.62481,-10.896626 l -0.0068,-0.0801 h 0.08331 0.08331 l 0.0056,0.03591 c 0.0031,0.01975 0.02584,0.393881 0.05062,0.831403 0.02478,0.437523 0.09698,1.700371 0.160439,2.80633 0.13556,2.362477 0.335634,5.898445 0.452301,7.993622 0.04551,0.817316 0.08413,1.509648 0.08583,1.538516 l 0.0031,0.05249 -0.07943,-7e-6 -0.07943,-6e-6 z"
       id="path32240" />
    <path
       style="fill:#ac0000;stroke-width:0.0110485"
       d="m 50.37031,66.772435 c 0.02431,-0.01099 0.934154,-0.41783 2.021883,-0.904096 2.133337,-0.953703 2.353415,-1.052906 2.740039,-1.235118 0.323681,-0.152547 1.10151,-0.541393 1.403165,-0.701459 2.953186,-1.567035 5.091767,-3.298949 6.663739,-5.396579 0.364783,-0.486764 0.635525,-0.897813 1.047929,-1.59099 0.837865,-1.408305 1.552888,-2.450836 2.195392,-3.20097 0.178451,-0.208345 0.547392,-0.576421 0.699542,-0.697903 0.353345,-0.282124 0.640901,-0.415937 0.892713,-0.41542 0.305196,6.26e-4 0.559924,0.204119 0.753548,0.601982 0.281373,0.57817 0.444296,1.517555 0.513548,2.96101 0.0064,0.133687 0.01639,0.665675 0.02217,1.182194 0.02071,1.850595 0.0802,3.377419 0.221726,5.69 0.07257,1.185807 0.229752,3.409225 0.259513,3.670879 l 0.0066,0.058 h -0.06709 c -0.06219,0 -0.06709,-0.0018 -0.06714,-0.02486 0,-0.01367 -0.02226,-0.333113 -0.0494,-0.709869 -0.12857,-1.784507 -0.225711,-3.342197 -0.326246,-5.231485 -0.196877,-3.699802 -0.309376,-5.241456 -0.45835,-6.281097 -0.161376,-1.126199 -0.352278,-1.559502 -0.727185,-1.650543 -0.07067,-0.01716 -0.232988,-0.01792 -0.294921,-0.0014 -0.326061,0.0871 -0.803128,0.589088 -1.706399,1.795549 -0.527835,0.705006 -1.146237,1.569879 -2.161739,3.023328 -0.536752,0.76823 -0.637891,0.907472 -0.861586,1.186167 -0.379825,0.473213 -0.727584,0.856087 -1.280353,1.409635 -1.020048,1.021486 -1.842972,1.697442 -2.812185,2.309951 -1.672371,1.056882 -4.973654,2.754243 -7.853198,4.03774 l -0.307044,0.136858 -0.256432,-7.8e-4 -0.256433,-7.81e-4 z"
       id="path32279" />
    <path
       style="fill:#ac0000;stroke-width:0.0110485"
       d="m 58.087717,82.652988 c 2.177869,-1.171445 4.956227,-2.264396 7.77265,-3.057605 0.348652,-0.09819 0.577388,-0.159576 1.530224,-0.410651 1.511952,-0.398404 2.994937,-0.7957 3.226174,-0.864301 l 0.104962,-0.03114 -0.0025,-0.148813 c -0.0068,-0.41331 -0.174142,-2.152133 -0.456594,-4.745006 -0.181628,-1.667324 -0.401129,-4.13913 -0.551395,-6.209281 -0.01235,-0.170148 -0.0245,-0.328004 -0.027,-0.350792 l -0.0045,-0.04143 h 0.06524 c 0.04047,0 0.06524,0.0047 0.06524,0.01228 0,0.02349 0.100174,1.200392 0.138606,1.628434 0.104794,1.167138 0.09219,1.043238 0.613881,6.036182 0.22807,2.182794 0.405946,3.929655 0.400618,3.934346 -0.0053,0.0046 -1.344521,0.365233 -2.976115,0.801318 -3.613339,0.965755 -3.552924,0.949051 -4.293688,1.187163 -1.783776,0.573377 -3.834381,1.425471 -5.316335,2.209112 l -0.19114,0.101073 -0.09612,-1.85e-4 -0.09612,-1.84e-4 z"
       id="path32318" />
    <path
       style="fill:#ac0000;stroke-width:0.0110485"
       d="m 54.238836,89.861949 -1.158561,-3.448514 0.04266,-0.0413 c 0.06661,-0.06449 1.695067,-1.528329 1.843571,-1.657209 0.667821,-0.579575 1.593807,-1.207361 2.701369,-1.831431 0.331354,-0.186706 0.31795,-0.181037 0.419176,-0.177301 l 0.08672,0.0032 -0.244664,0.135362 c -0.677882,0.375042 -1.28985,0.767308 -1.658877,1.063323 -0.566635,0.454526 -3.021777,2.468718 -3.021777,2.479058 0,0.0106 1.363121,4.041703 2.248664,6.649883 l 0.09284,0.273452 -0.09628,-6e-6 -0.09628,-5e-6 z"
       id="path32357" />
    <path
       style="fill:#ac0000;stroke-width:0.0110485"
       d="m 77.256933,101.23504 c -1.7e-5,-0.0801 -0.372295,-6.930239 -0.596499,-10.97599 -0.06691,-1.207339 -0.121649,-2.207922 -0.121649,-2.223519 0,-0.02792 0.0013,-0.02836 0.08286,-0.02836 h 0.08286 v 0.04206 c 0,0.02313 0.06704,1.249935 0.148977,2.726228 0.190816,3.437979 0.430171,7.791384 0.507803,9.235961 0.03331,0.61982 0.06316,1.15553 0.06632,1.19048 l 0.0058,0.0635 h -0.08822 -0.08822 z"
       id="path32396" />
    <path
       style="fill:#ac0000;stroke-width:0.0110485"
       d="m 56.736179,97.296236 c -0.733312,-2.183054 -1.333286,-3.972918 -1.333276,-3.977476 10e-6,-0.0046 0.04183,-0.0083 0.09294,-0.0083 h 0.09293 l 0.03283,0.09667 c 0.132628,0.390534 2.558573,7.54738 2.604722,7.68426 l 0.05867,0.17401 h -0.107761 -0.107761 z"
       id="path32435" />
    <path
       style="fill:#ac0000;stroke-width:0.0110485"
       d="m 77.871077,112.69791 c -0.0034,-0.0319 -0.140403,-2.59116 -0.304463,-5.68724 -0.16406,-3.09608 -0.300896,-5.65534 -0.304079,-5.68724 l -0.0058,-0.058 h 0.08848 0.08849 v 0.0319 c 0,0.0176 0.08692,1.62719 0.193148,3.57697 0.1971,3.61757 0.42557,7.8411 0.42557,7.86714 0,0.0107 -0.02279,0.0145 -0.08759,0.0145 h -0.08759 z"
       id="path32474" />
    <path
       style="fill:#ac0000;stroke-width:0.0110485"
       d="m 61.838108,112.49903 c -0.160086,-0.48214 -1.890442,-5.64278 -2.826913,-8.43102 -0.513989,-1.53035 -0.934526,-2.78698 -0.934526,-2.79252 0,-0.006 0.0468,-0.0101 0.103994,-0.0101 h 0.103994 l 0.04936,0.1464 c 0.02715,0.0805 0.868302,2.56271 1.869234,5.51598 2.076786,6.12761 1.972429,5.81946 1.972429,5.82438 0,0.002 -0.05676,0.004 -0.126139,0.004 H 61.9234 Z"
       id="path32513" />
    <path
       style="fill:#ac0000;stroke-width:0.0110485"
       d="m 78.339697,121.54854 c 0,-0.0254 -0.104408,-2.0033 -0.232019,-4.39531 -0.127611,-2.39201 -0.23202,-4.35996 -0.23202,-4.37322 0,-0.0227 0.0049,-0.0241 0.08745,-0.0241 h 0.08745 l 0.0067,0.0801 c 0.0037,0.0441 0.05131,0.91289 0.105797,1.93074 0.05449,1.01784 0.158778,2.95847 0.231757,4.3125 0.07298,1.35403 0.13269,2.47394 0.13269,2.48868 0,0.0263 -0.0019,0.0268 -0.09391,0.0268 h -0.09391 z"
       id="path32552" />
    <path
       style="fill:#ac0000;stroke-width:0.0110485"
       d="m 64.854956,121.58093 c -0.0027,-0.008 -0.166999,-0.50602 -0.365212,-1.10761 -0.198213,-0.6016 -0.856629,-2.58427 -1.463146,-4.40595 l -1.102758,-3.31214 0.127854,0.003 0.127853,0.003 0.241238,0.71264 c 0.41105,1.21426 1.821167,5.43813 2.26913,6.79695 0.234323,0.71078 0.428753,1.2994 0.432065,1.30803 0.005,0.013 -0.01675,0.0157 -0.128088,0.0157 -0.09735,0 -0.135434,-0.004 -0.138936,-0.0138 z"
       id="path32591" />
    <path
       style="fill:#ac0000;stroke-width:0.0110485"
       d="m 78.913143,132.19858 c -5.94e-4,-0.002 -0.128701,-2.38676 -0.284682,-5.30053 l -0.283603,-5.29778 0.08718,-0.003 c 0.04795,-0.002 0.08975,-6.6e-4 0.0929,0.002 0.0031,0.003 0.131354,2.34882 0.284908,5.21261 0.153554,2.8638 0.281875,5.24792 0.285157,5.29806 l 0.006,0.0911 h -0.09337 c -0.05136,0 -0.09386,-0.001 -0.09445,-0.003 z"
       id="path32630" />
    <path
       style="fill:#ac0000;stroke-width:0.0110485"
       d=""
       id="path32669" />
    <path
       style="fill:#ac0000;stroke-width:0.0110485"
       d="m 68.208911,131.97761 c -0.505049,-1.62805 -1.091302,-3.4678 -1.842216,-5.78115 -0.387279,-1.19309 -1.478224,-4.52251 -1.503425,-4.58826 -0.0043,-0.0111 0.02331,-0.0135 0.129264,-0.011 l 0.134693,0.003 0.03632,0.11048 c 1.23609,3.7603 2.331527,7.17829 3.237022,10.10018 0.06434,0.2076 0.116974,0.38037 0.116974,0.38394 0,0.004 -0.05383,0.006 -0.119613,0.006 h -0.119613 z"
       id="path32708" />
    <path
       style="fill:#ac0000;stroke-width:0.0110485"
       d="m 79.47305,142.73889 c -0.007,-0.0751 -0.559343,-10.45733 -0.559023,-10.50716 l 1.95e-4,-0.0304 h 0.09391 c 0.08643,0 0.09391,0.002 0.09391,0.022 0,0.0121 0.126781,2.38243 0.281737,5.26739 0.154955,2.88496 0.281737,5.26154 0.281738,5.28129 l 1e-6,0.0359 h -0.09303 -0.09303 z"
       id="path32747" />
    <path
       style="fill:#ac0000;stroke-width:0.0110485"
       d="m 70.157669,138.51646 c -0.341877,-0.36153 -1.541397,-2.53255 -3.394574,-6.14386 -1.288854,-2.51161 -3.516233,-6.98098 -5.0802,-10.19374 -0.09357,-0.19222 -0.170129,-0.35256 -0.170129,-0.35631 0,-0.004 0.06836,-0.007 0.151917,-0.007 l 0.151918,5e-5 0.63484,1.27882 c 3.848636,7.75266 6.82215,13.57952 7.00886,13.73448 0.04249,0.0353 0.05209,-0.0771 0.02335,-0.27323 -0.07746,-0.52852 -0.525521,-2.15672 -1.13531,-4.12564 l -0.07111,-0.2296 0.122875,0.003 0.122875,0.003 0.152181,0.49719 c 1.009537,3.2982 1.567095,5.33536 1.578722,5.7682 0.0034,0.12472 -0.01297,0.13222 -0.09621,0.0442 z"
       id="path32786" />
    <path
       style="fill:#ac0000;stroke-width:0.0110485"
       d="m 78.671154,149.20993 c 0,-0.003 0.23903,-0.35936 0.531179,-0.79103 l 0.53118,-0.78486 -0.12811,-2.40476 c -0.07046,-1.32262 -0.128019,-2.40849 -0.127908,-2.41305 1.77e-4,-0.007 0.186413,-0.0127 0.18904,-0.006 5.57e-4,0.002 0.05988,1.08911 0.131836,2.41687 l 0.130824,2.41411 -0.521298,0.78703 -0.521297,0.78703 -0.107723,1.8e-4 c -0.05925,9e-5 -0.107723,-0.003 -0.107723,-0.006 z"
       id="path32825" />
    <path
       style="fill:#ac0000;stroke-width:0.00552427"
       d="m 61.435418,121.67883 c -0.738204,-1.51352 -1.737525,-3.58246 -2.686215,-5.5614 -0.192995,-0.40258 -0.412946,-0.86123 -0.48878,-1.01923 -0.07583,-0.15799 -0.139145,-0.29037 -0.140692,-0.29417 -0.0022,-0.005 0.02301,-0.007 0.115404,-0.007 h 0.118216 l 0.325305,0.65877 c 0.178917,0.36232 0.571772,1.15844 0.873011,1.76915 0.997969,2.0232 1.454012,2.94667 1.861912,3.77031 l 0.403538,0.81483 -0.149414,0.003 c -0.08218,0.002 -0.152163,0.005 -0.155525,0.007 -0.0039,0.003 -0.03111,-0.0473 -0.07676,-0.14086 z"
       id="path32864" />
    <path
       style="fill:#ac0000;stroke-width:0.00552427"
       d="m 58.067455,114.69624 c -0.07694,-0.16188 -0.715123,-1.48459 -0.994809,-2.06186 -0.653043,-1.34788 -1.473852,-3.02676 -2.022242,-4.1363 l -0.16314,-0.33008 h 0.08815 0.08815 l 0.359464,0.7223 c 0.594695,1.19497 1.245554,2.50472 1.602512,3.22479 0.617953,1.24658 1.32458,2.67569 1.32458,2.67888 0,0.002 -0.05283,0.003 -0.117391,0.003 l -0.11739,-8e-5 z"
       id="path32903" />
    <path
       style="fill:#ac0000;stroke-width:0.00552427"
       d="m 56.831465,111.7132 c -1.474506,-2.98274 -3.891507,-7.80211 -4.955763,-9.88154 -0.06609,-0.12913 -0.126734,-0.24783 -0.134766,-0.26378 l -0.0146,-0.029 3.213838,4e-5 3.213838,4e-5 0.860468,2.56184 c 1.395262,4.15407 2.003415,5.96695 2.412828,7.19256 l 0.24774,0.74163 H 59.332792 56.99054 Z"
       id="path32942" />
    <path
       style="fill:#ac0000;stroke-width:0.00552427"
       d="m 54.859411,108.11138 c -0.04633,-0.098 -0.783852,-1.58184 -1.179967,-2.37406 -0.67242,-1.34481 -1.47428,-2.92897 -2.094385,-4.13768 -0.01481,-0.0289 -0.0278,-0.0544 -0.02887,-0.0568 -0.0011,-0.002 0.03578,-0.004 0.08188,-0.003 l 0.08382,0.002 0.118071,0.23078 c 0.638673,1.24838 1.862417,3.67379 2.822049,5.59318 l 0.401173,0.8024 h -0.0885 -0.0885 z"
       id="path32981" />
    <path
       style="fill:#ac0000;stroke-width:0.00552427"
       d="m 51.404772,101.25009 c -0.318628,-0.62224 -0.821929,-1.590769 -1.229315,-2.365626 -1.373091,-2.61165 -2.407449,-4.471169 -3.091316,-5.557417 -0.104461,-0.165926 -0.298711,-0.457139 -0.36941,-0.553809 l -0.05353,-0.0732 0.07574,2.71e-4 0.07574,2.71e-4 0.03713,0.04883 c 0.779021,1.024572 2.28031,3.725531 4.701258,8.458 0.03653,0.0714 0.08985,0.17519 0.118489,0.23064 l 0.05208,0.10082 -0.08457,-1.4e-4 -0.08457,-1.4e-4 -0.147732,-0.2885 z"
       id="path33020" />
    <path
       style="fill:#ac0000;stroke-width:0.00552427"
       d="m 41.351936,98.332185 c 0,-0.0034 0.154497,-0.253597 0.327607,-0.530478 1.238918,-1.981588 2.363408,-3.573791 3.183247,-4.507267 0.225499,-0.256755 0.496476,-0.53528 0.656453,-0.674739 0.308129,-0.268608 0.549962,-0.405795 0.715334,-0.405795 0.09077,0 0.186314,0.05843 0.329636,0.201595 0.06638,0.06631 0.162519,0.176192 0.228405,0.261063 l 0.01823,0.02348 h -0.07455 -0.07455 l -0.05279,-0.06767 c -0.100389,-0.128701 -0.186865,-0.216307 -0.238591,-0.241706 -0.0272,-0.01336 -0.06025,-0.01401 -0.116916,-0.0023 -0.310338,0.0641 -0.821232,0.517296 -1.500361,1.330912 -0.854691,1.023944 -1.979043,2.632072 -3.197983,4.573982 l -0.02608,0.04155 h -0.08855 c -0.0487,0 -0.08855,-0.0012 -0.08855,-0.0026 z"
       id="path33059" />
    <path
       style="fill:#ac0000;stroke-width:0.00552427"
       d="m 38.087091,104.07768 c 0,-0.003 0.182915,-0.3483 0.338297,-0.63845 0.90859,-1.69665 1.887942,-3.41035 2.832645,-4.956657 l 0.09028,-0.147774 h 0.09083 0.09083 l -0.0086,0.01311 c -0.01948,0.02974 -0.253194,0.40636 -0.363806,0.586272 -0.972294,1.581459 -1.938256,3.266259 -2.856882,4.982899 l -0.08573,0.1602 -0.06394,0.002 c -0.03517,8.5e-4 -0.06394,3.3e-4 -0.06394,-10e-4 z"
       id="path33098" />
    <path
       style="fill:#ac0000;stroke-width:0.00552427"
       d="m 35.205849,110.06986 c 0.747161,-1.75363 1.689738,-3.7206 2.782285,-5.80607 l 0.09619,-0.18362 0.06505,-6e-5 0.06505,-7e-5 -0.02164,0.0401 c -0.0119,0.022 -0.05638,0.10593 -0.09885,0.18645 -0.965903,1.83147 -1.792348,3.55263 -2.40324,5.00499 -0.10757,0.25574 -0.140129,0.33527 -0.266849,0.65186 l -0.120511,0.30107 -0.09085,0.002 -0.09085,0.002 z"
       id="path33137" />
    <path
       style="fill:#ac0000;stroke-width:0.00552427"
       d="m 33.290646,117.28167 c 0.03933,-1.25459 0.284782,-2.6431 0.711179,-4.02305 0.238301,-0.77122 0.653936,-1.88398 1.09773,-2.93891 l 0.01859,-0.0442 0.03021,-0.004 c 0.01661,-0.002 0.05844,-0.004 0.09295,-0.004 0.05769,-5e-4 0.06242,2.3e-4 0.05879,0.009 -0.04392,0.1076 -0.379176,0.99822 -0.520396,1.38245 -0.754316,2.05234 -1.157984,3.4536 -1.346537,4.67424 -0.05025,0.32532 -0.07917,0.58672 -0.105498,0.95361 l -0.0037,0.0511 h -0.01756 -0.01756 z"
       id="path33176" />
    <path
       style="fill:#ac0000;stroke-width:0.00552427"
       d="m 37.558381,125.62332 c -0.489032,-0.45515 -1.036676,-0.99701 -1.427894,-1.41283 -1.044502,-1.11019 -1.773315,-2.11526 -2.171957,-2.99526 -0.394336,-0.8705 -0.621102,-1.9222 -0.666197,-3.08973 -0.0055,-0.14262 -0.008,-0.38209 -0.0066,-0.63943 l 7.86e-4,-0.14778 h 0.01999 0.01999 l -0.0036,0.0456 c -0.01483,0.18865 -0.01359,0.67193 0.0024,0.92393 0.06508,1.02697 0.324207,1.96654 0.804854,2.91827 0.673955,1.33449 1.791601,2.7091 3.533125,4.34541 0.09335,0.0877 0.169721,0.16042 0.169721,0.16159 0,10e-4 -0.03474,0.002 -0.0772,0.002 h -0.0772 z"
       id="path33215" />
    <path
       style="fill:#ac0000;stroke-width:0.00552427"
       d="m 44.690832,131.43522 c -0.354045,-0.26569 -1.006776,-0.76235 -1.471692,-1.1198 -2.256739,-1.73506 -4.052903,-3.21602 -5.410749,-4.46121 l -0.126784,-0.11626 0.07895,-0.002 0.07895,-0.002 0.06993,0.0653 c 0.282105,0.26348 0.807986,0.72955 1.254888,1.11215 1.371239,1.17395 3.008839,2.46804 5.223199,4.12756 0.315989,0.23681 0.576886,0.43281 0.579773,0.43555 0.0031,0.003 -0.03949,0.005 -0.105487,0.005 h -0.110736 z"
       id="path33254" />
    <path
       style="fill:#ac0000;stroke-width:0.00552427"
       d="m 50.671061,135.86582 c -0.353791,-0.26178 -1.469825,-1.08669 -2.480077,-1.83314 -1.010251,-0.74645 -1.963602,-1.45106 -2.118558,-1.56579 -0.403637,-0.29888 -1.31758,-0.98274 -1.315778,-0.98454 8.38e-4,-8.4e-4 0.05032,-0.002 0.109966,-0.002 l 0.108443,-6.2e-4 0.203417,0.15141 c 1.440568,1.07225 3.853089,2.82842 6.175156,4.49515 0.157994,0.11341 0.289624,0.20832 0.29251,0.21092 0.0029,0.003 -0.06944,0.005 -0.163287,0.005 h -0.168535 z"
       id="path33293" />
    <path
       style="fill:#ac0000;stroke-width:0.00552427"
       d="m 58.372217,141.5885 c -0.628811,-0.47514 -4.148494,-3.09253 -6.353535,-4.72477 -0.381656,-0.28251 -0.693639,-0.51395 -0.693296,-0.5143 3.42e-4,-3.5e-4 0.07403,-0.002 0.163755,-0.004 l 0.163133,-0.004 0.270523,0.19445 c 2.192008,1.57557 3.921093,2.83104 5.648401,4.10124 0.68757,0.50562 1.358971,1.00257 1.358971,1.00588 0,0.001 -0.108759,0.002 -0.241687,0.002 l -0.241687,-1.2e-4 -0.07458,-0.0563 z"
       id="path33332" />
    <path
       style="fill:#ac0000;stroke-width:0.00552427"
       d="m 59.051557,145.33183 c -2.892637,-1.84588 -7.255757,-4.64985 -11.178218,-7.18369 -1.576177,-1.01819 -4.611497,-2.98282 -4.656809,-3.01416 -0.0093,-0.006 0.02738,-0.008 0.245994,-0.008 h 0.256891 l 0.331292,0.21615 c 0.359073,0.23428 1.275737,0.83152 2.231642,1.45399 1.267931,0.82565 3.097042,2.01341 4.842024,3.14423 2.615868,1.6952 5.770471,3.72861 8.1483,5.25229 0.360045,0.23071 0.656988,0.42172 0.659875,0.42446 0.0031,0.003 -0.08163,0.005 -0.210068,0.005 h -0.215317 z"
       id="path33371" />
    <path
       style="fill:#ac0000;stroke-width:0.00552427"
       d="m 63.641669,145.57398 c -0.839966,-0.64953 -2.574518,-1.96413 -4.318105,-3.27265 l -0.874424,-0.65624 h 0.243852 0.243852 l 0.321213,0.23865 c 1.72653,1.28272 3.602517,2.7072 4.828091,3.66608 l 0.09298,0.0727 h -0.237319 -0.237318 z"
       id="path33410" />
    <path
       style="fill:#ac0000;stroke-width:0.00552427"
       d="m 68.304733,151.17548 c -1.607086,-0.99065 -4.092183,-2.55583 -7.24772,-4.56482 -1.070605,-0.6816 -1.545879,-0.98519 -1.544547,-0.9866 6.58e-4,-6.9e-4 0.09753,-10e-4 0.215266,-0.002 l 0.21407,-3.7e-4 0.260676,0.16691 c 1.541544,0.98701 3.457285,2.20718 4.901064,3.12156 1.160864,0.73521 2.703655,1.70686 3.469243,2.18494 l 0.132582,0.0828 0.0015,0.0948 0.0015,0.0948 h -0.04583 -0.04583 z"
       id="path33449" />
    <path
       style="fill:#ac0000;stroke-width:0.00552427"
       d="m 70.22178,151.31106 c -0.103854,-0.14128 -0.336601,-0.4219 -0.502759,-0.60617 -0.183597,-0.2036 -0.561484,-0.5868 -0.806531,-0.81786 -0.591992,-0.5582 -1.374891,-1.22975 -2.405783,-2.06363 -0.677874,-0.54832 -1.734594,-1.37949 -2.566024,-2.01833 -0.120015,-0.0922 -0.221849,-0.171 -0.226298,-0.17508 -0.0068,-0.006 0.03025,-0.007 0.229258,-0.007 l 0.237346,2.3e-4 0.256879,0.20198 c 2.014649,1.58412 3.441676,2.77464 4.521578,3.77221 0.771503,0.71268 1.34516,1.31957 1.643603,1.73882 l 0.02261,0.0318 -0.181224,-2e-4 -0.181224,-1.9e-4 -0.04143,-0.0564 z"
       id="path33488" />
    <path
       style="fill:#ac0000;stroke-width:0.00552427"
       d="m 70.304005,152.36012 c -0.153463,-0.07 -0.61419,-0.33821 -1.327948,-0.7731 -0.124573,-0.0759 -0.255476,-0.15565 -0.290898,-0.17723 l -0.0644,-0.0392 0.04356,-0.002 0.04356,-0.002 0.0015,-0.0928 0.0015,-0.0929 0.162966,0.10207 c 1.089811,0.68257 1.644716,0.9339 1.735959,0.78627 0.03455,-0.0559 -0.0017,-0.17577 -0.106363,-0.35139 -0.0482,-0.0809 -0.127143,-0.19928 -0.189729,-0.2845 l -0.04665,-0.0635 0.147226,-0.002 c 0.08097,-9.3e-4 0.162853,-1e-4 0.181952,0.002 l 0.03473,0.004 0.04307,0.0645 c 0.164609,0.24632 0.249756,0.44781 0.251335,0.59478 6.88e-4,0.064 -0.0075,0.10277 -0.03163,0.14916 -0.06106,0.11754 -0.223734,0.18535 -0.464815,0.19377 l -0.08286,0.003 z"
       id="path33527" />
    <path
       style="fill:#ac0000;stroke-width:0.00552427"
       d="m 43.014076,135.00306 c -2.765334,-1.794 -6.046073,-3.93428 -8.829747,-5.76034 l -0.458379,-0.30069 0.275307,-10e-4 0.275306,-0.001 0.666446,0.43845 c 2.306391,1.51735 5.962429,3.91277 8.184502,5.36244 l 0.57957,0.37811 -0.234303,0.004 c -0.128867,0.002 -0.240818,0.005 -0.24878,0.006 -0.01133,0.002 -0.05692,-0.0255 -0.209922,-0.12473 z"
       id="path33566" />
    <path
       style="fill:#ac0000;stroke-width:0.00552427"
       d="m 33.084863,128.52142 c -2.479778,-1.62991 -4.791553,-3.15456 -6.416441,-4.23176 -0.834667,-0.55333 -2.068147,-1.37218 -2.491447,-1.65396 l -0.488898,-0.32545 0.283462,-5e-5 0.283462,-6e-5 0.252393,0.16758 c 0.138815,0.0922 0.661326,0.43934 1.161135,0.77149 0.865259,0.57501 2.740235,1.81802 3.449907,2.28711 1.488423,0.98383 2.072752,1.3697 3.054923,2.01735 0.619823,0.40871 1.346632,0.88768 1.615133,1.06436 l 0.488181,0.32123 -0.278259,-1.4e-4 -0.278259,-1.4e-4 -0.635292,-0.41757 z"
       id="path33605" />
    <path
       style="fill:#ac0000;stroke-width:0.00552427"
       d="m 23.210228,121.99176 c -3.966566,-2.64251 -7.443216,-4.99071 -9.41474,-6.35891 l -0.186445,-0.12939 v -0.1322 -0.13219 h 0.06679 0.06679 l 0.301956,0.20629 c 2.284037,1.56037 5.216732,3.5348 8.762378,5.89925 0.788452,0.52578 1.43591,0.95812 1.438796,0.96075 0.003,0.003 -0.117536,0.005 -0.276213,0.005 h -0.281462 l -0.477849,-0.31834 z"
       id="path33644" />
    <path
       style="fill:#ac0000;stroke-width:0.00552427"
       d="m 13.553801,115.46553 c -0.757485,-0.52651 -1.419088,-0.99364 -1.839583,-1.29883 -0.163791,-0.11888 -5.1488046,-3.77719 -5.1566312,-3.78425 -0.00293,-0.003 0.073963,-0.005 0.1740145,-0.005 l 0.1792626,3e-5 1.035801,0.76286 c 1.1363881,0.83693 1.3796013,1.01526 1.6766164,1.22929 0.8689737,0.6262 2.1133407,1.4945 3.7201847,2.59592 l 0.394574,0.27046 -0.0644,0.002 -0.0644,0.002 -0.0015,0.1313 -0.0015,0.13129 z"
       id="path33683" />
    <path
       style="fill:#ac0000;stroke-width:0.0078125"
       d="m 5.729527,109.77297 c -0.4526563,-0.33231 -0.8237835,-0.60702 -0.8247272,-0.61046 -0.00123,-0.004 4.2844732,-3.33932 5.0358398,-3.91853 l 0.068618,-0.0529 0.162289,0.002 0.162289,0.002 -0.108324,0.0856 c -0.896194,0.70831 -0.8356026,0.66141 -4.2079343,3.25685 -0.4286133,0.32987 -0.7792406,0.60222 -0.7791718,0.60521 6.87e-5,0.003 0.3727622,0.27965 0.8282076,0.61479 0.4554455,0.33515 0.8254087,0.60996 0.8221406,0.6107 -0.00327,7.4e-4 -0.080254,0.003 -0.1710791,0.005 l -0.165137,0.004 z"
       id="path33722" />
    <path
       style="fill:#ac0000;stroke-width:0.0078125"
       d="m 10.10182,105.11914 c 0.57544,-0.45008 1.074065,-0.84687 1.501867,-1.19514 2.051537,-1.67012 4.058763,-3.4529 6.157438,-5.468922 l 0.144358,-0.138672 0.137102,3.63e-4 0.137102,3.62e-4 -0.08277,0.07972 c -2.424324,2.334839 -4.763601,4.391429 -7.415932,6.519759 l -0.342452,0.2748 H 10.17398 10.009427 Z"
       id="path33761" />
    <path
       style="fill:#ac0000;stroke-width:0.0078125"
       d="m 17.980469,98.24392 c 2.10822,-2.053203 3.802466,-3.805679 5.70252,-5.898512 l 0.253302,-0.279002 h 0.115839 c 0.06371,0 0.115839,0.0018 0.115839,0.0039 0,0.01107 -0.974863,1.083504 -1.523226,1.675676 -1.33252,1.438973 -2.856168,3.005698 -4.112679,4.228953 l -0.350748,0.341465 -0.137533,-1.02e-4 -0.137533,-1.02e-4 z"
       id="path33800" />
    <path
       style="fill:#ac0000;stroke-width:0.0078125"
       d="m 23.950215,92.052895 c 0.0059,-0.0074 0.118106,-0.133115 0.249353,-0.279297 2.283398,-2.54324 4.581681,-5.287501 6.816164,-8.138832 l 0.249487,-0.31836 h 0.119282 0.119283 l -0.153762,0.19336 c -2.524044,3.174041 -4.794455,5.886538 -6.957718,8.3125 l -0.217703,0.24414 h -0.117554 c -0.110348,0 -0.116897,-8.28e-4 -0.106832,-0.01351 z"
       id="path33839" />
    <path
       style="fill:#ac0000;stroke-width:0.0110485"
       d="m 31.285722,83.292601 c 0.02645,-0.03077 0.559303,-0.719116 0.883377,-1.141156 1.139877,-1.484459 6.452727,-8.432511 6.457543,-8.445062 0.0033,-0.0086 -0.227679,-0.492251 -0.513288,-1.074778 l -0.519289,-1.059141 0.08388,-0.0033 c 0.04613,-0.0018 0.08751,6.94e-4 0.09195,0.0055 0.02276,0.02477 1.072255,2.238635 1.067328,2.251475 -0.0057,0.01482 -4.05666,5.284555 -5.049383,6.56852 -0.604167,0.781416 -1.323317,1.702383 -1.876462,2.403059 l -0.401223,0.508233 -0.120695,0.0032 c -0.114979,0.003 -0.119892,0.0022 -0.103736,-0.01657 z"
       id="path33878" />
    <path
       style="fill:#ac0000;stroke-width:0.0110485"
       d="m 37.367823,71.111188 c -0.123075,-0.250664 -1.500928,-3.059872 -3.061896,-6.242686 -1.560968,-3.182813 -2.841451,-5.785574 -2.845518,-5.783912 -0.0053,0.0022 -5.521989,5.181011 -6.057045,5.686128 l -0.06353,0.05997 v -4.586827 c 0,-4.578506 4e-5,-4.586827 0.02208,-4.586827 0.02204,0 0.02209,0.0092 0.02486,4.376398 l 0.0028,4.376398 1.298204,-1.196228 c 2.072226,-1.909451 2.26575,-2.086452 2.845,-2.602083 0.929012,-0.82698 1.746377,-1.503086 1.93098,-1.597263 0.05319,-0.02714 0.05574,-0.0253 0.14039,0.100735 0.384386,0.57232 1.848416,3.451573 3.466374,6.817188 0.112469,0.233953 0.763781,1.593752 1.447361,3.021777 0.68358,1.428024 1.245127,2.600136 1.24788,2.604694 0.0028,0.0046 -0.0353,0.0083 -0.08457,0.0083 h -0.08958 z"
       id="path33917" />
    <path
       style="fill:#ac0000;stroke-width:0.0110485"
       d="m 25.34149,47.73247 c -0.0017,-7.978521 -0.0016,-7.985335 0.02044,-7.985335 0.02208,0 0.0221,0.0068 0.02044,7.985335 -9.1e-4,4.391934 -0.0037,7.971662 -0.0063,7.954951 -0.0025,-0.01671 -0.0089,-0.03038 -0.01418,-0.03038 -0.0053,0 -0.01165,0.01367 -0.01418,0.03038 -0.0025,0.01671 -0.0053,-3.563017 -0.0063,-7.954951 z"
       id="path33956" />
    <path
       style="fill:#ac0000;stroke-width:0.0110485"
       d="m 40.718523,46.274062 c -2.145347,-2.2137 -3.951738,-4.027459 -10.605718,-10.648979 l -4.723252,-4.70021 -0.0055,4.463612 c -0.003,2.454986 -0.0068,4.439995 -0.0083,4.411131 -0.0035,-0.0679 -0.02241,-0.0679 -0.02777,0 -0.0023,0.02886 -0.005,-2.060211 -0.0061,-4.642388 l -0.002,-4.694868 0.101752,0.09867 c 0.05596,0.05427 2.662453,2.641074 5.792199,5.748451 6.009317,5.966368 7.985655,7.938318 9.220248,9.19978 0.41614,0.425196 0.826095,0.843932 0.911012,0.930525 l 0.154395,0.157442 h -0.243863 -0.243863 z"
       id="path33995" />
    <path
       style="fill:#ac0000;stroke-width:0.0110485"
       d="m 43.028221,56.289567 c -1.82e-4,-0.01671 -0.0078,-0.117391 -0.01687,-0.223733 -0.02675,-0.312791 -0.03323,-0.870066 -0.01221,-1.049612 0.05787,-0.494352 0.211936,-0.727159 0.722619,-1.091953 0.509958,-0.364275 1.224326,-0.652975 1.618054,-0.653908 0.188392,-4.47e-4 0.396321,-0.03782 0.497447,-0.08941 0.06998,-0.0357 0.147076,-0.114527 0.174801,-0.178726 0.217919,-0.504611 -0.696673,-1.806484 -3.098629,-4.410731 -0.460876,-0.49969 -1.093991,-1.171555 -1.613756,-1.712524 l -0.265387,-0.276214 0.238846,-0.003 0.238845,-0.003 0.159868,0.163178 c 0.208855,0.213178 0.59474,0.617938 1.014534,1.06416 2.405151,2.556562 3.460113,3.947154 3.594811,4.738483 0.02176,0.127863 0.02207,0.193961 0.0013,0.291777 -0.05118,0.241547 -0.218467,0.40099 -0.539579,0.514274 -0.139541,0.04923 -0.237243,0.07245 -0.493649,0.11731 -0.124573,0.0218 -0.296605,0.05678 -0.382295,0.07774 -0.991579,0.242538 -1.53794,0.768677 -1.726309,1.662414 -0.04985,0.23654 -0.0614,0.375092 -0.06193,0.743014 l -5.04e-4,0.35079 -0.02486,10e-7 c -0.01967,1e-6 -0.02493,-0.0063 -0.02519,-0.03038 z"
       id="path34034" />
    <path
       style="fill:#ac0000;stroke-width:0.0110485"
       d="m 47.183765,67.88072 c -0.280624,-0.318806 -0.813562,-1.38078 -1.407553,-2.804799 -1.146734,-2.749153 -2.287184,-6.14599 -2.615144,-7.789223 -0.05681,-0.284629 -0.08362,-0.463174 -0.104532,-0.696058 -0.0093,-0.103304 -0.01943,-0.20647 -0.02256,-0.229258 -0.0052,-0.03806 -0.0035,-0.04143 0.02112,-0.04143 0.02544,0 0.02718,0.0044 0.03416,0.08563 0.116405,1.355088 0.644753,3.142308 1.727034,5.841955 0.357803,0.892506 0.551481,1.348713 1.647825,3.881433 0.426947,0.986313 0.773867,1.795697 0.770933,1.79863 -0.0029,0.0029 -0.02602,-0.01816 -0.05129,-0.04687 z"
       id="path34073" />
    <path
       style="fill:#ac0000;stroke-width:0.0110485"
       d="m 47.685514,67.971565 c 0.01823,-0.0081 0.618541,-0.276416 1.334025,-0.596189 l 1.300879,-0.581407 0.256965,2.43e-4 0.256965,2.43e-4 -0.04972,0.02275 c -0.130827,0.05985 -0.78285,0.336941 -1.092657,0.464345 -0.806798,0.331784 -1.444311,0.561165 -1.868353,0.672243 -0.137073,0.03591 -0.19567,0.04345 -0.138106,0.01778 z"
       id="path34112" />
  </g>
</svg>
