<?xml version="1.0" encoding="UTF-8" standalone="no"?>
<!-- Created with Inkscape (http://www.inkscape.org/) -->

<svg
   version="1.1"
   id="svg48231"
   width="161.33333"
   height="166.66667"
   viewBox="0 0 161.33333 166.66667"
   sodipodi:docname="ranger-symbol.svg"
   inkscape:version="1.1.2 (b8e25be833, 2022-02-05)"
   xmlns:inkscape="http://www.inkscape.org/namespaces/inkscape"
   xmlns:sodipodi="http://sodipodi.sourceforge.net/DTD/sodipodi-0.dtd"
   xmlns="http://www.w3.org/2000/svg"
   xmlns:svg="http://www.w3.org/2000/svg">
  <defs
     id="defs48235" />
  <sodipodi:namedview
     id="namedview48233"
     pagecolor="#ffffff"
     bordercolor="#666666"
     borderopacity="1.0"
     inkscape:pageshadow="2"
     inkscape:pageopacity="0.0"
     inkscape:pagecheckerboard="0"
     showgrid="false"
     inkscape:zoom="2.6189999"
     inkscape:cx="101.18366"
     inkscape:cy="122.18404"
     inkscape:window-width="3440"
     inkscape:window-height="1377"
     inkscape:window-x="-8"
     inkscape:window-y="-8"
     inkscape:window-maximized="1"
     inkscape:current-layer="g48237" />
  <g
     inkscape:groupmode="layer"
     inkscape:label="Image"
     id="g48237">
    <path
       style="fill:#ff0000;fill-opacity:1;stroke-width:1.33333"
       d="m 71.481547,160.0485 c 0.53474,-0.91667 2.60889,-4.08573 4.60923,-7.04237 l 3.63696,-5.37572 -2.45126,-45.95762 c -1.3482,-25.276699 -2.85179,-50.046941 -3.3413,-55.044988 -0.93241,-9.51996 -0.62335,-9.223351 -6.92498,-6.645991 -2.08084,0.85106 -0.11872,-4.957953 7.07069,-20.933319 8.05403,-17.8966099 6.95834,-18.10460192 15.56744,2.955132 5.8268,14.25365 7.07803,18.427595 5.31877,17.742772 -4.30675,-1.676474 -4.76522,-1.364422 -5.83098,3.968763 -0.58618,2.933334 -2.27884,27.411109 -3.76147,54.395057 l -2.6957,49.061724 4.62297,6.86472 c 2.54264,3.7756 4.38008,7.10763 4.0832,7.40451 -0.29688,0.29686 -2.69791,-0.17247 -5.33561,-1.043 -3.53243,-1.1658 -5.89151,-1.20082 -8.95497,-0.13294 -5.40601,1.88455 -6.80724,1.83043 -5.61299,-0.21678 z m -27.50227,-24.41543 c -14.21512,-9.21182 -28.82561,-18.93624 -32.46776,-21.60982 l -6.6220796,-4.86105 5.2219496,-4.05685 c 7.31802,-5.685262 14.82709,-13.516067 22.20347,-23.15481 l 6.31486,-8.251644 -3.58304,-7.305676 -3.58304,-7.305678 -3.06515,2.879562 -3.06515,2.87956 V 47.643682 30.4407 l 11.38114,11.303896 c 9.63123,9.565854 10.94573,11.371773 8.54926,11.74535 -3.04447,0.474592 -2.93149,3.078245 0.47504,10.947634 l 1.59455,3.68358 7.0006,-3.127802 c 4.83654,-2.160918 7.86546,-4.59363 9.79837,-7.869667 3.61358,-6.124553 5.20103,-6.003722 5.20103,0.39588 0,2.825761 0.3705,8.682462 0.82333,13.014894 l 0.82333,7.87715 -5.92666,1.585138 c -3.25966,0.871827 -7.24928,2.665124 -8.86581,3.985107 l -2.93915,2.399967 8.75594,25.842103 c 4.81577,14.21315 8.52582,26.07221 8.24457,26.35346 -0.28125,0.28127 -5.54009,-9.99768 -11.68631,-22.84209 -6.14621,-12.84441 -11.65037,-23.353473 -12.23145,-23.353473 -1.52399,0 -8.57718,11.476173 -11.07841,18.025563 -4.0344,10.56392 -3.22125,11.83684 16.70366,26.1484 15.23756,10.94475 20.91293,15.82604 18.40056,15.82604 -0.29258,0 -12.16252,-7.53694 -26.37765,-16.74876 z m 50.81878,12.3733 c 1.9056,-1.62683 10.454293,-8.05787 18.997093,-14.2912 9.4396,-6.88769 15.53351,-12.23668 15.53527,-13.63623 0.005,-3.55828 -6.27865,-19.41128 -9.46942,-23.892314 -1.72592,-2.423834 -3.33795,-3.527848 -4.075,-2.790799 -0.6707,0.670699 -6.01939,10.994473 -11.88597,22.941713 -5.866583,11.94724 -10.995653,21.39312 -11.397933,20.99084 -0.57442,-0.57443 11.790503,-38.21139 16.195293,-49.296019 0.76264,-1.919188 -0.71107,-3.095204 -8.04697,-6.421461 l -8.980593,-4.071995 0.95288,-12.245207 c 0.52409,-6.734863 1.26875,-12.545205 1.6548,-12.911872 0.38605,-0.366667 1.38154,0.448333 2.2122,1.811109 3.815763,6.260133 6.520823,8.642929 12.751333,11.23221 l 6.70231,2.785355 1.4355,-5.331066 c 0.78953,-2.932085 1.74815,-6.145795 2.13027,-7.141576 0.439,-1.144017 -0.44714,-1.985064 -2.40718,-2.284677 -2.7899,-0.426466 -1.99742,-1.610751 7.87794,-11.772761 l 10.97989,-11.298594 0.0201,15.666667 c 0.0196,15.277741 -0.49709,17.282791 -3.6431,14.136779 -1.15096,-1.150962 -2.35651,0.339249 -4.86731,6.016618 l -3.33742,7.546506 6.49124,8.983381 c 8.32582,11.52231 12.5817,15.959867 20.46269,21.336213 3.50934,2.39406 6.00433,4.96172 5.54438,5.70592 -1.03124,1.66858 -23.71589,16.95439 -45.81497,30.87194 -16.120343,10.15224 -22.979723,13.30437 -16.017323,7.36052 z"
       id="path48321" />
  </g>
</svg>
