<?xml version="1.0" encoding="UTF-8" standalone="no"?>
<!-- Created with Inkscape (http://www.inkscape.org/) -->

<svg
   version="1.1"
   id="svg26621"
   width="165.33333"
   height="170.66667"
   viewBox="0 0 165.33333 170.66667"
   sodipodi:docname="rogue-symbol.svg"
   inkscape:version="1.1.2 (b8e25be833, 2022-02-05)"
   xmlns:inkscape="http://www.inkscape.org/namespaces/inkscape"
   xmlns:sodipodi="http://sodipodi.sourceforge.net/DTD/sodipodi-0.dtd"
   xmlns="http://www.w3.org/2000/svg"
   xmlns:svg="http://www.w3.org/2000/svg">
  <defs
     id="defs26625" />
  <sodipodi:namedview
     id="namedview26623"
     pagecolor="#ffffff"
     bordercolor="#666666"
     borderopacity="1.0"
     inkscape:pageshadow="2"
     inkscape:pageopacity="0.0"
     inkscape:pagecheckerboard="0"
     showgrid="false"
     inkscape:zoom="2.5576172"
     inkscape:cx="164.21535"
     inkscape:cy="191.19358"
     inkscape:window-width="3440"
     inkscape:window-height="1377"
     inkscape:window-x="-8"
     inkscape:window-y="-8"
     inkscape:window-maximized="1"
     inkscape:current-layer="g26627" />
  <g
     inkscape:groupmode="layer"
     inkscape:label="Image"
     id="g26627">
    <path
       style="fill:#ff0000;fill-opacity:1;stroke-width:1.33333"
       d="m 72.666661,158.33426 c -17.20193,-14.26664 -40.66666,-36.34253 -40.66666,-38.25967 0,-1.04379 1.57101,-2.92717 3.49115,-4.18529 l 3.49114,-2.28749 10.58354,11.25676 10.58353,11.25675 -7.07468,-13.69402 -7.07468,-13.69403 3.33333,-2.60966 c 1.83333,-1.43532 3.98638,-2.62301 4.78454,-2.63931 0.79816,-0.0163 6.35164,11.52035 12.34107,25.63702 11.08565,26.12812 12.98392,30.075 13.92915,28.96138 0.80426,-0.94753 -11.82988,-56.427 -13.60544,-59.744664 -0.88847,-1.660113 -2.83166,-2.883389 -4.58031,-2.883389 -1.67044,0 -11.55572,5.416283 -21.96729,12.036173 -10.41157,6.6199 -20.57373,12.32718 -22.58259,12.68286 -4.05674,0.71827 -6.68022,-0.91738 -10.2373197,-6.38263 l -2.38448,-3.6636 3.99699,0.7994 c 4.3897797,0.87795 11.9566797,-2.06994 15.5743397,-6.0674 2.02384,-2.23633 1.9492,-2.9232 -1.05611,-9.718757 -1.94851,-4.405924 -5.12104,-8.751765 -7.98182,-10.933793 -4.22756,-3.224519 -4.58986,-3.968407 -3.30556,-6.787146 1.55241,-3.407171 7.9144,-6.326715 11.1124,-5.099527 1.07934,0.41418 1.96243,2.187134 1.96243,3.939896 0,3.298978 7.72922,12.908873 12.3879,15.402121 3.57089,1.911084 4.89801,-0.477794 4.93,-8.874264 0.0441,-11.574023 7.47252,-19.812498 21.85877,-24.242409 8.85189,-2.725737 10.15666,-4.675535 10.15666,-15.177726 0,-7.265413 1.85451,-8.493918 5.96523,-3.951624 2.36669,2.61516 2.39527,2.615067 5.74353,-0.01867 1.85076,-1.455803 3.72341,-2.289963 4.16146,-1.85369 0.43805,0.436267 1.09645,4.719059 1.46312,9.51731 l 0.66666,8.724092 10.666669,3.75652 c 14.09338,4.963318 18.75836,9.815398 19.96813,20.768971 0.47445,4.295806 0.97572,8.660835 1.11392,9.700067 0.47574,3.577335 3.14458,2.834016 9.30999,-2.593001 4.2284,-3.721976 6.44763,-6.862768 7.02545,-9.942847 1.21772,-6.491 5.65968,-7.364504 11.58251,-2.277682 3.44889,2.962082 2.83947,6.593806 -1.48143,8.828229 -4.04609,2.092313 -11.32313,15.330876 -10.57177,19.23241 0.67732,3.51701 10.43928,8.37639 15.38653,7.65921 5.03686,-0.73015 5.34998,0.21878 1.63188,4.94555 -5.70317,7.25043 -8.82484,6.39906 -31.54151,-8.60223 -18.20025,-12.018823 -23.77627,-13.65623 -26.581869,-7.805814 -1.40644,2.932804 -10.79765,42.094524 -13.10939,54.666674 -1.54334,8.3933 2.2085,1.55606 13.89224,-25.31677 6.061879,-13.94244 11.746599,-25.3499 12.632709,-25.3499 0.88611,0 2.99724,1.47547 4.6914,3.27882 l 3.08028,3.27881 -6.93222,12.19239 c -3.81273,6.7058 -6.72638,12.39823 -6.47478,12.64983 0.2516,0.2516 4.63956,-4.26743 9.75103,-10.04229 5.11146,-5.77486 9.89357,-10.53977 10.6269,-10.5887 0.73333,-0.0489 3.13333,1.36714 5.33333,3.14681 3.52418,2.85085 3.7621,3.459 2,5.11241 -3.06597,2.87687 -34.38259,30.16621 -42.810629,37.30525 -4.11228,3.48334 -8.01218,6.32426 -8.66645,6.31316 -0.65427,-0.0111 -5.38958,-3.50348 -10.52292,-7.76088 z m 16.55829,-83.310571 c 0.65229,-0.652287 3.71365,-0.75893 6.80303,-0.236982 l 5.617049,0.948994 -0.63297,6.587449 -0.63297,6.587448 4.14379,-0.95069 c 4.56932,-1.04832 7.93707,-1.015518 12.47712,0.121533 6.52124,1.633235 1.20377,-8.56222 -6.96132,-13.347279 -5.69412,-3.336983 -6.81547,-3.487988 -26.425639,-3.558595 -16.84717,-0.06066 -21.35099,0.339968 -25.39494,2.258947 -5.67872,2.694732 -11.55144,9.121562 -11.55144,12.64137 0,2.148529 0.6208,2.283153 5.48675,1.189846 4.54142,-1.020389 6.25607,-0.778873 9.95201,1.401782 l 4.46526,2.63457 -0.88928,-4.26005 c -1.98439,-9.506123 -1.50174,-10.708054 4.80906,-11.975843 3.20309,-0.643475 6.30011,-0.670662 6.88228,-0.06041 0.58218,0.610246 1.72505,8.009538 2.53972,16.442871 2.55783,26.47802 2.94219,26.7978 5.66577,4.713843 1.35341,-10.974053 2.99444,-20.486514 3.64672,-21.1388 z m -12.38457,-45.75218 c -3.39554,-3.34758 -6.17372,-7.102264 -6.17372,-8.343743 0,-1.241478 2.66921,-4.87686 5.93157,-8.078626 l 5.93157,-5.8213922 4.64213,3.5407272 c 4.12723,3.147992 10.1614,10.22887 10.1614,11.924033 0,0.347713 -3.22183,3.3847 -7.15962,6.748859 l -7.15961,6.116652 z"
       id="path26711" />
    <path
       style="fill:#ac0000;stroke-width:0.390989"
       d="m 78.152584,30.203894 c -4.650837,-4.788306 -7.188094,-8.066078 -7.188094,-9.285986 0,-1.219856 2.535208,-4.497415 7.034181,-9.093905 l 4.499992,-4.5975315 2.541428,1.9793383 c 4.687198,3.6505262 10.114151,9.3570652 11.562856,12.1585512 0.563363,1.089426 0.545591,1.120219 -2.076161,3.597284 -2.909185,2.748636 -11.301622,10.031864 -11.559679,10.031864 -0.08933,0 -2.255864,-2.155327 -4.814523,-4.789615 z"
       id="path57160" />
    <path
       style="fill:#ac0000;stroke-width:0.390989"
       d="m 79.903791,163.6342 c -7.892264,-5.62957 -27.66595,-23.06065 -39.729679,-35.02289 -4.354639,-4.318 -7.917526,-8.14028 -7.917526,-8.49395 0,-0.97484 2.22691,-3.307 4.618768,-4.83705 1.751436,-1.12038 2.221617,-1.27311 2.610644,-0.84803 4.124811,4.50713 20.394894,21.66843 20.640142,21.77074 0.391583,0.16335 -0.659762,-1.9511 -8.202983,-16.49775 -5.32071,-10.26066 -5.603692,-10.91745 -4.93349,-11.45051 2.374894,-1.88891 6.189781,-4.4472 6.631586,-4.4472 1.281819,0 4.866917,7.42134 15.393625,31.8656 8.647972,20.08161 10.386199,23.56373 11.309293,22.65553 0.699021,-0.68773 -2.725694,-17.50579 -8.523817,-41.85871 -4.330648,-18.189315 -5.026065,-19.949078 -8.267152,-20.92013 -1.205173,-0.361078 -1.733872,-0.281395 -3.742609,0.564072 -3.30271,1.390091 -10.003885,5.194738 -19.531794,11.089328 -13.328438,8.24586 -20.559147,12.25066 -23.120316,12.80544 -3.077959,0.66672 -6.08743,-1.35942 -9.4995771,-6.39564 -1.0812624,-1.59591 -1.9227632,-2.93629 -1.8700019,-2.97862 0.052761,-0.0423 1.2022407,0.11038 2.5543984,0.33935 4.9743116,0.84238 11.3959846,-1.33889 15.5736366,-5.28994 2.167585,-2.05001 2.18359,-2.08189 2.020488,-4.02402 -0.176669,-2.103698 -2.173716,-7.084392 -4.283806,-10.683946 -0.716208,-1.221762 -3.193606,-4.085076 -5.505328,-6.362915 -4.632121,-4.564228 -4.820975,-4.996909 -3.287048,-7.530904 1.12821,-1.863768 3.655702,-3.601215 6.398788,-4.398651 3.756264,-1.091976 5.233652,-0.17397 5.970173,3.70969 0.464171,2.447567 1.403916,4.101446 4.729357,8.323309 3.933705,4.994098 8.191806,8.129149 10.316804,7.595809 1.592219,-0.399622 2.167504,-2.316383 2.578461,-8.59104 0.198964,-3.037863 0.621453,-6.367321 0.938865,-7.3988 2.503979,-8.13706 9.459219,-13.910038 21.521458,-17.863207 8.035889,-2.633609 9.023961,-4.081165 9.555339,-13.998854 0.26113,-4.873773 0.448445,-6.118915 1.014647,-6.744559 0.381918,-0.422014 0.93548,-0.767299 1.230141,-0.767299 0.294661,0 1.670516,1.055671 3.057452,2.345934 1.386935,1.290263 2.721114,2.345934 2.964841,2.345934 0.243727,0 1.758438,-0.879726 3.366024,-1.954945 3.157318,-2.111742 3.869531,-2.328477 4.175687,-1.270714 0.387752,1.339673 1.01534,6.630746 1.423939,12.004902 0.228146,3.000711 0.452237,5.482313 0.497983,5.514671 0.04575,0.03236 3.426127,1.245714 7.511956,2.696345 9.47383,3.363579 14.3327,5.826977 17.34679,8.79463 3.84219,3.782998 5.05191,7.140811 6.13483,17.028398 0.35328,3.225659 0.85174,6.304696 1.10769,6.842306 1.04106,2.186676 4.70644,0.483927 10.20819,-4.742195 3.50376,-3.328235 5.11273,-5.660319 5.89456,-8.543757 1.13902,-4.200747 2.55855,-5.872505 4.98649,-5.872505 2.16454,0 6.37593,2.625073 7.70292,4.801438 1.59478,2.615563 0.7889,4.658347 -2.72801,6.915143 -4.29177,2.754024 -10.57709,13.803293 -10.57709,18.593982 0,1.50197 0.20835,1.95871 1.46739,3.21674 3.3303,3.32763 10.18085,5.83288 14.72751,5.38585 3.32783,-0.32718 3.73773,0.0497 2.44796,2.2505 -1.74865,2.98383 -4.93273,6.02238 -6.83808,6.52553 -3.56745,0.94206 -8.66445,-1.50622 -24.70741,-11.8679 C 110.49305,97.125 104.58058,94.58955 101.14179,96.75548 c -0.7554,0.475791 -1.608826,1.52133 -2.043055,2.502974 -2.22007,5.018836 -14.145576,56.305186 -13.489864,58.013956 0.198212,0.51652 0.341771,0.49752 1.052952,-0.13939 1.016845,-0.91065 5.677347,-10.43783 10.688981,-21.85085 7.869226,-17.92062 13.037326,-28.77652 14.644146,-30.76086 0.67484,-0.83339 0.79298,-0.85361 1.83181,-0.31356 1.18155,0.61424 6.01135,5.35088 6.01135,5.8954 0,0.17789 -2.26464,4.33245 -5.03252,9.23233 -5.70334,10.09643 -7.87012,14.27723 -7.87012,15.18542 0,0.98198 2.24321,-1.15833 9.65164,-9.20895 8.07264,-8.77239 10.51068,-11.09624 11.31692,-10.78686 1.27837,0.49056 4.7158,2.99659 6.19674,4.51769 1.26494,1.29926 1.47813,1.72362 1.14123,2.27173 -0.76539,1.24527 -38.532324,34.27012 -46.220394,40.41689 -5.989665,4.78886 -5.27952,4.64066 -9.117815,1.9028 z m 3.891016,-53.65072 c 0.248106,-1.13879 0.991005,-6.20524 1.650892,-11.258776 C 87.552746,82.588559 88.737556,75.928403 89.6333,75.185 c 0.317878,-0.263815 1.481801,-0.466499 2.586497,-0.450409 2.407218,0.03506 8.824523,0.953855 9.034433,1.293499 0.0818,0.13235 -0.12186,3.015408 -0.45256,6.406795 -0.33071,3.391391 -0.50896,6.258486 -0.39612,6.371325 0.11284,0.112843 1.96997,-0.160536 4.12696,-0.607511 4.66055,-0.965758 6.77584,-1.010163 10.86365,-0.228036 1.6806,0.321553 3.36715,0.485772 3.74788,0.364929 2.10878,-0.669298 0.50491,-5.055768 -3.30184,-9.030292 -3.86443,-4.034746 -8.10475,-6.591652 -12.62112,-7.610521 -3.357828,-0.757508 -35.911277,-0.762496 -40.005901,-0.0061 -4.162651,0.768932 -7.857884,2.773077 -11.462231,6.21665 -4.433764,4.23599 -6.25237,7.826062 -4.895897,9.664887 0.545097,0.738929 0.686768,0.747289 3.442967,0.203079 1.580963,-0.312158 4.200354,-0.570973 5.820875,-0.575148 2.855341,-0.0074 3.058475,0.05712 6.573051,2.086285 1.994658,1.151627 3.717945,2.002579 3.829526,1.890999 0.111576,-0.111581 -0.184426,-2.109491 -0.657785,-4.439805 -1.096188,-5.396472 -1.170495,-7.857603 -0.278423,-9.221724 0.888824,-1.359156 3.76389,-2.247683 8.182671,-2.528819 l 3.391931,-0.215805 0.399074,1.518776 c 0.620887,2.362907 1.511208,8.977458 2.388466,17.744814 1.778124,17.770702 2.655761,21.411122 3.845403,15.950642 z"
       id="path57199" />
  </g>
</svg>
