<?xml version="1.0" encoding="UTF-8" standalone="no"?>
<!-- Created with Inkscape (http://www.inkscape.org/) -->

<svg
   version="1.1"
   id="svg26621"
   width="165.33333"
   height="170.66667"
   viewBox="0 0 165.33333 170.66667"
   sodipodi:docname="rogue-symbol.svg"
   inkscape:version="1.1.2 (b8e25be833, 2022-02-05)"
   xmlns:inkscape="http://www.inkscape.org/namespaces/inkscape"
   xmlns:sodipodi="http://sodipodi.sourceforge.net/DTD/sodipodi-0.dtd"
   xmlns="http://www.w3.org/2000/svg"
   xmlns:svg="http://www.w3.org/2000/svg">
  <defs
     id="defs26625" />
  <sodipodi:namedview
     id="namedview26623"
     pagecolor="#ffffff"
     bordercolor="#666666"
     borderopacity="1.0"
     inkscape:pageshadow="2"
     inkscape:pageopacity="0.0"
     inkscape:pagecheckerboard="0"
     showgrid="false"
     inkscape:zoom="1.2788086"
     inkscape:cx="240.84919"
     inkscape:cy="200.18634"
     inkscape:window-width="3440"
     inkscape:window-height="1377"
     inkscape:window-x="-8"
     inkscape:window-y="-8"
     inkscape:window-maximized="1"
     inkscape:current-layer="g26627" />
  <g
     inkscape:groupmode="layer"
     inkscape:label="Image"
     id="g26627">
    <path
       style="fill:#ff0000;fill-opacity:1;stroke-width:1.33333"
       d="m 72.666661,158.33426 c -17.20193,-14.26664 -40.66666,-36.34253 -40.66666,-38.25967 0,-1.04379 1.57101,-2.92717 3.49115,-4.18529 l 3.49114,-2.28749 10.58354,11.25676 10.58353,11.25675 -7.07468,-13.69402 -7.07468,-13.69403 3.33333,-2.60966 c 1.83333,-1.43532 3.98638,-2.62301 4.78454,-2.63931 0.79816,-0.0163 6.35164,11.52035 12.34107,25.63702 11.08565,26.12812 12.98392,30.075 13.92915,28.96138 0.80426,-0.94753 -11.82988,-56.427 -13.60544,-59.744664 -0.88847,-1.660113 -2.83166,-2.883389 -4.58031,-2.883389 -1.67044,0 -11.55572,5.416283 -21.96729,12.036173 -10.41157,6.6199 -20.57373,12.32718 -22.58259,12.68286 -4.05674,0.71827 -6.68022,-0.91738 -10.2373197,-6.38263 l -2.38448,-3.6636 3.99699,0.7994 c 4.3897797,0.87795 11.9566797,-2.06994 15.5743397,-6.0674 2.02384,-2.23633 1.9492,-2.9232 -1.05611,-9.718757 -1.94851,-4.405924 -5.12104,-8.751765 -7.98182,-10.933793 -4.22756,-3.224519 -4.58986,-3.968407 -3.30556,-6.787146 1.55241,-3.407171 7.9144,-6.326715 11.1124,-5.099527 1.07934,0.41418 1.96243,2.187134 1.96243,3.939896 0,3.298978 7.72922,12.908873 12.3879,15.402121 3.57089,1.911084 4.89801,-0.477794 4.93,-8.874264 0.0441,-11.574023 7.47252,-19.812498 21.85877,-24.242409 8.85189,-2.725737 10.15666,-4.675535 10.15666,-15.177726 0,-7.265413 1.85451,-8.493918 5.96523,-3.951624 2.36669,2.61516 2.39527,2.615067 5.74353,-0.01867 1.85076,-1.455803 3.72341,-2.289963 4.16146,-1.85369 0.43805,0.436267 1.09645,4.719059 1.46312,9.51731 l 0.66666,8.724092 10.666669,3.75652 c 14.09338,4.963318 18.75836,9.815398 19.96813,20.768971 0.47445,4.295806 0.97572,8.660835 1.11392,9.700067 0.47574,3.577335 3.14458,2.834016 9.30999,-2.593001 4.2284,-3.721976 6.44763,-6.862768 7.02545,-9.942847 1.21772,-6.491 5.65968,-7.364504 11.58251,-2.277682 3.44889,2.962082 2.83947,6.593806 -1.48143,8.828229 -4.04609,2.092313 -11.32313,15.330876 -10.57177,19.23241 0.67732,3.51701 10.43928,8.37639 15.38653,7.65921 5.03686,-0.73015 5.34998,0.21878 1.63188,4.94555 -5.70317,7.25043 -8.82484,6.39906 -31.54151,-8.60223 -18.20025,-12.018823 -23.77627,-13.65623 -26.581869,-7.805814 -1.40644,2.932804 -10.79765,42.094524 -13.10939,54.666674 -1.54334,8.3933 2.2085,1.55606 13.89224,-25.31677 6.061879,-13.94244 11.746599,-25.3499 12.632709,-25.3499 0.88611,0 2.99724,1.47547 4.6914,3.27882 l 3.08028,3.27881 -6.93222,12.19239 c -3.81273,6.7058 -6.72638,12.39823 -6.47478,12.64983 0.2516,0.2516 4.63956,-4.26743 9.75103,-10.04229 5.11146,-5.77486 9.89357,-10.53977 10.6269,-10.5887 0.73333,-0.0489 3.13333,1.36714 5.33333,3.14681 3.52418,2.85085 3.7621,3.459 2,5.11241 -3.06597,2.87687 -34.38259,30.16621 -42.810629,37.30525 -4.11228,3.48334 -8.01218,6.32426 -8.66645,6.31316 -0.65427,-0.0111 -5.38958,-3.50348 -10.52292,-7.76088 z m 16.55829,-83.310571 c 0.65229,-0.652287 3.71365,-0.75893 6.80303,-0.236982 l 5.617049,0.948994 -0.63297,6.587449 -0.63297,6.587448 4.14379,-0.95069 c 4.56932,-1.04832 7.93707,-1.015518 12.47712,0.121533 6.52124,1.633235 1.20377,-8.56222 -6.96132,-13.347279 -5.69412,-3.336983 -6.81547,-3.487988 -26.425639,-3.558595 -16.84717,-0.06066 -21.35099,0.339968 -25.39494,2.258947 -5.67872,2.694732 -11.55144,9.121562 -11.55144,12.64137 0,2.148529 0.6208,2.283153 5.48675,1.189846 4.54142,-1.020389 6.25607,-0.778873 9.95201,1.401782 l 4.46526,2.63457 -0.88928,-4.26005 c -1.98439,-9.506123 -1.50174,-10.708054 4.80906,-11.975843 3.20309,-0.643475 6.30011,-0.670662 6.88228,-0.06041 0.58218,0.610246 1.72505,8.009538 2.53972,16.442871 2.55783,26.47802 2.94219,26.7978 5.66577,4.713843 1.35341,-10.974053 2.99444,-20.486514 3.64672,-21.1388 z m -12.38457,-45.75218 c -3.39554,-3.34758 -6.17372,-7.102264 -6.17372,-8.343743 0,-1.241478 2.66921,-4.87686 5.93157,-8.078626 l 5.93157,-5.8213922 4.64213,3.5407272 c 4.12723,3.147992 10.1614,10.22887 10.1614,11.924033 0,0.347713 -3.22183,3.3847 -7.15962,6.748859 l -7.15961,6.116652 z"
       id="path26711" />
  </g>
</svg>
