<?xml version="1.0" encoding="UTF-8" standalone="no"?>
<!-- Created with Inkscape (http://www.inkscape.org/) -->

<svg
   version="1.1"
   id="svg66569"
   width="146.66667"
   height="177.33333"
   viewBox="0 0 146.66667 177.33333"
   sodipodi:docname="sorceror-symbol.svg"
   inkscape:version="1.1.2 (b8e25be833, 2022-02-05)"
   xmlns:inkscape="http://www.inkscape.org/namespaces/inkscape"
   xmlns:sodipodi="http://sodipodi.sourceforge.net/DTD/sodipodi-0.dtd"
   xmlns="http://www.w3.org/2000/svg"
   xmlns:svg="http://www.w3.org/2000/svg">
  <defs
     id="defs66573" />
  <sodipodi:namedview
     id="namedview66571"
     pagecolor="#ffffff"
     bordercolor="#666666"
     borderopacity="1.0"
     inkscape:pageshadow="2"
     inkscape:pageopacity="0.0"
     inkscape:pagecheckerboard="0"
     showgrid="false"
     inkscape:zoom="2.4614662"
     inkscape:cx="117.81596"
     inkscape:cy="121.06605"
     inkscape:window-width="3440"
     inkscape:window-height="1377"
     inkscape:window-x="-8"
     inkscape:window-y="-8"
     inkscape:window-maximized="1"
     inkscape:current-layer="g66575" />
  <g
     inkscape:groupmode="layer"
     inkscape:label="Image"
     id="g66575">
    <path
       style="fill:#ff0000;fill-opacity:1;stroke-width:1.33333"
       d="m 67.07293,170.26872 c -15.69022,-4.19793 -30.25822,-16.5664 -37.5287,-31.86246 -3.40101,-7.15527 -3.80264,-9.42061 -3.80358,-21.45371 -0.002,-19.728575 2.56101,-24.225283 28.60089,-50.188048 25.52112,-25.445545 26.71588,-27.532883 26.72475,-46.690142 0.004,-7.882546 0.14123,-14.3325461 0.30573,-14.3333334 0.1645,-7.873e-4 1.18851,1.7184994 2.27556,3.8206373 5.33098,10.3089741 5.01465,31.9653081 -0.63745,43.6409971 -1.64731,3.402873 -7.74386,12.435604 -13.54791,20.072734 -11.62935,15.302224 -17.02307,25.490069 -17.04293,32.191285 -0.0128,4.33854 0.0498,4.38324 4.98697,3.55763 2.75,-0.45987 8.13702,-1.70004 11.97115,-2.75594 6.94361,-1.91225 6.97953,-1.94998 9.09691,-9.557634 1.16918,-4.200794 2.88546,-10.037809 3.81395,-12.971142 l 1.68818,-5.333333 2.33765,10.666666 c 3.31481,15.125363 3.93613,15.815083 16.73822,18.581143 5.97789,1.2916 11.24023,1.97701 11.6941,1.52314 0.45387,-0.45387 0.23668,-4.38383 -0.48264,-8.73325 -1.09073,-6.595169 -1.00869,-7.659756 0.49416,-6.4125 3.64893,3.028339 8.38865,12.88555 10.81771,22.49763 l 2.49606,9.87717 1.76642,-4 c 2.75205,-6.23195 2.1838,-23.812999 -1.12049,-34.666666 l -2.84144,-9.333333 3.29238,3.999999 c 5.10506,6.202284 9.64495,16.750875 11.10138,25.79443 2.63354,16.35288 -2.69578,32.31885 -15.14407,45.36957 -8.94447,9.37734 -17.64487,14.32394 -29.6791,16.87401 -11.27591,2.38936 -18.96503,2.34179 -28.37386,-0.17555 z m 30.66667,-33.0074 c 4.36532,-2.14169 7.54385,-5.23493 11.66666,-11.35363 8.77512,-13.02324 7.88017,-13.93611 -9.53514,-9.72596 -8.79571,2.12635 -9.27979,2.45012 -10.9689,7.33632 -0.97191,2.81148 -2.16739,8.1293 -2.65663,11.81738 -0.87531,6.59845 -0.83853,6.69092 2.30224,5.78759 1.75547,-0.50491 5.89177,-2.24267 9.19177,-3.8617 z m -16.65461,-1.1884 c -0.47657,-2.38333 -1.76917,-7.17343 -2.87246,-10.64466 -1.88108,-5.91842 -2.42129,-6.43467 -8.67747,-8.29256 -3.66933,-1.08967 -8.7244,-2.36634 -11.23349,-2.83705 -4.04516,-0.75888 -4.56197,-0.5309 -4.56197,2.01234 0,9.84521 14.6419,23.86725 25.10594,24.04308 2.79918,0.0471 3.02036,-0.37579 2.23945,-4.28115 z m -66.26122,8.66667 c -8.58054,-8.95607 -9.75084,-12.51667 -9.75084,-29.66667 0,-13.57597 0.36224,-16.012788 3.16065,-21.261782 1.73836,-3.260651 12.47124,-15.260651 23.85085,-26.666667 21.13855,-21.187614 21.30784,-20.826017 2.05135,4.381571 -6.07253,7.949213 -12.99589,18.449213 -15.38524,23.333333 -4.19818,8.581565 -4.34428,9.440735 -4.34428,25.546885 0,14.34384 0.40766,17.54934 2.92503,23 1.60876,3.48333 2.78053,6.33333 2.60393,6.33333 -0.1766,0 -2.47676,-2.25 -5.11145,-5 z m 92.08347,-70.465489 c -1.01055,-2.127312 -3.7503,-4.824062 -6.08833,-5.992778 l -4.25095,-2.124937 4.65999,-2.222193 c 3.0236,-1.441856 5.17266,-3.692847 6.11994,-6.410223 l 1.45995,-4.188028 1.90442,4.774736 c 1.32587,3.324204 3.1889,5.232403 6.13255,6.281245 l 4.22812,1.506511 -4.37865,1.875268 c -2.70164,1.157049 -5.06249,3.501648 -6.16416,6.121752 l -1.78551,4.246485 z"
       id="path66579" />
  </g>
</svg>
