<?xml version="1.0" encoding="UTF-8" standalone="no"?>
<!-- Created with Inkscape (http://www.inkscape.org/) -->

<svg
   version="1.1"
   id="svg66569"
   width="146.66667"
   height="177.33333"
   viewBox="0 0 146.66667 177.33333"
   sodipodi:docname="sorceror-symbol.svg"
   inkscape:version="1.1.2 (b8e25be833, 2022-02-05)"
   xmlns:inkscape="http://www.inkscape.org/namespaces/inkscape"
   xmlns:sodipodi="http://sodipodi.sourceforge.net/DTD/sodipodi-0.dtd"
   xmlns="http://www.w3.org/2000/svg"
   xmlns:svg="http://www.w3.org/2000/svg">
  <defs
     id="defs66573" />
  <sodipodi:namedview
     id="namedview66571"
     pagecolor="#ffffff"
     bordercolor="#666666"
     borderopacity="1.0"
     inkscape:pageshadow="2"
     inkscape:pageopacity="0.0"
     inkscape:pagecheckerboard="0"
     showgrid="false"
     inkscape:zoom="22.627417"
     inkscape:cx="56.789513"
     inkscape:cy="128.42827"
     inkscape:window-width="3440"
     inkscape:window-height="1377"
     inkscape:window-x="-8"
     inkscape:window-y="-8"
     inkscape:window-maximized="1"
     inkscape:current-layer="g66575" />
  <g
     inkscape:groupmode="layer"
     inkscape:label="Image"
     id="g66575">
    <path
       style="fill:#ff0000;fill-opacity:1;stroke-width:1.33333"
       d="m 67.07293,170.26872 c -15.69022,-4.19793 -30.25822,-16.5664 -37.5287,-31.86246 -3.40101,-7.15527 -3.80264,-9.42061 -3.80358,-21.45371 -0.002,-19.728575 2.56101,-24.225283 28.60089,-50.188048 25.52112,-25.445545 26.71588,-27.532883 26.72475,-46.690142 0.004,-7.882546 0.14123,-14.3325461 0.30573,-14.3333334 0.1645,-7.873e-4 1.18851,1.7184994 2.27556,3.8206373 5.33098,10.3089741 5.01465,31.9653081 -0.63745,43.6409971 -1.64731,3.402873 -7.74386,12.435604 -13.54791,20.072734 -11.62935,15.302224 -17.02307,25.490069 -17.04293,32.191285 -0.0128,4.33854 0.0498,4.38324 4.98697,3.55763 2.75,-0.45987 8.13702,-1.70004 11.97115,-2.75594 6.94361,-1.91225 6.97953,-1.94998 9.09691,-9.557634 1.16918,-4.200794 2.88546,-10.037809 3.81395,-12.971142 l 1.68818,-5.333333 2.33765,10.666666 c 3.31481,15.125363 3.93613,15.815083 16.73822,18.581143 5.97789,1.2916 11.24023,1.97701 11.6941,1.52314 0.45387,-0.45387 0.23668,-4.38383 -0.48264,-8.73325 -1.09073,-6.595169 -1.00869,-7.659756 0.49416,-6.4125 3.64893,3.028339 8.38865,12.88555 10.81771,22.49763 l 2.49606,9.87717 1.76642,-4 c 2.75205,-6.23195 2.1838,-23.812999 -1.12049,-34.666666 l -2.84144,-9.333333 3.29238,3.999999 c 5.10506,6.202284 9.64495,16.750875 11.10138,25.79443 2.63354,16.35288 -2.69578,32.31885 -15.14407,45.36957 -8.94447,9.37734 -17.64487,14.32394 -29.6791,16.87401 -11.27591,2.38936 -18.96503,2.34179 -28.37386,-0.17555 z m 30.66667,-33.0074 c 4.36532,-2.14169 7.54385,-5.23493 11.66666,-11.35363 8.77512,-13.02324 7.88017,-13.93611 -9.53514,-9.72596 -8.79571,2.12635 -9.27979,2.45012 -10.9689,7.33632 -0.97191,2.81148 -2.16739,8.1293 -2.65663,11.81738 -0.87531,6.59845 -0.83853,6.69092 2.30224,5.78759 1.75547,-0.50491 5.89177,-2.24267 9.19177,-3.8617 z m -16.65461,-1.1884 c -0.47657,-2.38333 -1.76917,-7.17343 -2.87246,-10.64466 -1.88108,-5.91842 -2.42129,-6.43467 -8.67747,-8.29256 -3.66933,-1.08967 -8.7244,-2.36634 -11.23349,-2.83705 -4.04516,-0.75888 -4.56197,-0.5309 -4.56197,2.01234 0,9.84521 14.6419,23.86725 25.10594,24.04308 2.79918,0.0471 3.02036,-0.37579 2.23945,-4.28115 z m -66.26122,8.66667 c -8.58054,-8.95607 -9.75084,-12.51667 -9.75084,-29.66667 0,-13.57597 0.36224,-16.012788 3.16065,-21.261782 1.73836,-3.260651 12.47124,-15.260651 23.85085,-26.666667 21.13855,-21.187614 21.30784,-20.826017 2.05135,4.381571 -6.07253,7.949213 -12.99589,18.449213 -15.38524,23.333333 -4.19818,8.581565 -4.34428,9.440735 -4.34428,25.546885 0,14.34384 0.40766,17.54934 2.92503,23 1.60876,3.48333 2.78053,6.33333 2.60393,6.33333 -0.1766,0 -2.47676,-2.25 -5.11145,-5 z m 92.08347,-70.465489 c -1.01055,-2.127312 -3.7503,-4.824062 -6.08833,-5.992778 l -4.25095,-2.124937 4.65999,-2.222193 c 3.0236,-1.441856 5.17266,-3.692847 6.11994,-6.410223 l 1.45995,-4.188028 1.90442,4.774736 c 1.32587,3.324204 3.1889,5.232403 6.13255,6.281245 l 4.22812,1.506511 -4.37865,1.875268 c -2.70164,1.157049 -5.06249,3.501648 -6.16416,6.121752 l -1.78551,4.246485 z"
       id="path66579" />
    <path
       style="fill:#ac0000;stroke-width:0.406262"
       d="m 75.97098,171.80361 c -13.665038,-2.05719 -23.761671,-6.91421 -33.236911,-15.98872 -5.454541,-5.22386 -9.468898,-10.67035 -12.686935,-17.21302 -3.598602,-7.31641 -3.957507,-9.17118 -3.982855,-20.58278 -0.02801,-12.61124 0.843396,-17.24463 4.447761,-23.64934 3.322661,-5.90414 6.21871,-9.195552 25.309266,-28.764425 8.177548,-8.382439 16.11306,-16.792061 17.634474,-18.688048 3.560467,-4.437061 6.205927,-9.733402 6.997862,-14.010061 0.372591,-2.012093 0.719096,-7.660481 0.909665,-14.82856 l 0.307825,-11.5784652 1.471541,2.8445093 c 2.757869,5.3310019 3.994173,11.6153539 3.998113,20.3230779 0.0041,8.614106 -1.214292,15.808095 -3.695907,21.826076 -1.458423,3.536713 -6.196485,10.76146 -14.264169,21.750442 -12.450297,16.958539 -16.949489,25.67014 -16.970048,32.858404 -0.0088,3.06305 0.203002,3.38489 2.227181,3.38489 3.485679,0 18.195318,-3.52234 20.459281,-4.89914 1.66062,-1.00988 2.141374,-2.0542 4.110798,-8.92955 2.474733,-8.639436 4.512884,-15.177376 4.838852,-15.521976 0.157605,-0.166616 0.611964,1.295927 1.009687,3.250095 1.767089,8.682439 3.567735,15.337644 4.749872,17.555561 1.392743,2.61305 2.647186,3.70029 5.62245,4.87303 2.951651,1.16343 13.590567,3.29729 16.899507,3.38955 l 2.84384,0.0793 0.11645,-1.82818 c 0.0641,-1.0055 -0.23842,-4.29622 -0.67216,-7.31272 -0.91608,-6.37097 -0.69221,-7.126382 1.38463,-4.672007 3.75706,4.44004 7.43569,12.982117 10.19041,23.662937 1.02318,3.96714 1.93157,7.28753 2.01865,7.37865 0.30363,0.31771 2.50831,-5.0577 2.9839,-7.27526 0.77152,-3.59745 0.98504,-11.56749 0.45714,-17.06301 -0.62083,-6.462896 -1.62513,-11.579598 -3.42665,-17.458176 -0.7856,-2.563512 -1.36723,-4.722059 -1.29252,-4.796771 0.38425,-0.384254 5.75285,7.529675 7.51952,11.084646 2.32049,4.669351 4.95163,12.379531 5.7529,16.857971 0.78144,4.36765 0.69066,13.64826 -0.17362,17.75026 -2.60504,12.36383 -9.79007,24.0625 -20.08214,32.69773 -8.41199,7.0578 -16.30321,10.56959 -28.542838,12.70228 -3.842075,0.66947 -12.913136,1.14032 -15.234822,0.7908 z m 15.702401,-31.64527 c 8.659429,-3.34427 12.930359,-6.69005 17.760379,-13.9132 5.02902,-7.52076 6.15166,-9.95064 5.31745,-11.50937 -0.44793,-0.83698 -0.67768,-0.8738 -4.18912,-0.6715 -3.7214,0.21439 -14.18712,2.4993 -17.184899,3.75185 -3.017201,1.26067 -4.046312,2.90245 -5.622909,8.97043 -1.197119,4.60747 -2.475991,13.17846 -2.109031,14.13474 0.385961,1.0058 1.9661,0.80581 6.02813,-0.76295 z M 81.37779,138.42395 c 0.208555,-2.88779 -3.166243,-15.00729 -4.892047,-17.56821 -0.50808,-0.75394 -1.537113,-1.72901 -2.286739,-2.16681 -2.838686,-1.65788 -17.602434,-5.36124 -19.448489,-4.87849 -1.277179,0.33399 -1.544816,2.32331 -0.736865,5.47705 1.281087,5.00057 5.212272,10.53196 10.497394,14.77039 5.567428,4.46484 9.859362,6.35137 14.100639,6.19798 l 2.640702,-0.0955 z"
       id="path20134" />
    <path
       style="fill:#ac0000;stroke-width:0.406262"
       d="M 14.66163,144.11907 C 8.6058098,137.55406 6.8889357,134.42579 5.9114759,128.17564 5.3405224,124.5248 5.2905693,104.59782 5.8442601,101.36235 6.7743939,95.927143 8.5395843,93.018416 16.199113,84.29935 21.755682,77.974144 46.384492,53.155526 46.746009,53.51704 c 0.324099,0.324099 -2.013558,3.621043 -11.154415,15.731774 -10.7644,14.261765 -17.177747,24.56766 -19.731406,31.707276 -0.941251,2.63158 -1.141245,4.04387 -1.467035,10.35968 -0.45582,8.83659 0.0954,24.12243 0.988884,27.42268 0.332714,1.22894 1.184463,3.51416 1.892775,5.07827 1.769734,3.90797 2.049314,4.67239 1.707878,4.66967 -0.162053,-0.001 -2.10653,-1.96659 -4.32106,-4.36732 z"
       id="path20173" />
    <path
       style="fill:#ac0000;stroke-width:0.406262"
       d="m 107.47889,75.000117 c -1.61506,-3.199407 -4.0275,-5.574205 -7.553354,-7.435489 l -2.729108,-1.440684 3.101942,-1.491973 c 4.57562,-2.200786 5.92909,-3.768146 8.23079,-9.531527 0.35089,-0.878618 0.48286,-0.713953 1.49471,1.865101 1.86745,4.759804 3.70912,6.628112 7.89365,8.007815 1.17309,0.386783 2.13288,0.777489 2.13288,0.868237 0,0.09075 -1.35704,0.808968 -3.01565,1.596044 -3.62698,1.72115 -5.81911,4.02221 -7.25804,7.618685 l -1.00342,2.507974 z"
       id="path20212" />
    <path
       style="fill:#ac0000;stroke-width:0.0253914"
       d="m 53.398052,109.41148 c -0.693962,-0.13057 -0.983315,-0.48939 -1.103013,-1.36783 -0.08116,-0.59558 -0.09571,-2.33023 -0.02676,-3.18999 0.258438,-3.22271 1.304868,-6.545996 3.365974,-10.689763 1.586601,-3.189794 3.586935,-6.544824 6.524836,-10.94368 1.090624,-1.632969 1.121208,-1.675831 1.19579,-1.675831 0.0765,0 0.117735,-0.07072 -0.3849,0.660176 -0.578703,0.841511 -1.694415,2.518635 -2.263488,3.402443 -4.880781,7.580186 -7.532919,13.40867 -8.157017,17.926305 -0.128895,0.93302 -0.170938,1.98794 -0.130546,3.27549 0.03649,1.1632 0.09197,1.54648 0.281186,1.94244 0.191884,0.40155 0.52854,0.62152 1.040726,0.67999 0.06645,0.008 0.05685,0.0106 -0.03809,0.0119 -0.06983,9.6e-4 -0.206939,-0.0133 -0.304696,-0.0317 z"
       id="path20251" />
    <path
       style="fill:#ac0000;stroke-width:0.0253914"
       d="m 54.299446,109.44972 c 2.361601,-0.10419 9.290507,-1.57303 15.526823,-3.2915 3.265309,-0.89978 4.346858,-1.30457 5.306163,-1.98595 0.253325,-0.17993 0.770435,-0.69012 0.961534,-0.94866 0.654281,-0.88521 1.135532,-2.08168 1.866972,-4.641614 0.09776,-0.342149 0.361904,-1.279091 0.586984,-2.082093 1.413294,-5.042101 2.906772,-10.088377 4.086747,-13.808619 0.196364,-0.619097 0.357025,-1.130416 0.357025,-1.136264 0,-0.0058 0.0638,-0.01063 0.141768,-0.01063 0.103399,0 0.138264,0.0086 0.128813,0.03174 -0.02797,0.06851 -0.632603,1.915388 -0.791233,2.416854 -0.813654,2.572112 -1.872682,6.120679 -3.262728,10.932659 -1.182604,4.093879 -1.549259,5.277637 -2.01335,6.500187 -0.308034,0.81145 -0.575947,1.36273 -0.900815,1.85357 -0.371324,0.56104 -0.998222,1.10445 -1.652925,1.43282 -2.585381,1.29666 -14.308506,4.17239 -19.16108,4.70028 -0.211241,0.023 -0.663586,0.0451 -1.015654,0.0497 l -0.634785,0.008 z"
       id="path20290" />
    <path
       style="fill:#ac0000;stroke-width:0.0253914"
       d="m 59.631633,129.32616 c -2.90926,-3.40837 -4.875166,-6.98244 -5.674718,-10.31681 -0.715889,-2.98545 -0.436521,-4.82803 0.785509,-5.18083 0.129204,-0.0373 0.228073,-0.0416 0.685567,-0.0299 0.911044,0.0233 2.409007,0.25417 4.482948,0.69105 5.632621,1.18652 12.198821,3.09928 14.09009,4.10449 0.325234,0.17286 0.862181,0.5412 0.83238,0.57101 -0.0059,0.006 -0.146588,-0.0715 -0.312598,-0.17199 -0.391236,-0.23687 -0.944713,-0.50217 -1.54683,-0.74143 -1.579041,-0.62747 -5.317188,-1.72181 -9.470164,-2.77239 -4.150068,-1.04985 -6.803992,-1.56528 -8.049064,-1.56324 -0.590849,9.6e-4 -0.91534,0.0714 -1.14816,0.24907 -0.386725,0.2952 -0.520455,0.68389 -0.563742,1.63854 -0.121755,2.68518 0.809281,5.6975 2.772259,8.9695 0.966736,1.61142 2.454599,3.61534 3.671511,4.94497 l 0.06391,0.0698 -0.112663,-3.8e-4 -0.112664,-3.7e-4 z"
       id="path20329" />
    <path
       style="fill:#ac0000;stroke-width:0.0253914"
       d="m 110.4395,109.05481 c -4.45552,-0.5313 -12.365541,-2.20441 -14.980643,-3.16868 -1.301775,-0.48001 -2.406106,-1.04694 -3.219909,-1.65302 -0.446911,-0.33283 -1.071845,-0.94591 -1.412156,-1.38536 -0.570119,-0.73621 -1.197952,-1.8052 -1.558385,-2.6534 -1.161303,-2.732882 -2.671293,-8.461763 -4.296606,-16.301262 -0.241683,-1.165728 -0.433985,-2.013254 -0.52319,-2.305835 -0.01226,-0.04022 -2.72e-4,-0.04501 0.09547,-0.03809 l 0.109492,0.0079 0.742488,3.389748 c 1.467606,6.700189 1.698858,7.727665 2.140194,9.509068 0.99085,3.999461 1.826711,6.190011 2.974444,7.795151 0.284073,0.39728 0.510234,0.66367 0.880032,1.03656 1.659991,1.67385 3.901084,2.61833 8.981359,3.78507 4.20151,0.96494 7.71831,1.62931 10.74055,2.02905 0.0428,0.006 0.0206,0.0105 -0.0508,0.0111 -0.0698,5.9e-4 -0.34988,-0.0255 -0.62235,-0.058 z"
       id="path20368" />
    <path
       style="fill:#ac0000;stroke-width:0.0253914"
       d="m 76.262981,140.12027 c -2.102703,-0.31333 -4.204663,-1.09582 -6.520414,-2.42731 -2.180255,-1.25358 -4.820669,-3.20008 -6.987795,-5.15137 -0.518335,-0.46671 -1.875255,-1.81835 -2.356513,-2.34734 l -0.358054,-0.39356 0.104888,-0.008 c 0.10045,-0.008 0.110866,-0.001 0.246111,0.15235 0.460358,0.52279 1.736844,1.81423 2.414739,2.44302 4.238303,3.93128 9.02435,6.69624 13.188622,7.61924 0.280299,0.0621 0.566765,0.12357 0.636591,0.13654 0.237761,0.0442 -0.02795,0.0272 -0.368175,-0.0235 z"
       id="path20407" />
    <path
       style="fill:#ac0000;stroke-width:0.0253914"
       d="m 81.155791,136.37068 c -0.533989,-2.77213 -2.180773,-8.77507 -3.387025,-12.34653 -0.489082,-1.44807 -0.90294,-2.41642 -1.339003,-3.13299 -0.09253,-0.15206 -0.163327,-0.28137 -0.157325,-0.28738 0.01542,-0.0154 0.217824,0.27301 0.357429,0.50934 1.204727,2.03944 3.296845,8.69689 4.290825,13.65409 0.173783,0.8667 0.374579,2.10502 0.341321,2.10495 -0.0053,-1e-5 -0.05309,-0.22568 -0.106222,-0.50148 z"
       id="path20446" />
    <path
       style="fill:#ac0000;stroke-width:0.0253914"
       d="m 86.000572,141.34502 c -0.111295,-0.0681 -0.265023,-0.24783 -0.321767,-0.37611 -0.200709,-0.45373 -0.01504,-2.71541 0.50098,-6.10265 0.519168,-3.40788 1.156488,-6.53124 1.852236,-9.07741 0.806634,-2.95196 1.482262,-4.61414 2.352277,-5.78705 0.833234,-1.12332 2.052176,-1.89476 4.033513,-2.55272 2.685568,-0.89182 8.000159,-2.13247 12.298129,-2.87089 0.33297,-0.0572 0.6231,-0.10052 0.64473,-0.0963 0.0216,0.004 -0.23938,0.0627 -0.58002,0.1299 -3.30521,0.65186 -9.816662,2.21763 -12.020055,2.8904 -2.517434,0.76865 -3.67712,1.49544 -4.525512,2.83619 -0.72769,1.14999 -1.689617,3.92977 -2.483583,7.17704 -0.730578,2.98802 -1.236372,5.66177 -1.609201,8.50663 -0.300767,2.295 -0.389747,3.20002 -0.38939,3.96054 3.53e-4,0.75329 0.07779,1.10502 0.292105,1.32669 0.08888,0.0919 0.07095,0.10635 -0.04444,0.0357 z"
       id="path20524" />
    <path
       style="fill:#ac0000;stroke-width:0.0126957"
       d="m 87.047966,141.50528 c 0.43889,-0.071 1.372914,-0.32234 2.094788,-0.56373 1.720846,-0.57544 4.759133,-1.84905 7.496802,-3.14257 1.129071,-0.53347 1.831221,-0.89085 2.471295,-1.25783 2.457379,-1.40892 4.572959,-3.23722 6.734549,-5.82003 0.9769,-1.16726 1.97597,-2.49434 3.0537,-4.05627 0.49375,-0.71557 1.62543,-2.40999 2.17614,-3.25823 l 0.22783,-0.35092 0.004,0.16294 0.004,0.16295 -0.21181,0.32763 c -0.58482,0.90462 -1.65691,2.52231 -2.08499,3.14607 -2.15679,3.14266 -4.15767,5.42113 -6.40047,7.28847 -2.765911,2.30287 -6.044647,4.10905 -10.829424,5.96568 -2.305544,0.89462 -3.896874,1.36936 -4.722795,1.40896 l -0.133304,0.006 z"
       id="path20563" />
    <path
       style="fill:#ac0000;stroke-width:0.0179544"
       d="m 125.12583,115.92714 c -2.40123,-8.33913 -5.30492,-15.02708 -8.33891,-19.206732 -0.5166,-0.71167 -1.12272,-1.448038 -1.56449,-1.900686 -0.32424,-0.332223 -0.51397,-0.490446 -0.6972,-0.581415 -0.41231,-0.204711 -0.59193,0.05465 -0.62476,0.902113 -0.0297,0.767364 0.10284,2.11101 0.45893,4.651702 0.38848,2.771848 0.59466,4.676978 0.70225,6.489008 0.0365,0.61393 0.0282,1.08987 -0.0357,2.07374 -0.0328,0.50362 -0.0621,0.91858 -0.0652,0.92215 -0.003,0.004 -0.0797,6.1e-4 -0.17024,-0.007 l -0.16462,-0.013 0.0694,-0.0383 c 0.1295,-0.0716 0.20777,-0.30532 0.26119,-0.78009 0.0309,-0.27446 0.0306,-1.65697 -4e-4,-2.15788 -0.11977,-1.9336 -0.33157,-3.68863 -0.76602,-6.34746 -0.48544,-2.970871 -0.68033,-4.60378 -0.64923,-5.439609 0.0199,-0.534724 0.0933,-0.7731 0.26824,-0.871435 0.0979,-0.05505 0.22849,-0.04048 0.40098,0.04477 0.48312,0.238771 1.35359,1.06989 2.14101,2.044227 3.25633,4.029295 6.88996,12.088467 8.97833,19.913397 0.0894,0.33499 0.16759,0.63595 0.17375,0.6688 l 0.0112,0.0597 h -0.13284 -0.13284 z"
       id="path20602" />
    <path
       style="fill:#ac0000;stroke-width:0.0179544"
       d="m 131.57197,107.32698 c -0.14575,-6.06123 -1.02157,-12.752445 -2.31844,-17.7128 -0.28556,-1.092226 -0.23377,-0.918342 -2.03556,-6.835372 -0.72018,-2.365044 -1.30773,-4.301822 -1.30568,-4.303949 0.005,-0.0054 3.32799,4.032615 3.59958,4.374444 3.83108,4.821795 7.43215,12.272386 9.46386,19.580607 0.51338,1.84669 0.97739,3.8898 1.21206,5.33695 l 0.0124,0.0763 h -0.096 -0.096 l -0.059,-0.30972 c -0.86137,-4.52011 -3.46567,-12.07711 -5.7033,-16.549476 -0.75796,-1.514935 -2.13175,-3.797989 -3.75431,-6.239158 -1.9199,-2.888517 -3.41821,-4.838713 -3.71752,-4.838713 -0.0224,0 -0.0457,0.0079 -0.0517,0.01767 -0.0397,0.06427 0.2318,1.161993 0.63921,2.584259 0.18292,0.638584 0.32314,1.111447 0.64462,2.173947 1.06544,3.521334 1.75763,6.313978 2.32521,9.381179 0.62765,3.391784 1.12614,7.480192 1.2916,10.593102 0.0485,0.91187 0.0991,2.40949 0.0994,2.94003 l 1.3e-4,0.24688 h -0.0691 -0.0691 z"
       id="path20641" />
    <path
       style="fill:#ac0000;stroke-width:0.00897721"
       d="m 14.566903,131.07168 c -8.17e-4,-0.0222 -0.01159,-0.22622 -0.02394,-0.45335 -0.196686,-3.61721 -0.309131,-7.95194 -0.309508,-11.93149 -5.4e-5,-0.5633 0.0026,-1.13391 0.0058,-1.26803 l 0.0059,-0.24384 h 0.07935 0.07935 l 7.3e-5,2.78967 c 1.44e-4,5.41162 0.04226,8.28779 0.15783,10.77938 0.0078,0.16787 0.01245,0.31936 0.01036,0.33664 -0.0034,0.0285 -0.0039,0.0277 -0.0053,-0.009 z"
       id="path20680" />
    <path
       style="fill:#ac0000;stroke-width:0.00897721"
       d="m 7.1920705,134.22483 c -0.00984,-0.0159 -0.1028267,-0.25517 -0.1955159,-0.50305 -0.1148253,-0.30709 -0.3261282,-0.93602 -0.4243698,-1.26312 -0.9288484,-3.09263 -1.347763,-6.81528 -1.4597636,-12.97206 -0.01175,-0.64592 -0.02667,-1.81329 -0.026763,-2.09393 l -7.16e-5,-0.2177 h 0.1930099 0.1930099 l 4.94e-5,0.26707 c 7.99e-5,0.43262 0.025218,2.07241 0.049579,3.23404 0.074101,3.53347 0.2023991,6.14144 0.3594879,7.30744 0.084739,0.62899 0.2995785,1.79937 0.4696461,2.55851 0.2882526,1.28668 0.6627614,2.49716 1.0963917,3.54375 l 0.060442,0.14588 H 7.3517462 c -0.085501,0 -0.1573551,-0.003 -0.1596756,-0.007 z"
       id="path20719" />
    <path
       style="fill:#ac0000;stroke-width:0.0126957"
       d="m 19.798917,149.6453 c -0.692271,-0.52135 -4.216396,-4.06339 -6.412108,-6.44471 -3.139227,-3.40458 -4.8661883,-5.86293 -6.0311246,-8.58537 -0.082986,-0.19394 -0.150883,-0.35837 -0.150883,-0.36539 0,-0.008 0.056399,-0.0115 0.1528953,-0.009 l 0.1528953,0.004 0.1053742,0.24121 c 0.7213804,1.65136 1.7388049,3.30208 3.1691198,5.14176 1.176248,1.51289 2.636977,3.18397 4.805204,5.49717 1.665072,1.7764 3.119325,3.22979 3.349363,3.34738 0.04144,0.0212 0.05497,0.0226 0.09327,0.01 0.253187,-0.0836 -0.04204,-0.87681 -1.665322,-4.47454 -0.894993,-1.98361 -1.807005,-4.45998 -2.054945,-5.57976 -0.173359,-0.78295 -0.33627,-2.03753 -0.489623,-3.77061 -0.05411,-0.61152 -0.05796,-0.75562 -0.008,-0.29817 0.314599,2.87849 0.769345,4.81798 1.660964,7.08401 0.235164,0.59766 0.468681,1.1344 0.980413,2.25348 1.403071,3.06831 2.358587,5.3529 2.474055,5.91535 0.02964,0.14439 0.01888,0.14716 -0.131591,0.0338 z"
       id="path20758" />
    <path
       style="fill:#ac0000;stroke-width:0.00897721"
       d="m 5.0808697,116.66551 c -0.00828,-0.61447 0.00116,-4.6949 0.013466,-5.81947 0.01304,-1.19209 0.035144,-2.48875 0.050615,-2.96921 l 0.00585,-0.18179 h 0.1794535 0.1794536 l -0.00581,0.19974 c -0.00643,0.22111 -0.017259,0.88686 -0.034421,2.11638 -0.012644,0.90584 -0.016013,6.85247 -0.00399,7.04935 l 0.00699,0.11446 H 5.2801038 5.0877323 Z"
       id="path20797" />
    <path
       style="fill:#ac0000;stroke-width:0.00897721"
       d="m 14.245539,116.58023 c 0.01728,-1.68729 0.06688,-3.51786 0.13178,-4.8634 0.05966,-1.23707 0.198653,-3.64171 0.229218,-3.96568 0.0049,-0.0524 0.0068,-0.0561 0.02767,-0.0561 0.02166,0 0.02221,0.002 0.01726,0.0471 -0.02758,0.25389 -0.0945,1.39034 -0.126213,2.14331 -0.06766,1.6064 -0.09335,3.02408 -0.117997,6.51072 l -0.0055,0.77877 h -0.08115 -0.08115 z"
       id="path20836" />
    <path
       style="fill:#ac0000;stroke-width:0.0253914"
       d="m 5.1765697,107.06906 c 0.03419,-1.19031 0.1098398,-2.57764 0.1948787,-3.57383 0.2649559,-3.10385 0.7420233,-5.125769 1.7433929,-7.388893 0.3716384,-0.839913 1.1227388,-2.312408 1.4081886,-2.760683 0.8155294,-1.28072 2.4667461,-3.386501 4.7391361,-6.043775 l 0.645981,-0.755393 h 0.162533 0.162533 l -0.363753,0.425306 c -1.420124,1.660428 -2.754369,3.318439 -3.652418,4.538707 -2.3800214,3.23397 -3.4847384,5.530989 -4.1458386,8.620371 -0.2740557,1.28069 -0.3477159,1.87402 -0.4334306,3.49131 -0.049421,0.93249 -0.1402848,3.52255 -0.1405195,4.00549 -1.84e-5,0.0379 -0.025005,0.0444 -0.1690134,0.0444 H 5.1592481 Z"
       id="path20875" />
    <path
       style="fill:#ac0000;stroke-width:0.0044886"
       d="m 14.650895,107.12162 c 0.0013,-0.013 0.01049,-0.12355 0.02036,-0.24575 0.15122,-1.87258 0.344759,-3.11627 0.668463,-4.29559 0.281146,-1.02427 0.794648,-2.43607 1.401937,-3.854416 l 0.04572,-0.106777 0.08865,-0.0012 c 0.04876,-6.7e-4 0.08865,-2.27e-4 0.08865,9.84e-4 0,0.0012 -0.01234,0.03004 -0.02741,0.06406 -0.894399,2.018159 -1.415231,3.564269 -1.770287,5.255169 -0.188112,0.89586 -0.338518,1.91227 -0.442033,2.98717 -0.0101,0.10492 -0.0194,0.19733 -0.02065,0.20535 -0.0023,0.0146 -0.0023,0.0146 -0.02905,0.0146 h -0.02677 z"
       id="path20914" />
    <path
       style="fill:#ac0000;stroke-width:0.00634784"
       d="m 16.793218,98.612141 c 0,-0.0064 0.185023,-0.428983 0.29748,-0.679501 0.668192,-1.488517 1.498066,-3.139386 2.440165,-4.854224 0.711827,-1.29569 1.540362,-2.723885 2.380772,-4.10388 0.111625,-0.183294 0.214657,-0.352543 0.22896,-0.37611 l 0.02601,-0.04285 h 0.09371 0.09371 l -0.04232,0.06824 c -1.247673,2.011813 -2.216514,3.667532 -2.965042,5.067165 -0.252476,0.472092 -0.452812,0.865626 -0.731932,1.437786 -0.76924,1.576842 -1.217274,2.522745 -1.604076,3.386575 l -0.04406,0.09839 -0.08668,0.0018 c -0.04768,9.71e-4 -0.08668,-5.41e-4 -0.08668,-0.0034 z"
       id="path20953" />
    <path
       style="fill:#ac0000;stroke-width:0.00897721"
       d="m 22.181256,88.534101 c 0.0078,-0.01185 0.05205,-0.08355 0.09842,-0.159345 1.217303,-1.98976 2.87483,-4.530956 4.696825,-7.200822 l 0.206476,-0.302559 0.102026,-1.12e-4 0.102026,-1.11e-4 -0.01596,0.02469 c -0.0088,0.01358 -0.109524,0.162038 -0.223884,0.329912 -0.649958,0.954104 -0.960975,1.415709 -1.530295,2.271233 -1.169699,1.757718 -2.413237,3.683488 -3.201262,4.957539 l -0.06239,0.100871 -0.09305,1.22e-4 -0.09305,1.23e-4 z"
       id="path20992" />
    <path
       style="fill:#ac0000;stroke-width:0.00897721"
       d="m 14.069733,86.544746 -0.167436,-0.0045 0.139968,-0.161589 c 1.275817,-1.472903 3.034496,-3.445605 4.615872,-5.177603 l 0.301222,-0.329913 h 0.192884 0.192884 l -0.03622,0.03815 c -0.693926,0.730957 -2.044402,2.192266 -2.661046,2.879439 -0.441364,0.491845 -1.454218,1.650463 -2.095361,2.396914 -0.137829,0.160467 -0.265163,0.307918 -0.282964,0.327668 l -0.03237,0.03591 z"
       id="path21031" />
    <path
       style="fill:#ac0000;stroke-width:0.0718176"
       d="m 19.362981,80.487645 c 4.840226,-5.271279 10.026333,-10.623734 17.20313,-17.754936 8.402969,-8.349584 11.330701,-11.053501 11.636901,-10.747301 0.07801,0.07801 -0.355603,0.905948 -0.960343,1.833701 -1.278129,1.960821 -5.378595,7.50073 -11.381712,15.377188 -1.520306,1.994735 -3.210445,4.233745 -3.755865,4.975577 -0.545421,0.741833 -1.00737,1.333089 -1.026555,1.313905 -0.05105,-0.05105 1.118674,-1.639509 6.48248,-8.803099 7.631463,-10.192145 9.228176,-12.453378 9.228176,-13.068763 0,-0.199114 -0.03331,-0.188376 -0.456533,0.147158 -1.80993,1.434937 -16.723368,16.333141 -24.851676,24.82629 -1.410219,1.473517 -2.1961,2.24339 -2.290038,2.24339 -0.118806,0 -0.08968,-0.05809 0.172035,-0.34311 z"
       id="path21070" />
    <path
       style="fill:#ac0000;stroke-width:0.0253914"
       d="m 27.311155,80.701779 c 0.830263,-1.227689 3.823971,-5.444915 3.848092,-5.420794 0.0059,0.0059 -0.01401,0.05264 -0.04424,0.103878 -0.09565,0.162113 -0.03315,0.127615 0.130886,-0.07224 0.08708,-0.106102 0.162872,-0.188374 0.16842,-0.182827 0.0055,0.0055 -0.142386,0.219937 -0.32874,0.476421 -0.891557,1.227069 -2.376083,3.328576 -3.324856,4.706693 -0.359406,0.522047 -0.369097,0.533386 -0.462552,0.541223 l -0.09546,0.008 z"
       id="path21109" />
    <path
       style="fill:#ac0000;stroke-width:0.0253914"
       d="m 26.267373,106.35925 c 0,-0.18728 0.280508,-1.8926 0.444373,-2.70153 0.884693,-4.367341 2.580071,-8.236671 5.444781,-12.426526 1.964862,-2.873757 4.450937,-5.930698 7.949143,-9.774464 3.376237,-3.70975 6.146363,-6.560723 14.840997,-15.274135 3.170254,-3.177101 6.260138,-6.282148 6.866408,-6.900104 0.606269,-0.617957 1.118919,-1.123557 1.139219,-1.123557 0.05014,0 0.02467,0.0275 -1.363567,1.472699 -1.992845,2.074604 -3.094754,3.21171 -6.680376,6.893758 -4.73567,4.863023 -7.944451,8.176856 -10.068354,10.397979 -8.147378,8.520321 -11.071345,11.984232 -13.481449,15.970959 -1.901317,3.145104 -3.113353,5.806229 -3.862631,8.480721 -0.398945,1.424 -0.768118,3.32045 -0.941603,4.83705 l -0.02033,0.17774 -0.133305,0.008 c -0.114526,0.007 -0.133304,0.001 -0.133304,-0.0383 z"
       id="path21148" />
    <path
       style="fill:#ac0000;stroke-width:0.00390625"
       d="m 70.832948,70.985393 c 0.0042,-0.0053 0.22155,-0.305057 0.489344,-0.674846 1.674437,-2.312183 3.219298,-4.489652 4.569329,-6.44043 l 0.208831,-0.301758 h 0.191215 c 0.151928,0 0.190615,10e-4 0.188292,0.0049 -0.0049,0.0082 -0.450492,0.651753 -0.602449,0.870117 -1.468663,2.110491 -3.086486,4.364239 -4.583219,6.384766 l -0.118638,0.160156 -0.1733,0.001 c -0.138975,8.16e-4 -0.172528,4.3e-5 -0.169405,-0.0039 z"
       id="path21187" />
    <path
       style="fill:#ac0000;stroke-width:0.0110485"
       d="m 63.236338,81.617058 c 0,-0.0047 0.03153,-0.05418 0.07008,-0.109965 0.03854,-0.05578 0.181123,-0.26301 0.316847,-0.460503 1.651043,-2.402453 3.280136,-4.6846 5.812657,-8.142776 0.416089,-0.568171 0.9004,-1.23067 1.076248,-1.472218 l 0.319724,-0.43918 h 0.163127 c 0.08972,0 0.163126,0.003 0.163126,0.0066 0,0.0096 -0.812634,1.097676 -1.379893,1.847531 -1.785714,2.360518 -2.507686,3.329754 -3.643256,4.891009 -0.864671,1.188806 -2.178039,3.039679 -2.688485,3.788767 -0.03275,0.04806 -0.03799,0.05179 -0.04526,0.03215 -0.01272,-0.03439 -0.07284,-0.02102 -0.123482,0.02747 -0.02279,0.02182 -0.04143,0.03582 -0.04143,0.03113 z"
       id="path21226" />
    <path
       style="fill:#ac0000;stroke-width:0.00552427"
       d="m 76.286046,63.565191 -0.180922,-0.0029 0.07259,-0.104961 c 0.528628,-0.764365 1.309114,-1.914298 1.871959,-2.75806 l 0.240306,-0.360243 0.189532,-7.4e-5 c 0.15016,-5.9e-5 0.188675,0.0014 0.185406,0.0068 -0.0023,0.0038 -0.07863,0.118772 -0.169689,0.255498 -0.750762,1.127268 -2.003284,2.96634 -2.020502,2.966693 -0.0043,8.7e-5 -0.08917,-0.0012 -0.18868,-0.0028 z"
       id="path21265" />
    <path
       style="fill:#ac0000;stroke-width:0.0110485"
       d="m 78.475042,60.333356 c -0.09267,-0.0018 -0.16849,-0.0058 -0.16849,-0.0088 0,-0.003 0.128408,-0.200486 0.285351,-0.438892 1.694232,-2.573642 2.909662,-4.563396 3.838345,-6.28367 0.196507,-0.364005 0.641125,-1.250468 0.770276,-1.535748 0.418428,-0.924257 0.947805,-2.327278 1.359708,-3.60367 0.711199,-2.203838 1.277136,-4.559277 1.689217,-7.030553 0.06343,-0.380405 0.188831,-1.183047 0.188831,-1.208653 0,-0.0082 0.04165,-0.01221 0.127058,-0.01221 0.106877,0 0.127058,0.0027 0.127058,0.01696 0,0.03071 -0.09929,0.66505 -0.177939,1.136746 -0.666221,3.995945 -1.664141,7.592119 -2.926653,10.546697 -0.330283,0.772941 -0.617459,1.37975 -0.925336,1.955258 -0.72688,1.358743 -1.948811,3.355787 -3.474983,5.679286 -0.157662,0.24003 -0.339577,0.517167 -0.404257,0.615861 -0.06468,0.09869 -0.12257,0.178382 -0.128647,0.177086 -0.0061,-0.0013 -0.08687,-0.0039 -0.179539,-0.0057 z"
       id="path21304" />
    <path
       style="fill:#ac0000;stroke-width:0.0078125"
       d="m 86.675781,40.21327 c -0.01074,-0.0042 -0.06787,-0.0063 -0.126953,-0.0048 -0.06971,0.0018 -0.107409,0 -0.107386,-0.0052 1.9e-5,-0.0044 0.01743,-0.131023 0.03869,-0.281414 0.290565,-2.055334 0.492137,-4.322877 0.58997,-6.636719 0.07523,-1.779233 0.09304,-3.738053 0.05098,-5.605469 -0.0043,-0.189062 -0.009,-0.36748 -0.01063,-0.396484 l -0.0029,-0.05273 h 0.146773 0.146772 l 0.0044,0.04883 c 0.0045,0.04988 0.01288,0.321712 0.02998,0.966797 0.013,0.490247 0.01293,2.643892 -1.02e-4,3.140625 -0.07001,2.668713 -0.227184,4.84859 -0.521627,7.234375 -0.06508,0.52734 -0.209659,1.592578 -0.216961,1.598562 -7.91e-4,6.49e-4 -0.01023,-0.0022 -0.02097,-0.0064 z"
       id="path21343" />
    <path
       style="fill:#ac0000;stroke-width:0.0078125"
       d="m 76.675781,42.070227 c 0,-0.0022 0.01761,-0.03209 0.03913,-0.06643 0.60887,-0.971529 1.273402,-2.208822 1.755956,-3.26942 0.973744,-2.140178 1.62,-4.35247 2.012894,-6.890625 0.194741,-1.258058 0.339106,-2.684394 0.426206,-4.210938 0.0086,-0.15039 0.01772,-0.302441 0.02031,-0.33789 l 0.0047,-0.06445 h 0.0249 c 0.02393,0 0.02482,0.0011 0.02283,0.0293 -0.0011,0.01611 -0.0075,0.120703 -0.01421,0.232421 -0.119676,2.002647 -0.289995,3.91687 -0.437927,4.921875 -0.18629,1.26561 -0.59198,2.761166 -1.163464,4.289063 -0.631329,1.687897 -1.486956,3.47962 -2.478193,5.189453 l -0.105302,0.181641 h -0.05392 c -0.02966,0 -0.05392,-0.0018 -0.05392,-0.004 z"
       id="path21382" />
    <path
       style="fill:#ac0000;stroke-width:0.00552427"
       d="m 87.402265,27.237422 c 0,-0.01077 -0.0037,-0.01105 -0.145996,-0.01105 h -0.145995 l -0.003,-0.029 c -0.0016,-0.01595 -0.0044,-0.08618 -0.0061,-0.156061 -0.01934,-0.770835 -0.08419,-2.004694 -0.154895,-2.947199 -0.03785,-0.504559 -0.133904,-1.576124 -0.14868,-1.658662 l -0.0027,-0.01519 h 0.132445 0.132444 l 4.8e-5,0.01243 c 2.6e-5,0.0068 0.0098,0.103166 0.02181,0.214066 0.145207,1.345101 0.257157,2.879767 0.312109,4.278548 0.0045,0.115458 0.0095,0.235403 0.0111,0.266547 0.0016,0.03114 0.0016,0.05662 1.43e-4,0.05662 -0.0015,0 -0.0027,-0.005 -0.0027,-0.01105 z"
       id="path21421" />
    <path
       style="fill:#ac0000;stroke-width:0.0110485"
       d="m 81.017583,25.082956 c 0.03455,-1.366682 0.05075,-2.787138 0.05113,-4.482947 0.0018,-7.974582 0.142208,-14.7916915 0.305864,-14.8462435 0.03672,-0.012241 0.202471,0.1916836 0.39269,0.4831373 0.639063,0.9791742 1.852157,3.2052075 2.354207,4.3199802 0.83546,1.855092 1.507452,3.955368 2.045016,6.391583 0.355223,1.609855 0.658811,3.453398 0.856955,5.203864 0.01238,0.10938 0.02487,0.212546 0.02776,0.229257 l 0.0052,0.03038 h -0.129811 -0.129811 l -0.01982,-0.190587 c -0.08175,-0.785874 -0.2273,-1.856456 -0.367638,-2.704131 -0.637769,-3.85227 -1.687432,-7.120514 -3.276336,-10.2012417 -0.680891,-1.32018 -1.448313,-2.7988275 -1.457291,-2.8078658 -0.0066,-0.0066 -0.01043,-0.00226 -0.01043,0.011696 0,0.044404 -0.309627,11.6716065 -0.325961,12.2405865 -0.06337,2.207424 -0.136899,4.169945 -0.22819,6.090509 l -0.02481,0.522044 h -0.03805 -0.03805 z"
       id="path21460" />
    <path
       style="fill:#ac0000;stroke-width:0.0110485"
       d="m 102.29846,69.173945 c -0.31993,-0.227486 -0.74295,-0.497133 -1.08275,-0.690175 -0.079,-0.04488 -1.15263,-0.586943 -2.385841,-1.204586 -1.869876,-0.936512 -2.238644,-1.124871 -2.220757,-1.134318 0.0118,-0.0062 0.988473,-0.47236 2.170391,-1.035846 2.748787,-1.310498 2.656927,-1.266279 2.955487,-1.42268 2.63038,-1.377937 4.52227,-3.377535 5.47997,-5.791972 0.0663,-0.167071 1.22478,-3.468181 1.57415,-4.485473 l 0.0189,-0.05501 0.47602,1.193007 c 0.26182,0.656154 0.70709,1.772227 0.98951,2.480162 0.64711,1.622155 0.7177,1.787439 1.01915,2.386485 1.16451,2.314153 2.70002,3.793805 4.9159,4.73709 0.31318,0.133317 0.24343,0.108036 3.37802,1.224459 0.80057,0.285132 1.45561,0.520941 1.45565,0.524019 0,0.0031 -0.9856,0.427769 -2.19031,0.943757 -1.2047,0.515988 -2.27116,0.974579 -2.3699,1.019091 -0.72601,0.327292 -1.43598,0.748555 -2.1333,1.265801 l -0.1915,0.142052 -0.0713,-0.0032 -0.0713,-0.0032 0.11914,-0.08964 c 0.89996,-0.677139 1.75953,-1.184084 3.08567,-1.819831 1.58872,-0.761623 2.76844,-1.386917 2.82855,-1.499223 0.0152,-0.02837 -0.0373,-0.0712 -0.17225,-0.140439 -0.31277,-0.160523 -0.94338,-0.402113 -1.84423,-0.706526 -0.50473,-0.170558 -0.86307,-0.298911 -1.1633,-0.41668 -1.38642,-0.543835 -2.41967,-1.148222 -3.33346,-1.949861 -0.18516,-0.162441 -0.61415,-0.594089 -0.78296,-0.787814 -0.67162,-0.77077 -1.22557,-1.626076 -1.79122,-2.765694 -0.34366,-0.692356 -0.54695,-1.158938 -0.99647,-2.287048 -0.16707,-0.419292 -0.35255,-0.879188 -0.41217,-1.02199 -0.35958,-0.861241 -0.53949,-1.160097 -0.69837,-1.160097 -0.0357,0 -0.052,0.0084 -0.0958,0.04936 -0.0738,0.06903 -0.1387,0.19934 -0.31106,0.624599 -0.74389,1.83536 -1.28484,3.00164 -1.84906,3.986535 -1.0928,1.907566 -2.28245,3.10716 -4.21238,4.247603 -0.7595,0.448811 -1.26852,0.707501 -3.577009,1.817905 -0.880447,0.423503 -1.600176,0.774977 -1.599398,0.781054 7.77e-4,0.0061 0.56453,0.308307 1.252783,0.671623 1.563754,0.825476 1.625014,0.858037 1.881134,0.99989 0.63675,0.352658 1.30098,0.764371 1.82854,1.133401 0.13973,0.09774 0.44135,0.314528 0.45796,0.329154 0.006,0.0051 -0.0365,0.0091 -0.0939,0.0089 l -0.10441,-3.09e-4 -0.13259,-0.09427 z"
       id="path21499" />
    <path
       style="fill:#ac0000;stroke-width:0.0078125"
       d="m 107.84792,76.243523 c -0.49184,-1.036282 -0.93398,-1.964335 -0.98253,-2.062341 -0.41586,-0.839591 -1.06517,-1.738487 -1.94866,-2.697723 -0.18901,-0.205222 -0.71057,-0.727044 -0.91687,-0.917331 -0.49075,-0.452674 -0.90886,-0.802492 -1.39269,-1.165216 l -0.17408,-0.130505 0.1036,-0.0024 0.10359,-0.0024 0.14861,0.112595 c 1.09341,0.828433 2.07248,1.779924 2.89349,2.811956 0.62208,0.781987 1.16299,1.612822 1.65129,2.536386 0.0409,0.07734 0.37942,0.745313 0.75229,1.484375 0.37287,0.739063 0.68049,1.346611 0.6836,1.350107 0.003,0.0035 0.24707,-0.596886 0.54213,-1.334182 0.67417,-1.684631 0.74728,-1.856648 1.03607,-2.4378 0.8886,-1.788225 2.0052,-3.193822 3.47446,-4.373731 l 0.18156,-0.1458 h 0.0789 0.0789 l -0.11987,0.09512 c -0.89298,0.708575 -1.70598,1.56177 -2.35857,2.475193 -0.43923,0.614771 -0.82503,1.289606 -1.1032,1.929687 -0.0364,0.08379 -0.46277,1.096289 -0.94744,2.25 -0.48468,1.153711 -0.88329,2.100015 -0.88579,2.102898 -0.003,0.0029 -0.40698,-0.842625 -0.89883,-1.878906 z"
       id="path21538" />
    <path
       style="fill:#ac0000;stroke-width:0.00390625"
       d="m 82.413511,83.352539 c 0.0031,-0.01205 1.561193,-4.934014 1.562264,-4.935085 4.72e-4,-4.72e-4 0.244142,1.10951 0.541489,2.466625 0.297347,1.357116 0.541416,2.469681 0.542375,2.472366 9.59e-4,0.0027 -7.08e-4,0.0049 -0.0037,0.0049 -0.0041,0 -0.05506,-0.226804 -0.202202,-0.899414 -0.108215,-0.494678 -0.198222,-0.901068 -0.200014,-0.90309 -0.0018,-0.002 -0.03272,-0.0059 -0.06872,-0.0086 -0.113553,-0.0085 -0.138108,-0.0063 -0.140882,0.01297 -6.59e-4,0.0046 0.01031,0.04962 0.02439,0.100111 0.04975,0.178493 0.203737,0.822121 0.200537,0.838192 -6.91e-4,0.0035 -0.0036,-0.0042 -0.0064,-0.01713 -0.0028,-0.01289 -0.02537,-0.108691 -0.05008,-0.212891 -0.268309,-1.131399 -0.533609,-1.951388 -0.683863,-2.11368 -0.05846,-0.06315 -0.08082,-0.04898 -0.15527,0.09834 -0.108981,0.215657 -0.291432,0.700077 -0.554552,1.472377 -0.04355,0.127832 -0.09216,0.271682 -0.108012,0.319668 -0.01585,0.04798 -0.0293,0.0849 -0.02987,0.08203 -5.75e-4,-0.0029 0.04034,-0.129141 0.09093,-0.280606 0.05058,-0.151464 0.09148,-0.278889 0.09089,-0.283166 -0.0017,-0.01247 -0.01951,-0.01789 -0.07159,-0.02184 -0.04842,-0.0037 -0.179804,5.7e-4 -0.194155,0.0063 -0.0041,0.0016 -0.0094,0.01168 -0.01323,0.02475 -0.01039,0.03592 -0.119029,0.381625 -0.347236,1.104994 -0.14642,0.464119 -0.216407,0.68063 -0.220025,0.680664 -0.0036,3.9e-5 -0.0046,-0.0028 -0.0031,-0.0087 z"
       id="path21577" />
    <path
       style="fill:#ac0000;stroke-width:0.00552427"
       d="m 140.10101,123.99918 c 0.003,-0.0143 0.0507,-0.39513 0.0716,-0.5759 0.30206,-2.61515 0.42911,-6.17822 0.34011,-9.53766 -0.003,-0.1109 -0.007,-0.23954 -0.009,-0.28588 l -0.003,-0.0842 h 0.17136 0.17137 l 0.003,0.04 c 0.006,0.0754 0.0302,0.58518 0.0418,0.88803 0.027,0.70526 0.0352,1.25492 0.0315,2.13419 -0.003,0.69562 -0.005,0.83715 -0.0205,1.32952 -0.0619,1.97367 -0.25117,4.03968 -0.54161,5.91317 -0.015,0.0969 -0.0273,0.17957 -0.0273,0.18368 0,0.006 -0.0222,0.007 -0.11611,0.007 h -0.11612 z"
       id="path21616" />
    <path
       style="fill:#ac0000;stroke-width:0.00552427"
       d="m 129.14315,123.98814 c 0.006,-0.0129 0.16931,-0.38394 0.36385,-0.8245 0.37547,-0.85031 0.41794,-0.94839 0.49014,-1.13208 0.66681,-1.6964 1.14206,-4.15801 1.3946,-7.22338 0.029,-0.35194 0.0658,-0.86896 0.0839,-1.17805 l 0.007,-0.11463 h 0.0708 c 0.0638,0 0.0708,9.6e-4 0.0708,0.01 -10e-6,0.0468 -0.0461,0.80324 -0.0692,1.13661 -0.13472,1.94057 -0.34315,3.60515 -0.58519,4.67354 -0.1797,0.79318 -0.59624,2.07343 -1.12067,3.44438 -0.14164,0.37026 -0.32771,0.8391 -0.44288,1.1159 -0.0234,0.0562 -0.0438,0.10531 -0.0454,0.10911 -0.002,0.005 -0.0305,0.007 -0.11528,0.007 h -0.11246 z"
       id="path21655" />
    <path
       style="fill:#ac0000;stroke-width:0.00390625"
       d="m 140.50047,113.48535 c -0.001,-0.0156 -0.004,-0.089 -0.006,-0.16308 -0.0109,-0.34872 -0.0351,-0.89448 -0.0588,-1.32422 -0.0643,-1.16943 -0.16036,-2.25756 -0.27732,-3.14243 -0.009,-0.0644 -0.0155,-0.11845 -0.0155,-0.12018 0,-0.002 0.047,-0.003 0.1044,-0.002 l 0.10441,0.001 0.007,0.0449 c 0.11099,0.75819 0.18293,1.31111 0.25514,1.96093 0.0954,0.8585 0.17372,1.77353 0.22066,2.57813 0.004,0.0741 0.009,0.14839 0.0102,0.16504 l 0.002,0.0303 h -0.17181 -0.17181 z"
       id="path21694" />
    <path
       style="fill:#ac0000;stroke-width:0.0220971"
       d="m 140.14094,108.6569 c -0.0467,-0.28327 -0.12275,-0.77311 -0.12275,-0.79069 0,-0.0118 0.0396,-0.0214 0.088,-0.0214 0.10334,0 0.0894,-0.0374 0.16627,0.44629 0.0729,0.45876 0.0745,0.4376 -0.0323,0.4376 -0.0814,0 -0.0882,-0.005 -0.0992,-0.0718 z"
       id="path21733" />
    <path
       style="fill:#ac0000;stroke-width:0.00390625"
       d="m 131.61914,113.51754 c -0.003,-0.002 -0.0353,-0.004 -0.0713,-0.004 -0.0597,-5e-5 -0.0654,-6.6e-4 -0.0654,-0.007 0,-0.004 0.003,-0.0508 0.006,-0.1045 0.0343,-0.57731 0.0664,-1.3711 0.084,-2.07812 0.0159,-0.63809 0.0209,-1.08329 0.0209,-1.84766 -3e-5,-0.80005 -0.005,-1.26043 -0.0229,-1.9707 -0.003,-0.12783 -0.006,-0.28164 -0.007,-0.3418 -0.002,-0.10289 -0.001,-0.10472 10e-4,-0.0308 0.002,0.0432 0.006,0.20846 0.01,0.36719 0.004,0.15873 0.007,0.30135 0.009,0.31692 l 0.002,0.0283 h 0.07 0.07 l 6.4e-4,-0.20019 6.4e-4,-0.2002 0.003,0.16407 c 0.0312,1.72185 -8.1e-4,3.78737 -0.0864,5.5664 -0.0188,0.39056 -0.0158,0.34661 -0.0234,0.34176 z"
       id="path21772" />
    <path
       style="fill:#ac0000;stroke-width:0.015625"
       d="m 112.92969,163.31682 c 2.95056,-1.84603 5.97215,-4.15732 8.78876,-6.72275 1.34776,-1.22757 2.89433,-2.77922 4.14297,-4.15657 5.02167,-5.53932 8.95058,-11.87677 11.54416,-18.62109 l 0.0586,-0.15235 h 0.16987 0.16987 l -0.0166,0.043 c -0.009,0.0236 -0.0576,0.15195 -0.10769,0.28516 -2.04249,5.43146 -5.13332,10.75277 -9.05297,15.58593 -1.44503,1.78182 -2.86859,3.35974 -4.64982,5.15401 -2.94415,2.9657 -5.704,5.31745 -8.6589,7.37852 -0.39255,0.2738 -1.38387,0.93581 -1.70197,1.13658 l -0.16531,0.10433 -0.28781,-2.6e-4 -0.28782,-2.6e-4 z"
       id="path21811" />
    <path
       style="fill:#ac0000;stroke-width:0.015625"
       d="m 137.58892,133.33203 c 0.94634,-2.5356 1.73825,-5.26081 2.26204,-7.78431 0.0699,-0.33699 0.2506,-1.43039 0.2506,-1.51673 0,-0.004 0.0492,-0.008 0.10938,-0.008 0.0601,0 0.10937,0.004 0.10937,0.009 0,0.024 -0.15075,0.90485 -0.21242,1.24116 -0.36341,1.98188 -0.85714,3.98012 -1.45934,5.90625 -0.22117,0.7074 -0.61,1.85335 -0.81249,2.39453 l -0.0336,0.0898 h -0.16872 -0.16872 z"
       id="path21850" />
    <path
       style="fill:#ac0000;stroke-width:0.00552427"
       d="m 80.3091,172.04918 v -0.14671 l 0.04005,-0.003 c 0.02203,-0.002 0.102199,-0.004 0.178158,-0.006 0.318935,-0.007 1.16884,-0.0379 1.606182,-0.058 0.06608,-0.003 0.174222,-0.008 0.240306,-0.0111 2.622066,-0.12081 5.343856,-0.33907 7.301706,-0.58552 0.715663,-0.0901 1.160087,-0.15728 1.845107,-0.27897 2.490032,-0.44234 4.718703,-0.92539 6.807245,-1.4754 l 0.260983,-0.0687 0.52251,10e-4 0.52251,0.001 -0.178585,0.0492 c -1.378527,0.37964 -2.686621,0.69546 -4.191969,1.0121 -4.92667,1.03627 -9.059584,1.57901 -12.888126,1.69249 -0.481405,0.0143 -0.686716,0.0174 -1.354828,0.0205 l -0.71125,0.003 z"
       id="path21889" />
    <path
       style="fill:#ac0000;stroke-width:0.0220971"
       d="m 98.740833,169.38509 c 0.03038,-0.0103 0.293891,-0.085 0.585573,-0.16605 4.748194,-1.3189 8.894744,-3.07471 12.846404,-5.43967 l 0.71511,-0.42798 0.26821,0.006 0.26822,0.006 -0.29831,0.18627 c -3.90892,2.44078 -8.24321,4.34815 -12.97929,5.71175 l -0.505483,0.14554 -0.477839,-0.002 c -0.292558,-0.001 -0.456418,-0.009 -0.422595,-0.0205 z"
       id="path21928" />
    <path
       style="fill:#ac0000;stroke-width:0.0078125"
       d="m 79.824219,172.183 c -3.166933,-0.069 -6.27727,-0.44248 -9.565145,-1.14856 -1.495546,-0.32118 -3.187183,-0.7504 -4.497355,-1.14113 -0.553271,-0.165 -1.264404,-0.39066 -1.685547,-0.53485 l -0.173828,-0.0595 v -0.17816 -0.17817 l 0.232422,0.0778 c 0.385243,0.1289 0.687777,0.22801 0.947265,0.31031 3.22548,1.02305 6.680974,1.82035 10.417522,2.40368 0.694964,0.1085 0.932306,0.13394 1.492634,0.15998 0.765132,0.0356 2.126916,0.0401 3.142579,0.0106 l 0.173828,-0.005 v 0.14577 0.14577 l -0.107422,-0.001 c -0.05908,-7e-4 -0.228711,-0.004 -0.376953,-0.007 z"
       id="path21967" />
    <path
       style="fill:#ac0000;stroke-width:0.0078125"
       d="m 63.578125,169.18817 c -2.561128,-0.89492 -4.99357,-1.95613 -7.464844,-3.2567 -2.490191,-1.31054 -4.962332,-2.85444 -7.321521,-4.57245 l -0.192616,-0.14027 0.257493,-0.002 0.257493,-0.002 0.255435,0.18617 c 1.322688,0.96404 2.730122,1.89721 4.103091,2.72048 2.306554,1.38307 4.664413,2.56585 7.177956,3.60072 1.011091,0.41628 1.96137,0.77408 3.156029,1.18832 l 0.0957,0.0332 v 0.17863 c 0,0.0983 -8.79e-4,0.17849 -0.002,0.1783 -0.0011,-1.9e-4 -0.146094,-0.0507 -0.322266,-0.11227 z"
       id="path22006" />
    <path
       style="fill:#ac0000;stroke-width:0.015625"
       d="m 48.140523,160.87104 c -3.114553,-2.33502 -5.997355,-4.94489 -8.633844,-7.81642 -3.908331,-4.25675 -7.176151,-9.00037 -9.617484,-13.96087 -0.90512,-1.8391 -1.759021,-3.7608 -2.256451,-5.07813 -0.117536,-0.31126 -0.296807,-0.81007 -0.296807,-0.82583 0,-0.006 0.06594,-0.0101 0.146542,-0.0101 0.14532,0 0.146684,3.6e-4 0.163567,0.043 0.0094,0.0236 0.05872,0.15546 0.109685,0.29296 0.4638,1.25135 1.171874,2.82808 2.266432,5.04688 2.046217,4.14792 4.262673,7.64901 7.008275,11.07022 3.226777,4.02077 7.471773,8.12738 11.606917,11.22853 0.225236,0.16891 0.419815,0.3167 0.4324,0.3284 0.01938,0.018 -0.01527,0.0213 -0.226563,0.0212 H 48.59375 l -0.453227,-0.33979 z"
       id="path22045" />
    <path
       style="fill:#ac0000;stroke-width:0.015625"
       d="m 27.30198,133.10547 c -0.268417,-0.81993 -0.416102,-1.32287 -0.57467,-1.95703 -0.560931,-2.24335 -0.819052,-4.62427 -0.922352,-8.50782 -0.04768,-1.79263 -0.07331,-6.98235 -0.04071,-8.24609 l 0.01279,-0.49609 h 0.15563 0.155629 l -0.0129,0.68359 c -0.03261,1.72811 -0.0077,6.83326 0.04213,8.62891 0.124663,4.4942 0.479246,6.94871 1.387622,9.60547 l 0.124208,0.36328 h -0.151539 -0.151539 z"
       id="path22084" />
    <path
       style="fill:#ac0000;stroke-width:0.0110485"
       d="m 25.775301,113.6536 c 0.0038,-0.13216 0.01185,-0.44166 0.01792,-0.68777 0.05574,-2.26201 0.196913,-4.40675 0.401797,-6.10432 0.06474,-0.5364 0.06722,-0.55367 0.0729,-0.50823 l 0.0055,0.0442 0.129821,-2.9e-4 c 0.110386,-2.5e-4 0.12982,0.002 0.12982,0.0169 0,0.009 -0.01483,0.14883 -0.03295,0.30966 -0.213483,1.8947 -0.338067,4.00465 -0.404612,6.85248 l -0.0074,0.31765 h -0.159842 -0.159842 z"
       id="path22123" />
  </g>
</svg>
