<?xml version="1.0" encoding="UTF-8" standalone="no"?>
<!-- Created with Inkscape (http://www.inkscape.org/) -->

<svg
   version="1.1"
   id="svg33955"
   width="176"
   height="184"
   viewBox="0 0 176 184"
   sodipodi:docname="warlock-symbol.svg"
   inkscape:version="1.1.2 (b8e25be833, 2022-02-05)"
   xmlns:inkscape="http://www.inkscape.org/namespaces/inkscape"
   xmlns:sodipodi="http://sodipodi.sourceforge.net/DTD/sodipodi-0.dtd"
   xmlns="http://www.w3.org/2000/svg"
   xmlns:svg="http://www.w3.org/2000/svg">
  <defs
     id="defs33959" />
  <sodipodi:namedview
     id="namedview33957"
     pagecolor="#ffffff"
     bordercolor="#666666"
     borderopacity="1.0"
     inkscape:pageshadow="2"
     inkscape:pageopacity="0.0"
     inkscape:pagecheckerboard="0"
     showgrid="false"
     inkscape:zoom="1.6774571"
     inkscape:cx="199.1109"
     inkscape:cy="136.51616"
     inkscape:window-width="3440"
     inkscape:window-height="1377"
     inkscape:window-x="-8"
     inkscape:window-y="-8"
     inkscape:window-maximized="1"
     inkscape:current-layer="g33961" />
  <g
     inkscape:groupmode="layer"
     inkscape:label="Image"
     id="g33961">
    <path
       style="fill:#ff0000;fill-opacity:1;stroke-width:1.33333"
       d="m 91.699403,179.26281 c -0.41479,-1.1 -1.27153,-4.7 -1.90386,-8 l -1.14969,-6 -1.71872,7 c -0.9453,3.85 -2.10888,6.99442 -2.58573,6.98761 -0.47686,-0.007 -4.02049,-9.78099 -7.87473,-21.72039 -7.64377,-23.67831 -13.86524,-37.83601 -19.62811,-44.66611 -5.11217,-6.05889 -13.0545,-9.76446 -33.66033,-15.704517 -9.69622,-2.795136 -17.3965302,-5.315022 -17.1118102,-5.599746 0.28472,-0.284722 7.6179902,-1.369869 16.2961602,-2.411437 19.16892,-2.300685 26.47122,-4.779091 29.10876,-9.879537 2.62753,-5.081076 6.78998,-24.37769 8.83842,-40.973816 1.24645,-10.09852 1.31549,-15.80414 0.2662,-22 -0.77919,-4.600966 -1.19948,-8.6117146 -0.93398,-8.9127744 1.02043,-1.1571153 5.88503,4.4808274 8.46543,9.8112164 2.37513,4.906379 2.70031,8.212336 2.70031,27.453427 0,21.729216 0.0174,21.857765 2.61219,19.2457 1.43671,-1.446296 4.40158,-5.911087 6.58861,-9.921756 l 3.9764,-7.292125 1.4114,3.712258 c 0.77627,2.041743 1.4114,4.23779 1.4114,4.880104 0,0.642315 0.57586,1.52375 1.2797,1.958746 0.70384,0.434996 2.11799,-2.079594 3.14256,-5.587978 l 1.86286,-6.378878 4.08294,8 c 8.084507,15.840566 8.208517,15.74907 8.256197,-6.091332 0.0509,-23.303583 1.76586,-30.54725 8.8259,-37.2783668 4.32423,-4.1227685 4.75201,-4.2862898 3.90274,-1.4918313 -3.61846,11.9061501 -3.04248,25.9513861 2.10769,51.3964151 3.25495,16.081421 5.32261,21.273029 9.58462,24.065601 1.843,1.207583 11.32356,3.320663 21.74267,4.846128 10.16111,1.487691 18.64452,2.874671 18.85203,3.082179 0.2075,0.207509 -2.17659,1.114772 -5.29798,2.016141 -30.94566,8.936219 -35.96157,10.949349 -42.48505,17.051299 -8.26019,7.72644 -11.70346,14.87881 -21.92281,45.53809 -4.558527,13.67612 -8.627597,23.96568 -9.042387,22.86568 z M 102.7467,109.0953 c 8.39585,-4.94265 11.09932,-13.219696 7.53733,-23.076599 -2.47741,-6.855622 -4.52889,-7.524385 -12.527007,-4.083688 -6.81877,2.933359 -6.91809,3.058507 -6.20688,7.821094 0.39754,2.662018 -0.11488,7.540033 -1.1387,10.840033 l -1.8615,6 -2.31686,-7.727921 c -1.78891,-5.966906 -1.96126,-8.156416 -0.75633,-9.608264 0.8583,-1.034184 1.24826,-2.385614 0.86659,-3.003176 -1.32186,-2.138806 -14.01111,-7.352638 -16.0192,-6.58206 -2.21194,0.8488 -4.83061,8.77366 -4.84232,14.654301 -0.0144,7.21504 6.46958,15.26343 13.99256,17.36866 5.21943,1.4606 18.98558,-0.0788 23.272317,-2.60238 z M 71.491563,96.674343 c -0.90382,-4.115071 1.06907,-9.411536 3.50572,-9.411536 0.78599,0 1.06488,0.949072 0.61976,2.109049 -0.44513,1.159979 -0.80932,4.159979 -0.80932,6.666667 0,5.586597 -2.13872,5.996667 -3.31616,0.63582 z m 31.336577,0.834142 c -0.0112,-2.064877 -0.64817,-4.927277 -1.41541,-6.360889 -1.963707,-3.669225 -0.0543,-6.337352 2.26518,-3.165271 2.0909,2.85947 2.31875,8.409138 0.46314,11.280484 -1.00318,1.552311 -1.29707,1.159611 -1.31291,-1.754324 z M 58.653533,154.36161 c -14.18711,-7.06227 -26.24709,-19.44392 -33.06974,-33.95176 -2.88319,-6.13087 -5.65281,-12.57611 -6.15473,-14.32275 -0.87682,-3.05127 -0.71096,-3.14014 4.23304,-2.26799 12.20129,2.15239 17.25072,4.65155 20.27685,10.03582 1.60612,2.85771 6.40903,8.70637 10.67313,12.99702 6.84964,6.8923 8.23372,9.2348 11.87974,20.10603 2.26976,6.76765 3.64998,12.30483 3.06717,12.30483 -0.58281,0 -5.49027,-2.20554 -10.90546,-4.9012 z m 49.863927,0.0192 c 1.9554,-9.77699 6.87517,-19.60567 13.4302,-26.83074 3.80261,-4.1913 9.1332,-10.39891 11.84575,-13.79468 4.27183,-5.34777 6.09994,-6.49028 13.65892,-8.5364 4.79986,-1.29926 9.07391,-2.0154 9.49788,-1.59142 1.6205,1.62048 -3.68322,15.64199 -8.83466,23.35632 -8.9961,13.47177 -25.15445,26.63456 -37.17165,30.28048 -2.9589,0.8977 -3.13972,0.68282 -2.42644,-2.88356 z M 18.010293,83.051229 c -0.9137,-1.47839 2.86301,-16.058476 5.95136,-22.97538 3.13771,-7.027469 12.07684,-18.275677 17.71392,-22.289632 l 4.38768,-3.124304 -3.13712,5.075958 c -5.87151,9.500314 -10.73671,18.8536 -10.76093,20.687764 -0.0133,1.006222 3.87585,-1.594515 8.64252,-5.779416 4.76666,-4.184902 8.66666,-7.341163 8.66666,-7.013915 0,0.327247 -1.74262,4.438264 -3.87249,9.135592 -2.12987,4.697328 -4.86922,11.969228 -6.08745,16.159776 -1.21822,4.190549 -2.7194,7.930948 -3.33596,8.312 -2.23237,1.37968 -17.49458,2.901481 -18.16819,1.811557 z M 143.8884,81.739993 c -2.88297,-1.055022 -4.16115,-3.060166 -6.51984,-10.22807 -1.61361,-4.90368 -4.65856,-12.365783 -6.76654,-16.58245 -2.10798,-4.216666 -3.47951,-7.666666 -3.04784,-7.666666 0.43166,0 4.3403,3.391332 8.68586,7.536293 4.69751,4.480661 7.90101,6.709112 7.90101,5.496165 0,-3.1851 -3.90242,-11.743514 -8.20866,-18.00242 -5.38323,-7.824241 -2.88227,-7.146108 5.21308,1.413527 7.38769,7.8114 12.22126,16.368728 15.51356,27.465103 3.34478,11.273336 3.09952,12.108994 -3.51798,11.986069 -3.11666,-0.05789 -7.28036,-0.695793 -9.25265,-1.417551 z m -56.132777,-44.2251 c -3.14565,-8.197426 -1.61238,-26.229239 1.7749,-20.873574 1.46488,2.316129 1.52386,16.846738 0.0833,20.524001 -0.89531,2.285441 -1.10053,2.324048 -1.85821,0.349573 z"
       id="path33965" />
  </g>
</svg>
