<?xml version="1.0" encoding="UTF-8" standalone="no"?>
<!-- Created with Inkscape (http://www.inkscape.org/) -->

<svg
   version="1.1"
   id="svg14603"
   width="140"
   height="173.33333"
   viewBox="0 0 140 173.33333"
   sodipodi:docname="wizard-symbol.svg"
   inkscape:version="1.1.2 (b8e25be833, 2022-02-05)"
   xmlns:inkscape="http://www.inkscape.org/namespaces/inkscape"
   xmlns:sodipodi="http://sodipodi.sourceforge.net/DTD/sodipodi-0.dtd"
   xmlns="http://www.w3.org/2000/svg"
   xmlns:svg="http://www.w3.org/2000/svg">
  <defs
     id="defs14607" />
  <sodipodi:namedview
     id="namedview14605"
     pagecolor="#ffffff"
     bordercolor="#666666"
     borderopacity="1.0"
     inkscape:pageshadow="2"
     inkscape:pageopacity="0.0"
     inkscape:pagecheckerboard="0"
     showgrid="false"
     inkscape:zoom="1.7806853"
     inkscape:cx="21.340099"
     inkscape:cy="132.53324"
     inkscape:window-width="3440"
     inkscape:window-height="1377"
     inkscape:window-x="-8"
     inkscape:window-y="-8"
     inkscape:window-maximized="1"
     inkscape:current-layer="g14609" />
  <g
     inkscape:groupmode="layer"
     inkscape:label="Image"
     id="g14609">
    <path
       style="fill:#ff0000;fill-opacity:1;stroke-width:1.33333"
       d="m 69.416364,167.22824 c -0.39772,-1.1 -1.41347,-4.7 -2.25721,-8 -0.84376,-3.3 -4.70352,-11.23806 -8.57726,-17.64016 -9.65564,-15.95775 -11.94893,-25.03294 -10.94979,-43.331303 0.43131,-7.899025 1.16247,-15.861863 1.6248,-17.695197 l 0.8406,-3.333333 -2.96222,3.333333 c -5.96608,6.713515 -9.54696,16.879679 -9.55327,27.12181 -0.007,11.25085 2.47544,19.16249 9.73269,31.01944 2.86997,4.68897 4.84799,8.52541 4.39559,8.52541 -1.93565,0 -19.0953,-13.7904 -26.02275,-20.91326 -8.99599,-9.24974 -18.4592999,-22.56576 -18.4592999,-25.97444 0,-2.052693 1.09404,-2.445627 6.8093199,-2.445627 5.81313,0 6.68431,-0.32577 5.95483,-2.226765 -2.05328,-5.350756 -3.42363,-14.434397 -4.26337,-28.260462 l -0.90169,-14.846105 h 9.27895 c 6.09452,0 10.16718,0.671825 11.86712,1.957596 1.4235,1.076677 2.95962,1.976677 3.41361,2 0.45398,0.02332 6.39256,-9.779581 13.19683,-21.78423 6.80427,-12.004649 13.49317,-23.254649 14.86423,-25.0000005 l 2.49284,-3.1733651 3.11319,3.7746456 c 1.71225,2.076055 8.37619,13.036557 14.80875,24.356672 6.43256,11.320114 12.259076,20.930301 12.947826,21.355969 0.68875,0.425669 2.31171,-0.184834 3.60657,-1.356672 1.70479,-1.542812 5.04262,-2.130615 12.09866,-2.130615 h 9.74436 l -0.94619,13 c -0.5204,7.15 -1.80261,17.089225 -2.84934,22.087167 -1.04674,4.997943 -1.90316,9.269911 -1.90316,9.493264 0,0.223352 2.72964,0.713764 6.06586,1.089805 3.33623,0.376042 6.40912,1.02697 6.82866,1.446507 1.10039,1.100376 -5.13043,11.291606 -12.23853,20.017546 -6.97186,8.55869 -21.754976,21.41087 -29.880776,25.97783 l -5.49124,3.08624 5.90145,-8.44208 c 8.432396,-12.06267 11.976146,-23.29915 11.022766,-34.95087 -0.76576,-9.358742 -5.458766,-21.417023 -9.707816,-24.943419 -1.90025,-1.577067 -1.99455,-0.844607 -0.96937,7.528823 1.45636,11.895183 1.09865,25.759856 -0.87707,33.995606 -0.85493,3.56374 -4.79826,11.96904 -8.76297,18.67843 -3.9647,6.7094 -8.35706,15.88956 -9.7608,20.40036 -1.45471,4.67459 -2.86322,7.3414 -3.27538,6.20145 z m 7.99183,-60 c 0.72392,-14.310401 -1.19421,-32.475938 -5.70193,-53.999992 -0.82448,-3.936827 -0.85607,-3.950402 -2.00021,-0.859474 -0.63938,1.72729 -2.35845,9.782224 -3.82016,17.899855 -4.38707,24.363737 -3.3722,54.116801 2.29527,67.290971 l 2.15183,5.00198 3.14977,-10 c 2.17901,-6.91799 3.38884,-14.72575 3.92543,-25.33334 z m -31.51328,48.38583 c -20.1628,-3.53468 -31.53396,-12.57376 -34.10497,-27.11048 l -0.8151,-4.60868 3.70232,4.66667 c 6.95996,8.77284 16.98654,17.23184 26.10421,22.02305 5.01245,2.63396 9.11354,5.05631 9.11354,5.38299 0,0.32668 -0.15,0.51225 -0.33333,0.41238 -0.18334,-0.0999 -1.83334,-0.44453 -3.66667,-0.76593 z m 53.66563,-4.78596 c 9.987786,-5.6896 18.524866,-12.89919 25.051696,-21.15625 l 5.25754,-6.65128 -0.82728,4.43717 c -1.35196,7.25132 -7.17181,16.76696 -12.32806,20.15677 -5.72308,3.76246 -16.58563,7.62042 -21.390376,7.59704 -2.83241,-0.0137 -2.09517,-0.7766 4.23648,-4.38345 z M 106.96719,40.868632 c -0.8323,-2.002211 -4.08352,-9.206272 -7.224936,-16.009022 l -5.71165,-12.36864 4.05024,2.36864 c 5.900666,3.450792 13.809556,12.466114 17.739166,20.220817 l 3.42525,6.759412 -3.67517,0.805568 c -2.02135,0.443062 -4.44343,1.043628 -5.3824,1.334589 -0.93898,0.290961 -2.3882,-1.109152 -3.2205,-3.111364 z m -85.072276,-0.07988 c 0,-5.13279 22.41853,-31.2785569 23.54193,-27.455945 0.19862,0.675829 -2.76707,7.52878 -6.5904,15.228779 -6.8416,13.778618 -7.03059,14.006544 -11.95153,14.41382 -4.21014,0.348448 -5,0.003 -5,-2.186654 z"
       id="path14693" />
  </g>
</svg>
