<?xml version="1.0" encoding="UTF-8" standalone="no"?>
<!-- Created with Inkscape (http://www.inkscape.org/) -->

<svg
   version="1.1"
   id="svg14603"
   width="140"
   height="173.33333"
   viewBox="0 0 140 173.33333"
   sodipodi:docname="wizard-symbol.svg"
   inkscape:version="1.1.2 (b8e25be833, 2022-02-05)"
   xmlns:inkscape="http://www.inkscape.org/namespaces/inkscape"
   xmlns:sodipodi="http://sodipodi.sourceforge.net/DTD/sodipodi-0.dtd"
   xmlns="http://www.w3.org/2000/svg"
   xmlns:svg="http://www.w3.org/2000/svg">
  <defs
     id="defs14607" />
  <sodipodi:namedview
     id="namedview14605"
     pagecolor="#ffffff"
     bordercolor="#666666"
     borderopacity="1.0"
     inkscape:pageshadow="2"
     inkscape:pageopacity="0.0"
     inkscape:pagecheckerboard="0"
     showgrid="false"
     inkscape:zoom="7.1227412"
     inkscape:cx="99.540329"
     inkscape:cy="102.20784"
     inkscape:window-width="3440"
     inkscape:window-height="1377"
     inkscape:window-x="-8"
     inkscape:window-y="-8"
     inkscape:window-maximized="1"
     inkscape:current-layer="g14609" />
  <g
     inkscape:groupmode="layer"
     inkscape:label="Image"
     id="g14609">
    <path
       style="fill:#ff0000;fill-opacity:1;stroke-width:1.33333"
       d="m 69.416364,167.22824 c -0.39772,-1.1 -1.41347,-4.7 -2.25721,-8 -0.84376,-3.3 -4.70352,-11.23806 -8.57726,-17.64016 -9.65564,-15.95775 -11.94893,-25.03294 -10.94979,-43.331303 0.43131,-7.899025 1.16247,-15.861863 1.6248,-17.695197 l 0.8406,-3.333333 -2.96222,3.333333 c -5.96608,6.713515 -9.54696,16.879679 -9.55327,27.12181 -0.007,11.25085 2.47544,19.16249 9.73269,31.01944 2.86997,4.68897 4.84799,8.52541 4.39559,8.52541 -1.93565,0 -19.0953,-13.7904 -26.02275,-20.91326 -8.99599,-9.24974 -18.4592999,-22.56576 -18.4592999,-25.97444 0,-2.052693 1.09404,-2.445627 6.8093199,-2.445627 5.81313,0 6.68431,-0.32577 5.95483,-2.226765 -2.05328,-5.350756 -3.42363,-14.434397 -4.26337,-28.260462 l -0.90169,-14.846105 h 9.27895 c 6.09452,0 10.16718,0.671825 11.86712,1.957596 1.4235,1.076677 2.95962,1.976677 3.41361,2 0.45398,0.02332 6.39256,-9.779581 13.19683,-21.78423 6.80427,-12.004649 13.49317,-23.254649 14.86423,-25.0000005 l 2.49284,-3.1733651 3.11319,3.7746456 c 1.71225,2.076055 8.37619,13.036557 14.80875,24.356672 6.43256,11.320114 12.259076,20.930301 12.947826,21.355969 0.68875,0.425669 2.31171,-0.184834 3.60657,-1.356672 1.70479,-1.542812 5.04262,-2.130615 12.09866,-2.130615 h 9.74436 l -0.94619,13 c -0.5204,7.15 -1.80261,17.089225 -2.84934,22.087167 -1.04674,4.997943 -1.90316,9.269911 -1.90316,9.493264 0,0.223352 2.72964,0.713764 6.06586,1.089805 3.33623,0.376042 6.40912,1.02697 6.82866,1.446507 1.10039,1.100376 -5.13043,11.291606 -12.23853,20.017546 -6.97186,8.55869 -21.754976,21.41087 -29.880776,25.97783 l -5.49124,3.08624 5.90145,-8.44208 c 8.432396,-12.06267 11.976146,-23.29915 11.022766,-34.95087 -0.76576,-9.358742 -5.458766,-21.417023 -9.707816,-24.943419 -1.90025,-1.577067 -1.99455,-0.844607 -0.96937,7.528823 1.45636,11.895183 1.09865,25.759856 -0.87707,33.995606 -0.85493,3.56374 -4.79826,11.96904 -8.76297,18.67843 -3.9647,6.7094 -8.35706,15.88956 -9.7608,20.40036 -1.45471,4.67459 -2.86322,7.3414 -3.27538,6.20145 z m 7.99183,-60 c 0.72392,-14.310401 -1.19421,-32.475938 -5.70193,-53.999992 -0.82448,-3.936827 -0.85607,-3.950402 -2.00021,-0.859474 -0.63938,1.72729 -2.35845,9.782224 -3.82016,17.899855 -4.38707,24.363737 -3.3722,54.116801 2.29527,67.290971 l 2.15183,5.00198 3.14977,-10 c 2.17901,-6.91799 3.38884,-14.72575 3.92543,-25.33334 z m -31.51328,48.38583 c -20.1628,-3.53468 -31.53396,-12.57376 -34.10497,-27.11048 l -0.8151,-4.60868 3.70232,4.66667 c 6.95996,8.77284 16.98654,17.23184 26.10421,22.02305 5.01245,2.63396 9.11354,5.05631 9.11354,5.38299 0,0.32668 -0.15,0.51225 -0.33333,0.41238 -0.18334,-0.0999 -1.83334,-0.44453 -3.66667,-0.76593 z m 53.66563,-4.78596 c 9.987786,-5.6896 18.524866,-12.89919 25.051696,-21.15625 l 5.25754,-6.65128 -0.82728,4.43717 c -1.35196,7.25132 -7.17181,16.76696 -12.32806,20.15677 -5.72308,3.76246 -16.58563,7.62042 -21.390376,7.59704 -2.83241,-0.0137 -2.09517,-0.7766 4.23648,-4.38345 z M 106.96719,40.868632 c -0.8323,-2.002211 -4.08352,-9.206272 -7.224936,-16.009022 l -5.71165,-12.36864 4.05024,2.36864 c 5.900666,3.450792 13.809556,12.466114 17.739166,20.220817 l 3.42525,6.759412 -3.67517,0.805568 c -2.02135,0.443062 -4.44343,1.043628 -5.3824,1.334589 -0.93898,0.290961 -2.3882,-1.109152 -3.2205,-3.111364 z m -85.072276,-0.07988 c 0,-5.13279 22.41853,-31.2785569 23.54193,-27.455945 0.19862,0.675829 -2.76707,7.52878 -6.5904,15.228779 -6.8416,13.778618 -7.03059,14.006544 -11.95153,14.41382 -4.21014,0.348448 -5,0.003 -5,-2.186654 z"
       id="path14693" />
    <path
       style="fill:#ac0000;stroke-width:0.561582"
       d="m 68.279375,162.17493 c -1.608105,-5.89646 -4.26593,-11.8391 -8.861745,-19.81401 -8.369373,-14.52301 -10.360941,-19.89346 -11.382867,-30.69498 -0.707072,-7.47359 0.525523,-27.860632 2.006352,-33.184919 0.564553,-2.029842 -0.435177,-1.422323 -3.288092,1.998113 -3.184991,3.818563 -6.705398,10.794243 -7.989968,15.832101 -1.442451,5.657045 -1.709256,14.502245 -0.625001,20.720255 1.184305,6.79179 3.296066,12.03472 8.571041,21.27957 2.341914,4.1044 4.140364,7.58022 3.996557,7.72402 -0.851197,0.8512 -16.801404,-12.09866 -24.660108,-20.02135 -8.722685,-8.79372 -18.6793474,-22.77232 -18.3406233,-25.74921 0.1986586,-1.745927 1.55369,-2.139596 7.6158013,-2.212562 5.418237,-0.06522 5.714036,-0.359339 4.412396,-4.38735 -1.908791,-5.906889 -3.14764,-15.888535 -4.190281,-33.761917 l -0.403999,-6.925513 8.997236,0.186534 8.997237,0.186535 3.217903,1.859952 3.217902,1.859951 2.469622,-3.825487 C 43.39703,51.140645 48.304171,42.82446 52.943495,34.764251 61.913975,19.179234 66.954722,10.836149 68.710423,8.6679458 c 0.945855,-1.1680756 1.19386,-1.2345944 2.026523,-0.543543 1.623712,1.3475598 7.682419,10.9458992 16.317965,25.8512802 10.411716,17.971149 13.262189,22.460792 14.261219,22.462169 0.43617,6.18e-4 1.95244,-0.693864 3.36949,-1.543256 2.49402,-1.494936 2.87825,-1.550369 12.00862,-1.732493 l 9.43217,-0.188143 -0.303,2.71526 c -0.16666,1.493393 -0.56212,6.000513 -0.87881,10.015821 -0.71746,9.096773 -1.33285,13.651233 -3.17142,23.471373 -0.79774,4.260899 -1.29969,7.897853 -1.11542,8.082113 0.18426,0.184267 3.01473,0.782446 6.28993,1.329292 3.27519,0.546846 6.09718,1.13654 6.27107,1.310434 0.52947,0.529467 -3.17142,7.226707 -6.80269,12.310367 -7.05144,9.87176 -17.10558,20.04058 -27.591264,27.90598 -4.724344,3.54376 -10.289179,7.0127 -10.658025,6.64386 -0.13811,-0.13812 1.27931,-2.5108 3.149826,-5.27263 6.63056,-9.79008 9.769633,-16.74108 11.186673,-24.77122 1.03389,-5.85884 0.44093,-14.98264 -1.37304,-21.126872 -2.384443,-8.076537 -6.958182,-16.12395 -9.164023,-16.12395 -0.753935,0 -0.821487,0.644157 -0.485841,4.633048 1.600602,19.021854 1.453406,29.547764 -0.520441,37.216244 -0.869373,3.37755 -4.396279,10.8026 -12.531916,26.38287 -2.41926,4.63304 -5.07982,10.47201 -5.912353,12.97548 -2.389895,7.18654 -2.660218,7.28248 -4.236291,1.5035 z m 4.657527,-26.83378 c 5.507959,-18.09866 6.259939,-36.528069 2.543487,-62.335549 -1.46639,-10.182771 -3.82305,-22.322128 -4.460406,-22.975896 -0.679575,-0.697078 -1.49666,1.576639 -3.110465,8.655566 -3.433409,15.060607 -4.779671,27.080586 -4.805487,42.905419 -0.02022,12.39873 0.670264,20.55733 2.357356,27.85386 1.286028,5.56194 4.425751,13.75449 5.017333,13.09183 0.22402,-0.25094 1.330201,-3.48879 2.458182,-7.19523 z"
       id="path58974" />
    <path
       style="fill:#ac0000;stroke-width:0.561582"
       d="M 108.52667,42.539802 C 107.60233,41.501636 95.065364,14.255843 95.371248,13.949959 c 0.09819,-0.09819 1.388753,0.588985 2.867924,1.527047 6.320018,4.008037 13.711558,12.751446 18.002288,21.294798 l 2.45089,4.880023 -4.03039,0.942569 c -4.95593,1.159019 -5.05553,1.158133 -6.13529,-0.05459 z"
       id="path59013" />
    <path
       style="fill:#ac0000;stroke-width:0.561582"
       d="m 22.750105,42.125908 c -0.38118,-0.459293 -0.543878,-1.429445 -0.361552,-2.155893 0.525488,-2.093709 5.382598,-9.172114 10.278836,-14.979636 5.920986,-7.022998 12.539925,-13.150696 12.539925,-11.609243 0,1.926382 -11.773988,25.481149 -13.696571,27.401043 -2.093867,2.090938 -7.457713,2.913659 -8.760638,1.343729 z"
       id="path59052" />
    <path
       style="fill:#ac0000;stroke-width:0.561582"
       d="m 94.874156,154.20773 c 0.172673,-0.27939 1.767035,-1.32407 3.543027,-2.3215 9.922187,-5.57252 19.879107,-13.95137 26.901867,-22.63821 3.04566,-3.76733 3.56391,-4.19979 3.56391,-2.97385 0,2.05801 -2.34894,8.23891 -4.56162,12.00323 -4.31444,7.33995 -10.23808,11.53084 -21.15972,14.97019 -4.603548,1.44971 -8.897488,1.94718 -8.287464,0.96014 z"
       id="path59091" />
    <path
       style="fill:#ac0000;stroke-width:0.561582"
       d="m 44.084151,154.96114 c -14.313783,-3.09173 -24.342221,-9.1787 -28.793326,-17.47671 -1.425544,-2.65759 -4.053109,-11.32186 -3.577693,-11.79728 0.111235,-0.11123 1.250967,1.1571 2.53274,2.81851 3.543084,4.5925 13.28865,13.79299 18.325858,17.30089 2.470958,1.72077 7.146125,4.5842 10.389258,6.36317 3.243134,1.77898 6.001903,3.3323 6.130599,3.45183 0.400348,0.37184 -1.214352,0.15888 -5.007436,-0.66041 z"
       id="path59130" />
  </g>
</svg>
